%TF.GenerationSoftware,KiCad,Pcbnew,7.0.6*%
%TF.CreationDate,2024-09-27T12:31:37-07:00*%
%TF.ProjectId,microphone,6d696372-6f70-4686-9f6e-652e6b696361,rev?*%
%TF.SameCoordinates,Original*%
%TF.FileFunction,Drillmap*%
%TF.FilePolarity,Positive*%
%FSLAX45Y45*%
G04 Gerber Fmt 4.5, Leading zero omitted, Abs format (unit mm)*
G04 Created by KiCad (PCBNEW 7.0.6) date 2024-09-27 12:31:37*
%MOMM*%
%LPD*%
G01*
G04 APERTURE LIST*
%ADD10C,0.100000*%
%ADD11C,0.200000*%
%ADD12C,0.050000*%
%ADD13C,0.320000*%
G04 APERTURE END LIST*
D10*
X21733000Y-14384000D02*
G75*
G03*
X22033000Y-14684000I300000J0D01*
G01*
X23812000Y-13489000D02*
G75*
G03*
X23512000Y-13189000I-300000J0D01*
G01*
X23512000Y-14684000D02*
G75*
G03*
X23812000Y-14384000I0J300000D01*
G01*
X22033000Y-13189000D02*
X23512000Y-13189000D01*
X23512000Y-14684000D02*
X22033000Y-14684000D01*
X21733000Y-14384000D02*
X21733000Y-13489000D01*
X22033000Y-13189000D02*
G75*
G03*
X21733000Y-13489000I0J-300000D01*
G01*
X23812000Y-13489000D02*
X23812000Y-14384000D01*
D11*
D12*
X22620550Y-14098000D02*
X22670550Y-14148000D01*
X22670550Y-14098000D02*
X22620550Y-14148000D01*
D13*
X22280000Y-14309000D02*
G75*
G03*
X22280000Y-14309000I-160000J0D01*
G01*
X23592000Y-14310000D02*
G75*
G03*
X23592000Y-14310000I-160000J0D01*
G01*
D11*
X21988777Y-15000484D02*
X21988777Y-14800484D01*
X21988777Y-14800484D02*
X22036396Y-14800484D01*
X22036396Y-14800484D02*
X22064967Y-14810008D01*
X22064967Y-14810008D02*
X22084015Y-14829055D01*
X22084015Y-14829055D02*
X22093539Y-14848103D01*
X22093539Y-14848103D02*
X22103063Y-14886198D01*
X22103063Y-14886198D02*
X22103063Y-14914769D01*
X22103063Y-14914769D02*
X22093539Y-14952865D01*
X22093539Y-14952865D02*
X22084015Y-14971912D01*
X22084015Y-14971912D02*
X22064967Y-14990960D01*
X22064967Y-14990960D02*
X22036396Y-15000484D01*
X22036396Y-15000484D02*
X21988777Y-15000484D01*
X22188777Y-15000484D02*
X22188777Y-14867150D01*
X22188777Y-14905246D02*
X22198301Y-14886198D01*
X22198301Y-14886198D02*
X22207824Y-14876674D01*
X22207824Y-14876674D02*
X22226872Y-14867150D01*
X22226872Y-14867150D02*
X22245920Y-14867150D01*
X22312586Y-15000484D02*
X22312586Y-14867150D01*
X22312586Y-14800484D02*
X22303063Y-14810008D01*
X22303063Y-14810008D02*
X22312586Y-14819531D01*
X22312586Y-14819531D02*
X22322110Y-14810008D01*
X22322110Y-14810008D02*
X22312586Y-14800484D01*
X22312586Y-14800484D02*
X22312586Y-14819531D01*
X22436396Y-15000484D02*
X22417348Y-14990960D01*
X22417348Y-14990960D02*
X22407824Y-14971912D01*
X22407824Y-14971912D02*
X22407824Y-14800484D01*
X22541158Y-15000484D02*
X22522110Y-14990960D01*
X22522110Y-14990960D02*
X22512586Y-14971912D01*
X22512586Y-14971912D02*
X22512586Y-14800484D01*
X22769729Y-15000484D02*
X22769729Y-14800484D01*
X22769729Y-14800484D02*
X22836396Y-14943341D01*
X22836396Y-14943341D02*
X22903062Y-14800484D01*
X22903062Y-14800484D02*
X22903062Y-15000484D01*
X23084015Y-15000484D02*
X23084015Y-14895722D01*
X23084015Y-14895722D02*
X23074491Y-14876674D01*
X23074491Y-14876674D02*
X23055443Y-14867150D01*
X23055443Y-14867150D02*
X23017348Y-14867150D01*
X23017348Y-14867150D02*
X22998301Y-14876674D01*
X23084015Y-14990960D02*
X23064967Y-15000484D01*
X23064967Y-15000484D02*
X23017348Y-15000484D01*
X23017348Y-15000484D02*
X22998301Y-14990960D01*
X22998301Y-14990960D02*
X22988777Y-14971912D01*
X22988777Y-14971912D02*
X22988777Y-14952865D01*
X22988777Y-14952865D02*
X22998301Y-14933817D01*
X22998301Y-14933817D02*
X23017348Y-14924293D01*
X23017348Y-14924293D02*
X23064967Y-14924293D01*
X23064967Y-14924293D02*
X23084015Y-14914769D01*
X23179253Y-14867150D02*
X23179253Y-15067150D01*
X23179253Y-14876674D02*
X23198301Y-14867150D01*
X23198301Y-14867150D02*
X23236396Y-14867150D01*
X23236396Y-14867150D02*
X23255443Y-14876674D01*
X23255443Y-14876674D02*
X23264967Y-14886198D01*
X23264967Y-14886198D02*
X23274491Y-14905246D01*
X23274491Y-14905246D02*
X23274491Y-14962388D01*
X23274491Y-14962388D02*
X23264967Y-14981436D01*
X23264967Y-14981436D02*
X23255443Y-14990960D01*
X23255443Y-14990960D02*
X23236396Y-15000484D01*
X23236396Y-15000484D02*
X23198301Y-15000484D01*
X23198301Y-15000484D02*
X23179253Y-14990960D01*
X23360205Y-14981436D02*
X23369729Y-14990960D01*
X23369729Y-14990960D02*
X23360205Y-15000484D01*
X23360205Y-15000484D02*
X23350682Y-14990960D01*
X23350682Y-14990960D02*
X23360205Y-14981436D01*
X23360205Y-14981436D02*
X23360205Y-15000484D01*
X23360205Y-14876674D02*
X23369729Y-14886198D01*
X23369729Y-14886198D02*
X23360205Y-14895722D01*
X23360205Y-14895722D02*
X23350682Y-14886198D01*
X23350682Y-14886198D02*
X23360205Y-14876674D01*
X23360205Y-14876674D02*
X23360205Y-14895722D01*
D12*
X21678000Y-15304000D02*
X21728000Y-15354000D01*
X21728000Y-15304000D02*
X21678000Y-15354000D01*
D11*
X22026872Y-15220484D02*
X22045920Y-15220484D01*
X22045920Y-15220484D02*
X22064967Y-15230008D01*
X22064967Y-15230008D02*
X22074491Y-15239531D01*
X22074491Y-15239531D02*
X22084015Y-15258579D01*
X22084015Y-15258579D02*
X22093539Y-15296674D01*
X22093539Y-15296674D02*
X22093539Y-15344293D01*
X22093539Y-15344293D02*
X22084015Y-15382388D01*
X22084015Y-15382388D02*
X22074491Y-15401436D01*
X22074491Y-15401436D02*
X22064967Y-15410960D01*
X22064967Y-15410960D02*
X22045920Y-15420484D01*
X22045920Y-15420484D02*
X22026872Y-15420484D01*
X22026872Y-15420484D02*
X22007824Y-15410960D01*
X22007824Y-15410960D02*
X21998301Y-15401436D01*
X21998301Y-15401436D02*
X21988777Y-15382388D01*
X21988777Y-15382388D02*
X21979253Y-15344293D01*
X21979253Y-15344293D02*
X21979253Y-15296674D01*
X21979253Y-15296674D02*
X21988777Y-15258579D01*
X21988777Y-15258579D02*
X21998301Y-15239531D01*
X21998301Y-15239531D02*
X22007824Y-15230008D01*
X22007824Y-15230008D02*
X22026872Y-15220484D01*
X22179253Y-15401436D02*
X22188777Y-15410960D01*
X22188777Y-15410960D02*
X22179253Y-15420484D01*
X22179253Y-15420484D02*
X22169729Y-15410960D01*
X22169729Y-15410960D02*
X22179253Y-15401436D01*
X22179253Y-15401436D02*
X22179253Y-15420484D01*
X22369729Y-15220484D02*
X22274491Y-15220484D01*
X22274491Y-15220484D02*
X22264967Y-15315722D01*
X22264967Y-15315722D02*
X22274491Y-15306198D01*
X22274491Y-15306198D02*
X22293539Y-15296674D01*
X22293539Y-15296674D02*
X22341158Y-15296674D01*
X22341158Y-15296674D02*
X22360205Y-15306198D01*
X22360205Y-15306198D02*
X22369729Y-15315722D01*
X22369729Y-15315722D02*
X22379253Y-15334769D01*
X22379253Y-15334769D02*
X22379253Y-15382388D01*
X22379253Y-15382388D02*
X22369729Y-15401436D01*
X22369729Y-15401436D02*
X22360205Y-15410960D01*
X22360205Y-15410960D02*
X22341158Y-15420484D01*
X22341158Y-15420484D02*
X22293539Y-15420484D01*
X22293539Y-15420484D02*
X22274491Y-15410960D01*
X22274491Y-15410960D02*
X22264967Y-15401436D01*
X22503062Y-15220484D02*
X22522110Y-15220484D01*
X22522110Y-15220484D02*
X22541158Y-15230008D01*
X22541158Y-15230008D02*
X22550682Y-15239531D01*
X22550682Y-15239531D02*
X22560205Y-15258579D01*
X22560205Y-15258579D02*
X22569729Y-15296674D01*
X22569729Y-15296674D02*
X22569729Y-15344293D01*
X22569729Y-15344293D02*
X22560205Y-15382388D01*
X22560205Y-15382388D02*
X22550682Y-15401436D01*
X22550682Y-15401436D02*
X22541158Y-15410960D01*
X22541158Y-15410960D02*
X22522110Y-15420484D01*
X22522110Y-15420484D02*
X22503062Y-15420484D01*
X22503062Y-15420484D02*
X22484015Y-15410960D01*
X22484015Y-15410960D02*
X22474491Y-15401436D01*
X22474491Y-15401436D02*
X22464967Y-15382388D01*
X22464967Y-15382388D02*
X22455443Y-15344293D01*
X22455443Y-15344293D02*
X22455443Y-15296674D01*
X22455443Y-15296674D02*
X22464967Y-15258579D01*
X22464967Y-15258579D02*
X22474491Y-15239531D01*
X22474491Y-15239531D02*
X22484015Y-15230008D01*
X22484015Y-15230008D02*
X22503062Y-15220484D01*
X22693539Y-15220484D02*
X22712586Y-15220484D01*
X22712586Y-15220484D02*
X22731634Y-15230008D01*
X22731634Y-15230008D02*
X22741158Y-15239531D01*
X22741158Y-15239531D02*
X22750682Y-15258579D01*
X22750682Y-15258579D02*
X22760205Y-15296674D01*
X22760205Y-15296674D02*
X22760205Y-15344293D01*
X22760205Y-15344293D02*
X22750682Y-15382388D01*
X22750682Y-15382388D02*
X22741158Y-15401436D01*
X22741158Y-15401436D02*
X22731634Y-15410960D01*
X22731634Y-15410960D02*
X22712586Y-15420484D01*
X22712586Y-15420484D02*
X22693539Y-15420484D01*
X22693539Y-15420484D02*
X22674491Y-15410960D01*
X22674491Y-15410960D02*
X22664967Y-15401436D01*
X22664967Y-15401436D02*
X22655443Y-15382388D01*
X22655443Y-15382388D02*
X22645920Y-15344293D01*
X22645920Y-15344293D02*
X22645920Y-15296674D01*
X22645920Y-15296674D02*
X22655443Y-15258579D01*
X22655443Y-15258579D02*
X22664967Y-15239531D01*
X22664967Y-15239531D02*
X22674491Y-15230008D01*
X22674491Y-15230008D02*
X22693539Y-15220484D01*
X22845920Y-15420484D02*
X22845920Y-15287150D01*
X22845920Y-15306198D02*
X22855443Y-15296674D01*
X22855443Y-15296674D02*
X22874491Y-15287150D01*
X22874491Y-15287150D02*
X22903063Y-15287150D01*
X22903063Y-15287150D02*
X22922110Y-15296674D01*
X22922110Y-15296674D02*
X22931634Y-15315722D01*
X22931634Y-15315722D02*
X22931634Y-15420484D01*
X22931634Y-15315722D02*
X22941158Y-15296674D01*
X22941158Y-15296674D02*
X22960205Y-15287150D01*
X22960205Y-15287150D02*
X22988777Y-15287150D01*
X22988777Y-15287150D02*
X23007824Y-15296674D01*
X23007824Y-15296674D02*
X23017348Y-15315722D01*
X23017348Y-15315722D02*
X23017348Y-15420484D01*
X23112586Y-15420484D02*
X23112586Y-15287150D01*
X23112586Y-15306198D02*
X23122110Y-15296674D01*
X23122110Y-15296674D02*
X23141158Y-15287150D01*
X23141158Y-15287150D02*
X23169729Y-15287150D01*
X23169729Y-15287150D02*
X23188777Y-15296674D01*
X23188777Y-15296674D02*
X23198301Y-15315722D01*
X23198301Y-15315722D02*
X23198301Y-15420484D01*
X23198301Y-15315722D02*
X23207824Y-15296674D01*
X23207824Y-15296674D02*
X23226872Y-15287150D01*
X23226872Y-15287150D02*
X23255443Y-15287150D01*
X23255443Y-15287150D02*
X23274491Y-15296674D01*
X23274491Y-15296674D02*
X23284015Y-15315722D01*
X23284015Y-15315722D02*
X23284015Y-15420484D01*
X23674491Y-15210960D02*
X23503063Y-15468103D01*
X23931634Y-15220484D02*
X23950682Y-15220484D01*
X23950682Y-15220484D02*
X23969729Y-15230008D01*
X23969729Y-15230008D02*
X23979253Y-15239531D01*
X23979253Y-15239531D02*
X23988777Y-15258579D01*
X23988777Y-15258579D02*
X23998301Y-15296674D01*
X23998301Y-15296674D02*
X23998301Y-15344293D01*
X23998301Y-15344293D02*
X23988777Y-15382388D01*
X23988777Y-15382388D02*
X23979253Y-15401436D01*
X23979253Y-15401436D02*
X23969729Y-15410960D01*
X23969729Y-15410960D02*
X23950682Y-15420484D01*
X23950682Y-15420484D02*
X23931634Y-15420484D01*
X23931634Y-15420484D02*
X23912586Y-15410960D01*
X23912586Y-15410960D02*
X23903063Y-15401436D01*
X23903063Y-15401436D02*
X23893539Y-15382388D01*
X23893539Y-15382388D02*
X23884015Y-15344293D01*
X23884015Y-15344293D02*
X23884015Y-15296674D01*
X23884015Y-15296674D02*
X23893539Y-15258579D01*
X23893539Y-15258579D02*
X23903063Y-15239531D01*
X23903063Y-15239531D02*
X23912586Y-15230008D01*
X23912586Y-15230008D02*
X23931634Y-15220484D01*
X24084015Y-15401436D02*
X24093539Y-15410960D01*
X24093539Y-15410960D02*
X24084015Y-15420484D01*
X24084015Y-15420484D02*
X24074491Y-15410960D01*
X24074491Y-15410960D02*
X24084015Y-15401436D01*
X24084015Y-15401436D02*
X24084015Y-15420484D01*
X24217348Y-15220484D02*
X24236396Y-15220484D01*
X24236396Y-15220484D02*
X24255444Y-15230008D01*
X24255444Y-15230008D02*
X24264967Y-15239531D01*
X24264967Y-15239531D02*
X24274491Y-15258579D01*
X24274491Y-15258579D02*
X24284015Y-15296674D01*
X24284015Y-15296674D02*
X24284015Y-15344293D01*
X24284015Y-15344293D02*
X24274491Y-15382388D01*
X24274491Y-15382388D02*
X24264967Y-15401436D01*
X24264967Y-15401436D02*
X24255444Y-15410960D01*
X24255444Y-15410960D02*
X24236396Y-15420484D01*
X24236396Y-15420484D02*
X24217348Y-15420484D01*
X24217348Y-15420484D02*
X24198301Y-15410960D01*
X24198301Y-15410960D02*
X24188777Y-15401436D01*
X24188777Y-15401436D02*
X24179253Y-15382388D01*
X24179253Y-15382388D02*
X24169729Y-15344293D01*
X24169729Y-15344293D02*
X24169729Y-15296674D01*
X24169729Y-15296674D02*
X24179253Y-15258579D01*
X24179253Y-15258579D02*
X24188777Y-15239531D01*
X24188777Y-15239531D02*
X24198301Y-15230008D01*
X24198301Y-15230008D02*
X24217348Y-15220484D01*
X24474491Y-15420484D02*
X24360206Y-15420484D01*
X24417348Y-15420484D02*
X24417348Y-15220484D01*
X24417348Y-15220484D02*
X24398301Y-15249055D01*
X24398301Y-15249055D02*
X24379253Y-15268103D01*
X24379253Y-15268103D02*
X24360206Y-15277627D01*
X24569729Y-15420484D02*
X24607825Y-15420484D01*
X24607825Y-15420484D02*
X24626872Y-15410960D01*
X24626872Y-15410960D02*
X24636396Y-15401436D01*
X24636396Y-15401436D02*
X24655444Y-15372865D01*
X24655444Y-15372865D02*
X24664967Y-15334769D01*
X24664967Y-15334769D02*
X24664967Y-15258579D01*
X24664967Y-15258579D02*
X24655444Y-15239531D01*
X24655444Y-15239531D02*
X24645920Y-15230008D01*
X24645920Y-15230008D02*
X24626872Y-15220484D01*
X24626872Y-15220484D02*
X24588777Y-15220484D01*
X24588777Y-15220484D02*
X24569729Y-15230008D01*
X24569729Y-15230008D02*
X24560206Y-15239531D01*
X24560206Y-15239531D02*
X24550682Y-15258579D01*
X24550682Y-15258579D02*
X24550682Y-15306198D01*
X24550682Y-15306198D02*
X24560206Y-15325246D01*
X24560206Y-15325246D02*
X24569729Y-15334769D01*
X24569729Y-15334769D02*
X24588777Y-15344293D01*
X24588777Y-15344293D02*
X24626872Y-15344293D01*
X24626872Y-15344293D02*
X24645920Y-15334769D01*
X24645920Y-15334769D02*
X24655444Y-15325246D01*
X24655444Y-15325246D02*
X24664967Y-15306198D01*
X24731634Y-15220484D02*
X24864967Y-15220484D01*
X24864967Y-15220484D02*
X24779253Y-15420484D01*
X24931634Y-15220484D02*
X24931634Y-15258579D01*
X25007825Y-15220484D02*
X25007825Y-15258579D01*
X25303063Y-15496674D02*
X25293539Y-15487150D01*
X25293539Y-15487150D02*
X25274491Y-15458579D01*
X25274491Y-15458579D02*
X25264968Y-15439531D01*
X25264968Y-15439531D02*
X25255444Y-15410960D01*
X25255444Y-15410960D02*
X25245920Y-15363341D01*
X25245920Y-15363341D02*
X25245920Y-15325246D01*
X25245920Y-15325246D02*
X25255444Y-15277627D01*
X25255444Y-15277627D02*
X25264968Y-15249055D01*
X25264968Y-15249055D02*
X25274491Y-15230008D01*
X25274491Y-15230008D02*
X25293539Y-15201436D01*
X25293539Y-15201436D02*
X25303063Y-15191912D01*
X25484015Y-15420484D02*
X25369729Y-15420484D01*
X25426872Y-15420484D02*
X25426872Y-15220484D01*
X25426872Y-15220484D02*
X25407825Y-15249055D01*
X25407825Y-15249055D02*
X25388777Y-15268103D01*
X25388777Y-15268103D02*
X25369729Y-15277627D01*
X25722110Y-15420484D02*
X25722110Y-15220484D01*
X25807825Y-15420484D02*
X25807825Y-15315722D01*
X25807825Y-15315722D02*
X25798301Y-15296674D01*
X25798301Y-15296674D02*
X25779253Y-15287150D01*
X25779253Y-15287150D02*
X25750682Y-15287150D01*
X25750682Y-15287150D02*
X25731634Y-15296674D01*
X25731634Y-15296674D02*
X25722110Y-15306198D01*
X25931634Y-15420484D02*
X25912587Y-15410960D01*
X25912587Y-15410960D02*
X25903063Y-15401436D01*
X25903063Y-15401436D02*
X25893539Y-15382388D01*
X25893539Y-15382388D02*
X25893539Y-15325246D01*
X25893539Y-15325246D02*
X25903063Y-15306198D01*
X25903063Y-15306198D02*
X25912587Y-15296674D01*
X25912587Y-15296674D02*
X25931634Y-15287150D01*
X25931634Y-15287150D02*
X25960206Y-15287150D01*
X25960206Y-15287150D02*
X25979253Y-15296674D01*
X25979253Y-15296674D02*
X25988777Y-15306198D01*
X25988777Y-15306198D02*
X25998301Y-15325246D01*
X25998301Y-15325246D02*
X25998301Y-15382388D01*
X25998301Y-15382388D02*
X25988777Y-15401436D01*
X25988777Y-15401436D02*
X25979253Y-15410960D01*
X25979253Y-15410960D02*
X25960206Y-15420484D01*
X25960206Y-15420484D02*
X25931634Y-15420484D01*
X26112587Y-15420484D02*
X26093539Y-15410960D01*
X26093539Y-15410960D02*
X26084015Y-15391912D01*
X26084015Y-15391912D02*
X26084015Y-15220484D01*
X26264968Y-15410960D02*
X26245920Y-15420484D01*
X26245920Y-15420484D02*
X26207825Y-15420484D01*
X26207825Y-15420484D02*
X26188777Y-15410960D01*
X26188777Y-15410960D02*
X26179253Y-15391912D01*
X26179253Y-15391912D02*
X26179253Y-15315722D01*
X26179253Y-15315722D02*
X26188777Y-15296674D01*
X26188777Y-15296674D02*
X26207825Y-15287150D01*
X26207825Y-15287150D02*
X26245920Y-15287150D01*
X26245920Y-15287150D02*
X26264968Y-15296674D01*
X26264968Y-15296674D02*
X26274491Y-15315722D01*
X26274491Y-15315722D02*
X26274491Y-15334769D01*
X26274491Y-15334769D02*
X26179253Y-15353817D01*
X26341158Y-15496674D02*
X26350682Y-15487150D01*
X26350682Y-15487150D02*
X26369730Y-15458579D01*
X26369730Y-15458579D02*
X26379253Y-15439531D01*
X26379253Y-15439531D02*
X26388777Y-15410960D01*
X26388777Y-15410960D02*
X26398301Y-15363341D01*
X26398301Y-15363341D02*
X26398301Y-15325246D01*
X26398301Y-15325246D02*
X26388777Y-15277627D01*
X26388777Y-15277627D02*
X26379253Y-15249055D01*
X26379253Y-15249055D02*
X26369730Y-15230008D01*
X26369730Y-15230008D02*
X26350682Y-15201436D01*
X26350682Y-15201436D02*
X26341158Y-15191912D01*
X26703063Y-15496674D02*
X26693539Y-15487150D01*
X26693539Y-15487150D02*
X26674491Y-15458579D01*
X26674491Y-15458579D02*
X26664968Y-15439531D01*
X26664968Y-15439531D02*
X26655444Y-15410960D01*
X26655444Y-15410960D02*
X26645920Y-15363341D01*
X26645920Y-15363341D02*
X26645920Y-15325246D01*
X26645920Y-15325246D02*
X26655444Y-15277627D01*
X26655444Y-15277627D02*
X26664968Y-15249055D01*
X26664968Y-15249055D02*
X26674491Y-15230008D01*
X26674491Y-15230008D02*
X26693539Y-15201436D01*
X26693539Y-15201436D02*
X26703063Y-15191912D01*
X26779253Y-15287150D02*
X26779253Y-15420484D01*
X26779253Y-15306198D02*
X26788777Y-15296674D01*
X26788777Y-15296674D02*
X26807825Y-15287150D01*
X26807825Y-15287150D02*
X26836396Y-15287150D01*
X26836396Y-15287150D02*
X26855444Y-15296674D01*
X26855444Y-15296674D02*
X26864968Y-15315722D01*
X26864968Y-15315722D02*
X26864968Y-15420484D01*
X26988777Y-15420484D02*
X26969730Y-15410960D01*
X26969730Y-15410960D02*
X26960206Y-15401436D01*
X26960206Y-15401436D02*
X26950682Y-15382388D01*
X26950682Y-15382388D02*
X26950682Y-15325246D01*
X26950682Y-15325246D02*
X26960206Y-15306198D01*
X26960206Y-15306198D02*
X26969730Y-15296674D01*
X26969730Y-15296674D02*
X26988777Y-15287150D01*
X26988777Y-15287150D02*
X27017349Y-15287150D01*
X27017349Y-15287150D02*
X27036396Y-15296674D01*
X27036396Y-15296674D02*
X27045920Y-15306198D01*
X27045920Y-15306198D02*
X27055444Y-15325246D01*
X27055444Y-15325246D02*
X27055444Y-15382388D01*
X27055444Y-15382388D02*
X27045920Y-15401436D01*
X27045920Y-15401436D02*
X27036396Y-15410960D01*
X27036396Y-15410960D02*
X27017349Y-15420484D01*
X27017349Y-15420484D02*
X26988777Y-15420484D01*
X27112587Y-15287150D02*
X27188777Y-15287150D01*
X27141158Y-15220484D02*
X27141158Y-15391912D01*
X27141158Y-15391912D02*
X27150682Y-15410960D01*
X27150682Y-15410960D02*
X27169730Y-15420484D01*
X27169730Y-15420484D02*
X27188777Y-15420484D01*
X27407825Y-15287150D02*
X27407825Y-15487150D01*
X27407825Y-15296674D02*
X27426872Y-15287150D01*
X27426872Y-15287150D02*
X27464968Y-15287150D01*
X27464968Y-15287150D02*
X27484015Y-15296674D01*
X27484015Y-15296674D02*
X27493539Y-15306198D01*
X27493539Y-15306198D02*
X27503063Y-15325246D01*
X27503063Y-15325246D02*
X27503063Y-15382388D01*
X27503063Y-15382388D02*
X27493539Y-15401436D01*
X27493539Y-15401436D02*
X27484015Y-15410960D01*
X27484015Y-15410960D02*
X27464968Y-15420484D01*
X27464968Y-15420484D02*
X27426872Y-15420484D01*
X27426872Y-15420484D02*
X27407825Y-15410960D01*
X27617349Y-15420484D02*
X27598301Y-15410960D01*
X27598301Y-15410960D02*
X27588777Y-15391912D01*
X27588777Y-15391912D02*
X27588777Y-15220484D01*
X27779253Y-15420484D02*
X27779253Y-15315722D01*
X27779253Y-15315722D02*
X27769730Y-15296674D01*
X27769730Y-15296674D02*
X27750682Y-15287150D01*
X27750682Y-15287150D02*
X27712587Y-15287150D01*
X27712587Y-15287150D02*
X27693539Y-15296674D01*
X27779253Y-15410960D02*
X27760206Y-15420484D01*
X27760206Y-15420484D02*
X27712587Y-15420484D01*
X27712587Y-15420484D02*
X27693539Y-15410960D01*
X27693539Y-15410960D02*
X27684015Y-15391912D01*
X27684015Y-15391912D02*
X27684015Y-15372865D01*
X27684015Y-15372865D02*
X27693539Y-15353817D01*
X27693539Y-15353817D02*
X27712587Y-15344293D01*
X27712587Y-15344293D02*
X27760206Y-15344293D01*
X27760206Y-15344293D02*
X27779253Y-15334769D01*
X27845920Y-15287150D02*
X27922111Y-15287150D01*
X27874492Y-15220484D02*
X27874492Y-15391912D01*
X27874492Y-15391912D02*
X27884015Y-15410960D01*
X27884015Y-15410960D02*
X27903063Y-15420484D01*
X27903063Y-15420484D02*
X27922111Y-15420484D01*
X28064968Y-15410960D02*
X28045920Y-15420484D01*
X28045920Y-15420484D02*
X28007825Y-15420484D01*
X28007825Y-15420484D02*
X27988777Y-15410960D01*
X27988777Y-15410960D02*
X27979253Y-15391912D01*
X27979253Y-15391912D02*
X27979253Y-15315722D01*
X27979253Y-15315722D02*
X27988777Y-15296674D01*
X27988777Y-15296674D02*
X28007825Y-15287150D01*
X28007825Y-15287150D02*
X28045920Y-15287150D01*
X28045920Y-15287150D02*
X28064968Y-15296674D01*
X28064968Y-15296674D02*
X28074492Y-15315722D01*
X28074492Y-15315722D02*
X28074492Y-15334769D01*
X28074492Y-15334769D02*
X27979253Y-15353817D01*
X28245920Y-15420484D02*
X28245920Y-15220484D01*
X28245920Y-15410960D02*
X28226873Y-15420484D01*
X28226873Y-15420484D02*
X28188777Y-15420484D01*
X28188777Y-15420484D02*
X28169730Y-15410960D01*
X28169730Y-15410960D02*
X28160206Y-15401436D01*
X28160206Y-15401436D02*
X28150682Y-15382388D01*
X28150682Y-15382388D02*
X28150682Y-15325246D01*
X28150682Y-15325246D02*
X28160206Y-15306198D01*
X28160206Y-15306198D02*
X28169730Y-15296674D01*
X28169730Y-15296674D02*
X28188777Y-15287150D01*
X28188777Y-15287150D02*
X28226873Y-15287150D01*
X28226873Y-15287150D02*
X28245920Y-15296674D01*
X28322111Y-15496674D02*
X28331634Y-15487150D01*
X28331634Y-15487150D02*
X28350682Y-15458579D01*
X28350682Y-15458579D02*
X28360206Y-15439531D01*
X28360206Y-15439531D02*
X28369730Y-15410960D01*
X28369730Y-15410960D02*
X28379253Y-15363341D01*
X28379253Y-15363341D02*
X28379253Y-15325246D01*
X28379253Y-15325246D02*
X28369730Y-15277627D01*
X28369730Y-15277627D02*
X28360206Y-15249055D01*
X28360206Y-15249055D02*
X28350682Y-15230008D01*
X28350682Y-15230008D02*
X28331634Y-15201436D01*
X28331634Y-15201436D02*
X28322111Y-15191912D01*
X21728000Y-15593000D02*
G75*
G03*
X21728000Y-15593000I-100000J0D01*
G01*
X21969729Y-15484484D02*
X22093539Y-15484484D01*
X22093539Y-15484484D02*
X22026872Y-15560674D01*
X22026872Y-15560674D02*
X22055444Y-15560674D01*
X22055444Y-15560674D02*
X22074491Y-15570198D01*
X22074491Y-15570198D02*
X22084015Y-15579722D01*
X22084015Y-15579722D02*
X22093539Y-15598769D01*
X22093539Y-15598769D02*
X22093539Y-15646388D01*
X22093539Y-15646388D02*
X22084015Y-15665436D01*
X22084015Y-15665436D02*
X22074491Y-15674960D01*
X22074491Y-15674960D02*
X22055444Y-15684484D01*
X22055444Y-15684484D02*
X21998301Y-15684484D01*
X21998301Y-15684484D02*
X21979253Y-15674960D01*
X21979253Y-15674960D02*
X21969729Y-15665436D01*
X22179253Y-15665436D02*
X22188777Y-15674960D01*
X22188777Y-15674960D02*
X22179253Y-15684484D01*
X22179253Y-15684484D02*
X22169729Y-15674960D01*
X22169729Y-15674960D02*
X22179253Y-15665436D01*
X22179253Y-15665436D02*
X22179253Y-15684484D01*
X22264967Y-15503531D02*
X22274491Y-15494008D01*
X22274491Y-15494008D02*
X22293539Y-15484484D01*
X22293539Y-15484484D02*
X22341158Y-15484484D01*
X22341158Y-15484484D02*
X22360205Y-15494008D01*
X22360205Y-15494008D02*
X22369729Y-15503531D01*
X22369729Y-15503531D02*
X22379253Y-15522579D01*
X22379253Y-15522579D02*
X22379253Y-15541627D01*
X22379253Y-15541627D02*
X22369729Y-15570198D01*
X22369729Y-15570198D02*
X22255444Y-15684484D01*
X22255444Y-15684484D02*
X22379253Y-15684484D01*
X22503062Y-15484484D02*
X22522110Y-15484484D01*
X22522110Y-15484484D02*
X22541158Y-15494008D01*
X22541158Y-15494008D02*
X22550682Y-15503531D01*
X22550682Y-15503531D02*
X22560205Y-15522579D01*
X22560205Y-15522579D02*
X22569729Y-15560674D01*
X22569729Y-15560674D02*
X22569729Y-15608293D01*
X22569729Y-15608293D02*
X22560205Y-15646388D01*
X22560205Y-15646388D02*
X22550682Y-15665436D01*
X22550682Y-15665436D02*
X22541158Y-15674960D01*
X22541158Y-15674960D02*
X22522110Y-15684484D01*
X22522110Y-15684484D02*
X22503062Y-15684484D01*
X22503062Y-15684484D02*
X22484015Y-15674960D01*
X22484015Y-15674960D02*
X22474491Y-15665436D01*
X22474491Y-15665436D02*
X22464967Y-15646388D01*
X22464967Y-15646388D02*
X22455443Y-15608293D01*
X22455443Y-15608293D02*
X22455443Y-15560674D01*
X22455443Y-15560674D02*
X22464967Y-15522579D01*
X22464967Y-15522579D02*
X22474491Y-15503531D01*
X22474491Y-15503531D02*
X22484015Y-15494008D01*
X22484015Y-15494008D02*
X22503062Y-15484484D01*
X22693539Y-15484484D02*
X22712586Y-15484484D01*
X22712586Y-15484484D02*
X22731634Y-15494008D01*
X22731634Y-15494008D02*
X22741158Y-15503531D01*
X22741158Y-15503531D02*
X22750682Y-15522579D01*
X22750682Y-15522579D02*
X22760205Y-15560674D01*
X22760205Y-15560674D02*
X22760205Y-15608293D01*
X22760205Y-15608293D02*
X22750682Y-15646388D01*
X22750682Y-15646388D02*
X22741158Y-15665436D01*
X22741158Y-15665436D02*
X22731634Y-15674960D01*
X22731634Y-15674960D02*
X22712586Y-15684484D01*
X22712586Y-15684484D02*
X22693539Y-15684484D01*
X22693539Y-15684484D02*
X22674491Y-15674960D01*
X22674491Y-15674960D02*
X22664967Y-15665436D01*
X22664967Y-15665436D02*
X22655443Y-15646388D01*
X22655443Y-15646388D02*
X22645920Y-15608293D01*
X22645920Y-15608293D02*
X22645920Y-15560674D01*
X22645920Y-15560674D02*
X22655443Y-15522579D01*
X22655443Y-15522579D02*
X22664967Y-15503531D01*
X22664967Y-15503531D02*
X22674491Y-15494008D01*
X22674491Y-15494008D02*
X22693539Y-15484484D01*
X22845920Y-15684484D02*
X22845920Y-15551150D01*
X22845920Y-15570198D02*
X22855443Y-15560674D01*
X22855443Y-15560674D02*
X22874491Y-15551150D01*
X22874491Y-15551150D02*
X22903063Y-15551150D01*
X22903063Y-15551150D02*
X22922110Y-15560674D01*
X22922110Y-15560674D02*
X22931634Y-15579722D01*
X22931634Y-15579722D02*
X22931634Y-15684484D01*
X22931634Y-15579722D02*
X22941158Y-15560674D01*
X22941158Y-15560674D02*
X22960205Y-15551150D01*
X22960205Y-15551150D02*
X22988777Y-15551150D01*
X22988777Y-15551150D02*
X23007824Y-15560674D01*
X23007824Y-15560674D02*
X23017348Y-15579722D01*
X23017348Y-15579722D02*
X23017348Y-15684484D01*
X23112586Y-15684484D02*
X23112586Y-15551150D01*
X23112586Y-15570198D02*
X23122110Y-15560674D01*
X23122110Y-15560674D02*
X23141158Y-15551150D01*
X23141158Y-15551150D02*
X23169729Y-15551150D01*
X23169729Y-15551150D02*
X23188777Y-15560674D01*
X23188777Y-15560674D02*
X23198301Y-15579722D01*
X23198301Y-15579722D02*
X23198301Y-15684484D01*
X23198301Y-15579722D02*
X23207824Y-15560674D01*
X23207824Y-15560674D02*
X23226872Y-15551150D01*
X23226872Y-15551150D02*
X23255443Y-15551150D01*
X23255443Y-15551150D02*
X23274491Y-15560674D01*
X23274491Y-15560674D02*
X23284015Y-15579722D01*
X23284015Y-15579722D02*
X23284015Y-15684484D01*
X23674491Y-15474960D02*
X23503063Y-15732103D01*
X23931634Y-15484484D02*
X23950682Y-15484484D01*
X23950682Y-15484484D02*
X23969729Y-15494008D01*
X23969729Y-15494008D02*
X23979253Y-15503531D01*
X23979253Y-15503531D02*
X23988777Y-15522579D01*
X23988777Y-15522579D02*
X23998301Y-15560674D01*
X23998301Y-15560674D02*
X23998301Y-15608293D01*
X23998301Y-15608293D02*
X23988777Y-15646388D01*
X23988777Y-15646388D02*
X23979253Y-15665436D01*
X23979253Y-15665436D02*
X23969729Y-15674960D01*
X23969729Y-15674960D02*
X23950682Y-15684484D01*
X23950682Y-15684484D02*
X23931634Y-15684484D01*
X23931634Y-15684484D02*
X23912586Y-15674960D01*
X23912586Y-15674960D02*
X23903063Y-15665436D01*
X23903063Y-15665436D02*
X23893539Y-15646388D01*
X23893539Y-15646388D02*
X23884015Y-15608293D01*
X23884015Y-15608293D02*
X23884015Y-15560674D01*
X23884015Y-15560674D02*
X23893539Y-15522579D01*
X23893539Y-15522579D02*
X23903063Y-15503531D01*
X23903063Y-15503531D02*
X23912586Y-15494008D01*
X23912586Y-15494008D02*
X23931634Y-15484484D01*
X24084015Y-15665436D02*
X24093539Y-15674960D01*
X24093539Y-15674960D02*
X24084015Y-15684484D01*
X24084015Y-15684484D02*
X24074491Y-15674960D01*
X24074491Y-15674960D02*
X24084015Y-15665436D01*
X24084015Y-15665436D02*
X24084015Y-15684484D01*
X24284015Y-15684484D02*
X24169729Y-15684484D01*
X24226872Y-15684484D02*
X24226872Y-15484484D01*
X24226872Y-15484484D02*
X24207825Y-15513055D01*
X24207825Y-15513055D02*
X24188777Y-15532103D01*
X24188777Y-15532103D02*
X24169729Y-15541627D01*
X24360206Y-15503531D02*
X24369729Y-15494008D01*
X24369729Y-15494008D02*
X24388777Y-15484484D01*
X24388777Y-15484484D02*
X24436396Y-15484484D01*
X24436396Y-15484484D02*
X24455444Y-15494008D01*
X24455444Y-15494008D02*
X24464967Y-15503531D01*
X24464967Y-15503531D02*
X24474491Y-15522579D01*
X24474491Y-15522579D02*
X24474491Y-15541627D01*
X24474491Y-15541627D02*
X24464967Y-15570198D01*
X24464967Y-15570198D02*
X24350682Y-15684484D01*
X24350682Y-15684484D02*
X24474491Y-15684484D01*
X24645920Y-15484484D02*
X24607825Y-15484484D01*
X24607825Y-15484484D02*
X24588777Y-15494008D01*
X24588777Y-15494008D02*
X24579253Y-15503531D01*
X24579253Y-15503531D02*
X24560206Y-15532103D01*
X24560206Y-15532103D02*
X24550682Y-15570198D01*
X24550682Y-15570198D02*
X24550682Y-15646388D01*
X24550682Y-15646388D02*
X24560206Y-15665436D01*
X24560206Y-15665436D02*
X24569729Y-15674960D01*
X24569729Y-15674960D02*
X24588777Y-15684484D01*
X24588777Y-15684484D02*
X24626872Y-15684484D01*
X24626872Y-15684484D02*
X24645920Y-15674960D01*
X24645920Y-15674960D02*
X24655444Y-15665436D01*
X24655444Y-15665436D02*
X24664967Y-15646388D01*
X24664967Y-15646388D02*
X24664967Y-15598769D01*
X24664967Y-15598769D02*
X24655444Y-15579722D01*
X24655444Y-15579722D02*
X24645920Y-15570198D01*
X24645920Y-15570198D02*
X24626872Y-15560674D01*
X24626872Y-15560674D02*
X24588777Y-15560674D01*
X24588777Y-15560674D02*
X24569729Y-15570198D01*
X24569729Y-15570198D02*
X24560206Y-15579722D01*
X24560206Y-15579722D02*
X24550682Y-15598769D01*
X24788777Y-15484484D02*
X24807825Y-15484484D01*
X24807825Y-15484484D02*
X24826872Y-15494008D01*
X24826872Y-15494008D02*
X24836396Y-15503531D01*
X24836396Y-15503531D02*
X24845920Y-15522579D01*
X24845920Y-15522579D02*
X24855444Y-15560674D01*
X24855444Y-15560674D02*
X24855444Y-15608293D01*
X24855444Y-15608293D02*
X24845920Y-15646388D01*
X24845920Y-15646388D02*
X24836396Y-15665436D01*
X24836396Y-15665436D02*
X24826872Y-15674960D01*
X24826872Y-15674960D02*
X24807825Y-15684484D01*
X24807825Y-15684484D02*
X24788777Y-15684484D01*
X24788777Y-15684484D02*
X24769729Y-15674960D01*
X24769729Y-15674960D02*
X24760206Y-15665436D01*
X24760206Y-15665436D02*
X24750682Y-15646388D01*
X24750682Y-15646388D02*
X24741158Y-15608293D01*
X24741158Y-15608293D02*
X24741158Y-15560674D01*
X24741158Y-15560674D02*
X24750682Y-15522579D01*
X24750682Y-15522579D02*
X24760206Y-15503531D01*
X24760206Y-15503531D02*
X24769729Y-15494008D01*
X24769729Y-15494008D02*
X24788777Y-15484484D01*
X24931634Y-15484484D02*
X24931634Y-15522579D01*
X25007825Y-15484484D02*
X25007825Y-15522579D01*
X25303063Y-15760674D02*
X25293539Y-15751150D01*
X25293539Y-15751150D02*
X25274491Y-15722579D01*
X25274491Y-15722579D02*
X25264968Y-15703531D01*
X25264968Y-15703531D02*
X25255444Y-15674960D01*
X25255444Y-15674960D02*
X25245920Y-15627341D01*
X25245920Y-15627341D02*
X25245920Y-15589246D01*
X25245920Y-15589246D02*
X25255444Y-15541627D01*
X25255444Y-15541627D02*
X25264968Y-15513055D01*
X25264968Y-15513055D02*
X25274491Y-15494008D01*
X25274491Y-15494008D02*
X25293539Y-15465436D01*
X25293539Y-15465436D02*
X25303063Y-15455912D01*
X25369729Y-15503531D02*
X25379253Y-15494008D01*
X25379253Y-15494008D02*
X25398301Y-15484484D01*
X25398301Y-15484484D02*
X25445920Y-15484484D01*
X25445920Y-15484484D02*
X25464968Y-15494008D01*
X25464968Y-15494008D02*
X25474491Y-15503531D01*
X25474491Y-15503531D02*
X25484015Y-15522579D01*
X25484015Y-15522579D02*
X25484015Y-15541627D01*
X25484015Y-15541627D02*
X25474491Y-15570198D01*
X25474491Y-15570198D02*
X25360206Y-15684484D01*
X25360206Y-15684484D02*
X25484015Y-15684484D01*
X25722110Y-15684484D02*
X25722110Y-15484484D01*
X25807825Y-15684484D02*
X25807825Y-15579722D01*
X25807825Y-15579722D02*
X25798301Y-15560674D01*
X25798301Y-15560674D02*
X25779253Y-15551150D01*
X25779253Y-15551150D02*
X25750682Y-15551150D01*
X25750682Y-15551150D02*
X25731634Y-15560674D01*
X25731634Y-15560674D02*
X25722110Y-15570198D01*
X25931634Y-15684484D02*
X25912587Y-15674960D01*
X25912587Y-15674960D02*
X25903063Y-15665436D01*
X25903063Y-15665436D02*
X25893539Y-15646388D01*
X25893539Y-15646388D02*
X25893539Y-15589246D01*
X25893539Y-15589246D02*
X25903063Y-15570198D01*
X25903063Y-15570198D02*
X25912587Y-15560674D01*
X25912587Y-15560674D02*
X25931634Y-15551150D01*
X25931634Y-15551150D02*
X25960206Y-15551150D01*
X25960206Y-15551150D02*
X25979253Y-15560674D01*
X25979253Y-15560674D02*
X25988777Y-15570198D01*
X25988777Y-15570198D02*
X25998301Y-15589246D01*
X25998301Y-15589246D02*
X25998301Y-15646388D01*
X25998301Y-15646388D02*
X25988777Y-15665436D01*
X25988777Y-15665436D02*
X25979253Y-15674960D01*
X25979253Y-15674960D02*
X25960206Y-15684484D01*
X25960206Y-15684484D02*
X25931634Y-15684484D01*
X26112587Y-15684484D02*
X26093539Y-15674960D01*
X26093539Y-15674960D02*
X26084015Y-15655912D01*
X26084015Y-15655912D02*
X26084015Y-15484484D01*
X26264968Y-15674960D02*
X26245920Y-15684484D01*
X26245920Y-15684484D02*
X26207825Y-15684484D01*
X26207825Y-15684484D02*
X26188777Y-15674960D01*
X26188777Y-15674960D02*
X26179253Y-15655912D01*
X26179253Y-15655912D02*
X26179253Y-15579722D01*
X26179253Y-15579722D02*
X26188777Y-15560674D01*
X26188777Y-15560674D02*
X26207825Y-15551150D01*
X26207825Y-15551150D02*
X26245920Y-15551150D01*
X26245920Y-15551150D02*
X26264968Y-15560674D01*
X26264968Y-15560674D02*
X26274491Y-15579722D01*
X26274491Y-15579722D02*
X26274491Y-15598769D01*
X26274491Y-15598769D02*
X26179253Y-15617817D01*
X26350682Y-15674960D02*
X26369730Y-15684484D01*
X26369730Y-15684484D02*
X26407825Y-15684484D01*
X26407825Y-15684484D02*
X26426872Y-15674960D01*
X26426872Y-15674960D02*
X26436396Y-15655912D01*
X26436396Y-15655912D02*
X26436396Y-15646388D01*
X26436396Y-15646388D02*
X26426872Y-15627341D01*
X26426872Y-15627341D02*
X26407825Y-15617817D01*
X26407825Y-15617817D02*
X26379253Y-15617817D01*
X26379253Y-15617817D02*
X26360206Y-15608293D01*
X26360206Y-15608293D02*
X26350682Y-15589246D01*
X26350682Y-15589246D02*
X26350682Y-15579722D01*
X26350682Y-15579722D02*
X26360206Y-15560674D01*
X26360206Y-15560674D02*
X26379253Y-15551150D01*
X26379253Y-15551150D02*
X26407825Y-15551150D01*
X26407825Y-15551150D02*
X26426872Y-15560674D01*
X26503063Y-15760674D02*
X26512587Y-15751150D01*
X26512587Y-15751150D02*
X26531634Y-15722579D01*
X26531634Y-15722579D02*
X26541158Y-15703531D01*
X26541158Y-15703531D02*
X26550682Y-15674960D01*
X26550682Y-15674960D02*
X26560206Y-15627341D01*
X26560206Y-15627341D02*
X26560206Y-15589246D01*
X26560206Y-15589246D02*
X26550682Y-15541627D01*
X26550682Y-15541627D02*
X26541158Y-15513055D01*
X26541158Y-15513055D02*
X26531634Y-15494008D01*
X26531634Y-15494008D02*
X26512587Y-15465436D01*
X26512587Y-15465436D02*
X26503063Y-15455912D01*
X26864968Y-15760674D02*
X26855444Y-15751150D01*
X26855444Y-15751150D02*
X26836396Y-15722579D01*
X26836396Y-15722579D02*
X26826872Y-15703531D01*
X26826872Y-15703531D02*
X26817349Y-15674960D01*
X26817349Y-15674960D02*
X26807825Y-15627341D01*
X26807825Y-15627341D02*
X26807825Y-15589246D01*
X26807825Y-15589246D02*
X26817349Y-15541627D01*
X26817349Y-15541627D02*
X26826872Y-15513055D01*
X26826872Y-15513055D02*
X26836396Y-15494008D01*
X26836396Y-15494008D02*
X26855444Y-15465436D01*
X26855444Y-15465436D02*
X26864968Y-15455912D01*
X26941158Y-15551150D02*
X26941158Y-15684484D01*
X26941158Y-15570198D02*
X26950682Y-15560674D01*
X26950682Y-15560674D02*
X26969730Y-15551150D01*
X26969730Y-15551150D02*
X26998301Y-15551150D01*
X26998301Y-15551150D02*
X27017349Y-15560674D01*
X27017349Y-15560674D02*
X27026872Y-15579722D01*
X27026872Y-15579722D02*
X27026872Y-15684484D01*
X27150682Y-15684484D02*
X27131634Y-15674960D01*
X27131634Y-15674960D02*
X27122111Y-15665436D01*
X27122111Y-15665436D02*
X27112587Y-15646388D01*
X27112587Y-15646388D02*
X27112587Y-15589246D01*
X27112587Y-15589246D02*
X27122111Y-15570198D01*
X27122111Y-15570198D02*
X27131634Y-15560674D01*
X27131634Y-15560674D02*
X27150682Y-15551150D01*
X27150682Y-15551150D02*
X27179253Y-15551150D01*
X27179253Y-15551150D02*
X27198301Y-15560674D01*
X27198301Y-15560674D02*
X27207825Y-15570198D01*
X27207825Y-15570198D02*
X27217349Y-15589246D01*
X27217349Y-15589246D02*
X27217349Y-15646388D01*
X27217349Y-15646388D02*
X27207825Y-15665436D01*
X27207825Y-15665436D02*
X27198301Y-15674960D01*
X27198301Y-15674960D02*
X27179253Y-15684484D01*
X27179253Y-15684484D02*
X27150682Y-15684484D01*
X27274492Y-15551150D02*
X27350682Y-15551150D01*
X27303063Y-15484484D02*
X27303063Y-15655912D01*
X27303063Y-15655912D02*
X27312587Y-15674960D01*
X27312587Y-15674960D02*
X27331634Y-15684484D01*
X27331634Y-15684484D02*
X27350682Y-15684484D01*
X27569730Y-15551150D02*
X27569730Y-15751150D01*
X27569730Y-15560674D02*
X27588777Y-15551150D01*
X27588777Y-15551150D02*
X27626873Y-15551150D01*
X27626873Y-15551150D02*
X27645920Y-15560674D01*
X27645920Y-15560674D02*
X27655444Y-15570198D01*
X27655444Y-15570198D02*
X27664968Y-15589246D01*
X27664968Y-15589246D02*
X27664968Y-15646388D01*
X27664968Y-15646388D02*
X27655444Y-15665436D01*
X27655444Y-15665436D02*
X27645920Y-15674960D01*
X27645920Y-15674960D02*
X27626873Y-15684484D01*
X27626873Y-15684484D02*
X27588777Y-15684484D01*
X27588777Y-15684484D02*
X27569730Y-15674960D01*
X27779253Y-15684484D02*
X27760206Y-15674960D01*
X27760206Y-15674960D02*
X27750682Y-15655912D01*
X27750682Y-15655912D02*
X27750682Y-15484484D01*
X27941158Y-15684484D02*
X27941158Y-15579722D01*
X27941158Y-15579722D02*
X27931634Y-15560674D01*
X27931634Y-15560674D02*
X27912587Y-15551150D01*
X27912587Y-15551150D02*
X27874492Y-15551150D01*
X27874492Y-15551150D02*
X27855444Y-15560674D01*
X27941158Y-15674960D02*
X27922111Y-15684484D01*
X27922111Y-15684484D02*
X27874492Y-15684484D01*
X27874492Y-15684484D02*
X27855444Y-15674960D01*
X27855444Y-15674960D02*
X27845920Y-15655912D01*
X27845920Y-15655912D02*
X27845920Y-15636865D01*
X27845920Y-15636865D02*
X27855444Y-15617817D01*
X27855444Y-15617817D02*
X27874492Y-15608293D01*
X27874492Y-15608293D02*
X27922111Y-15608293D01*
X27922111Y-15608293D02*
X27941158Y-15598769D01*
X28007825Y-15551150D02*
X28084015Y-15551150D01*
X28036396Y-15484484D02*
X28036396Y-15655912D01*
X28036396Y-15655912D02*
X28045920Y-15674960D01*
X28045920Y-15674960D02*
X28064968Y-15684484D01*
X28064968Y-15684484D02*
X28084015Y-15684484D01*
X28226873Y-15674960D02*
X28207825Y-15684484D01*
X28207825Y-15684484D02*
X28169730Y-15684484D01*
X28169730Y-15684484D02*
X28150682Y-15674960D01*
X28150682Y-15674960D02*
X28141158Y-15655912D01*
X28141158Y-15655912D02*
X28141158Y-15579722D01*
X28141158Y-15579722D02*
X28150682Y-15560674D01*
X28150682Y-15560674D02*
X28169730Y-15551150D01*
X28169730Y-15551150D02*
X28207825Y-15551150D01*
X28207825Y-15551150D02*
X28226873Y-15560674D01*
X28226873Y-15560674D02*
X28236396Y-15579722D01*
X28236396Y-15579722D02*
X28236396Y-15598769D01*
X28236396Y-15598769D02*
X28141158Y-15617817D01*
X28407825Y-15684484D02*
X28407825Y-15484484D01*
X28407825Y-15674960D02*
X28388777Y-15684484D01*
X28388777Y-15684484D02*
X28350682Y-15684484D01*
X28350682Y-15684484D02*
X28331634Y-15674960D01*
X28331634Y-15674960D02*
X28322111Y-15665436D01*
X28322111Y-15665436D02*
X28312587Y-15646388D01*
X28312587Y-15646388D02*
X28312587Y-15589246D01*
X28312587Y-15589246D02*
X28322111Y-15570198D01*
X28322111Y-15570198D02*
X28331634Y-15560674D01*
X28331634Y-15560674D02*
X28350682Y-15551150D01*
X28350682Y-15551150D02*
X28388777Y-15551150D01*
X28388777Y-15551150D02*
X28407825Y-15560674D01*
X28484015Y-15760674D02*
X28493539Y-15751150D01*
X28493539Y-15751150D02*
X28512587Y-15722579D01*
X28512587Y-15722579D02*
X28522111Y-15703531D01*
X28522111Y-15703531D02*
X28531634Y-15674960D01*
X28531634Y-15674960D02*
X28541158Y-15627341D01*
X28541158Y-15627341D02*
X28541158Y-15589246D01*
X28541158Y-15589246D02*
X28531634Y-15541627D01*
X28531634Y-15541627D02*
X28522111Y-15513055D01*
X28522111Y-15513055D02*
X28512587Y-15494008D01*
X28512587Y-15494008D02*
X28493539Y-15465436D01*
X28493539Y-15465436D02*
X28484015Y-15455912D01*
M02*
