%TF.GenerationSoftware,KiCad,Pcbnew,7.0.6*%
%TF.CreationDate,2024-09-27T12:31:39-07:00*%
%TF.ProjectId,microphone,6d696372-6f70-4686-9f6e-652e6b696361,rev?*%
%TF.SameCoordinates,Original*%
%TF.FileFunction,Copper,L1,Top*%
%TF.FilePolarity,Positive*%
%FSLAX46Y46*%
G04 Gerber Fmt 4.6, Leading zero omitted, Abs format (unit mm)*
G04 Created by KiCad (PCBNEW 7.0.6) date 2024-09-27 12:31:39*
%MOMM*%
%LPD*%
G01*
G04 APERTURE LIST*
G04 Aperture macros list*
%AMRoundRect*
0 Rectangle with rounded corners*
0 $1 Rounding radius*
0 $2 $3 $4 $5 $6 $7 $8 $9 X,Y pos of 4 corners*
0 Add a 4 corners polygon primitive as box body*
4,1,4,$2,$3,$4,$5,$6,$7,$8,$9,$2,$3,0*
0 Add four circle primitives for the rounded corners*
1,1,$1+$1,$2,$3*
1,1,$1+$1,$4,$5*
1,1,$1+$1,$6,$7*
1,1,$1+$1,$8,$9*
0 Add four rect primitives between the rounded corners*
20,1,$1+$1,$2,$3,$4,$5,0*
20,1,$1+$1,$4,$5,$6,$7,0*
20,1,$1+$1,$6,$7,$8,$9,0*
20,1,$1+$1,$8,$9,$2,$3,0*%
%AMFreePoly0*
4,1,514,0.035505,1.483497,0.035512,1.483500,0.076512,1.482500,0.076523,1.482494,0.076536,1.482499,0.118536,1.479499,0.118553,1.479490,0.118572,1.479495,0.159573,1.473495,0.159578,1.473491,0.159586,1.473493,0.199586,1.466492,0.199601,1.466482,0.199621,1.466485,0.239621,1.456485,0.239630,1.456477,0.239644,1.456479,0.279643,1.444479,0.279649,1.444473,0.279658,1.444474,
0.318658,1.431474,0.318672,1.431461,0.318694,1.431461,0.356694,1.415461,0.356702,1.415452,0.356714,1.415452,0.394714,1.397452,0.394725,1.397438,0.394743,1.397437,0.430743,1.377437,0.430748,1.377430,0.430757,1.377429,0.465758,1.356429,0.465770,1.356411,0.465788,1.356408,0.499788,1.332409,0.499792,1.332401,0.499802,1.332399,0.532802,1.307399,0.532809,1.307385,
0.532822,1.307382,0.564823,1.280382,0.564828,1.280370,0.564841,1.280366,0.594841,1.252365,0.594848,1.252349,0.594866,1.252341,0.622866,1.222341,0.622870,1.222327,0.622882,1.222322,0.649882,1.190322,0.649885,1.190309,0.649899,1.190302,0.674898,1.157302,0.674900,1.157292,0.674908,1.157288,0.698908,1.123289,0.698912,1.123269,0.698929,1.123257,0.719929,1.088257,
0.719930,1.088248,0.719937,1.088243,0.739937,1.052242,0.739938,1.052225,0.739952,1.052214,0.757952,1.014214,0.757952,1.014202,0.757961,1.014194,0.773961,0.976194,0.773961,0.976172,0.773974,0.976158,0.786974,0.937158,0.786973,0.937150,0.786979,0.937144,0.798979,0.897144,0.798977,0.897130,0.798985,0.897121,0.808985,0.857121,0.808982,0.857102,0.808993,0.857086,
0.815993,0.817086,0.815991,0.817078,0.815995,0.817072,0.821995,0.776072,0.821990,0.776053,0.821999,0.776036,0.824999,0.734036,0.824994,0.734023,0.825000,0.734012,0.826000,0.693012,0.825997,0.693005,0.826000,0.693000,0.826000,0.663000,0.825997,0.662994,0.826000,0.662988,0.825000,0.620988,0.824995,0.620977,0.824999,0.620966,0.821999,0.577965,0.821990,0.577947,
0.821995,0.577929,0.815995,0.535929,0.815988,0.535917,0.815991,0.535904,0.807991,0.494904,0.807984,0.494894,0.807986,0.494884,0.797986,0.452884,0.797977,0.452872,0.797979,0.452856,0.785979,0.412856,0.785971,0.412846,0.785972,0.412835,0.771972,0.372835,0.771962,0.372823,0.771962,0.372810,0.755963,0.333810,0.755954,0.333801,0.755954,0.333790,0.737954,0.294790,
0.737937,0.294774,0.737935,0.294753,0.716935,0.257753,0.716928,0.257747,0.716927,0.257739,0.694927,0.221739,0.694914,0.221730,0.694912,0.221717,0.670912,0.186717,0.670900,0.186709,0.670897,0.186696,0.644897,0.152696,0.644885,0.152689,0.644882,0.152678,0.617882,0.120678,0.617870,0.120671,0.617865,0.120658,0.588865,0.089658,0.588849,0.089650,0.588842,0.089635,
0.557842,0.060635,0.557829,0.060630,0.557823,0.060618,0.525822,0.033618,0.525810,0.033614,0.525804,0.033603,0.491804,0.007603,0.491790,0.007599,0.491783,0.007588,0.456783,-0.016412,0.456769,-0.016414,0.456761,-0.016427,0.420761,-0.038427,0.420752,-0.038428,0.420747,-0.038435,0.383747,-0.059435,0.383723,-0.059437,0.383709,-0.059454,0.344710,-0.077454,0.344697,-0.077454,
0.344689,-0.077463,0.305690,-0.093463,0.305675,-0.093462,0.305665,-0.093472,0.265665,-0.107472,0.265652,-0.107471,0.265643,-0.107479,0.225644,-0.119479,0.225627,-0.119477,0.225616,-0.119486,0.183616,-0.129486,0.183605,-0.129484,0.183596,-0.129491,0.142596,-0.137491,0.142581,-0.137488,0.142570,-0.137495,0.100571,-0.143495,0.100552,-0.143490,0.100535,-0.143499,0.057535,-0.146499,
0.057523,-0.146495,0.057512,-0.146500,0.015512,-0.147500,0.015505,-0.147497,0.015500,-0.147500,0.005500,-0.147500,0.005494,-0.147497,0.005488,-0.147500,-0.036512,-0.146500,-0.036523,-0.146494,-0.036536,-0.146499,-0.078536,-0.143499,-0.078553,-0.143490,-0.078572,-0.143495,-0.119572,-0.137495,-0.119577,-0.137491,-0.119584,-0.137493,-0.160584,-0.130493,-0.160599,-0.130483,-0.160618,-0.130486,
-0.201618,-0.120486,-0.201629,-0.120477,-0.201644,-0.120479,-0.241644,-0.108479,-0.241653,-0.108471,-0.241665,-0.108472,-0.281665,-0.094472,-0.281677,-0.094461,-0.281694,-0.094461,-0.319694,-0.078461,-0.319702,-0.078452,-0.319714,-0.078452,-0.357714,-0.060452,-0.357723,-0.060441,-0.357738,-0.060440,-0.394738,-0.040440,-0.394746,-0.040429,-0.394761,-0.040427,-0.430761,-0.018427,-0.430772,-0.018411,
-0.430789,-0.018408,-0.464788,0.005592,-0.464792,0.005599,-0.464802,0.005602,-0.497802,0.030601,-0.497809,0.030614,-0.497822,0.030618,-0.529822,0.057618,-0.529828,0.057629,-0.529842,0.057635,-0.560842,0.086635,-0.560849,0.086650,-0.560865,0.086658,-0.589865,0.117658,-0.589869,0.117670,-0.589882,0.117677,-0.616882,0.149678,-0.616885,0.149690,-0.616899,0.149698,-0.641899,0.182698,
-0.641901,0.182707,-0.641909,0.182712,-0.665908,0.216712,-0.665911,0.216727,-0.665927,0.216739,-0.687927,0.252739,-0.687929,0.252754,-0.687940,0.252763,-0.707940,0.289762,-0.707941,0.289776,-0.707952,0.289786,-0.725952,0.327786,-0.725952,0.327797,-0.725961,0.327806,-0.741961,0.365806,-0.741961,0.365822,-0.741972,0.365835,-0.755972,0.405835,-0.755971,0.405847,-0.755979,0.405857,
-0.767979,0.445856,-0.767977,0.445869,-0.767986,0.445881,-0.777986,0.486882,-0.777983,0.486900,-0.777993,0.486916,-0.784993,0.527916,-0.784991,0.527921,-0.784995,0.527927,-0.790995,0.568928,-0.790990,0.568946,-0.790999,0.568964,-0.793999,0.610964,-0.793994,0.610976,-0.794000,0.610988,-0.795000,0.652988,-0.794997,0.652994,-0.795000,0.653000,-0.795000,0.683000,-0.794997,0.683005,
-0.795000,0.683012,-0.794000,0.725012,-0.793994,0.725023,-0.793999,0.725036,-0.790999,0.767036,-0.790990,0.767053,-0.790995,0.767072,-0.784995,0.808073,-0.784991,0.808078,-0.784993,0.808084,-0.777993,0.849084,-0.777983,0.849099,-0.777986,0.849118,-0.767986,0.890119,-0.767977,0.890130,-0.767979,0.890144,-0.755979,0.930143,-0.755971,0.930152,-0.755972,0.930165,-0.741972,0.970165,
-0.741961,0.970177,-0.741961,0.970194,-0.725961,1.008194,-0.725952,1.008202,-0.725952,1.008214,-0.707952,1.046214,-0.707941,1.046223,-0.707940,1.046238,-0.687940,1.083237,-0.687929,1.083245,-0.687927,1.083261,-0.665927,1.119261,-0.665911,1.119272,-0.665908,1.119288,-0.641909,1.153288,-0.641901,1.153292,-0.641899,1.153302,-0.616899,1.186302,-0.616885,1.186309,-0.616882,1.186322,
-0.589882,1.218323,-0.589869,1.218329,-0.589865,1.218342,-0.560865,1.249342,-0.560849,1.249349,-0.560842,1.249365,-0.529842,1.278365,-0.529828,1.278370,-0.529822,1.278382,-0.497822,1.305382,-0.497809,1.305385,-0.497802,1.305399,-0.464802,1.330398,-0.464792,1.330400,-0.464788,1.330408,-0.430789,1.354408,-0.430772,1.354411,-0.430761,1.354427,-0.394761,1.376427,-0.394746,1.376429,
-0.394738,1.376440,-0.357738,1.396440,-0.357723,1.396441,-0.357714,1.396452,-0.319714,1.414452,-0.319702,1.414452,-0.319694,1.414461,-0.281694,1.430461,-0.281677,1.430461,-0.281665,1.430472,-0.241665,1.444472,-0.241653,1.444471,-0.241644,1.444479,-0.201644,1.456479,-0.201629,1.456477,-0.201618,1.456486,-0.160618,1.466486,-0.160599,1.466483,-0.160584,1.466493,-0.119584,1.473493,
-0.119577,1.473491,-0.119572,1.473495,-0.078572,1.479495,-0.078553,1.479490,-0.078536,1.479499,-0.036536,1.482499,-0.036523,1.482494,-0.036512,1.482500,0.005488,1.483500,0.005494,1.483497,0.005500,1.483500,0.005671,1.483429,0.005846,1.483362,0.005848,1.483356,0.005854,1.483354,0.005921,1.483191,0.006000,1.483012,0.005997,1.483005,0.006000,1.483000,0.006000,1.183000,
0.005926,1.182821,0.005867,1.182660,0.005858,1.182655,0.005854,1.182646,0.005684,1.182576,0.005519,1.182500,-0.020467,1.181500,-0.046454,1.179501,-0.072428,1.176504,-0.098395,1.171511,-0.123370,1.165517,-0.149348,1.158522,-0.173308,1.149538,-0.197308,1.139538,-0.221278,1.128551,-0.244231,1.115578,-0.288210,1.087591,-0.309187,1.071609,-0.329166,1.054627,-0.348146,1.036646,
-0.366127,1.017666,-0.383109,0.997687,-0.399091,0.976710,-0.427072,0.932739,-0.440051,0.909778,-0.451038,0.885808,-0.461038,0.861809,-0.470022,0.837848,-0.477017,0.811870,-0.483009,0.786905,-0.488004,0.760928,-0.491001,0.734962,-0.493000,0.708981,-0.494000,0.682988,-0.494000,0.663019,-0.493001,0.636038,-0.491001,0.610038,-0.488005,0.583073,-0.483009,0.557095,-0.477017,0.531132,
-0.469022,0.505147,-0.460032,0.480179,-0.450041,0.456200,-0.438049,0.431216,-0.426066,0.408250,-0.412081,0.385273,-0.397101,0.363303,-0.380119,0.342324,-0.363119,0.322324,-0.345146,0.302354,-0.325176,0.284381,-0.305185,0.267389,-0.284204,0.250403,-0.262226,0.235418,-0.239250,0.221433,-0.216284,0.209451,-0.191292,0.197455,-0.167307,0.187461,-0.142347,0.178476,-0.116365,0.170481,
-0.090402,0.164490,-0.064426,0.159494,-0.037462,0.156499,-0.011467,0.154499,0.015519,0.153500,0.025481,0.153500,0.051469,0.154499,0.077457,0.156498,0.103428,0.159495,0.129399,0.164489,0.154370,0.170483,0.180348,0.177477,0.204308,0.186462,0.228300,0.196458,0.252278,0.207448,0.275239,0.220427,0.319210,0.248408,0.340187,0.264390,0.360166,0.281372,0.379146,0.299353,
0.397127,0.318333,0.414109,0.338312,0.430091,0.359289,0.458078,0.403269,0.471051,0.426221,0.482038,0.450192,0.492038,0.474192,0.501022,0.498151,0.508017,0.524130,0.514011,0.549104,0.519004,0.575071,0.522003,0.601058,0.524001,0.627039,0.525000,0.653019,0.525000,0.682988,0.524000,0.708967,0.522001,0.734962,0.519004,0.760928,0.514009,0.786905,0.508017,0.811870,
0.501022,0.837848,0.492038,0.861809,0.482037,0.885808,0.471051,0.909778,0.458077,0.932732,0.430091,0.976710,0.414109,0.997687,0.397127,1.017666,0.379146,1.036646,0.360166,1.054627,0.340187,1.071609,0.319210,1.087591,0.275239,1.115572,0.252278,1.128551,0.228300,1.139541,0.204308,1.149538,0.180348,1.158522,0.154369,1.165517,0.129399,1.171510,0.103428,1.176504,
0.077457,1.179501,0.051469,1.181500,0.025481,1.182500,0.025315,1.182576,0.025146,1.182646,0.025141,1.182655,0.025133,1.182660,0.025069,1.182832,0.025000,1.183000,0.025000,1.483000,0.025146,1.483354,0.025500,1.483500,0.035500,1.483500,0.035505,1.483497,0.035505,1.483497,$1*%
G04 Aperture macros list end*
%TA.AperFunction,SMDPad,CuDef*%
%ADD10R,0.600000X0.522000*%
%TD*%
%TA.AperFunction,SMDPad,CuDef*%
%ADD11FreePoly0,0.000000*%
%TD*%
%TA.AperFunction,ComponentPad*%
%ADD12C,1.574800*%
%TD*%
%TA.AperFunction,SMDPad,CuDef*%
%ADD13RoundRect,0.250000X-0.475000X0.337500X-0.475000X-0.337500X0.475000X-0.337500X0.475000X0.337500X0*%
%TD*%
%TA.AperFunction,Conductor*%
%ADD14C,0.250000*%
%TD*%
G04 APERTURE END LIST*
D10*
%TO.P,MK1,1,WS*%
%TO.N,Net-(J1-Pin_2)*%
X225555500Y-139156000D03*
%TO.P,MK1,2,LR*%
%TO.N,Net-(J1-Pin_1)*%
X225555500Y-139978000D03*
D11*
%TO.P,MK1,3,GND*%
%TO.N,Net-(J1-Pin_6)*%
X226440000Y-141900000D03*
D10*
%TO.P,MK1,4,SCK*%
%TO.N,Net-(J1-Pin_5)*%
X227355500Y-139978000D03*
%TO.P,MK1,5,VDD*%
%TO.N,Net-(J1-Pin_4)*%
X227355500Y-139156000D03*
%TO.P,MK1,6,SD*%
%TO.N,Net-(J1-Pin_3)*%
X226455500Y-139156000D03*
%TD*%
D12*
%TO.P,J1,1,Pin_1*%
%TO.N,Net-(J1-Pin_1)*%
X221520000Y-134000000D03*
%TO.P,J1,2,Pin_2*%
%TO.N,Net-(J1-Pin_2)*%
X224060000Y-134000000D03*
%TO.P,J1,3,Pin_3*%
%TO.N,Net-(J1-Pin_3)*%
X226600000Y-134000000D03*
%TO.P,J1,4,Pin_4*%
%TO.N,Net-(J1-Pin_4)*%
X229140000Y-134000000D03*
%TO.P,J1,5,Pin_5*%
%TO.N,Net-(J1-Pin_5)*%
X231680000Y-134000000D03*
%TO.P,J1,6,Pin_6*%
%TO.N,Net-(J1-Pin_6)*%
X234220000Y-134000000D03*
%TD*%
D13*
%TO.P,C1,1*%
%TO.N,Net-(J1-Pin_4)*%
X229390000Y-139602500D03*
%TO.P,C1,2*%
%TO.N,Net-(J1-Pin_6)*%
X229390000Y-141677500D03*
%TD*%
D14*
%TO.N,Net-(J1-Pin_1)*%
X225555500Y-139978000D02*
X224298000Y-139978000D01*
X224298000Y-139978000D02*
X221520000Y-137200000D01*
X221520000Y-137200000D02*
X221520000Y-134000000D01*
%TO.N,Net-(J1-Pin_2)*%
X225555500Y-138695500D02*
X224060000Y-137200000D01*
X224060000Y-137200000D02*
X224060000Y-134000000D01*
X225555500Y-139156000D02*
X225555500Y-138695500D01*
%TO.N,Net-(J1-Pin_4)*%
X228943500Y-139156000D02*
X227355500Y-139156000D01*
X229390000Y-134250000D02*
X229390000Y-139602500D01*
%TO.N,Net-(J1-Pin_3)*%
X226600000Y-139011500D02*
X226600000Y-134000000D01*
X226455500Y-139156000D02*
X226600000Y-139011500D01*
%TO.N,Net-(J1-Pin_5)*%
X227892500Y-140515000D02*
X230135000Y-140515000D01*
X231700000Y-138950000D02*
X231700000Y-134020000D01*
X227355500Y-139978000D02*
X227892500Y-140515000D01*
X230135000Y-140515000D02*
X231700000Y-138950000D01*
%TO.N,Net-(J1-Pin_6)*%
X229167500Y-141900000D02*
X226440000Y-141900000D01*
X230492500Y-141677500D02*
X229390000Y-141677500D01*
X234300000Y-134080000D02*
X234300000Y-137870000D01*
X234300000Y-137870000D02*
X230492500Y-141677500D01*
%TD*%
M02*
