%TF.GenerationSoftware,KiCad,Pcbnew,7.0.6*%
%TF.CreationDate,2024-09-27T12:31:39-07:00*%
%TF.ProjectId,microphone,6d696372-6f70-4686-9f6e-652e6b696361,rev?*%
%TF.SameCoordinates,Original*%
%TF.FileFunction,Paste,Top*%
%TF.FilePolarity,Positive*%
%FSLAX46Y46*%
G04 Gerber Fmt 4.6, Leading zero omitted, Abs format (unit mm)*
G04 Created by KiCad (PCBNEW 7.0.6) date 2024-09-27 12:31:39*
%MOMM*%
%LPD*%
G01*
G04 APERTURE LIST*
G04 Aperture macros list*
%AMRoundRect*
0 Rectangle with rounded corners*
0 $1 Rounding radius*
0 $2 $3 $4 $5 $6 $7 $8 $9 X,Y pos of 4 corners*
0 Add a 4 corners polygon primitive as box body*
4,1,4,$2,$3,$4,$5,$6,$7,$8,$9,$2,$3,0*
0 Add four circle primitives for the rounded corners*
1,1,$1+$1,$2,$3*
1,1,$1+$1,$4,$5*
1,1,$1+$1,$6,$7*
1,1,$1+$1,$8,$9*
0 Add four rect primitives between the rounded corners*
20,1,$1+$1,$2,$3,$4,$5,0*
20,1,$1+$1,$4,$5,$6,$7,0*
20,1,$1+$1,$6,$7,$8,$9,0*
20,1,$1+$1,$8,$9,$2,$3,0*%
G04 Aperture macros list end*
%ADD10C,0.001000*%
%ADD11RoundRect,0.250000X-0.475000X0.337500X-0.475000X-0.337500X0.475000X-0.337500X0.475000X0.337500X0*%
G04 APERTURE END LIST*
%TO.C,MK1*%
D10*
X225805500Y-139367000D02*
X225305500Y-139367000D01*
X225305500Y-138945000D01*
X225805500Y-138945000D01*
X225805500Y-139367000D01*
G36*
X225805500Y-139367000D02*
G01*
X225305500Y-139367000D01*
X225305500Y-138945000D01*
X225805500Y-138945000D01*
X225805500Y-139367000D01*
G37*
X225805500Y-140189000D02*
X225305500Y-140189000D01*
X225305500Y-139767000D01*
X225805500Y-139767000D01*
X225805500Y-140189000D01*
G36*
X225805500Y-140189000D02*
G01*
X225305500Y-140189000D01*
X225305500Y-139767000D01*
X225805500Y-139767000D01*
X225805500Y-140189000D01*
G37*
X226705500Y-139367000D02*
X226205500Y-139367000D01*
X226205500Y-138945000D01*
X226705500Y-138945000D01*
X226705500Y-139367000D01*
G36*
X226705500Y-139367000D02*
G01*
X226205500Y-139367000D01*
X226205500Y-138945000D01*
X226705500Y-138945000D01*
X226705500Y-139367000D01*
G37*
X227605500Y-139367000D02*
X227105500Y-139367000D01*
X227105500Y-138945000D01*
X227605500Y-138945000D01*
X227605500Y-139367000D01*
G36*
X227605500Y-139367000D02*
G01*
X227105500Y-139367000D01*
X227105500Y-138945000D01*
X227605500Y-138945000D01*
X227605500Y-139367000D01*
G37*
X227605500Y-140189000D02*
X227105500Y-140189000D01*
X227105500Y-139767000D01*
X227605500Y-139767000D01*
X227605500Y-140189000D01*
G36*
X227605500Y-140189000D02*
G01*
X227105500Y-140189000D01*
X227105500Y-139767000D01*
X227605500Y-139767000D01*
X227605500Y-140189000D01*
G37*
X226405500Y-140720000D02*
X226384500Y-140722000D01*
X226360500Y-140726000D01*
X226337500Y-140731000D01*
X226314500Y-140737000D01*
X226292500Y-140744000D01*
X226269500Y-140752000D01*
X226247500Y-140761000D01*
X226226500Y-140771000D01*
X226205500Y-140782000D01*
X226185500Y-140794000D01*
X226165500Y-140807000D01*
X226145500Y-140820000D01*
X226127500Y-140835000D01*
X226109500Y-140851000D01*
X226092500Y-140867000D01*
X226076500Y-140884000D01*
X226060500Y-140902000D01*
X226045500Y-140920000D01*
X226032500Y-140940000D01*
X226019500Y-140960000D01*
X226007500Y-140980000D01*
X225996500Y-141001000D01*
X225986500Y-141022000D01*
X225977500Y-141044000D01*
X225969500Y-141067000D01*
X225962500Y-141089000D01*
X225956500Y-141112000D01*
X225951500Y-141135000D01*
X225947500Y-141159000D01*
X225945500Y-141180000D01*
X225645500Y-141180000D01*
X225648500Y-141141000D01*
X225653500Y-141103000D01*
X225660500Y-141064000D01*
X225668500Y-141026000D01*
X225679500Y-140988000D01*
X225691500Y-140950000D01*
X225706500Y-140914000D01*
X225722500Y-140878000D01*
X225739500Y-140843000D01*
X225759500Y-140809000D01*
X225780500Y-140776000D01*
X225802500Y-140743000D01*
X225827500Y-140712000D01*
X225852500Y-140683000D01*
X225879500Y-140654000D01*
X225908500Y-140627000D01*
X225937500Y-140602000D01*
X225968500Y-140577000D01*
X226001500Y-140555000D01*
X226034500Y-140534000D01*
X226068500Y-140514000D01*
X226103500Y-140497000D01*
X226139500Y-140481000D01*
X226175500Y-140466000D01*
X226213500Y-140454000D01*
X226251500Y-140443000D01*
X226289500Y-140435000D01*
X226328500Y-140428000D01*
X226366500Y-140423000D01*
X226405500Y-140420000D01*
X226405500Y-140720000D01*
G36*
X226405500Y-140720000D02*
G01*
X226384500Y-140722000D01*
X226360500Y-140726000D01*
X226337500Y-140731000D01*
X226314500Y-140737000D01*
X226292500Y-140744000D01*
X226269500Y-140752000D01*
X226247500Y-140761000D01*
X226226500Y-140771000D01*
X226205500Y-140782000D01*
X226185500Y-140794000D01*
X226165500Y-140807000D01*
X226145500Y-140820000D01*
X226127500Y-140835000D01*
X226109500Y-140851000D01*
X226092500Y-140867000D01*
X226076500Y-140884000D01*
X226060500Y-140902000D01*
X226045500Y-140920000D01*
X226032500Y-140940000D01*
X226019500Y-140960000D01*
X226007500Y-140980000D01*
X225996500Y-141001000D01*
X225986500Y-141022000D01*
X225977500Y-141044000D01*
X225969500Y-141067000D01*
X225962500Y-141089000D01*
X225956500Y-141112000D01*
X225951500Y-141135000D01*
X225947500Y-141159000D01*
X225945500Y-141180000D01*
X225645500Y-141180000D01*
X225648500Y-141141000D01*
X225653500Y-141103000D01*
X225660500Y-141064000D01*
X225668500Y-141026000D01*
X225679500Y-140988000D01*
X225691500Y-140950000D01*
X225706500Y-140914000D01*
X225722500Y-140878000D01*
X225739500Y-140843000D01*
X225759500Y-140809000D01*
X225780500Y-140776000D01*
X225802500Y-140743000D01*
X225827500Y-140712000D01*
X225852500Y-140683000D01*
X225879500Y-140654000D01*
X225908500Y-140627000D01*
X225937500Y-140602000D01*
X225968500Y-140577000D01*
X226001500Y-140555000D01*
X226034500Y-140534000D01*
X226068500Y-140514000D01*
X226103500Y-140497000D01*
X226139500Y-140481000D01*
X226175500Y-140466000D01*
X226213500Y-140454000D01*
X226251500Y-140443000D01*
X226289500Y-140435000D01*
X226328500Y-140428000D01*
X226366500Y-140423000D01*
X226405500Y-140420000D01*
X226405500Y-140720000D01*
G37*
X225947500Y-141301000D02*
X225951500Y-141325000D01*
X225956500Y-141348000D01*
X225962500Y-141371000D01*
X225969500Y-141393000D01*
X225977500Y-141416000D01*
X225986500Y-141438000D01*
X225996500Y-141459000D01*
X226007500Y-141480000D01*
X226019500Y-141500000D01*
X226032500Y-141520000D01*
X226045500Y-141540000D01*
X226060500Y-141558000D01*
X226076500Y-141576000D01*
X226092500Y-141593000D01*
X226109500Y-141609000D01*
X226127500Y-141625000D01*
X226145500Y-141640000D01*
X226165500Y-141653000D01*
X226185500Y-141666000D01*
X226205500Y-141678000D01*
X226226500Y-141689000D01*
X226247500Y-141699000D01*
X226269500Y-141708000D01*
X226292500Y-141716000D01*
X226314500Y-141723000D01*
X226337500Y-141729000D01*
X226360500Y-141734000D01*
X226384500Y-141738000D01*
X226405500Y-141740000D01*
X226405500Y-142040000D01*
X226366500Y-142037000D01*
X226328500Y-142032000D01*
X226289500Y-142025000D01*
X226251500Y-142017000D01*
X226213500Y-142006000D01*
X226175500Y-141994000D01*
X226139500Y-141979000D01*
X226103500Y-141963000D01*
X226068500Y-141946000D01*
X226034500Y-141926000D01*
X226001500Y-141905000D01*
X225968500Y-141883000D01*
X225937500Y-141858000D01*
X225908500Y-141833000D01*
X225879500Y-141806000D01*
X225852500Y-141777000D01*
X225827500Y-141748000D01*
X225802500Y-141717000D01*
X225780500Y-141684000D01*
X225759500Y-141651000D01*
X225739500Y-141617000D01*
X225722500Y-141582000D01*
X225706500Y-141546000D01*
X225691500Y-141510000D01*
X225679500Y-141472000D01*
X225668500Y-141434000D01*
X225660500Y-141396000D01*
X225653500Y-141357000D01*
X225648500Y-141319000D01*
X225645500Y-141280000D01*
X225945500Y-141280000D01*
X225947500Y-141301000D01*
G36*
X225947500Y-141301000D02*
G01*
X225951500Y-141325000D01*
X225956500Y-141348000D01*
X225962500Y-141371000D01*
X225969500Y-141393000D01*
X225977500Y-141416000D01*
X225986500Y-141438000D01*
X225996500Y-141459000D01*
X226007500Y-141480000D01*
X226019500Y-141500000D01*
X226032500Y-141520000D01*
X226045500Y-141540000D01*
X226060500Y-141558000D01*
X226076500Y-141576000D01*
X226092500Y-141593000D01*
X226109500Y-141609000D01*
X226127500Y-141625000D01*
X226145500Y-141640000D01*
X226165500Y-141653000D01*
X226185500Y-141666000D01*
X226205500Y-141678000D01*
X226226500Y-141689000D01*
X226247500Y-141699000D01*
X226269500Y-141708000D01*
X226292500Y-141716000D01*
X226314500Y-141723000D01*
X226337500Y-141729000D01*
X226360500Y-141734000D01*
X226384500Y-141738000D01*
X226405500Y-141740000D01*
X226405500Y-142040000D01*
X226366500Y-142037000D01*
X226328500Y-142032000D01*
X226289500Y-142025000D01*
X226251500Y-142017000D01*
X226213500Y-142006000D01*
X226175500Y-141994000D01*
X226139500Y-141979000D01*
X226103500Y-141963000D01*
X226068500Y-141946000D01*
X226034500Y-141926000D01*
X226001500Y-141905000D01*
X225968500Y-141883000D01*
X225937500Y-141858000D01*
X225908500Y-141833000D01*
X225879500Y-141806000D01*
X225852500Y-141777000D01*
X225827500Y-141748000D01*
X225802500Y-141717000D01*
X225780500Y-141684000D01*
X225759500Y-141651000D01*
X225739500Y-141617000D01*
X225722500Y-141582000D01*
X225706500Y-141546000D01*
X225691500Y-141510000D01*
X225679500Y-141472000D01*
X225668500Y-141434000D01*
X225660500Y-141396000D01*
X225653500Y-141357000D01*
X225648500Y-141319000D01*
X225645500Y-141280000D01*
X225945500Y-141280000D01*
X225947500Y-141301000D01*
G37*
X226544500Y-140423000D02*
X226582500Y-140428000D01*
X226621500Y-140435000D01*
X226659500Y-140443000D01*
X226697500Y-140454000D01*
X226735500Y-140466000D01*
X226771500Y-140481000D01*
X226807500Y-140497000D01*
X226842500Y-140514000D01*
X226876500Y-140534000D01*
X226909500Y-140555000D01*
X226942500Y-140577000D01*
X226973500Y-140602000D01*
X227002500Y-140627000D01*
X227031500Y-140654000D01*
X227058500Y-140683000D01*
X227083500Y-140712000D01*
X227108500Y-140743000D01*
X227130500Y-140776000D01*
X227151500Y-140809000D01*
X227171500Y-140843000D01*
X227188500Y-140878000D01*
X227204500Y-140914000D01*
X227219500Y-140950000D01*
X227231500Y-140988000D01*
X227242500Y-141026000D01*
X227250500Y-141064000D01*
X227257500Y-141103000D01*
X227262500Y-141141000D01*
X227265500Y-141180000D01*
X226965500Y-141180000D01*
X226963500Y-141159000D01*
X226959500Y-141135000D01*
X226954500Y-141112000D01*
X226948500Y-141089000D01*
X226941500Y-141067000D01*
X226933500Y-141044000D01*
X226924500Y-141022000D01*
X226914500Y-141001000D01*
X226903500Y-140980000D01*
X226891500Y-140960000D01*
X226878500Y-140940000D01*
X226865500Y-140920000D01*
X226850500Y-140902000D01*
X226834500Y-140884000D01*
X226818500Y-140867000D01*
X226801500Y-140851000D01*
X226783500Y-140835000D01*
X226765500Y-140820000D01*
X226745500Y-140807000D01*
X226725500Y-140794000D01*
X226705500Y-140782000D01*
X226684500Y-140771000D01*
X226663500Y-140761000D01*
X226641500Y-140752000D01*
X226618500Y-140744000D01*
X226596500Y-140737000D01*
X226573500Y-140731000D01*
X226550500Y-140726000D01*
X226526500Y-140722000D01*
X226505500Y-140720000D01*
X226505500Y-140420000D01*
X226544500Y-140423000D01*
G36*
X226544500Y-140423000D02*
G01*
X226582500Y-140428000D01*
X226621500Y-140435000D01*
X226659500Y-140443000D01*
X226697500Y-140454000D01*
X226735500Y-140466000D01*
X226771500Y-140481000D01*
X226807500Y-140497000D01*
X226842500Y-140514000D01*
X226876500Y-140534000D01*
X226909500Y-140555000D01*
X226942500Y-140577000D01*
X226973500Y-140602000D01*
X227002500Y-140627000D01*
X227031500Y-140654000D01*
X227058500Y-140683000D01*
X227083500Y-140712000D01*
X227108500Y-140743000D01*
X227130500Y-140776000D01*
X227151500Y-140809000D01*
X227171500Y-140843000D01*
X227188500Y-140878000D01*
X227204500Y-140914000D01*
X227219500Y-140950000D01*
X227231500Y-140988000D01*
X227242500Y-141026000D01*
X227250500Y-141064000D01*
X227257500Y-141103000D01*
X227262500Y-141141000D01*
X227265500Y-141180000D01*
X226965500Y-141180000D01*
X226963500Y-141159000D01*
X226959500Y-141135000D01*
X226954500Y-141112000D01*
X226948500Y-141089000D01*
X226941500Y-141067000D01*
X226933500Y-141044000D01*
X226924500Y-141022000D01*
X226914500Y-141001000D01*
X226903500Y-140980000D01*
X226891500Y-140960000D01*
X226878500Y-140940000D01*
X226865500Y-140920000D01*
X226850500Y-140902000D01*
X226834500Y-140884000D01*
X226818500Y-140867000D01*
X226801500Y-140851000D01*
X226783500Y-140835000D01*
X226765500Y-140820000D01*
X226745500Y-140807000D01*
X226725500Y-140794000D01*
X226705500Y-140782000D01*
X226684500Y-140771000D01*
X226663500Y-140761000D01*
X226641500Y-140752000D01*
X226618500Y-140744000D01*
X226596500Y-140737000D01*
X226573500Y-140731000D01*
X226550500Y-140726000D01*
X226526500Y-140722000D01*
X226505500Y-140720000D01*
X226505500Y-140420000D01*
X226544500Y-140423000D01*
G37*
X227262500Y-141319000D02*
X227257500Y-141357000D01*
X227250500Y-141396000D01*
X227242500Y-141434000D01*
X227231500Y-141472000D01*
X227219500Y-141510000D01*
X227204500Y-141546000D01*
X227188500Y-141582000D01*
X227171500Y-141617000D01*
X227151500Y-141651000D01*
X227130500Y-141684000D01*
X227108500Y-141717000D01*
X227083500Y-141748000D01*
X227058500Y-141777000D01*
X227031500Y-141806000D01*
X227002500Y-141833000D01*
X226973500Y-141858000D01*
X226942500Y-141883000D01*
X226909500Y-141905000D01*
X226876500Y-141926000D01*
X226842500Y-141946000D01*
X226807500Y-141963000D01*
X226771500Y-141979000D01*
X226735500Y-141994000D01*
X226697500Y-142006000D01*
X226659500Y-142017000D01*
X226621500Y-142025000D01*
X226582500Y-142032000D01*
X226544500Y-142037000D01*
X226505500Y-142040000D01*
X226505500Y-141740000D01*
X226526500Y-141738000D01*
X226550500Y-141734000D01*
X226573500Y-141729000D01*
X226596500Y-141723000D01*
X226618500Y-141716000D01*
X226641500Y-141708000D01*
X226663500Y-141699000D01*
X226684500Y-141689000D01*
X226705500Y-141678000D01*
X226725500Y-141666000D01*
X226745500Y-141653000D01*
X226765500Y-141640000D01*
X226783500Y-141625000D01*
X226801500Y-141609000D01*
X226818500Y-141593000D01*
X226834500Y-141576000D01*
X226850500Y-141558000D01*
X226865500Y-141540000D01*
X226878500Y-141520000D01*
X226891500Y-141500000D01*
X226903500Y-141480000D01*
X226914500Y-141459000D01*
X226924500Y-141438000D01*
X226933500Y-141416000D01*
X226941500Y-141393000D01*
X226948500Y-141371000D01*
X226954500Y-141348000D01*
X226959500Y-141325000D01*
X226963500Y-141301000D01*
X226965500Y-141280000D01*
X227265500Y-141280000D01*
X227262500Y-141319000D01*
G36*
X227262500Y-141319000D02*
G01*
X227257500Y-141357000D01*
X227250500Y-141396000D01*
X227242500Y-141434000D01*
X227231500Y-141472000D01*
X227219500Y-141510000D01*
X227204500Y-141546000D01*
X227188500Y-141582000D01*
X227171500Y-141617000D01*
X227151500Y-141651000D01*
X227130500Y-141684000D01*
X227108500Y-141717000D01*
X227083500Y-141748000D01*
X227058500Y-141777000D01*
X227031500Y-141806000D01*
X227002500Y-141833000D01*
X226973500Y-141858000D01*
X226942500Y-141883000D01*
X226909500Y-141905000D01*
X226876500Y-141926000D01*
X226842500Y-141946000D01*
X226807500Y-141963000D01*
X226771500Y-141979000D01*
X226735500Y-141994000D01*
X226697500Y-142006000D01*
X226659500Y-142017000D01*
X226621500Y-142025000D01*
X226582500Y-142032000D01*
X226544500Y-142037000D01*
X226505500Y-142040000D01*
X226505500Y-141740000D01*
X226526500Y-141738000D01*
X226550500Y-141734000D01*
X226573500Y-141729000D01*
X226596500Y-141723000D01*
X226618500Y-141716000D01*
X226641500Y-141708000D01*
X226663500Y-141699000D01*
X226684500Y-141689000D01*
X226705500Y-141678000D01*
X226725500Y-141666000D01*
X226745500Y-141653000D01*
X226765500Y-141640000D01*
X226783500Y-141625000D01*
X226801500Y-141609000D01*
X226818500Y-141593000D01*
X226834500Y-141576000D01*
X226850500Y-141558000D01*
X226865500Y-141540000D01*
X226878500Y-141520000D01*
X226891500Y-141500000D01*
X226903500Y-141480000D01*
X226914500Y-141459000D01*
X226924500Y-141438000D01*
X226933500Y-141416000D01*
X226941500Y-141393000D01*
X226948500Y-141371000D01*
X226954500Y-141348000D01*
X226959500Y-141325000D01*
X226963500Y-141301000D01*
X226965500Y-141280000D01*
X227265500Y-141280000D01*
X227262500Y-141319000D01*
G37*
%TD*%
D11*
%TO.C,C1*%
X229390000Y-139602500D03*
X229390000Y-141677500D03*
%TD*%
M02*
