%TF.GenerationSoftware,KiCad,Pcbnew,7.0.6*%
%TF.CreationDate,2024-09-27T11:16:29-07:00*%
%TF.ProjectId,MCU_DSP,4d43555f-4453-4502-9e6b-696361645f70,rev?*%
%TF.SameCoordinates,Original*%
%TF.FileFunction,Legend,Top*%
%TF.FilePolarity,Positive*%
%FSLAX46Y46*%
G04 Gerber Fmt 4.6, Leading zero omitted, Abs format (unit mm)*
G04 Created by KiCad (PCBNEW 7.0.6) date 2024-09-27 11:16:29*
%MOMM*%
%LPD*%
G01*
G04 APERTURE LIST*
%ADD10C,0.150000*%
%ADD11C,0.120000*%
%ADD12C,0.152400*%
%ADD13C,0.254000*%
G04 APERTURE END LIST*
D10*
X207300000Y-130600000D02*
X207300000Y-132400000D01*
X192100000Y-153000000D02*
X192500000Y-152500000D01*
X192500000Y-154100000D02*
X192500000Y-155100000D01*
X192100000Y-154600000D02*
X192500000Y-155100000D01*
X207300000Y-130600000D02*
X207700000Y-131100000D01*
X207700000Y-131100000D02*
X206900000Y-131100000D01*
X207300000Y-130600000D02*
X206900000Y-131100000D01*
X192500000Y-153500000D02*
X192500000Y-152500000D01*
X205869819Y-139963220D02*
X204869819Y-139963220D01*
X204869819Y-139963220D02*
X205584104Y-139629887D01*
X205584104Y-139629887D02*
X204869819Y-139296554D01*
X204869819Y-139296554D02*
X205869819Y-139296554D01*
X205774580Y-138248935D02*
X205822200Y-138296554D01*
X205822200Y-138296554D02*
X205869819Y-138439411D01*
X205869819Y-138439411D02*
X205869819Y-138534649D01*
X205869819Y-138534649D02*
X205822200Y-138677506D01*
X205822200Y-138677506D02*
X205726961Y-138772744D01*
X205726961Y-138772744D02*
X205631723Y-138820363D01*
X205631723Y-138820363D02*
X205441247Y-138867982D01*
X205441247Y-138867982D02*
X205298390Y-138867982D01*
X205298390Y-138867982D02*
X205107914Y-138820363D01*
X205107914Y-138820363D02*
X205012676Y-138772744D01*
X205012676Y-138772744D02*
X204917438Y-138677506D01*
X204917438Y-138677506D02*
X204869819Y-138534649D01*
X204869819Y-138534649D02*
X204869819Y-138439411D01*
X204869819Y-138439411D02*
X204917438Y-138296554D01*
X204917438Y-138296554D02*
X204965057Y-138248935D01*
X205869819Y-137344173D02*
X205869819Y-137820363D01*
X205869819Y-137820363D02*
X204869819Y-137820363D01*
X205869819Y-136439411D02*
X205393628Y-136772744D01*
X205869819Y-137010839D02*
X204869819Y-137010839D01*
X204869819Y-137010839D02*
X204869819Y-136629887D01*
X204869819Y-136629887D02*
X204917438Y-136534649D01*
X204917438Y-136534649D02*
X204965057Y-136487030D01*
X204965057Y-136487030D02*
X205060295Y-136439411D01*
X205060295Y-136439411D02*
X205203152Y-136439411D01*
X205203152Y-136439411D02*
X205298390Y-136487030D01*
X205298390Y-136487030D02*
X205346009Y-136534649D01*
X205346009Y-136534649D02*
X205393628Y-136629887D01*
X205393628Y-136629887D02*
X205393628Y-137010839D01*
X224789160Y-148322200D02*
X224932017Y-148369819D01*
X224932017Y-148369819D02*
X225170112Y-148369819D01*
X225170112Y-148369819D02*
X225265350Y-148322200D01*
X225265350Y-148322200D02*
X225312969Y-148274580D01*
X225312969Y-148274580D02*
X225360588Y-148179342D01*
X225360588Y-148179342D02*
X225360588Y-148084104D01*
X225360588Y-148084104D02*
X225312969Y-147988866D01*
X225312969Y-147988866D02*
X225265350Y-147941247D01*
X225265350Y-147941247D02*
X225170112Y-147893628D01*
X225170112Y-147893628D02*
X224979636Y-147846009D01*
X224979636Y-147846009D02*
X224884398Y-147798390D01*
X224884398Y-147798390D02*
X224836779Y-147750771D01*
X224836779Y-147750771D02*
X224789160Y-147655533D01*
X224789160Y-147655533D02*
X224789160Y-147560295D01*
X224789160Y-147560295D02*
X224836779Y-147465057D01*
X224836779Y-147465057D02*
X224884398Y-147417438D01*
X224884398Y-147417438D02*
X224979636Y-147369819D01*
X224979636Y-147369819D02*
X225217731Y-147369819D01*
X225217731Y-147369819D02*
X225360588Y-147417438D01*
X225789160Y-148369819D02*
X225789160Y-147369819D01*
X225789160Y-147369819D02*
X226027255Y-147369819D01*
X226027255Y-147369819D02*
X226170112Y-147417438D01*
X226170112Y-147417438D02*
X226265350Y-147512676D01*
X226265350Y-147512676D02*
X226312969Y-147607914D01*
X226312969Y-147607914D02*
X226360588Y-147798390D01*
X226360588Y-147798390D02*
X226360588Y-147941247D01*
X226360588Y-147941247D02*
X226312969Y-148131723D01*
X226312969Y-148131723D02*
X226265350Y-148226961D01*
X226265350Y-148226961D02*
X226170112Y-148322200D01*
X226170112Y-148322200D02*
X226027255Y-148369819D01*
X226027255Y-148369819D02*
X225789160Y-148369819D01*
X219793922Y-152369819D02*
X220365350Y-152369819D01*
X220079636Y-153369819D02*
X220079636Y-152369819D01*
X220603446Y-152369819D02*
X221270112Y-153369819D01*
X221270112Y-152369819D02*
X220603446Y-153369819D01*
X188991541Y-141619819D02*
X189229636Y-142619819D01*
X189229636Y-142619819D02*
X189420112Y-141905533D01*
X189420112Y-141905533D02*
X189610588Y-142619819D01*
X189610588Y-142619819D02*
X189848684Y-141619819D01*
X190182017Y-142572200D02*
X190324874Y-142619819D01*
X190324874Y-142619819D02*
X190562969Y-142619819D01*
X190562969Y-142619819D02*
X190658207Y-142572200D01*
X190658207Y-142572200D02*
X190705826Y-142524580D01*
X190705826Y-142524580D02*
X190753445Y-142429342D01*
X190753445Y-142429342D02*
X190753445Y-142334104D01*
X190753445Y-142334104D02*
X190705826Y-142238866D01*
X190705826Y-142238866D02*
X190658207Y-142191247D01*
X190658207Y-142191247D02*
X190562969Y-142143628D01*
X190562969Y-142143628D02*
X190372493Y-142096009D01*
X190372493Y-142096009D02*
X190277255Y-142048390D01*
X190277255Y-142048390D02*
X190229636Y-142000771D01*
X190229636Y-142000771D02*
X190182017Y-141905533D01*
X190182017Y-141905533D02*
X190182017Y-141810295D01*
X190182017Y-141810295D02*
X190229636Y-141715057D01*
X190229636Y-141715057D02*
X190277255Y-141667438D01*
X190277255Y-141667438D02*
X190372493Y-141619819D01*
X190372493Y-141619819D02*
X190610588Y-141619819D01*
X190610588Y-141619819D02*
X190753445Y-141667438D01*
X189039160Y-150322200D02*
X189182017Y-150369819D01*
X189182017Y-150369819D02*
X189420112Y-150369819D01*
X189420112Y-150369819D02*
X189515350Y-150322200D01*
X189515350Y-150322200D02*
X189562969Y-150274580D01*
X189562969Y-150274580D02*
X189610588Y-150179342D01*
X189610588Y-150179342D02*
X189610588Y-150084104D01*
X189610588Y-150084104D02*
X189562969Y-149988866D01*
X189562969Y-149988866D02*
X189515350Y-149941247D01*
X189515350Y-149941247D02*
X189420112Y-149893628D01*
X189420112Y-149893628D02*
X189229636Y-149846009D01*
X189229636Y-149846009D02*
X189134398Y-149798390D01*
X189134398Y-149798390D02*
X189086779Y-149750771D01*
X189086779Y-149750771D02*
X189039160Y-149655533D01*
X189039160Y-149655533D02*
X189039160Y-149560295D01*
X189039160Y-149560295D02*
X189086779Y-149465057D01*
X189086779Y-149465057D02*
X189134398Y-149417438D01*
X189134398Y-149417438D02*
X189229636Y-149369819D01*
X189229636Y-149369819D02*
X189467731Y-149369819D01*
X189467731Y-149369819D02*
X189610588Y-149417438D01*
X190610588Y-150274580D02*
X190562969Y-150322200D01*
X190562969Y-150322200D02*
X190420112Y-150369819D01*
X190420112Y-150369819D02*
X190324874Y-150369819D01*
X190324874Y-150369819D02*
X190182017Y-150322200D01*
X190182017Y-150322200D02*
X190086779Y-150226961D01*
X190086779Y-150226961D02*
X190039160Y-150131723D01*
X190039160Y-150131723D02*
X189991541Y-149941247D01*
X189991541Y-149941247D02*
X189991541Y-149798390D01*
X189991541Y-149798390D02*
X190039160Y-149607914D01*
X190039160Y-149607914D02*
X190086779Y-149512676D01*
X190086779Y-149512676D02*
X190182017Y-149417438D01*
X190182017Y-149417438D02*
X190324874Y-149369819D01*
X190324874Y-149369819D02*
X190420112Y-149369819D01*
X190420112Y-149369819D02*
X190562969Y-149417438D01*
X190562969Y-149417438D02*
X190610588Y-149465057D01*
X191039160Y-150369819D02*
X191039160Y-149369819D01*
X191610588Y-150369819D02*
X191182017Y-149798390D01*
X191610588Y-149369819D02*
X191039160Y-149941247D01*
X224741541Y-149869819D02*
X224979636Y-150869819D01*
X224979636Y-150869819D02*
X225170112Y-150155533D01*
X225170112Y-150155533D02*
X225360588Y-150869819D01*
X225360588Y-150869819D02*
X225598684Y-149869819D01*
X225932017Y-150822200D02*
X226074874Y-150869819D01*
X226074874Y-150869819D02*
X226312969Y-150869819D01*
X226312969Y-150869819D02*
X226408207Y-150822200D01*
X226408207Y-150822200D02*
X226455826Y-150774580D01*
X226455826Y-150774580D02*
X226503445Y-150679342D01*
X226503445Y-150679342D02*
X226503445Y-150584104D01*
X226503445Y-150584104D02*
X226455826Y-150488866D01*
X226455826Y-150488866D02*
X226408207Y-150441247D01*
X226408207Y-150441247D02*
X226312969Y-150393628D01*
X226312969Y-150393628D02*
X226122493Y-150346009D01*
X226122493Y-150346009D02*
X226027255Y-150298390D01*
X226027255Y-150298390D02*
X225979636Y-150250771D01*
X225979636Y-150250771D02*
X225932017Y-150155533D01*
X225932017Y-150155533D02*
X225932017Y-150060295D01*
X225932017Y-150060295D02*
X225979636Y-149965057D01*
X225979636Y-149965057D02*
X226027255Y-149917438D01*
X226027255Y-149917438D02*
X226122493Y-149869819D01*
X226122493Y-149869819D02*
X226360588Y-149869819D01*
X226360588Y-149869819D02*
X226503445Y-149917438D01*
X224658207Y-138369819D02*
X224324874Y-137893628D01*
X224086779Y-138369819D02*
X224086779Y-137369819D01*
X224086779Y-137369819D02*
X224467731Y-137369819D01*
X224467731Y-137369819D02*
X224562969Y-137417438D01*
X224562969Y-137417438D02*
X224610588Y-137465057D01*
X224610588Y-137465057D02*
X224658207Y-137560295D01*
X224658207Y-137560295D02*
X224658207Y-137703152D01*
X224658207Y-137703152D02*
X224610588Y-137798390D01*
X224610588Y-137798390D02*
X224562969Y-137846009D01*
X224562969Y-137846009D02*
X224467731Y-137893628D01*
X224467731Y-137893628D02*
X224086779Y-137893628D01*
X225086779Y-138369819D02*
X225086779Y-137703152D01*
X225086779Y-137369819D02*
X225039160Y-137417438D01*
X225039160Y-137417438D02*
X225086779Y-137465057D01*
X225086779Y-137465057D02*
X225134398Y-137417438D01*
X225134398Y-137417438D02*
X225086779Y-137369819D01*
X225086779Y-137369819D02*
X225086779Y-137465057D01*
X225991540Y-137703152D02*
X225991540Y-138512676D01*
X225991540Y-138512676D02*
X225943921Y-138607914D01*
X225943921Y-138607914D02*
X225896302Y-138655533D01*
X225896302Y-138655533D02*
X225801064Y-138703152D01*
X225801064Y-138703152D02*
X225658207Y-138703152D01*
X225658207Y-138703152D02*
X225562969Y-138655533D01*
X225991540Y-138322200D02*
X225896302Y-138369819D01*
X225896302Y-138369819D02*
X225705826Y-138369819D01*
X225705826Y-138369819D02*
X225610588Y-138322200D01*
X225610588Y-138322200D02*
X225562969Y-138274580D01*
X225562969Y-138274580D02*
X225515350Y-138179342D01*
X225515350Y-138179342D02*
X225515350Y-137893628D01*
X225515350Y-137893628D02*
X225562969Y-137798390D01*
X225562969Y-137798390D02*
X225610588Y-137750771D01*
X225610588Y-137750771D02*
X225705826Y-137703152D01*
X225705826Y-137703152D02*
X225896302Y-137703152D01*
X225896302Y-137703152D02*
X225991540Y-137750771D01*
X226467731Y-138369819D02*
X226467731Y-137369819D01*
X226896302Y-138369819D02*
X226896302Y-137846009D01*
X226896302Y-137846009D02*
X226848683Y-137750771D01*
X226848683Y-137750771D02*
X226753445Y-137703152D01*
X226753445Y-137703152D02*
X226610588Y-137703152D01*
X226610588Y-137703152D02*
X226515350Y-137750771D01*
X226515350Y-137750771D02*
X226467731Y-137798390D01*
X227229636Y-137703152D02*
X227610588Y-137703152D01*
X227372493Y-137369819D02*
X227372493Y-138226961D01*
X227372493Y-138226961D02*
X227420112Y-138322200D01*
X227420112Y-138322200D02*
X227515350Y-138369819D01*
X227515350Y-138369819D02*
X227610588Y-138369819D01*
X202322200Y-159210839D02*
X202369819Y-159067982D01*
X202369819Y-159067982D02*
X202369819Y-158829887D01*
X202369819Y-158829887D02*
X202322200Y-158734649D01*
X202322200Y-158734649D02*
X202274580Y-158687030D01*
X202274580Y-158687030D02*
X202179342Y-158639411D01*
X202179342Y-158639411D02*
X202084104Y-158639411D01*
X202084104Y-158639411D02*
X201988866Y-158687030D01*
X201988866Y-158687030D02*
X201941247Y-158734649D01*
X201941247Y-158734649D02*
X201893628Y-158829887D01*
X201893628Y-158829887D02*
X201846009Y-159020363D01*
X201846009Y-159020363D02*
X201798390Y-159115601D01*
X201798390Y-159115601D02*
X201750771Y-159163220D01*
X201750771Y-159163220D02*
X201655533Y-159210839D01*
X201655533Y-159210839D02*
X201560295Y-159210839D01*
X201560295Y-159210839D02*
X201465057Y-159163220D01*
X201465057Y-159163220D02*
X201417438Y-159115601D01*
X201417438Y-159115601D02*
X201369819Y-159020363D01*
X201369819Y-159020363D02*
X201369819Y-158782268D01*
X201369819Y-158782268D02*
X201417438Y-158639411D01*
X202274580Y-157639411D02*
X202322200Y-157687030D01*
X202322200Y-157687030D02*
X202369819Y-157829887D01*
X202369819Y-157829887D02*
X202369819Y-157925125D01*
X202369819Y-157925125D02*
X202322200Y-158067982D01*
X202322200Y-158067982D02*
X202226961Y-158163220D01*
X202226961Y-158163220D02*
X202131723Y-158210839D01*
X202131723Y-158210839D02*
X201941247Y-158258458D01*
X201941247Y-158258458D02*
X201798390Y-158258458D01*
X201798390Y-158258458D02*
X201607914Y-158210839D01*
X201607914Y-158210839D02*
X201512676Y-158163220D01*
X201512676Y-158163220D02*
X201417438Y-158067982D01*
X201417438Y-158067982D02*
X201369819Y-157925125D01*
X201369819Y-157925125D02*
X201369819Y-157829887D01*
X201369819Y-157829887D02*
X201417438Y-157687030D01*
X201417438Y-157687030D02*
X201465057Y-157639411D01*
X202369819Y-157210839D02*
X201369819Y-157210839D01*
X202369819Y-156639411D02*
X201798390Y-157067982D01*
X201369819Y-156639411D02*
X201941247Y-157210839D01*
X220308207Y-150769819D02*
X219974874Y-150293628D01*
X219736779Y-150769819D02*
X219736779Y-149769819D01*
X219736779Y-149769819D02*
X220117731Y-149769819D01*
X220117731Y-149769819D02*
X220212969Y-149817438D01*
X220212969Y-149817438D02*
X220260588Y-149865057D01*
X220260588Y-149865057D02*
X220308207Y-149960295D01*
X220308207Y-149960295D02*
X220308207Y-150103152D01*
X220308207Y-150103152D02*
X220260588Y-150198390D01*
X220260588Y-150198390D02*
X220212969Y-150246009D01*
X220212969Y-150246009D02*
X220117731Y-150293628D01*
X220117731Y-150293628D02*
X219736779Y-150293628D01*
X220641541Y-149769819D02*
X221308207Y-150769819D01*
X221308207Y-149769819D02*
X220641541Y-150769819D01*
X219260588Y-148317438D02*
X219165350Y-148269819D01*
X219165350Y-148269819D02*
X219022493Y-148269819D01*
X219022493Y-148269819D02*
X218879636Y-148317438D01*
X218879636Y-148317438D02*
X218784398Y-148412676D01*
X218784398Y-148412676D02*
X218736779Y-148507914D01*
X218736779Y-148507914D02*
X218689160Y-148698390D01*
X218689160Y-148698390D02*
X218689160Y-148841247D01*
X218689160Y-148841247D02*
X218736779Y-149031723D01*
X218736779Y-149031723D02*
X218784398Y-149126961D01*
X218784398Y-149126961D02*
X218879636Y-149222200D01*
X218879636Y-149222200D02*
X219022493Y-149269819D01*
X219022493Y-149269819D02*
X219117731Y-149269819D01*
X219117731Y-149269819D02*
X219260588Y-149222200D01*
X219260588Y-149222200D02*
X219308207Y-149174580D01*
X219308207Y-149174580D02*
X219308207Y-148841247D01*
X219308207Y-148841247D02*
X219117731Y-148841247D01*
X219736779Y-149269819D02*
X219736779Y-148269819D01*
X219736779Y-148269819D02*
X220308207Y-149269819D01*
X220308207Y-149269819D02*
X220308207Y-148269819D01*
X220784398Y-149269819D02*
X220784398Y-148269819D01*
X220784398Y-148269819D02*
X221022493Y-148269819D01*
X221022493Y-148269819D02*
X221165350Y-148317438D01*
X221165350Y-148317438D02*
X221260588Y-148412676D01*
X221260588Y-148412676D02*
X221308207Y-148507914D01*
X221308207Y-148507914D02*
X221355826Y-148698390D01*
X221355826Y-148698390D02*
X221355826Y-148841247D01*
X221355826Y-148841247D02*
X221308207Y-149031723D01*
X221308207Y-149031723D02*
X221260588Y-149126961D01*
X221260588Y-149126961D02*
X221165350Y-149222200D01*
X221165350Y-149222200D02*
X221022493Y-149269819D01*
X221022493Y-149269819D02*
X220784398Y-149269819D01*
X192836779Y-153509819D02*
X192836779Y-152509819D01*
X192836779Y-152509819D02*
X193217731Y-152509819D01*
X193217731Y-152509819D02*
X193312969Y-152557438D01*
X193312969Y-152557438D02*
X193360588Y-152605057D01*
X193360588Y-152605057D02*
X193408207Y-152700295D01*
X193408207Y-152700295D02*
X193408207Y-152843152D01*
X193408207Y-152843152D02*
X193360588Y-152938390D01*
X193360588Y-152938390D02*
X193312969Y-152986009D01*
X193312969Y-152986009D02*
X193217731Y-153033628D01*
X193217731Y-153033628D02*
X192836779Y-153033628D01*
X193836779Y-153509819D02*
X193836779Y-152509819D01*
X194884397Y-153414580D02*
X194836778Y-153462200D01*
X194836778Y-153462200D02*
X194693921Y-153509819D01*
X194693921Y-153509819D02*
X194598683Y-153509819D01*
X194598683Y-153509819D02*
X194455826Y-153462200D01*
X194455826Y-153462200D02*
X194360588Y-153366961D01*
X194360588Y-153366961D02*
X194312969Y-153271723D01*
X194312969Y-153271723D02*
X194265350Y-153081247D01*
X194265350Y-153081247D02*
X194265350Y-152938390D01*
X194265350Y-152938390D02*
X194312969Y-152747914D01*
X194312969Y-152747914D02*
X194360588Y-152652676D01*
X194360588Y-152652676D02*
X194455826Y-152557438D01*
X194455826Y-152557438D02*
X194598683Y-152509819D01*
X194598683Y-152509819D02*
X194693921Y-152509819D01*
X194693921Y-152509819D02*
X194836778Y-152557438D01*
X194836778Y-152557438D02*
X194884397Y-152605057D01*
X192836779Y-155119819D02*
X192836779Y-154119819D01*
X192836779Y-154119819D02*
X193074874Y-154119819D01*
X193074874Y-154119819D02*
X193217731Y-154167438D01*
X193217731Y-154167438D02*
X193312969Y-154262676D01*
X193312969Y-154262676D02*
X193360588Y-154357914D01*
X193360588Y-154357914D02*
X193408207Y-154548390D01*
X193408207Y-154548390D02*
X193408207Y-154691247D01*
X193408207Y-154691247D02*
X193360588Y-154881723D01*
X193360588Y-154881723D02*
X193312969Y-154976961D01*
X193312969Y-154976961D02*
X193217731Y-155072200D01*
X193217731Y-155072200D02*
X193074874Y-155119819D01*
X193074874Y-155119819D02*
X192836779Y-155119819D01*
X193836779Y-155119819D02*
X193836779Y-154453152D01*
X193836779Y-154119819D02*
X193789160Y-154167438D01*
X193789160Y-154167438D02*
X193836779Y-154215057D01*
X193836779Y-154215057D02*
X193884398Y-154167438D01*
X193884398Y-154167438D02*
X193836779Y-154119819D01*
X193836779Y-154119819D02*
X193836779Y-154215057D01*
X194312969Y-155119819D02*
X194312969Y-154453152D01*
X194312969Y-154643628D02*
X194360588Y-154548390D01*
X194360588Y-154548390D02*
X194408207Y-154500771D01*
X194408207Y-154500771D02*
X194503445Y-154453152D01*
X194503445Y-154453152D02*
X194598683Y-154453152D01*
X195312969Y-155072200D02*
X195217731Y-155119819D01*
X195217731Y-155119819D02*
X195027255Y-155119819D01*
X195027255Y-155119819D02*
X194932017Y-155072200D01*
X194932017Y-155072200D02*
X194884398Y-154976961D01*
X194884398Y-154976961D02*
X194884398Y-154596009D01*
X194884398Y-154596009D02*
X194932017Y-154500771D01*
X194932017Y-154500771D02*
X195027255Y-154453152D01*
X195027255Y-154453152D02*
X195217731Y-154453152D01*
X195217731Y-154453152D02*
X195312969Y-154500771D01*
X195312969Y-154500771D02*
X195360588Y-154596009D01*
X195360588Y-154596009D02*
X195360588Y-154691247D01*
X195360588Y-154691247D02*
X194884398Y-154786485D01*
X196217731Y-155072200D02*
X196122493Y-155119819D01*
X196122493Y-155119819D02*
X195932017Y-155119819D01*
X195932017Y-155119819D02*
X195836779Y-155072200D01*
X195836779Y-155072200D02*
X195789160Y-155024580D01*
X195789160Y-155024580D02*
X195741541Y-154929342D01*
X195741541Y-154929342D02*
X195741541Y-154643628D01*
X195741541Y-154643628D02*
X195789160Y-154548390D01*
X195789160Y-154548390D02*
X195836779Y-154500771D01*
X195836779Y-154500771D02*
X195932017Y-154453152D01*
X195932017Y-154453152D02*
X196122493Y-154453152D01*
X196122493Y-154453152D02*
X196217731Y-154500771D01*
X196503446Y-154453152D02*
X196884398Y-154453152D01*
X196646303Y-154119819D02*
X196646303Y-154976961D01*
X196646303Y-154976961D02*
X196693922Y-155072200D01*
X196693922Y-155072200D02*
X196789160Y-155119819D01*
X196789160Y-155119819D02*
X196884398Y-155119819D01*
X206669819Y-159258458D02*
X206669819Y-158639411D01*
X206669819Y-158639411D02*
X207050771Y-158972744D01*
X207050771Y-158972744D02*
X207050771Y-158829887D01*
X207050771Y-158829887D02*
X207098390Y-158734649D01*
X207098390Y-158734649D02*
X207146009Y-158687030D01*
X207146009Y-158687030D02*
X207241247Y-158639411D01*
X207241247Y-158639411D02*
X207479342Y-158639411D01*
X207479342Y-158639411D02*
X207574580Y-158687030D01*
X207574580Y-158687030D02*
X207622200Y-158734649D01*
X207622200Y-158734649D02*
X207669819Y-158829887D01*
X207669819Y-158829887D02*
X207669819Y-159115601D01*
X207669819Y-159115601D02*
X207622200Y-159210839D01*
X207622200Y-159210839D02*
X207574580Y-159258458D01*
X206669819Y-158353696D02*
X207669819Y-158020363D01*
X207669819Y-158020363D02*
X206669819Y-157687030D01*
X206669819Y-157448934D02*
X206669819Y-156829887D01*
X206669819Y-156829887D02*
X207050771Y-157163220D01*
X207050771Y-157163220D02*
X207050771Y-157020363D01*
X207050771Y-157020363D02*
X207098390Y-156925125D01*
X207098390Y-156925125D02*
X207146009Y-156877506D01*
X207146009Y-156877506D02*
X207241247Y-156829887D01*
X207241247Y-156829887D02*
X207479342Y-156829887D01*
X207479342Y-156829887D02*
X207574580Y-156877506D01*
X207574580Y-156877506D02*
X207622200Y-156925125D01*
X207622200Y-156925125D02*
X207669819Y-157020363D01*
X207669819Y-157020363D02*
X207669819Y-157306077D01*
X207669819Y-157306077D02*
X207622200Y-157401315D01*
X207622200Y-157401315D02*
X207574580Y-157448934D01*
X216946009Y-135929887D02*
X216993628Y-135787030D01*
X216993628Y-135787030D02*
X217041247Y-135739411D01*
X217041247Y-135739411D02*
X217136485Y-135691792D01*
X217136485Y-135691792D02*
X217279342Y-135691792D01*
X217279342Y-135691792D02*
X217374580Y-135739411D01*
X217374580Y-135739411D02*
X217422200Y-135787030D01*
X217422200Y-135787030D02*
X217469819Y-135882268D01*
X217469819Y-135882268D02*
X217469819Y-136263220D01*
X217469819Y-136263220D02*
X216469819Y-136263220D01*
X216469819Y-136263220D02*
X216469819Y-135929887D01*
X216469819Y-135929887D02*
X216517438Y-135834649D01*
X216517438Y-135834649D02*
X216565057Y-135787030D01*
X216565057Y-135787030D02*
X216660295Y-135739411D01*
X216660295Y-135739411D02*
X216755533Y-135739411D01*
X216755533Y-135739411D02*
X216850771Y-135787030D01*
X216850771Y-135787030D02*
X216898390Y-135834649D01*
X216898390Y-135834649D02*
X216946009Y-135929887D01*
X216946009Y-135929887D02*
X216946009Y-136263220D01*
X217469819Y-134739411D02*
X217469819Y-135310839D01*
X217469819Y-135025125D02*
X216469819Y-135025125D01*
X216469819Y-135025125D02*
X216612676Y-135120363D01*
X216612676Y-135120363D02*
X216707914Y-135215601D01*
X216707914Y-135215601D02*
X216755533Y-135310839D01*
X217469819Y-133787030D02*
X217469819Y-134358458D01*
X217469819Y-134072744D02*
X216469819Y-134072744D01*
X216469819Y-134072744D02*
X216612676Y-134167982D01*
X216612676Y-134167982D02*
X216707914Y-134263220D01*
X216707914Y-134263220D02*
X216755533Y-134358458D01*
X214346009Y-135929887D02*
X214393628Y-135787030D01*
X214393628Y-135787030D02*
X214441247Y-135739411D01*
X214441247Y-135739411D02*
X214536485Y-135691792D01*
X214536485Y-135691792D02*
X214679342Y-135691792D01*
X214679342Y-135691792D02*
X214774580Y-135739411D01*
X214774580Y-135739411D02*
X214822200Y-135787030D01*
X214822200Y-135787030D02*
X214869819Y-135882268D01*
X214869819Y-135882268D02*
X214869819Y-136263220D01*
X214869819Y-136263220D02*
X213869819Y-136263220D01*
X213869819Y-136263220D02*
X213869819Y-135929887D01*
X213869819Y-135929887D02*
X213917438Y-135834649D01*
X213917438Y-135834649D02*
X213965057Y-135787030D01*
X213965057Y-135787030D02*
X214060295Y-135739411D01*
X214060295Y-135739411D02*
X214155533Y-135739411D01*
X214155533Y-135739411D02*
X214250771Y-135787030D01*
X214250771Y-135787030D02*
X214298390Y-135834649D01*
X214298390Y-135834649D02*
X214346009Y-135929887D01*
X214346009Y-135929887D02*
X214346009Y-136263220D01*
X214869819Y-134739411D02*
X214869819Y-135310839D01*
X214869819Y-135025125D02*
X213869819Y-135025125D01*
X213869819Y-135025125D02*
X214012676Y-135120363D01*
X214012676Y-135120363D02*
X214107914Y-135215601D01*
X214107914Y-135215601D02*
X214155533Y-135310839D01*
X213965057Y-134358458D02*
X213917438Y-134310839D01*
X213917438Y-134310839D02*
X213869819Y-134215601D01*
X213869819Y-134215601D02*
X213869819Y-133977506D01*
X213869819Y-133977506D02*
X213917438Y-133882268D01*
X213917438Y-133882268D02*
X213965057Y-133834649D01*
X213965057Y-133834649D02*
X214060295Y-133787030D01*
X214060295Y-133787030D02*
X214155533Y-133787030D01*
X214155533Y-133787030D02*
X214298390Y-133834649D01*
X214298390Y-133834649D02*
X214869819Y-134406077D01*
X214869819Y-134406077D02*
X214869819Y-133787030D01*
X188991541Y-146869819D02*
X189610588Y-146869819D01*
X189610588Y-146869819D02*
X189277255Y-147250771D01*
X189277255Y-147250771D02*
X189420112Y-147250771D01*
X189420112Y-147250771D02*
X189515350Y-147298390D01*
X189515350Y-147298390D02*
X189562969Y-147346009D01*
X189562969Y-147346009D02*
X189610588Y-147441247D01*
X189610588Y-147441247D02*
X189610588Y-147679342D01*
X189610588Y-147679342D02*
X189562969Y-147774580D01*
X189562969Y-147774580D02*
X189515350Y-147822200D01*
X189515350Y-147822200D02*
X189420112Y-147869819D01*
X189420112Y-147869819D02*
X189134398Y-147869819D01*
X189134398Y-147869819D02*
X189039160Y-147822200D01*
X189039160Y-147822200D02*
X188991541Y-147774580D01*
X189896303Y-146869819D02*
X190229636Y-147869819D01*
X190229636Y-147869819D02*
X190562969Y-146869819D01*
X190801065Y-146869819D02*
X191420112Y-146869819D01*
X191420112Y-146869819D02*
X191086779Y-147250771D01*
X191086779Y-147250771D02*
X191229636Y-147250771D01*
X191229636Y-147250771D02*
X191324874Y-147298390D01*
X191324874Y-147298390D02*
X191372493Y-147346009D01*
X191372493Y-147346009D02*
X191420112Y-147441247D01*
X191420112Y-147441247D02*
X191420112Y-147679342D01*
X191420112Y-147679342D02*
X191372493Y-147774580D01*
X191372493Y-147774580D02*
X191324874Y-147822200D01*
X191324874Y-147822200D02*
X191229636Y-147869819D01*
X191229636Y-147869819D02*
X190943922Y-147869819D01*
X190943922Y-147869819D02*
X190848684Y-147822200D01*
X190848684Y-147822200D02*
X190801065Y-147774580D01*
X216822200Y-158810839D02*
X216869819Y-158667982D01*
X216869819Y-158667982D02*
X216869819Y-158429887D01*
X216869819Y-158429887D02*
X216822200Y-158334649D01*
X216822200Y-158334649D02*
X216774580Y-158287030D01*
X216774580Y-158287030D02*
X216679342Y-158239411D01*
X216679342Y-158239411D02*
X216584104Y-158239411D01*
X216584104Y-158239411D02*
X216488866Y-158287030D01*
X216488866Y-158287030D02*
X216441247Y-158334649D01*
X216441247Y-158334649D02*
X216393628Y-158429887D01*
X216393628Y-158429887D02*
X216346009Y-158620363D01*
X216346009Y-158620363D02*
X216298390Y-158715601D01*
X216298390Y-158715601D02*
X216250771Y-158763220D01*
X216250771Y-158763220D02*
X216155533Y-158810839D01*
X216155533Y-158810839D02*
X216060295Y-158810839D01*
X216060295Y-158810839D02*
X215965057Y-158763220D01*
X215965057Y-158763220D02*
X215917438Y-158715601D01*
X215917438Y-158715601D02*
X215869819Y-158620363D01*
X215869819Y-158620363D02*
X215869819Y-158382268D01*
X215869819Y-158382268D02*
X215917438Y-158239411D01*
X216869819Y-157810839D02*
X215869819Y-157810839D01*
X215869819Y-157810839D02*
X215869819Y-157572744D01*
X215869819Y-157572744D02*
X215917438Y-157429887D01*
X215917438Y-157429887D02*
X216012676Y-157334649D01*
X216012676Y-157334649D02*
X216107914Y-157287030D01*
X216107914Y-157287030D02*
X216298390Y-157239411D01*
X216298390Y-157239411D02*
X216441247Y-157239411D01*
X216441247Y-157239411D02*
X216631723Y-157287030D01*
X216631723Y-157287030D02*
X216726961Y-157334649D01*
X216726961Y-157334649D02*
X216822200Y-157429887D01*
X216822200Y-157429887D02*
X216869819Y-157572744D01*
X216869819Y-157572744D02*
X216869819Y-157810839D01*
X215869819Y-156620363D02*
X215869819Y-156525125D01*
X215869819Y-156525125D02*
X215917438Y-156429887D01*
X215917438Y-156429887D02*
X215965057Y-156382268D01*
X215965057Y-156382268D02*
X216060295Y-156334649D01*
X216060295Y-156334649D02*
X216250771Y-156287030D01*
X216250771Y-156287030D02*
X216488866Y-156287030D01*
X216488866Y-156287030D02*
X216679342Y-156334649D01*
X216679342Y-156334649D02*
X216774580Y-156382268D01*
X216774580Y-156382268D02*
X216822200Y-156429887D01*
X216822200Y-156429887D02*
X216869819Y-156525125D01*
X216869819Y-156525125D02*
X216869819Y-156620363D01*
X216869819Y-156620363D02*
X216822200Y-156715601D01*
X216822200Y-156715601D02*
X216774580Y-156763220D01*
X216774580Y-156763220D02*
X216679342Y-156810839D01*
X216679342Y-156810839D02*
X216488866Y-156858458D01*
X216488866Y-156858458D02*
X216250771Y-156858458D01*
X216250771Y-156858458D02*
X216060295Y-156810839D01*
X216060295Y-156810839D02*
X215965057Y-156763220D01*
X215965057Y-156763220D02*
X215917438Y-156715601D01*
X215917438Y-156715601D02*
X215869819Y-156620363D01*
X189610588Y-151917438D02*
X189515350Y-151869819D01*
X189515350Y-151869819D02*
X189372493Y-151869819D01*
X189372493Y-151869819D02*
X189229636Y-151917438D01*
X189229636Y-151917438D02*
X189134398Y-152012676D01*
X189134398Y-152012676D02*
X189086779Y-152107914D01*
X189086779Y-152107914D02*
X189039160Y-152298390D01*
X189039160Y-152298390D02*
X189039160Y-152441247D01*
X189039160Y-152441247D02*
X189086779Y-152631723D01*
X189086779Y-152631723D02*
X189134398Y-152726961D01*
X189134398Y-152726961D02*
X189229636Y-152822200D01*
X189229636Y-152822200D02*
X189372493Y-152869819D01*
X189372493Y-152869819D02*
X189467731Y-152869819D01*
X189467731Y-152869819D02*
X189610588Y-152822200D01*
X189610588Y-152822200D02*
X189658207Y-152774580D01*
X189658207Y-152774580D02*
X189658207Y-152441247D01*
X189658207Y-152441247D02*
X189467731Y-152441247D01*
X190086779Y-152869819D02*
X190086779Y-151869819D01*
X190086779Y-151869819D02*
X190658207Y-152869819D01*
X190658207Y-152869819D02*
X190658207Y-151869819D01*
X191134398Y-152869819D02*
X191134398Y-151869819D01*
X191134398Y-151869819D02*
X191372493Y-151869819D01*
X191372493Y-151869819D02*
X191515350Y-151917438D01*
X191515350Y-151917438D02*
X191610588Y-152012676D01*
X191610588Y-152012676D02*
X191658207Y-152107914D01*
X191658207Y-152107914D02*
X191705826Y-152298390D01*
X191705826Y-152298390D02*
X191705826Y-152441247D01*
X191705826Y-152441247D02*
X191658207Y-152631723D01*
X191658207Y-152631723D02*
X191610588Y-152726961D01*
X191610588Y-152726961D02*
X191515350Y-152822200D01*
X191515350Y-152822200D02*
X191372493Y-152869819D01*
X191372493Y-152869819D02*
X191134398Y-152869819D01*
X210970112Y-134546009D02*
X211112969Y-134593628D01*
X211112969Y-134593628D02*
X211160588Y-134641247D01*
X211160588Y-134641247D02*
X211208207Y-134736485D01*
X211208207Y-134736485D02*
X211208207Y-134879342D01*
X211208207Y-134879342D02*
X211160588Y-134974580D01*
X211160588Y-134974580D02*
X211112969Y-135022200D01*
X211112969Y-135022200D02*
X211017731Y-135069819D01*
X211017731Y-135069819D02*
X210636779Y-135069819D01*
X210636779Y-135069819D02*
X210636779Y-134069819D01*
X210636779Y-134069819D02*
X210970112Y-134069819D01*
X210970112Y-134069819D02*
X211065350Y-134117438D01*
X211065350Y-134117438D02*
X211112969Y-134165057D01*
X211112969Y-134165057D02*
X211160588Y-134260295D01*
X211160588Y-134260295D02*
X211160588Y-134355533D01*
X211160588Y-134355533D02*
X211112969Y-134450771D01*
X211112969Y-134450771D02*
X211065350Y-134498390D01*
X211065350Y-134498390D02*
X210970112Y-134546009D01*
X210970112Y-134546009D02*
X210636779Y-134546009D01*
X212160588Y-135069819D02*
X211589160Y-135069819D01*
X211874874Y-135069819D02*
X211874874Y-134069819D01*
X211874874Y-134069819D02*
X211779636Y-134212676D01*
X211779636Y-134212676D02*
X211684398Y-134307914D01*
X211684398Y-134307914D02*
X211589160Y-134355533D01*
X212493922Y-134069819D02*
X213112969Y-134069819D01*
X213112969Y-134069819D02*
X212779636Y-134450771D01*
X212779636Y-134450771D02*
X212922493Y-134450771D01*
X212922493Y-134450771D02*
X213017731Y-134498390D01*
X213017731Y-134498390D02*
X213065350Y-134546009D01*
X213065350Y-134546009D02*
X213112969Y-134641247D01*
X213112969Y-134641247D02*
X213112969Y-134879342D01*
X213112969Y-134879342D02*
X213065350Y-134974580D01*
X213065350Y-134974580D02*
X213017731Y-135022200D01*
X213017731Y-135022200D02*
X212922493Y-135069819D01*
X212922493Y-135069819D02*
X212636779Y-135069819D01*
X212636779Y-135069819D02*
X212541541Y-135022200D01*
X212541541Y-135022200D02*
X212493922Y-134974580D01*
X215993922Y-154769819D02*
X216565350Y-154769819D01*
X216279636Y-155769819D02*
X216279636Y-154769819D01*
X216803446Y-155103152D02*
X216993922Y-155769819D01*
X216993922Y-155769819D02*
X217184398Y-155293628D01*
X217184398Y-155293628D02*
X217374874Y-155769819D01*
X217374874Y-155769819D02*
X217565350Y-155103152D01*
X218089160Y-155769819D02*
X217993922Y-155722200D01*
X217993922Y-155722200D02*
X217946303Y-155674580D01*
X217946303Y-155674580D02*
X217898684Y-155579342D01*
X217898684Y-155579342D02*
X217898684Y-155293628D01*
X217898684Y-155293628D02*
X217946303Y-155198390D01*
X217946303Y-155198390D02*
X217993922Y-155150771D01*
X217993922Y-155150771D02*
X218089160Y-155103152D01*
X218089160Y-155103152D02*
X218232017Y-155103152D01*
X218232017Y-155103152D02*
X218327255Y-155150771D01*
X218327255Y-155150771D02*
X218374874Y-155198390D01*
X218374874Y-155198390D02*
X218422493Y-155293628D01*
X218422493Y-155293628D02*
X218422493Y-155579342D01*
X218422493Y-155579342D02*
X218374874Y-155674580D01*
X218374874Y-155674580D02*
X218327255Y-155722200D01*
X218327255Y-155722200D02*
X218232017Y-155769819D01*
X218232017Y-155769819D02*
X218089160Y-155769819D01*
X218851065Y-155388866D02*
X219612970Y-155388866D01*
X220041541Y-155722200D02*
X220184398Y-155769819D01*
X220184398Y-155769819D02*
X220422493Y-155769819D01*
X220422493Y-155769819D02*
X220517731Y-155722200D01*
X220517731Y-155722200D02*
X220565350Y-155674580D01*
X220565350Y-155674580D02*
X220612969Y-155579342D01*
X220612969Y-155579342D02*
X220612969Y-155484104D01*
X220612969Y-155484104D02*
X220565350Y-155388866D01*
X220565350Y-155388866D02*
X220517731Y-155341247D01*
X220517731Y-155341247D02*
X220422493Y-155293628D01*
X220422493Y-155293628D02*
X220232017Y-155246009D01*
X220232017Y-155246009D02*
X220136779Y-155198390D01*
X220136779Y-155198390D02*
X220089160Y-155150771D01*
X220089160Y-155150771D02*
X220041541Y-155055533D01*
X220041541Y-155055533D02*
X220041541Y-154960295D01*
X220041541Y-154960295D02*
X220089160Y-154865057D01*
X220089160Y-154865057D02*
X220136779Y-154817438D01*
X220136779Y-154817438D02*
X220232017Y-154769819D01*
X220232017Y-154769819D02*
X220470112Y-154769819D01*
X220470112Y-154769819D02*
X220612969Y-154817438D01*
X220898684Y-155103152D02*
X221279636Y-155103152D01*
X221041541Y-154769819D02*
X221041541Y-155626961D01*
X221041541Y-155626961D02*
X221089160Y-155722200D01*
X221089160Y-155722200D02*
X221184398Y-155769819D01*
X221184398Y-155769819D02*
X221279636Y-155769819D01*
X222041541Y-155769819D02*
X222041541Y-155246009D01*
X222041541Y-155246009D02*
X221993922Y-155150771D01*
X221993922Y-155150771D02*
X221898684Y-155103152D01*
X221898684Y-155103152D02*
X221708208Y-155103152D01*
X221708208Y-155103152D02*
X221612970Y-155150771D01*
X222041541Y-155722200D02*
X221946303Y-155769819D01*
X221946303Y-155769819D02*
X221708208Y-155769819D01*
X221708208Y-155769819D02*
X221612970Y-155722200D01*
X221612970Y-155722200D02*
X221565351Y-155626961D01*
X221565351Y-155626961D02*
X221565351Y-155531723D01*
X221565351Y-155531723D02*
X221612970Y-155436485D01*
X221612970Y-155436485D02*
X221708208Y-155388866D01*
X221708208Y-155388866D02*
X221946303Y-155388866D01*
X221946303Y-155388866D02*
X222041541Y-155341247D01*
X222946303Y-155103152D02*
X222946303Y-155912676D01*
X222946303Y-155912676D02*
X222898684Y-156007914D01*
X222898684Y-156007914D02*
X222851065Y-156055533D01*
X222851065Y-156055533D02*
X222755827Y-156103152D01*
X222755827Y-156103152D02*
X222612970Y-156103152D01*
X222612970Y-156103152D02*
X222517732Y-156055533D01*
X222946303Y-155722200D02*
X222851065Y-155769819D01*
X222851065Y-155769819D02*
X222660589Y-155769819D01*
X222660589Y-155769819D02*
X222565351Y-155722200D01*
X222565351Y-155722200D02*
X222517732Y-155674580D01*
X222517732Y-155674580D02*
X222470113Y-155579342D01*
X222470113Y-155579342D02*
X222470113Y-155293628D01*
X222470113Y-155293628D02*
X222517732Y-155198390D01*
X222517732Y-155198390D02*
X222565351Y-155150771D01*
X222565351Y-155150771D02*
X222660589Y-155103152D01*
X222660589Y-155103152D02*
X222851065Y-155103152D01*
X222851065Y-155103152D02*
X222946303Y-155150771D01*
X223803446Y-155722200D02*
X223708208Y-155769819D01*
X223708208Y-155769819D02*
X223517732Y-155769819D01*
X223517732Y-155769819D02*
X223422494Y-155722200D01*
X223422494Y-155722200D02*
X223374875Y-155626961D01*
X223374875Y-155626961D02*
X223374875Y-155246009D01*
X223374875Y-155246009D02*
X223422494Y-155150771D01*
X223422494Y-155150771D02*
X223517732Y-155103152D01*
X223517732Y-155103152D02*
X223708208Y-155103152D01*
X223708208Y-155103152D02*
X223803446Y-155150771D01*
X223803446Y-155150771D02*
X223851065Y-155246009D01*
X223851065Y-155246009D02*
X223851065Y-155341247D01*
X223851065Y-155341247D02*
X223374875Y-155436485D01*
X189562969Y-137619819D02*
X189086779Y-137619819D01*
X189086779Y-137619819D02*
X189086779Y-136619819D01*
X190277255Y-137572200D02*
X190182017Y-137619819D01*
X190182017Y-137619819D02*
X189991541Y-137619819D01*
X189991541Y-137619819D02*
X189896303Y-137572200D01*
X189896303Y-137572200D02*
X189848684Y-137476961D01*
X189848684Y-137476961D02*
X189848684Y-137096009D01*
X189848684Y-137096009D02*
X189896303Y-137000771D01*
X189896303Y-137000771D02*
X189991541Y-136953152D01*
X189991541Y-136953152D02*
X190182017Y-136953152D01*
X190182017Y-136953152D02*
X190277255Y-137000771D01*
X190277255Y-137000771D02*
X190324874Y-137096009D01*
X190324874Y-137096009D02*
X190324874Y-137191247D01*
X190324874Y-137191247D02*
X189848684Y-137286485D01*
X190610589Y-136953152D02*
X190991541Y-136953152D01*
X190753446Y-137619819D02*
X190753446Y-136762676D01*
X190753446Y-136762676D02*
X190801065Y-136667438D01*
X190801065Y-136667438D02*
X190896303Y-136619819D01*
X190896303Y-136619819D02*
X190991541Y-136619819D01*
X191182018Y-136953152D02*
X191562970Y-136953152D01*
X191324875Y-136619819D02*
X191324875Y-137476961D01*
X191324875Y-137476961D02*
X191372494Y-137572200D01*
X191372494Y-137572200D02*
X191467732Y-137619819D01*
X191467732Y-137619819D02*
X191562970Y-137619819D01*
X204117438Y-158639411D02*
X204069819Y-158734649D01*
X204069819Y-158734649D02*
X204069819Y-158877506D01*
X204069819Y-158877506D02*
X204117438Y-159020363D01*
X204117438Y-159020363D02*
X204212676Y-159115601D01*
X204212676Y-159115601D02*
X204307914Y-159163220D01*
X204307914Y-159163220D02*
X204498390Y-159210839D01*
X204498390Y-159210839D02*
X204641247Y-159210839D01*
X204641247Y-159210839D02*
X204831723Y-159163220D01*
X204831723Y-159163220D02*
X204926961Y-159115601D01*
X204926961Y-159115601D02*
X205022200Y-159020363D01*
X205022200Y-159020363D02*
X205069819Y-158877506D01*
X205069819Y-158877506D02*
X205069819Y-158782268D01*
X205069819Y-158782268D02*
X205022200Y-158639411D01*
X205022200Y-158639411D02*
X204974580Y-158591792D01*
X204974580Y-158591792D02*
X204641247Y-158591792D01*
X204641247Y-158591792D02*
X204641247Y-158782268D01*
X205069819Y-158163220D02*
X204069819Y-158163220D01*
X204069819Y-158163220D02*
X205069819Y-157591792D01*
X205069819Y-157591792D02*
X204069819Y-157591792D01*
X205069819Y-157115601D02*
X204069819Y-157115601D01*
X204069819Y-157115601D02*
X204069819Y-156877506D01*
X204069819Y-156877506D02*
X204117438Y-156734649D01*
X204117438Y-156734649D02*
X204212676Y-156639411D01*
X204212676Y-156639411D02*
X204307914Y-156591792D01*
X204307914Y-156591792D02*
X204498390Y-156544173D01*
X204498390Y-156544173D02*
X204641247Y-156544173D01*
X204641247Y-156544173D02*
X204831723Y-156591792D01*
X204831723Y-156591792D02*
X204926961Y-156639411D01*
X204926961Y-156639411D02*
X205022200Y-156734649D01*
X205022200Y-156734649D02*
X205069819Y-156877506D01*
X205069819Y-156877506D02*
X205069819Y-157115601D01*
X224360588Y-139917438D02*
X224265350Y-139869819D01*
X224265350Y-139869819D02*
X224122493Y-139869819D01*
X224122493Y-139869819D02*
X223979636Y-139917438D01*
X223979636Y-139917438D02*
X223884398Y-140012676D01*
X223884398Y-140012676D02*
X223836779Y-140107914D01*
X223836779Y-140107914D02*
X223789160Y-140298390D01*
X223789160Y-140298390D02*
X223789160Y-140441247D01*
X223789160Y-140441247D02*
X223836779Y-140631723D01*
X223836779Y-140631723D02*
X223884398Y-140726961D01*
X223884398Y-140726961D02*
X223979636Y-140822200D01*
X223979636Y-140822200D02*
X224122493Y-140869819D01*
X224122493Y-140869819D02*
X224217731Y-140869819D01*
X224217731Y-140869819D02*
X224360588Y-140822200D01*
X224360588Y-140822200D02*
X224408207Y-140774580D01*
X224408207Y-140774580D02*
X224408207Y-140441247D01*
X224408207Y-140441247D02*
X224217731Y-140441247D01*
X224836779Y-140869819D02*
X224836779Y-139869819D01*
X224836779Y-139869819D02*
X225408207Y-140869819D01*
X225408207Y-140869819D02*
X225408207Y-139869819D01*
X225884398Y-140869819D02*
X225884398Y-139869819D01*
X225884398Y-139869819D02*
X226122493Y-139869819D01*
X226122493Y-139869819D02*
X226265350Y-139917438D01*
X226265350Y-139917438D02*
X226360588Y-140012676D01*
X226360588Y-140012676D02*
X226408207Y-140107914D01*
X226408207Y-140107914D02*
X226455826Y-140298390D01*
X226455826Y-140298390D02*
X226455826Y-140441247D01*
X226455826Y-140441247D02*
X226408207Y-140631723D01*
X226408207Y-140631723D02*
X226360588Y-140726961D01*
X226360588Y-140726961D02*
X226265350Y-140822200D01*
X226265350Y-140822200D02*
X226122493Y-140869819D01*
X226122493Y-140869819D02*
X225884398Y-140869819D01*
X219546009Y-136029887D02*
X219593628Y-135887030D01*
X219593628Y-135887030D02*
X219641247Y-135839411D01*
X219641247Y-135839411D02*
X219736485Y-135791792D01*
X219736485Y-135791792D02*
X219879342Y-135791792D01*
X219879342Y-135791792D02*
X219974580Y-135839411D01*
X219974580Y-135839411D02*
X220022200Y-135887030D01*
X220022200Y-135887030D02*
X220069819Y-135982268D01*
X220069819Y-135982268D02*
X220069819Y-136363220D01*
X220069819Y-136363220D02*
X219069819Y-136363220D01*
X219069819Y-136363220D02*
X219069819Y-136029887D01*
X219069819Y-136029887D02*
X219117438Y-135934649D01*
X219117438Y-135934649D02*
X219165057Y-135887030D01*
X219165057Y-135887030D02*
X219260295Y-135839411D01*
X219260295Y-135839411D02*
X219355533Y-135839411D01*
X219355533Y-135839411D02*
X219450771Y-135887030D01*
X219450771Y-135887030D02*
X219498390Y-135934649D01*
X219498390Y-135934649D02*
X219546009Y-136029887D01*
X219546009Y-136029887D02*
X219546009Y-136363220D01*
X220069819Y-134839411D02*
X220069819Y-135410839D01*
X220069819Y-135125125D02*
X219069819Y-135125125D01*
X219069819Y-135125125D02*
X219212676Y-135220363D01*
X219212676Y-135220363D02*
X219307914Y-135315601D01*
X219307914Y-135315601D02*
X219355533Y-135410839D01*
X219069819Y-134220363D02*
X219069819Y-134125125D01*
X219069819Y-134125125D02*
X219117438Y-134029887D01*
X219117438Y-134029887D02*
X219165057Y-133982268D01*
X219165057Y-133982268D02*
X219260295Y-133934649D01*
X219260295Y-133934649D02*
X219450771Y-133887030D01*
X219450771Y-133887030D02*
X219688866Y-133887030D01*
X219688866Y-133887030D02*
X219879342Y-133934649D01*
X219879342Y-133934649D02*
X219974580Y-133982268D01*
X219974580Y-133982268D02*
X220022200Y-134029887D01*
X220022200Y-134029887D02*
X220069819Y-134125125D01*
X220069819Y-134125125D02*
X220069819Y-134220363D01*
X220069819Y-134220363D02*
X220022200Y-134315601D01*
X220022200Y-134315601D02*
X219974580Y-134363220D01*
X219974580Y-134363220D02*
X219879342Y-134410839D01*
X219879342Y-134410839D02*
X219688866Y-134458458D01*
X219688866Y-134458458D02*
X219450771Y-134458458D01*
X219450771Y-134458458D02*
X219260295Y-134410839D01*
X219260295Y-134410839D02*
X219165057Y-134363220D01*
X219165057Y-134363220D02*
X219117438Y-134315601D01*
X219117438Y-134315601D02*
X219069819Y-134220363D01*
X200936779Y-156069819D02*
X200936779Y-155069819D01*
X200936779Y-155069819D02*
X201174874Y-155069819D01*
X201174874Y-155069819D02*
X201317731Y-155117438D01*
X201317731Y-155117438D02*
X201412969Y-155212676D01*
X201412969Y-155212676D02*
X201460588Y-155307914D01*
X201460588Y-155307914D02*
X201508207Y-155498390D01*
X201508207Y-155498390D02*
X201508207Y-155641247D01*
X201508207Y-155641247D02*
X201460588Y-155831723D01*
X201460588Y-155831723D02*
X201412969Y-155926961D01*
X201412969Y-155926961D02*
X201317731Y-156022200D01*
X201317731Y-156022200D02*
X201174874Y-156069819D01*
X201174874Y-156069819D02*
X200936779Y-156069819D01*
X201936779Y-156069819D02*
X201936779Y-155403152D01*
X201936779Y-155069819D02*
X201889160Y-155117438D01*
X201889160Y-155117438D02*
X201936779Y-155165057D01*
X201936779Y-155165057D02*
X201984398Y-155117438D01*
X201984398Y-155117438D02*
X201936779Y-155069819D01*
X201936779Y-155069819D02*
X201936779Y-155165057D01*
X202412969Y-156069819D02*
X202412969Y-155403152D01*
X202412969Y-155593628D02*
X202460588Y-155498390D01*
X202460588Y-155498390D02*
X202508207Y-155450771D01*
X202508207Y-155450771D02*
X202603445Y-155403152D01*
X202603445Y-155403152D02*
X202698683Y-155403152D01*
X203412969Y-156022200D02*
X203317731Y-156069819D01*
X203317731Y-156069819D02*
X203127255Y-156069819D01*
X203127255Y-156069819D02*
X203032017Y-156022200D01*
X203032017Y-156022200D02*
X202984398Y-155926961D01*
X202984398Y-155926961D02*
X202984398Y-155546009D01*
X202984398Y-155546009D02*
X203032017Y-155450771D01*
X203032017Y-155450771D02*
X203127255Y-155403152D01*
X203127255Y-155403152D02*
X203317731Y-155403152D01*
X203317731Y-155403152D02*
X203412969Y-155450771D01*
X203412969Y-155450771D02*
X203460588Y-155546009D01*
X203460588Y-155546009D02*
X203460588Y-155641247D01*
X203460588Y-155641247D02*
X202984398Y-155736485D01*
X204317731Y-156022200D02*
X204222493Y-156069819D01*
X204222493Y-156069819D02*
X204032017Y-156069819D01*
X204032017Y-156069819D02*
X203936779Y-156022200D01*
X203936779Y-156022200D02*
X203889160Y-155974580D01*
X203889160Y-155974580D02*
X203841541Y-155879342D01*
X203841541Y-155879342D02*
X203841541Y-155593628D01*
X203841541Y-155593628D02*
X203889160Y-155498390D01*
X203889160Y-155498390D02*
X203936779Y-155450771D01*
X203936779Y-155450771D02*
X204032017Y-155403152D01*
X204032017Y-155403152D02*
X204222493Y-155403152D01*
X204222493Y-155403152D02*
X204317731Y-155450771D01*
X204603446Y-155403152D02*
X204984398Y-155403152D01*
X204746303Y-155069819D02*
X204746303Y-155926961D01*
X204746303Y-155926961D02*
X204793922Y-156022200D01*
X204793922Y-156022200D02*
X204889160Y-156069819D01*
X204889160Y-156069819D02*
X204984398Y-156069819D01*
X223369819Y-158858458D02*
X223369819Y-158239411D01*
X223369819Y-158239411D02*
X223750771Y-158572744D01*
X223750771Y-158572744D02*
X223750771Y-158429887D01*
X223750771Y-158429887D02*
X223798390Y-158334649D01*
X223798390Y-158334649D02*
X223846009Y-158287030D01*
X223846009Y-158287030D02*
X223941247Y-158239411D01*
X223941247Y-158239411D02*
X224179342Y-158239411D01*
X224179342Y-158239411D02*
X224274580Y-158287030D01*
X224274580Y-158287030D02*
X224322200Y-158334649D01*
X224322200Y-158334649D02*
X224369819Y-158429887D01*
X224369819Y-158429887D02*
X224369819Y-158715601D01*
X224369819Y-158715601D02*
X224322200Y-158810839D01*
X224322200Y-158810839D02*
X224274580Y-158858458D01*
X223369819Y-157953696D02*
X224369819Y-157620363D01*
X224369819Y-157620363D02*
X223369819Y-157287030D01*
X223369819Y-157048934D02*
X223369819Y-156429887D01*
X223369819Y-156429887D02*
X223750771Y-156763220D01*
X223750771Y-156763220D02*
X223750771Y-156620363D01*
X223750771Y-156620363D02*
X223798390Y-156525125D01*
X223798390Y-156525125D02*
X223846009Y-156477506D01*
X223846009Y-156477506D02*
X223941247Y-156429887D01*
X223941247Y-156429887D02*
X224179342Y-156429887D01*
X224179342Y-156429887D02*
X224274580Y-156477506D01*
X224274580Y-156477506D02*
X224322200Y-156525125D01*
X224322200Y-156525125D02*
X224369819Y-156620363D01*
X224369819Y-156620363D02*
X224369819Y-156906077D01*
X224369819Y-156906077D02*
X224322200Y-157001315D01*
X224322200Y-157001315D02*
X224274580Y-157048934D01*
X196039819Y-159268458D02*
X197039819Y-159030363D01*
X197039819Y-159030363D02*
X196325533Y-158839887D01*
X196325533Y-158839887D02*
X197039819Y-158649411D01*
X197039819Y-158649411D02*
X196039819Y-158411316D01*
X196992200Y-158077982D02*
X197039819Y-157935125D01*
X197039819Y-157935125D02*
X197039819Y-157697030D01*
X197039819Y-157697030D02*
X196992200Y-157601792D01*
X196992200Y-157601792D02*
X196944580Y-157554173D01*
X196944580Y-157554173D02*
X196849342Y-157506554D01*
X196849342Y-157506554D02*
X196754104Y-157506554D01*
X196754104Y-157506554D02*
X196658866Y-157554173D01*
X196658866Y-157554173D02*
X196611247Y-157601792D01*
X196611247Y-157601792D02*
X196563628Y-157697030D01*
X196563628Y-157697030D02*
X196516009Y-157887506D01*
X196516009Y-157887506D02*
X196468390Y-157982744D01*
X196468390Y-157982744D02*
X196420771Y-158030363D01*
X196420771Y-158030363D02*
X196325533Y-158077982D01*
X196325533Y-158077982D02*
X196230295Y-158077982D01*
X196230295Y-158077982D02*
X196135057Y-158030363D01*
X196135057Y-158030363D02*
X196087438Y-157982744D01*
X196087438Y-157982744D02*
X196039819Y-157887506D01*
X196039819Y-157887506D02*
X196039819Y-157649411D01*
X196039819Y-157649411D02*
X196087438Y-157506554D01*
X189039160Y-145072200D02*
X189182017Y-145119819D01*
X189182017Y-145119819D02*
X189420112Y-145119819D01*
X189420112Y-145119819D02*
X189515350Y-145072200D01*
X189515350Y-145072200D02*
X189562969Y-145024580D01*
X189562969Y-145024580D02*
X189610588Y-144929342D01*
X189610588Y-144929342D02*
X189610588Y-144834104D01*
X189610588Y-144834104D02*
X189562969Y-144738866D01*
X189562969Y-144738866D02*
X189515350Y-144691247D01*
X189515350Y-144691247D02*
X189420112Y-144643628D01*
X189420112Y-144643628D02*
X189229636Y-144596009D01*
X189229636Y-144596009D02*
X189134398Y-144548390D01*
X189134398Y-144548390D02*
X189086779Y-144500771D01*
X189086779Y-144500771D02*
X189039160Y-144405533D01*
X189039160Y-144405533D02*
X189039160Y-144310295D01*
X189039160Y-144310295D02*
X189086779Y-144215057D01*
X189086779Y-144215057D02*
X189134398Y-144167438D01*
X189134398Y-144167438D02*
X189229636Y-144119819D01*
X189229636Y-144119819D02*
X189467731Y-144119819D01*
X189467731Y-144119819D02*
X189610588Y-144167438D01*
X190039160Y-145119819D02*
X190039160Y-144119819D01*
X190039160Y-144119819D02*
X190277255Y-144119819D01*
X190277255Y-144119819D02*
X190420112Y-144167438D01*
X190420112Y-144167438D02*
X190515350Y-144262676D01*
X190515350Y-144262676D02*
X190562969Y-144357914D01*
X190562969Y-144357914D02*
X190610588Y-144548390D01*
X190610588Y-144548390D02*
X190610588Y-144691247D01*
X190610588Y-144691247D02*
X190562969Y-144881723D01*
X190562969Y-144881723D02*
X190515350Y-144976961D01*
X190515350Y-144976961D02*
X190420112Y-145072200D01*
X190420112Y-145072200D02*
X190277255Y-145119819D01*
X190277255Y-145119819D02*
X190039160Y-145119819D01*
X195369819Y-139063220D02*
X194369819Y-139063220D01*
X194369819Y-139063220D02*
X194369819Y-138682268D01*
X194369819Y-138682268D02*
X194417438Y-138587030D01*
X194417438Y-138587030D02*
X194465057Y-138539411D01*
X194465057Y-138539411D02*
X194560295Y-138491792D01*
X194560295Y-138491792D02*
X194703152Y-138491792D01*
X194703152Y-138491792D02*
X194798390Y-138539411D01*
X194798390Y-138539411D02*
X194846009Y-138587030D01*
X194846009Y-138587030D02*
X194893628Y-138682268D01*
X194893628Y-138682268D02*
X194893628Y-139063220D01*
X194417438Y-137539411D02*
X194369819Y-137634649D01*
X194369819Y-137634649D02*
X194369819Y-137777506D01*
X194369819Y-137777506D02*
X194417438Y-137920363D01*
X194417438Y-137920363D02*
X194512676Y-138015601D01*
X194512676Y-138015601D02*
X194607914Y-138063220D01*
X194607914Y-138063220D02*
X194798390Y-138110839D01*
X194798390Y-138110839D02*
X194941247Y-138110839D01*
X194941247Y-138110839D02*
X195131723Y-138063220D01*
X195131723Y-138063220D02*
X195226961Y-138015601D01*
X195226961Y-138015601D02*
X195322200Y-137920363D01*
X195322200Y-137920363D02*
X195369819Y-137777506D01*
X195369819Y-137777506D02*
X195369819Y-137682268D01*
X195369819Y-137682268D02*
X195322200Y-137539411D01*
X195322200Y-137539411D02*
X195274580Y-137491792D01*
X195274580Y-137491792D02*
X194941247Y-137491792D01*
X194941247Y-137491792D02*
X194941247Y-137682268D01*
X195274580Y-136491792D02*
X195322200Y-136539411D01*
X195322200Y-136539411D02*
X195369819Y-136682268D01*
X195369819Y-136682268D02*
X195369819Y-136777506D01*
X195369819Y-136777506D02*
X195322200Y-136920363D01*
X195322200Y-136920363D02*
X195226961Y-137015601D01*
X195226961Y-137015601D02*
X195131723Y-137063220D01*
X195131723Y-137063220D02*
X194941247Y-137110839D01*
X194941247Y-137110839D02*
X194798390Y-137110839D01*
X194798390Y-137110839D02*
X194607914Y-137063220D01*
X194607914Y-137063220D02*
X194512676Y-137015601D01*
X194512676Y-137015601D02*
X194417438Y-136920363D01*
X194417438Y-136920363D02*
X194369819Y-136777506D01*
X194369819Y-136777506D02*
X194369819Y-136682268D01*
X194369819Y-136682268D02*
X194417438Y-136539411D01*
X194417438Y-136539411D02*
X194465057Y-136491792D01*
X202269819Y-138958458D02*
X202269819Y-138339411D01*
X202269819Y-138339411D02*
X202650771Y-138672744D01*
X202650771Y-138672744D02*
X202650771Y-138529887D01*
X202650771Y-138529887D02*
X202698390Y-138434649D01*
X202698390Y-138434649D02*
X202746009Y-138387030D01*
X202746009Y-138387030D02*
X202841247Y-138339411D01*
X202841247Y-138339411D02*
X203079342Y-138339411D01*
X203079342Y-138339411D02*
X203174580Y-138387030D01*
X203174580Y-138387030D02*
X203222200Y-138434649D01*
X203222200Y-138434649D02*
X203269819Y-138529887D01*
X203269819Y-138529887D02*
X203269819Y-138815601D01*
X203269819Y-138815601D02*
X203222200Y-138910839D01*
X203222200Y-138910839D02*
X203174580Y-138958458D01*
X202269819Y-138053696D02*
X203269819Y-137720363D01*
X203269819Y-137720363D02*
X202269819Y-137387030D01*
X202269819Y-137148934D02*
X202269819Y-136529887D01*
X202269819Y-136529887D02*
X202650771Y-136863220D01*
X202650771Y-136863220D02*
X202650771Y-136720363D01*
X202650771Y-136720363D02*
X202698390Y-136625125D01*
X202698390Y-136625125D02*
X202746009Y-136577506D01*
X202746009Y-136577506D02*
X202841247Y-136529887D01*
X202841247Y-136529887D02*
X203079342Y-136529887D01*
X203079342Y-136529887D02*
X203174580Y-136577506D01*
X203174580Y-136577506D02*
X203222200Y-136625125D01*
X203222200Y-136625125D02*
X203269819Y-136720363D01*
X203269819Y-136720363D02*
X203269819Y-137006077D01*
X203269819Y-137006077D02*
X203222200Y-137101315D01*
X203222200Y-137101315D02*
X203174580Y-137148934D01*
X219322200Y-158810839D02*
X219369819Y-158667982D01*
X219369819Y-158667982D02*
X219369819Y-158429887D01*
X219369819Y-158429887D02*
X219322200Y-158334649D01*
X219322200Y-158334649D02*
X219274580Y-158287030D01*
X219274580Y-158287030D02*
X219179342Y-158239411D01*
X219179342Y-158239411D02*
X219084104Y-158239411D01*
X219084104Y-158239411D02*
X218988866Y-158287030D01*
X218988866Y-158287030D02*
X218941247Y-158334649D01*
X218941247Y-158334649D02*
X218893628Y-158429887D01*
X218893628Y-158429887D02*
X218846009Y-158620363D01*
X218846009Y-158620363D02*
X218798390Y-158715601D01*
X218798390Y-158715601D02*
X218750771Y-158763220D01*
X218750771Y-158763220D02*
X218655533Y-158810839D01*
X218655533Y-158810839D02*
X218560295Y-158810839D01*
X218560295Y-158810839D02*
X218465057Y-158763220D01*
X218465057Y-158763220D02*
X218417438Y-158715601D01*
X218417438Y-158715601D02*
X218369819Y-158620363D01*
X218369819Y-158620363D02*
X218369819Y-158382268D01*
X218369819Y-158382268D02*
X218417438Y-158239411D01*
X219274580Y-157239411D02*
X219322200Y-157287030D01*
X219322200Y-157287030D02*
X219369819Y-157429887D01*
X219369819Y-157429887D02*
X219369819Y-157525125D01*
X219369819Y-157525125D02*
X219322200Y-157667982D01*
X219322200Y-157667982D02*
X219226961Y-157763220D01*
X219226961Y-157763220D02*
X219131723Y-157810839D01*
X219131723Y-157810839D02*
X218941247Y-157858458D01*
X218941247Y-157858458D02*
X218798390Y-157858458D01*
X218798390Y-157858458D02*
X218607914Y-157810839D01*
X218607914Y-157810839D02*
X218512676Y-157763220D01*
X218512676Y-157763220D02*
X218417438Y-157667982D01*
X218417438Y-157667982D02*
X218369819Y-157525125D01*
X218369819Y-157525125D02*
X218369819Y-157429887D01*
X218369819Y-157429887D02*
X218417438Y-157287030D01*
X218417438Y-157287030D02*
X218465057Y-157239411D01*
X219369819Y-156810839D02*
X218369819Y-156810839D01*
X219369819Y-156239411D02*
X218798390Y-156667982D01*
X218369819Y-156239411D02*
X218941247Y-156810839D01*
X223789160Y-143322200D02*
X223932017Y-143369819D01*
X223932017Y-143369819D02*
X224170112Y-143369819D01*
X224170112Y-143369819D02*
X224265350Y-143322200D01*
X224265350Y-143322200D02*
X224312969Y-143274580D01*
X224312969Y-143274580D02*
X224360588Y-143179342D01*
X224360588Y-143179342D02*
X224360588Y-143084104D01*
X224360588Y-143084104D02*
X224312969Y-142988866D01*
X224312969Y-142988866D02*
X224265350Y-142941247D01*
X224265350Y-142941247D02*
X224170112Y-142893628D01*
X224170112Y-142893628D02*
X223979636Y-142846009D01*
X223979636Y-142846009D02*
X223884398Y-142798390D01*
X223884398Y-142798390D02*
X223836779Y-142750771D01*
X223836779Y-142750771D02*
X223789160Y-142655533D01*
X223789160Y-142655533D02*
X223789160Y-142560295D01*
X223789160Y-142560295D02*
X223836779Y-142465057D01*
X223836779Y-142465057D02*
X223884398Y-142417438D01*
X223884398Y-142417438D02*
X223979636Y-142369819D01*
X223979636Y-142369819D02*
X224217731Y-142369819D01*
X224217731Y-142369819D02*
X224360588Y-142417438D01*
X225360588Y-143274580D02*
X225312969Y-143322200D01*
X225312969Y-143322200D02*
X225170112Y-143369819D01*
X225170112Y-143369819D02*
X225074874Y-143369819D01*
X225074874Y-143369819D02*
X224932017Y-143322200D01*
X224932017Y-143322200D02*
X224836779Y-143226961D01*
X224836779Y-143226961D02*
X224789160Y-143131723D01*
X224789160Y-143131723D02*
X224741541Y-142941247D01*
X224741541Y-142941247D02*
X224741541Y-142798390D01*
X224741541Y-142798390D02*
X224789160Y-142607914D01*
X224789160Y-142607914D02*
X224836779Y-142512676D01*
X224836779Y-142512676D02*
X224932017Y-142417438D01*
X224932017Y-142417438D02*
X225074874Y-142369819D01*
X225074874Y-142369819D02*
X225170112Y-142369819D01*
X225170112Y-142369819D02*
X225312969Y-142417438D01*
X225312969Y-142417438D02*
X225360588Y-142465057D01*
X225789160Y-143369819D02*
X225789160Y-142369819D01*
X226360588Y-143369819D02*
X225932017Y-142798390D01*
X226360588Y-142369819D02*
X225789160Y-142941247D01*
X225369819Y-146358458D02*
X225369819Y-145739411D01*
X225369819Y-145739411D02*
X225750771Y-146072744D01*
X225750771Y-146072744D02*
X225750771Y-145929887D01*
X225750771Y-145929887D02*
X225798390Y-145834649D01*
X225798390Y-145834649D02*
X225846009Y-145787030D01*
X225846009Y-145787030D02*
X225941247Y-145739411D01*
X225941247Y-145739411D02*
X226179342Y-145739411D01*
X226179342Y-145739411D02*
X226274580Y-145787030D01*
X226274580Y-145787030D02*
X226322200Y-145834649D01*
X226322200Y-145834649D02*
X226369819Y-145929887D01*
X226369819Y-145929887D02*
X226369819Y-146215601D01*
X226369819Y-146215601D02*
X226322200Y-146310839D01*
X226322200Y-146310839D02*
X226274580Y-146358458D01*
X225369819Y-145453696D02*
X226369819Y-145120363D01*
X226369819Y-145120363D02*
X225369819Y-144787030D01*
X225369819Y-144548934D02*
X225369819Y-143929887D01*
X225369819Y-143929887D02*
X225750771Y-144263220D01*
X225750771Y-144263220D02*
X225750771Y-144120363D01*
X225750771Y-144120363D02*
X225798390Y-144025125D01*
X225798390Y-144025125D02*
X225846009Y-143977506D01*
X225846009Y-143977506D02*
X225941247Y-143929887D01*
X225941247Y-143929887D02*
X226179342Y-143929887D01*
X226179342Y-143929887D02*
X226274580Y-143977506D01*
X226274580Y-143977506D02*
X226322200Y-144025125D01*
X226322200Y-144025125D02*
X226369819Y-144120363D01*
X226369819Y-144120363D02*
X226369819Y-144406077D01*
X226369819Y-144406077D02*
X226322200Y-144501315D01*
X226322200Y-144501315D02*
X226274580Y-144548934D01*
X211574580Y-158591792D02*
X211622200Y-158639411D01*
X211622200Y-158639411D02*
X211669819Y-158782268D01*
X211669819Y-158782268D02*
X211669819Y-158877506D01*
X211669819Y-158877506D02*
X211622200Y-159020363D01*
X211622200Y-159020363D02*
X211526961Y-159115601D01*
X211526961Y-159115601D02*
X211431723Y-159163220D01*
X211431723Y-159163220D02*
X211241247Y-159210839D01*
X211241247Y-159210839D02*
X211098390Y-159210839D01*
X211098390Y-159210839D02*
X210907914Y-159163220D01*
X210907914Y-159163220D02*
X210812676Y-159115601D01*
X210812676Y-159115601D02*
X210717438Y-159020363D01*
X210717438Y-159020363D02*
X210669819Y-158877506D01*
X210669819Y-158877506D02*
X210669819Y-158782268D01*
X210669819Y-158782268D02*
X210717438Y-158639411D01*
X210717438Y-158639411D02*
X210765057Y-158591792D01*
X211622200Y-158210839D02*
X211669819Y-158067982D01*
X211669819Y-158067982D02*
X211669819Y-157829887D01*
X211669819Y-157829887D02*
X211622200Y-157734649D01*
X211622200Y-157734649D02*
X211574580Y-157687030D01*
X211574580Y-157687030D02*
X211479342Y-157639411D01*
X211479342Y-157639411D02*
X211384104Y-157639411D01*
X211384104Y-157639411D02*
X211288866Y-157687030D01*
X211288866Y-157687030D02*
X211241247Y-157734649D01*
X211241247Y-157734649D02*
X211193628Y-157829887D01*
X211193628Y-157829887D02*
X211146009Y-158020363D01*
X211146009Y-158020363D02*
X211098390Y-158115601D01*
X211098390Y-158115601D02*
X211050771Y-158163220D01*
X211050771Y-158163220D02*
X210955533Y-158210839D01*
X210955533Y-158210839D02*
X210860295Y-158210839D01*
X210860295Y-158210839D02*
X210765057Y-158163220D01*
X210765057Y-158163220D02*
X210717438Y-158115601D01*
X210717438Y-158115601D02*
X210669819Y-158020363D01*
X210669819Y-158020363D02*
X210669819Y-157782268D01*
X210669819Y-157782268D02*
X210717438Y-157639411D01*
X189562969Y-139869819D02*
X189086779Y-139869819D01*
X189086779Y-139869819D02*
X189086779Y-138869819D01*
X190467731Y-139869819D02*
X190134398Y-139393628D01*
X189896303Y-139869819D02*
X189896303Y-138869819D01*
X189896303Y-138869819D02*
X190277255Y-138869819D01*
X190277255Y-138869819D02*
X190372493Y-138917438D01*
X190372493Y-138917438D02*
X190420112Y-138965057D01*
X190420112Y-138965057D02*
X190467731Y-139060295D01*
X190467731Y-139060295D02*
X190467731Y-139203152D01*
X190467731Y-139203152D02*
X190420112Y-139298390D01*
X190420112Y-139298390D02*
X190372493Y-139346009D01*
X190372493Y-139346009D02*
X190277255Y-139393628D01*
X190277255Y-139393628D02*
X189896303Y-139393628D01*
X221536779Y-144569819D02*
X221536779Y-145379342D01*
X221536779Y-145379342D02*
X221584398Y-145474580D01*
X221584398Y-145474580D02*
X221632017Y-145522200D01*
X221632017Y-145522200D02*
X221727255Y-145569819D01*
X221727255Y-145569819D02*
X221917731Y-145569819D01*
X221917731Y-145569819D02*
X222012969Y-145522200D01*
X222012969Y-145522200D02*
X222060588Y-145474580D01*
X222060588Y-145474580D02*
X222108207Y-145379342D01*
X222108207Y-145379342D02*
X222108207Y-144569819D01*
X222536779Y-145284104D02*
X223012969Y-145284104D01*
X222441541Y-145569819D02*
X222774874Y-144569819D01*
X222774874Y-144569819D02*
X223108207Y-145569819D01*
X224012969Y-145569819D02*
X223679636Y-145093628D01*
X223441541Y-145569819D02*
X223441541Y-144569819D01*
X223441541Y-144569819D02*
X223822493Y-144569819D01*
X223822493Y-144569819D02*
X223917731Y-144617438D01*
X223917731Y-144617438D02*
X223965350Y-144665057D01*
X223965350Y-144665057D02*
X224012969Y-144760295D01*
X224012969Y-144760295D02*
X224012969Y-144903152D01*
X224012969Y-144903152D02*
X223965350Y-144998390D01*
X223965350Y-144998390D02*
X223917731Y-145046009D01*
X223917731Y-145046009D02*
X223822493Y-145093628D01*
X223822493Y-145093628D02*
X223441541Y-145093628D01*
X224298684Y-144569819D02*
X224870112Y-144569819D01*
X224584398Y-145569819D02*
X224584398Y-144569819D01*
X225562969Y-153619819D02*
X225086779Y-153619819D01*
X225086779Y-153619819D02*
X225086779Y-152619819D01*
X226467731Y-153619819D02*
X226134398Y-153143628D01*
X225896303Y-153619819D02*
X225896303Y-152619819D01*
X225896303Y-152619819D02*
X226277255Y-152619819D01*
X226277255Y-152619819D02*
X226372493Y-152667438D01*
X226372493Y-152667438D02*
X226420112Y-152715057D01*
X226420112Y-152715057D02*
X226467731Y-152810295D01*
X226467731Y-152810295D02*
X226467731Y-152953152D01*
X226467731Y-152953152D02*
X226420112Y-153048390D01*
X226420112Y-153048390D02*
X226372493Y-153096009D01*
X226372493Y-153096009D02*
X226277255Y-153143628D01*
X226277255Y-153143628D02*
X225896303Y-153143628D01*
X221017438Y-158239411D02*
X220969819Y-158334649D01*
X220969819Y-158334649D02*
X220969819Y-158477506D01*
X220969819Y-158477506D02*
X221017438Y-158620363D01*
X221017438Y-158620363D02*
X221112676Y-158715601D01*
X221112676Y-158715601D02*
X221207914Y-158763220D01*
X221207914Y-158763220D02*
X221398390Y-158810839D01*
X221398390Y-158810839D02*
X221541247Y-158810839D01*
X221541247Y-158810839D02*
X221731723Y-158763220D01*
X221731723Y-158763220D02*
X221826961Y-158715601D01*
X221826961Y-158715601D02*
X221922200Y-158620363D01*
X221922200Y-158620363D02*
X221969819Y-158477506D01*
X221969819Y-158477506D02*
X221969819Y-158382268D01*
X221969819Y-158382268D02*
X221922200Y-158239411D01*
X221922200Y-158239411D02*
X221874580Y-158191792D01*
X221874580Y-158191792D02*
X221541247Y-158191792D01*
X221541247Y-158191792D02*
X221541247Y-158382268D01*
X221969819Y-157763220D02*
X220969819Y-157763220D01*
X220969819Y-157763220D02*
X221969819Y-157191792D01*
X221969819Y-157191792D02*
X220969819Y-157191792D01*
X221969819Y-156715601D02*
X220969819Y-156715601D01*
X220969819Y-156715601D02*
X220969819Y-156477506D01*
X220969819Y-156477506D02*
X221017438Y-156334649D01*
X221017438Y-156334649D02*
X221112676Y-156239411D01*
X221112676Y-156239411D02*
X221207914Y-156191792D01*
X221207914Y-156191792D02*
X221398390Y-156144173D01*
X221398390Y-156144173D02*
X221541247Y-156144173D01*
X221541247Y-156144173D02*
X221731723Y-156191792D01*
X221731723Y-156191792D02*
X221826961Y-156239411D01*
X221826961Y-156239411D02*
X221922200Y-156334649D01*
X221922200Y-156334649D02*
X221969819Y-156477506D01*
X221969819Y-156477506D02*
X221969819Y-156715601D01*
X227158207Y-158619819D02*
X226824874Y-158143628D01*
X226586779Y-158619819D02*
X226586779Y-157619819D01*
X226586779Y-157619819D02*
X226967731Y-157619819D01*
X226967731Y-157619819D02*
X227062969Y-157667438D01*
X227062969Y-157667438D02*
X227110588Y-157715057D01*
X227110588Y-157715057D02*
X227158207Y-157810295D01*
X227158207Y-157810295D02*
X227158207Y-157953152D01*
X227158207Y-157953152D02*
X227110588Y-158048390D01*
X227110588Y-158048390D02*
X227062969Y-158096009D01*
X227062969Y-158096009D02*
X226967731Y-158143628D01*
X226967731Y-158143628D02*
X226586779Y-158143628D01*
X228062969Y-157619819D02*
X227586779Y-157619819D01*
X227586779Y-157619819D02*
X227539160Y-158096009D01*
X227539160Y-158096009D02*
X227586779Y-158048390D01*
X227586779Y-158048390D02*
X227682017Y-158000771D01*
X227682017Y-158000771D02*
X227920112Y-158000771D01*
X227920112Y-158000771D02*
X228015350Y-158048390D01*
X228015350Y-158048390D02*
X228062969Y-158096009D01*
X228062969Y-158096009D02*
X228110588Y-158191247D01*
X228110588Y-158191247D02*
X228110588Y-158429342D01*
X228110588Y-158429342D02*
X228062969Y-158524580D01*
X228062969Y-158524580D02*
X228015350Y-158572200D01*
X228015350Y-158572200D02*
X227920112Y-158619819D01*
X227920112Y-158619819D02*
X227682017Y-158619819D01*
X227682017Y-158619819D02*
X227586779Y-158572200D01*
X227586779Y-158572200D02*
X227539160Y-158524580D01*
X199717438Y-138539411D02*
X199669819Y-138634649D01*
X199669819Y-138634649D02*
X199669819Y-138777506D01*
X199669819Y-138777506D02*
X199717438Y-138920363D01*
X199717438Y-138920363D02*
X199812676Y-139015601D01*
X199812676Y-139015601D02*
X199907914Y-139063220D01*
X199907914Y-139063220D02*
X200098390Y-139110839D01*
X200098390Y-139110839D02*
X200241247Y-139110839D01*
X200241247Y-139110839D02*
X200431723Y-139063220D01*
X200431723Y-139063220D02*
X200526961Y-139015601D01*
X200526961Y-139015601D02*
X200622200Y-138920363D01*
X200622200Y-138920363D02*
X200669819Y-138777506D01*
X200669819Y-138777506D02*
X200669819Y-138682268D01*
X200669819Y-138682268D02*
X200622200Y-138539411D01*
X200622200Y-138539411D02*
X200574580Y-138491792D01*
X200574580Y-138491792D02*
X200241247Y-138491792D01*
X200241247Y-138491792D02*
X200241247Y-138682268D01*
X200669819Y-138063220D02*
X199669819Y-138063220D01*
X199669819Y-138063220D02*
X200669819Y-137491792D01*
X200669819Y-137491792D02*
X199669819Y-137491792D01*
X200669819Y-137015601D02*
X199669819Y-137015601D01*
X199669819Y-137015601D02*
X199669819Y-136777506D01*
X199669819Y-136777506D02*
X199717438Y-136634649D01*
X199717438Y-136634649D02*
X199812676Y-136539411D01*
X199812676Y-136539411D02*
X199907914Y-136491792D01*
X199907914Y-136491792D02*
X200098390Y-136444173D01*
X200098390Y-136444173D02*
X200241247Y-136444173D01*
X200241247Y-136444173D02*
X200431723Y-136491792D01*
X200431723Y-136491792D02*
X200526961Y-136539411D01*
X200526961Y-136539411D02*
X200622200Y-136634649D01*
X200622200Y-136634649D02*
X200669819Y-136777506D01*
X200669819Y-136777506D02*
X200669819Y-137015601D01*
X199922200Y-159210839D02*
X199969819Y-159067982D01*
X199969819Y-159067982D02*
X199969819Y-158829887D01*
X199969819Y-158829887D02*
X199922200Y-158734649D01*
X199922200Y-158734649D02*
X199874580Y-158687030D01*
X199874580Y-158687030D02*
X199779342Y-158639411D01*
X199779342Y-158639411D02*
X199684104Y-158639411D01*
X199684104Y-158639411D02*
X199588866Y-158687030D01*
X199588866Y-158687030D02*
X199541247Y-158734649D01*
X199541247Y-158734649D02*
X199493628Y-158829887D01*
X199493628Y-158829887D02*
X199446009Y-159020363D01*
X199446009Y-159020363D02*
X199398390Y-159115601D01*
X199398390Y-159115601D02*
X199350771Y-159163220D01*
X199350771Y-159163220D02*
X199255533Y-159210839D01*
X199255533Y-159210839D02*
X199160295Y-159210839D01*
X199160295Y-159210839D02*
X199065057Y-159163220D01*
X199065057Y-159163220D02*
X199017438Y-159115601D01*
X199017438Y-159115601D02*
X198969819Y-159020363D01*
X198969819Y-159020363D02*
X198969819Y-158782268D01*
X198969819Y-158782268D02*
X199017438Y-158639411D01*
X199969819Y-158210839D02*
X198969819Y-158210839D01*
X198969819Y-158210839D02*
X198969819Y-157972744D01*
X198969819Y-157972744D02*
X199017438Y-157829887D01*
X199017438Y-157829887D02*
X199112676Y-157734649D01*
X199112676Y-157734649D02*
X199207914Y-157687030D01*
X199207914Y-157687030D02*
X199398390Y-157639411D01*
X199398390Y-157639411D02*
X199541247Y-157639411D01*
X199541247Y-157639411D02*
X199731723Y-157687030D01*
X199731723Y-157687030D02*
X199826961Y-157734649D01*
X199826961Y-157734649D02*
X199922200Y-157829887D01*
X199922200Y-157829887D02*
X199969819Y-157972744D01*
X199969819Y-157972744D02*
X199969819Y-158210839D01*
X214122200Y-159110839D02*
X214169819Y-158967982D01*
X214169819Y-158967982D02*
X214169819Y-158729887D01*
X214169819Y-158729887D02*
X214122200Y-158634649D01*
X214122200Y-158634649D02*
X214074580Y-158587030D01*
X214074580Y-158587030D02*
X213979342Y-158539411D01*
X213979342Y-158539411D02*
X213884104Y-158539411D01*
X213884104Y-158539411D02*
X213788866Y-158587030D01*
X213788866Y-158587030D02*
X213741247Y-158634649D01*
X213741247Y-158634649D02*
X213693628Y-158729887D01*
X213693628Y-158729887D02*
X213646009Y-158920363D01*
X213646009Y-158920363D02*
X213598390Y-159015601D01*
X213598390Y-159015601D02*
X213550771Y-159063220D01*
X213550771Y-159063220D02*
X213455533Y-159110839D01*
X213455533Y-159110839D02*
X213360295Y-159110839D01*
X213360295Y-159110839D02*
X213265057Y-159063220D01*
X213265057Y-159063220D02*
X213217438Y-159015601D01*
X213217438Y-159015601D02*
X213169819Y-158920363D01*
X213169819Y-158920363D02*
X213169819Y-158682268D01*
X213169819Y-158682268D02*
X213217438Y-158539411D01*
X214169819Y-158110839D02*
X213169819Y-158110839D01*
X213169819Y-158110839D02*
X213169819Y-157872744D01*
X213169819Y-157872744D02*
X213217438Y-157729887D01*
X213217438Y-157729887D02*
X213312676Y-157634649D01*
X213312676Y-157634649D02*
X213407914Y-157587030D01*
X213407914Y-157587030D02*
X213598390Y-157539411D01*
X213598390Y-157539411D02*
X213741247Y-157539411D01*
X213741247Y-157539411D02*
X213931723Y-157587030D01*
X213931723Y-157587030D02*
X214026961Y-157634649D01*
X214026961Y-157634649D02*
X214122200Y-157729887D01*
X214122200Y-157729887D02*
X214169819Y-157872744D01*
X214169819Y-157872744D02*
X214169819Y-158110839D01*
X214169819Y-157110839D02*
X213169819Y-157110839D01*
X209484104Y-136310839D02*
X209484104Y-135834649D01*
X209769819Y-136406077D02*
X208769819Y-136072744D01*
X208769819Y-136072744D02*
X209769819Y-135739411D01*
X209769819Y-134882268D02*
X209769819Y-135453696D01*
X209769819Y-135167982D02*
X208769819Y-135167982D01*
X208769819Y-135167982D02*
X208912676Y-135263220D01*
X208912676Y-135263220D02*
X209007914Y-135358458D01*
X209007914Y-135358458D02*
X209055533Y-135453696D01*
X208769819Y-134263220D02*
X208769819Y-134167982D01*
X208769819Y-134167982D02*
X208817438Y-134072744D01*
X208817438Y-134072744D02*
X208865057Y-134025125D01*
X208865057Y-134025125D02*
X208960295Y-133977506D01*
X208960295Y-133977506D02*
X209150771Y-133929887D01*
X209150771Y-133929887D02*
X209388866Y-133929887D01*
X209388866Y-133929887D02*
X209579342Y-133977506D01*
X209579342Y-133977506D02*
X209674580Y-134025125D01*
X209674580Y-134025125D02*
X209722200Y-134072744D01*
X209722200Y-134072744D02*
X209769819Y-134167982D01*
X209769819Y-134167982D02*
X209769819Y-134263220D01*
X209769819Y-134263220D02*
X209722200Y-134358458D01*
X209722200Y-134358458D02*
X209674580Y-134406077D01*
X209674580Y-134406077D02*
X209579342Y-134453696D01*
X209579342Y-134453696D02*
X209388866Y-134501315D01*
X209388866Y-134501315D02*
X209150771Y-134501315D01*
X209150771Y-134501315D02*
X208960295Y-134453696D01*
X208960295Y-134453696D02*
X208865057Y-134406077D01*
X208865057Y-134406077D02*
X208817438Y-134358458D01*
X208817438Y-134358458D02*
X208769819Y-134263220D01*
X197969819Y-139063220D02*
X196969819Y-139063220D01*
X196969819Y-139063220D02*
X196969819Y-138682268D01*
X196969819Y-138682268D02*
X197017438Y-138587030D01*
X197017438Y-138587030D02*
X197065057Y-138539411D01*
X197065057Y-138539411D02*
X197160295Y-138491792D01*
X197160295Y-138491792D02*
X197303152Y-138491792D01*
X197303152Y-138491792D02*
X197398390Y-138539411D01*
X197398390Y-138539411D02*
X197446009Y-138587030D01*
X197446009Y-138587030D02*
X197493628Y-138682268D01*
X197493628Y-138682268D02*
X197493628Y-139063220D01*
X197017438Y-137539411D02*
X196969819Y-137634649D01*
X196969819Y-137634649D02*
X196969819Y-137777506D01*
X196969819Y-137777506D02*
X197017438Y-137920363D01*
X197017438Y-137920363D02*
X197112676Y-138015601D01*
X197112676Y-138015601D02*
X197207914Y-138063220D01*
X197207914Y-138063220D02*
X197398390Y-138110839D01*
X197398390Y-138110839D02*
X197541247Y-138110839D01*
X197541247Y-138110839D02*
X197731723Y-138063220D01*
X197731723Y-138063220D02*
X197826961Y-138015601D01*
X197826961Y-138015601D02*
X197922200Y-137920363D01*
X197922200Y-137920363D02*
X197969819Y-137777506D01*
X197969819Y-137777506D02*
X197969819Y-137682268D01*
X197969819Y-137682268D02*
X197922200Y-137539411D01*
X197922200Y-137539411D02*
X197874580Y-137491792D01*
X197874580Y-137491792D02*
X197541247Y-137491792D01*
X197541247Y-137491792D02*
X197541247Y-137682268D01*
X197969819Y-137063220D02*
X196969819Y-137063220D01*
X196969819Y-137063220D02*
X196969819Y-136825125D01*
X196969819Y-136825125D02*
X197017438Y-136682268D01*
X197017438Y-136682268D02*
X197112676Y-136587030D01*
X197112676Y-136587030D02*
X197207914Y-136539411D01*
X197207914Y-136539411D02*
X197398390Y-136491792D01*
X197398390Y-136491792D02*
X197541247Y-136491792D01*
X197541247Y-136491792D02*
X197731723Y-136539411D01*
X197731723Y-136539411D02*
X197826961Y-136587030D01*
X197826961Y-136587030D02*
X197922200Y-136682268D01*
X197922200Y-136682268D02*
X197969819Y-136825125D01*
X197969819Y-136825125D02*
X197969819Y-137063220D01*
X206063333Y-152264819D02*
X205730000Y-151788628D01*
X205491905Y-152264819D02*
X205491905Y-151264819D01*
X205491905Y-151264819D02*
X205872857Y-151264819D01*
X205872857Y-151264819D02*
X205968095Y-151312438D01*
X205968095Y-151312438D02*
X206015714Y-151360057D01*
X206015714Y-151360057D02*
X206063333Y-151455295D01*
X206063333Y-151455295D02*
X206063333Y-151598152D01*
X206063333Y-151598152D02*
X206015714Y-151693390D01*
X206015714Y-151693390D02*
X205968095Y-151741009D01*
X205968095Y-151741009D02*
X205872857Y-151788628D01*
X205872857Y-151788628D02*
X205491905Y-151788628D01*
X206396667Y-151264819D02*
X207015714Y-151264819D01*
X207015714Y-151264819D02*
X206682381Y-151645771D01*
X206682381Y-151645771D02*
X206825238Y-151645771D01*
X206825238Y-151645771D02*
X206920476Y-151693390D01*
X206920476Y-151693390D02*
X206968095Y-151741009D01*
X206968095Y-151741009D02*
X207015714Y-151836247D01*
X207015714Y-151836247D02*
X207015714Y-152074342D01*
X207015714Y-152074342D02*
X206968095Y-152169580D01*
X206968095Y-152169580D02*
X206920476Y-152217200D01*
X206920476Y-152217200D02*
X206825238Y-152264819D01*
X206825238Y-152264819D02*
X206539524Y-152264819D01*
X206539524Y-152264819D02*
X206444286Y-152217200D01*
X206444286Y-152217200D02*
X206396667Y-152169580D01*
X210298410Y-145679618D02*
X210298410Y-144679618D01*
X211346028Y-145584379D02*
X211298409Y-145631999D01*
X211298409Y-145631999D02*
X211155552Y-145679618D01*
X211155552Y-145679618D02*
X211060314Y-145679618D01*
X211060314Y-145679618D02*
X210917457Y-145631999D01*
X210917457Y-145631999D02*
X210822219Y-145536760D01*
X210822219Y-145536760D02*
X210774600Y-145441522D01*
X210774600Y-145441522D02*
X210726981Y-145251046D01*
X210726981Y-145251046D02*
X210726981Y-145108189D01*
X210726981Y-145108189D02*
X210774600Y-144917713D01*
X210774600Y-144917713D02*
X210822219Y-144822475D01*
X210822219Y-144822475D02*
X210917457Y-144727237D01*
X210917457Y-144727237D02*
X211060314Y-144679618D01*
X211060314Y-144679618D02*
X211155552Y-144679618D01*
X211155552Y-144679618D02*
X211298409Y-144727237D01*
X211298409Y-144727237D02*
X211346028Y-144774856D01*
X212298409Y-145679618D02*
X211726981Y-145679618D01*
X212012695Y-145679618D02*
X212012695Y-144679618D01*
X212012695Y-144679618D02*
X211917457Y-144822475D01*
X211917457Y-144822475D02*
X211822219Y-144917713D01*
X211822219Y-144917713D02*
X211726981Y-144965332D01*
X205585000Y-141298618D02*
X205585000Y-141536713D01*
X205346905Y-141441475D02*
X205585000Y-141536713D01*
X205585000Y-141536713D02*
X205823095Y-141441475D01*
X205442143Y-141727189D02*
X205585000Y-141536713D01*
X205585000Y-141536713D02*
X205727857Y-141727189D01*
X205585000Y-141298618D02*
X205585000Y-141536713D01*
X205346905Y-141441475D02*
X205585000Y-141536713D01*
X205585000Y-141536713D02*
X205823095Y-141441475D01*
X205442143Y-141727189D02*
X205585000Y-141536713D01*
X205585000Y-141536713D02*
X205727857Y-141727189D01*
X222166666Y-130954819D02*
X222166666Y-131669104D01*
X222166666Y-131669104D02*
X222119047Y-131811961D01*
X222119047Y-131811961D02*
X222023809Y-131907200D01*
X222023809Y-131907200D02*
X221880952Y-131954819D01*
X221880952Y-131954819D02*
X221785714Y-131954819D01*
X223071428Y-131288152D02*
X223071428Y-131954819D01*
X222833333Y-130907200D02*
X222595238Y-131621485D01*
X222595238Y-131621485D02*
X223214285Y-131621485D01*
X210133333Y-138259580D02*
X210085714Y-138307200D01*
X210085714Y-138307200D02*
X209942857Y-138354819D01*
X209942857Y-138354819D02*
X209847619Y-138354819D01*
X209847619Y-138354819D02*
X209704762Y-138307200D01*
X209704762Y-138307200D02*
X209609524Y-138211961D01*
X209609524Y-138211961D02*
X209561905Y-138116723D01*
X209561905Y-138116723D02*
X209514286Y-137926247D01*
X209514286Y-137926247D02*
X209514286Y-137783390D01*
X209514286Y-137783390D02*
X209561905Y-137592914D01*
X209561905Y-137592914D02*
X209609524Y-137497676D01*
X209609524Y-137497676D02*
X209704762Y-137402438D01*
X209704762Y-137402438D02*
X209847619Y-137354819D01*
X209847619Y-137354819D02*
X209942857Y-137354819D01*
X209942857Y-137354819D02*
X210085714Y-137402438D01*
X210085714Y-137402438D02*
X210133333Y-137450057D01*
X211038095Y-137354819D02*
X210561905Y-137354819D01*
X210561905Y-137354819D02*
X210514286Y-137831009D01*
X210514286Y-137831009D02*
X210561905Y-137783390D01*
X210561905Y-137783390D02*
X210657143Y-137735771D01*
X210657143Y-137735771D02*
X210895238Y-137735771D01*
X210895238Y-137735771D02*
X210990476Y-137783390D01*
X210990476Y-137783390D02*
X211038095Y-137831009D01*
X211038095Y-137831009D02*
X211085714Y-137926247D01*
X211085714Y-137926247D02*
X211085714Y-138164342D01*
X211085714Y-138164342D02*
X211038095Y-138259580D01*
X211038095Y-138259580D02*
X210990476Y-138307200D01*
X210990476Y-138307200D02*
X210895238Y-138354819D01*
X210895238Y-138354819D02*
X210657143Y-138354819D01*
X210657143Y-138354819D02*
X210561905Y-138307200D01*
X210561905Y-138307200D02*
X210514286Y-138259580D01*
X199243333Y-141134819D02*
X198910000Y-140658628D01*
X198671905Y-141134819D02*
X198671905Y-140134819D01*
X198671905Y-140134819D02*
X199052857Y-140134819D01*
X199052857Y-140134819D02*
X199148095Y-140182438D01*
X199148095Y-140182438D02*
X199195714Y-140230057D01*
X199195714Y-140230057D02*
X199243333Y-140325295D01*
X199243333Y-140325295D02*
X199243333Y-140468152D01*
X199243333Y-140468152D02*
X199195714Y-140563390D01*
X199195714Y-140563390D02*
X199148095Y-140611009D01*
X199148095Y-140611009D02*
X199052857Y-140658628D01*
X199052857Y-140658628D02*
X198671905Y-140658628D01*
X200195714Y-141134819D02*
X199624286Y-141134819D01*
X199910000Y-141134819D02*
X199910000Y-140134819D01*
X199910000Y-140134819D02*
X199814762Y-140277676D01*
X199814762Y-140277676D02*
X199719524Y-140372914D01*
X199719524Y-140372914D02*
X199624286Y-140420533D01*
X195316666Y-147317200D02*
X195459523Y-147364819D01*
X195459523Y-147364819D02*
X195697618Y-147364819D01*
X195697618Y-147364819D02*
X195792856Y-147317200D01*
X195792856Y-147317200D02*
X195840475Y-147269580D01*
X195840475Y-147269580D02*
X195888094Y-147174342D01*
X195888094Y-147174342D02*
X195888094Y-147079104D01*
X195888094Y-147079104D02*
X195840475Y-146983866D01*
X195840475Y-146983866D02*
X195792856Y-146936247D01*
X195792856Y-146936247D02*
X195697618Y-146888628D01*
X195697618Y-146888628D02*
X195507142Y-146841009D01*
X195507142Y-146841009D02*
X195411904Y-146793390D01*
X195411904Y-146793390D02*
X195364285Y-146745771D01*
X195364285Y-146745771D02*
X195316666Y-146650533D01*
X195316666Y-146650533D02*
X195316666Y-146555295D01*
X195316666Y-146555295D02*
X195364285Y-146460057D01*
X195364285Y-146460057D02*
X195411904Y-146412438D01*
X195411904Y-146412438D02*
X195507142Y-146364819D01*
X195507142Y-146364819D02*
X195745237Y-146364819D01*
X195745237Y-146364819D02*
X195888094Y-146412438D01*
X196221428Y-146364819D02*
X196459523Y-147364819D01*
X196459523Y-147364819D02*
X196649999Y-146650533D01*
X196649999Y-146650533D02*
X196840475Y-147364819D01*
X196840475Y-147364819D02*
X197078571Y-146364819D01*
X197983332Y-147364819D02*
X197411904Y-147364819D01*
X197697618Y-147364819D02*
X197697618Y-146364819D01*
X197697618Y-146364819D02*
X197602380Y-146507676D01*
X197602380Y-146507676D02*
X197507142Y-146602914D01*
X197507142Y-146602914D02*
X197411904Y-146650533D01*
X217733333Y-145659580D02*
X217685714Y-145707200D01*
X217685714Y-145707200D02*
X217542857Y-145754819D01*
X217542857Y-145754819D02*
X217447619Y-145754819D01*
X217447619Y-145754819D02*
X217304762Y-145707200D01*
X217304762Y-145707200D02*
X217209524Y-145611961D01*
X217209524Y-145611961D02*
X217161905Y-145516723D01*
X217161905Y-145516723D02*
X217114286Y-145326247D01*
X217114286Y-145326247D02*
X217114286Y-145183390D01*
X217114286Y-145183390D02*
X217161905Y-144992914D01*
X217161905Y-144992914D02*
X217209524Y-144897676D01*
X217209524Y-144897676D02*
X217304762Y-144802438D01*
X217304762Y-144802438D02*
X217447619Y-144754819D01*
X217447619Y-144754819D02*
X217542857Y-144754819D01*
X217542857Y-144754819D02*
X217685714Y-144802438D01*
X217685714Y-144802438D02*
X217733333Y-144850057D01*
X218590476Y-145088152D02*
X218590476Y-145754819D01*
X218352381Y-144707200D02*
X218114286Y-145421485D01*
X218114286Y-145421485D02*
X218733333Y-145421485D01*
X195154300Y-161954819D02*
X195154300Y-162192914D01*
X194916205Y-162097676D02*
X195154300Y-162192914D01*
X195154300Y-162192914D02*
X195392395Y-162097676D01*
X195011443Y-162383390D02*
X195154300Y-162192914D01*
X195154300Y-162192914D02*
X195297157Y-162383390D01*
X195154299Y-163045180D02*
X195154299Y-162807085D01*
X195392394Y-162902323D02*
X195154299Y-162807085D01*
X195154299Y-162807085D02*
X194916204Y-162902323D01*
X195297156Y-162616609D02*
X195154299Y-162807085D01*
X195154299Y-162807085D02*
X195011442Y-162616609D01*
X213543333Y-155979580D02*
X213495714Y-156027200D01*
X213495714Y-156027200D02*
X213352857Y-156074819D01*
X213352857Y-156074819D02*
X213257619Y-156074819D01*
X213257619Y-156074819D02*
X213114762Y-156027200D01*
X213114762Y-156027200D02*
X213019524Y-155931961D01*
X213019524Y-155931961D02*
X212971905Y-155836723D01*
X212971905Y-155836723D02*
X212924286Y-155646247D01*
X212924286Y-155646247D02*
X212924286Y-155503390D01*
X212924286Y-155503390D02*
X212971905Y-155312914D01*
X212971905Y-155312914D02*
X213019524Y-155217676D01*
X213019524Y-155217676D02*
X213114762Y-155122438D01*
X213114762Y-155122438D02*
X213257619Y-155074819D01*
X213257619Y-155074819D02*
X213352857Y-155074819D01*
X213352857Y-155074819D02*
X213495714Y-155122438D01*
X213495714Y-155122438D02*
X213543333Y-155170057D01*
X213876667Y-155074819D02*
X214495714Y-155074819D01*
X214495714Y-155074819D02*
X214162381Y-155455771D01*
X214162381Y-155455771D02*
X214305238Y-155455771D01*
X214305238Y-155455771D02*
X214400476Y-155503390D01*
X214400476Y-155503390D02*
X214448095Y-155551009D01*
X214448095Y-155551009D02*
X214495714Y-155646247D01*
X214495714Y-155646247D02*
X214495714Y-155884342D01*
X214495714Y-155884342D02*
X214448095Y-155979580D01*
X214448095Y-155979580D02*
X214400476Y-156027200D01*
X214400476Y-156027200D02*
X214305238Y-156074819D01*
X214305238Y-156074819D02*
X214019524Y-156074819D01*
X214019524Y-156074819D02*
X213924286Y-156027200D01*
X213924286Y-156027200D02*
X213876667Y-155979580D01*
X187833333Y-158204819D02*
X187500000Y-157728628D01*
X187261905Y-158204819D02*
X187261905Y-157204819D01*
X187261905Y-157204819D02*
X187642857Y-157204819D01*
X187642857Y-157204819D02*
X187738095Y-157252438D01*
X187738095Y-157252438D02*
X187785714Y-157300057D01*
X187785714Y-157300057D02*
X187833333Y-157395295D01*
X187833333Y-157395295D02*
X187833333Y-157538152D01*
X187833333Y-157538152D02*
X187785714Y-157633390D01*
X187785714Y-157633390D02*
X187738095Y-157681009D01*
X187738095Y-157681009D02*
X187642857Y-157728628D01*
X187642857Y-157728628D02*
X187261905Y-157728628D01*
X188690476Y-157538152D02*
X188690476Y-158204819D01*
X188452381Y-157157200D02*
X188214286Y-157871485D01*
X188214286Y-157871485D02*
X188833333Y-157871485D01*
X203053333Y-141144819D02*
X202720000Y-140668628D01*
X202481905Y-141144819D02*
X202481905Y-140144819D01*
X202481905Y-140144819D02*
X202862857Y-140144819D01*
X202862857Y-140144819D02*
X202958095Y-140192438D01*
X202958095Y-140192438D02*
X203005714Y-140240057D01*
X203005714Y-140240057D02*
X203053333Y-140335295D01*
X203053333Y-140335295D02*
X203053333Y-140478152D01*
X203053333Y-140478152D02*
X203005714Y-140573390D01*
X203005714Y-140573390D02*
X202958095Y-140621009D01*
X202958095Y-140621009D02*
X202862857Y-140668628D01*
X202862857Y-140668628D02*
X202481905Y-140668628D01*
X203434286Y-140240057D02*
X203481905Y-140192438D01*
X203481905Y-140192438D02*
X203577143Y-140144819D01*
X203577143Y-140144819D02*
X203815238Y-140144819D01*
X203815238Y-140144819D02*
X203910476Y-140192438D01*
X203910476Y-140192438D02*
X203958095Y-140240057D01*
X203958095Y-140240057D02*
X204005714Y-140335295D01*
X204005714Y-140335295D02*
X204005714Y-140430533D01*
X204005714Y-140430533D02*
X203958095Y-140573390D01*
X203958095Y-140573390D02*
X203386667Y-141144819D01*
X203386667Y-141144819D02*
X204005714Y-141144819D01*
X231511905Y-158704819D02*
X231511905Y-157704819D01*
X231511905Y-157704819D02*
X231750000Y-157704819D01*
X231750000Y-157704819D02*
X231892857Y-157752438D01*
X231892857Y-157752438D02*
X231988095Y-157847676D01*
X231988095Y-157847676D02*
X232035714Y-157942914D01*
X232035714Y-157942914D02*
X232083333Y-158133390D01*
X232083333Y-158133390D02*
X232083333Y-158276247D01*
X232083333Y-158276247D02*
X232035714Y-158466723D01*
X232035714Y-158466723D02*
X231988095Y-158561961D01*
X231988095Y-158561961D02*
X231892857Y-158657200D01*
X231892857Y-158657200D02*
X231750000Y-158704819D01*
X231750000Y-158704819D02*
X231511905Y-158704819D01*
X232464286Y-157800057D02*
X232511905Y-157752438D01*
X232511905Y-157752438D02*
X232607143Y-157704819D01*
X232607143Y-157704819D02*
X232845238Y-157704819D01*
X232845238Y-157704819D02*
X232940476Y-157752438D01*
X232940476Y-157752438D02*
X232988095Y-157800057D01*
X232988095Y-157800057D02*
X233035714Y-157895295D01*
X233035714Y-157895295D02*
X233035714Y-157990533D01*
X233035714Y-157990533D02*
X232988095Y-158133390D01*
X232988095Y-158133390D02*
X232416667Y-158704819D01*
X232416667Y-158704819D02*
X233035714Y-158704819D01*
X183261905Y-158204819D02*
X183261905Y-157204819D01*
X183261905Y-157204819D02*
X183500000Y-157204819D01*
X183500000Y-157204819D02*
X183642857Y-157252438D01*
X183642857Y-157252438D02*
X183738095Y-157347676D01*
X183738095Y-157347676D02*
X183785714Y-157442914D01*
X183785714Y-157442914D02*
X183833333Y-157633390D01*
X183833333Y-157633390D02*
X183833333Y-157776247D01*
X183833333Y-157776247D02*
X183785714Y-157966723D01*
X183785714Y-157966723D02*
X183738095Y-158061961D01*
X183738095Y-158061961D02*
X183642857Y-158157200D01*
X183642857Y-158157200D02*
X183500000Y-158204819D01*
X183500000Y-158204819D02*
X183261905Y-158204819D01*
X184785714Y-158204819D02*
X184214286Y-158204819D01*
X184500000Y-158204819D02*
X184500000Y-157204819D01*
X184500000Y-157204819D02*
X184404762Y-157347676D01*
X184404762Y-157347676D02*
X184309524Y-157442914D01*
X184309524Y-157442914D02*
X184214286Y-157490533D01*
X203083333Y-147249580D02*
X203035714Y-147297200D01*
X203035714Y-147297200D02*
X202892857Y-147344819D01*
X202892857Y-147344819D02*
X202797619Y-147344819D01*
X202797619Y-147344819D02*
X202654762Y-147297200D01*
X202654762Y-147297200D02*
X202559524Y-147201961D01*
X202559524Y-147201961D02*
X202511905Y-147106723D01*
X202511905Y-147106723D02*
X202464286Y-146916247D01*
X202464286Y-146916247D02*
X202464286Y-146773390D01*
X202464286Y-146773390D02*
X202511905Y-146582914D01*
X202511905Y-146582914D02*
X202559524Y-146487676D01*
X202559524Y-146487676D02*
X202654762Y-146392438D01*
X202654762Y-146392438D02*
X202797619Y-146344819D01*
X202797619Y-146344819D02*
X202892857Y-146344819D01*
X202892857Y-146344819D02*
X203035714Y-146392438D01*
X203035714Y-146392438D02*
X203083333Y-146440057D01*
X204035714Y-147344819D02*
X203464286Y-147344819D01*
X203750000Y-147344819D02*
X203750000Y-146344819D01*
X203750000Y-146344819D02*
X203654762Y-146487676D01*
X203654762Y-146487676D02*
X203559524Y-146582914D01*
X203559524Y-146582914D02*
X203464286Y-146630533D01*
X193033333Y-141159580D02*
X192985714Y-141207200D01*
X192985714Y-141207200D02*
X192842857Y-141254819D01*
X192842857Y-141254819D02*
X192747619Y-141254819D01*
X192747619Y-141254819D02*
X192604762Y-141207200D01*
X192604762Y-141207200D02*
X192509524Y-141111961D01*
X192509524Y-141111961D02*
X192461905Y-141016723D01*
X192461905Y-141016723D02*
X192414286Y-140826247D01*
X192414286Y-140826247D02*
X192414286Y-140683390D01*
X192414286Y-140683390D02*
X192461905Y-140492914D01*
X192461905Y-140492914D02*
X192509524Y-140397676D01*
X192509524Y-140397676D02*
X192604762Y-140302438D01*
X192604762Y-140302438D02*
X192747619Y-140254819D01*
X192747619Y-140254819D02*
X192842857Y-140254819D01*
X192842857Y-140254819D02*
X192985714Y-140302438D01*
X192985714Y-140302438D02*
X193033333Y-140350057D01*
X193890476Y-140254819D02*
X193700000Y-140254819D01*
X193700000Y-140254819D02*
X193604762Y-140302438D01*
X193604762Y-140302438D02*
X193557143Y-140350057D01*
X193557143Y-140350057D02*
X193461905Y-140492914D01*
X193461905Y-140492914D02*
X193414286Y-140683390D01*
X193414286Y-140683390D02*
X193414286Y-141064342D01*
X193414286Y-141064342D02*
X193461905Y-141159580D01*
X193461905Y-141159580D02*
X193509524Y-141207200D01*
X193509524Y-141207200D02*
X193604762Y-141254819D01*
X193604762Y-141254819D02*
X193795238Y-141254819D01*
X193795238Y-141254819D02*
X193890476Y-141207200D01*
X193890476Y-141207200D02*
X193938095Y-141159580D01*
X193938095Y-141159580D02*
X193985714Y-141064342D01*
X193985714Y-141064342D02*
X193985714Y-140826247D01*
X193985714Y-140826247D02*
X193938095Y-140731009D01*
X193938095Y-140731009D02*
X193890476Y-140683390D01*
X193890476Y-140683390D02*
X193795238Y-140635771D01*
X193795238Y-140635771D02*
X193604762Y-140635771D01*
X193604762Y-140635771D02*
X193509524Y-140683390D01*
X193509524Y-140683390D02*
X193461905Y-140731009D01*
X193461905Y-140731009D02*
X193414286Y-140826247D01*
X210213333Y-155949580D02*
X210165714Y-155997200D01*
X210165714Y-155997200D02*
X210022857Y-156044819D01*
X210022857Y-156044819D02*
X209927619Y-156044819D01*
X209927619Y-156044819D02*
X209784762Y-155997200D01*
X209784762Y-155997200D02*
X209689524Y-155901961D01*
X209689524Y-155901961D02*
X209641905Y-155806723D01*
X209641905Y-155806723D02*
X209594286Y-155616247D01*
X209594286Y-155616247D02*
X209594286Y-155473390D01*
X209594286Y-155473390D02*
X209641905Y-155282914D01*
X209641905Y-155282914D02*
X209689524Y-155187676D01*
X209689524Y-155187676D02*
X209784762Y-155092438D01*
X209784762Y-155092438D02*
X209927619Y-155044819D01*
X209927619Y-155044819D02*
X210022857Y-155044819D01*
X210022857Y-155044819D02*
X210165714Y-155092438D01*
X210165714Y-155092438D02*
X210213333Y-155140057D01*
X210594286Y-155140057D02*
X210641905Y-155092438D01*
X210641905Y-155092438D02*
X210737143Y-155044819D01*
X210737143Y-155044819D02*
X210975238Y-155044819D01*
X210975238Y-155044819D02*
X211070476Y-155092438D01*
X211070476Y-155092438D02*
X211118095Y-155140057D01*
X211118095Y-155140057D02*
X211165714Y-155235295D01*
X211165714Y-155235295D02*
X211165714Y-155330533D01*
X211165714Y-155330533D02*
X211118095Y-155473390D01*
X211118095Y-155473390D02*
X210546667Y-156044819D01*
X210546667Y-156044819D02*
X211165714Y-156044819D01*
X220988095Y-136704819D02*
X220988095Y-137514342D01*
X220988095Y-137514342D02*
X221035714Y-137609580D01*
X221035714Y-137609580D02*
X221083333Y-137657200D01*
X221083333Y-137657200D02*
X221178571Y-137704819D01*
X221178571Y-137704819D02*
X221369047Y-137704819D01*
X221369047Y-137704819D02*
X221464285Y-137657200D01*
X221464285Y-137657200D02*
X221511904Y-137609580D01*
X221511904Y-137609580D02*
X221559523Y-137514342D01*
X221559523Y-137514342D02*
X221559523Y-136704819D01*
X222559523Y-137704819D02*
X221988095Y-137704819D01*
X222273809Y-137704819D02*
X222273809Y-136704819D01*
X222273809Y-136704819D02*
X222178571Y-136847676D01*
X222178571Y-136847676D02*
X222083333Y-136942914D01*
X222083333Y-136942914D02*
X221988095Y-136990533D01*
D11*
%TO.C,R3*%
X204952936Y-149295000D02*
X205407064Y-149295000D01*
X204952936Y-150765000D02*
X205407064Y-150765000D01*
%TO.C,J7*%
X221670000Y-146290000D02*
X223000000Y-146290000D01*
X221670000Y-147620000D02*
X221670000Y-146290000D01*
X221670000Y-148890000D02*
X221670000Y-154030000D01*
X221670000Y-148890000D02*
X224330000Y-148890000D01*
X221670000Y-154030000D02*
X224330000Y-154030000D01*
X224330000Y-148890000D02*
X224330000Y-154030000D01*
%TO.C,J1*%
X193730000Y-135770000D02*
X193730000Y-134500000D01*
X195000000Y-135770000D02*
X193730000Y-135770000D01*
X197160000Y-133457071D02*
X197160000Y-133060000D01*
X197920000Y-133457071D02*
X197920000Y-133060000D01*
X199700000Y-133457071D02*
X199700000Y-133060000D01*
X200460000Y-133457071D02*
X200460000Y-133060000D01*
X202240000Y-133457071D02*
X202240000Y-133060000D01*
X203000000Y-133457071D02*
X203000000Y-133060000D01*
X204780000Y-133457071D02*
X204780000Y-133060000D01*
X205540000Y-133457071D02*
X205540000Y-133060000D01*
X194620000Y-133390000D02*
X194620000Y-133060000D01*
X195380000Y-133390000D02*
X195380000Y-133060000D01*
X193670000Y-133060000D02*
X206490000Y-133060000D01*
X196270000Y-133060000D02*
X196270000Y-130400000D01*
X198810000Y-133060000D02*
X198810000Y-130400000D01*
X201350000Y-133060000D02*
X201350000Y-130400000D01*
X203890000Y-133060000D02*
X203890000Y-130400000D01*
X206490000Y-133060000D02*
X206490000Y-130400000D01*
X193670000Y-130400000D02*
X193670000Y-133060000D01*
X206490000Y-130400000D02*
X193670000Y-130400000D01*
D12*
%TO.C,IC1*%
X207642400Y-141592599D02*
X207642400Y-142002359D01*
X207642400Y-148447239D02*
X207642400Y-148856999D01*
X207642400Y-148856999D02*
X208052160Y-148856999D01*
X208052160Y-141592599D02*
X207642400Y-141592599D01*
X214497040Y-148856999D02*
X214906800Y-148856999D01*
X214906800Y-141592599D02*
X214497040Y-141592599D01*
X214906800Y-142002359D02*
X214906800Y-141592599D01*
X214906800Y-148856999D02*
X214906800Y-148447239D01*
G36*
X205966000Y-147165298D02*
G01*
X205712000Y-147165298D01*
X205712000Y-146784298D01*
X205966000Y-146784298D01*
X205966000Y-147165298D01*
G37*
G36*
X212215101Y-150787399D02*
G01*
X211834101Y-150787399D01*
X211834101Y-150533399D01*
X212215101Y-150533399D01*
X212215101Y-150787399D01*
G37*
G36*
X212715100Y-139916199D02*
G01*
X212334100Y-139916199D01*
X212334100Y-139662199D01*
X212715100Y-139662199D01*
X212715100Y-139916199D01*
G37*
G36*
X216837200Y-145665299D02*
G01*
X216583200Y-145665299D01*
X216583200Y-145284298D01*
X216837200Y-145284298D01*
X216837200Y-145665299D01*
G37*
D11*
%TO.C,J6*%
X208750000Y-164500000D02*
X208750000Y-160500000D01*
X208460000Y-165530000D02*
X208460000Y-159510000D01*
X208460000Y-159510000D02*
X195540000Y-159510000D01*
X207880000Y-165530000D02*
X207880000Y-164930000D01*
X207880000Y-164930000D02*
X206280000Y-164930000D01*
X207080000Y-160510000D02*
X206830000Y-161040000D01*
X207080000Y-160510000D02*
X196920000Y-160510000D01*
X207080000Y-159510000D02*
X207080000Y-160510000D01*
X206830000Y-161040000D02*
X197170000Y-161040000D01*
X206830000Y-159510000D02*
X206830000Y-160510000D01*
X206280000Y-164930000D02*
X206280000Y-165530000D01*
X205340000Y-165530000D02*
X205340000Y-164930000D01*
X205340000Y-164930000D02*
X203740000Y-164930000D01*
X203740000Y-164930000D02*
X203740000Y-165530000D01*
X202800000Y-165530000D02*
X202800000Y-164930000D01*
X202800000Y-164930000D02*
X201200000Y-164930000D01*
X201200000Y-164930000D02*
X201200000Y-165530000D01*
X200260000Y-165530000D02*
X200260000Y-164930000D01*
X200260000Y-164930000D02*
X198660000Y-164930000D01*
X198660000Y-164930000D02*
X198660000Y-165530000D01*
X197720000Y-165530000D02*
X197720000Y-164930000D01*
X197720000Y-164930000D02*
X196120000Y-164930000D01*
X197170000Y-161040000D02*
X196920000Y-160510000D01*
X197170000Y-159510000D02*
X197170000Y-160510000D01*
X196920000Y-160510000D02*
X196920000Y-159510000D01*
X196120000Y-164930000D02*
X196120000Y-165530000D01*
X195540000Y-165530000D02*
X208460000Y-165530000D01*
X195540000Y-159510000D02*
X195540000Y-165530000D01*
%TO.C,J2*%
X183500000Y-153890000D02*
X187500000Y-153890000D01*
X182470000Y-153600000D02*
X188490000Y-153600000D01*
X188490000Y-153600000D02*
X188490000Y-138140000D01*
X182470000Y-153020000D02*
X183070000Y-153020000D01*
X183070000Y-153020000D02*
X183070000Y-151420000D01*
X187490000Y-152220000D02*
X186960000Y-151970000D01*
X187490000Y-152220000D02*
X187490000Y-139520000D01*
X188490000Y-152220000D02*
X187490000Y-152220000D01*
X186960000Y-151970000D02*
X186960000Y-139770000D01*
X188490000Y-151970000D02*
X187490000Y-151970000D01*
X183070000Y-151420000D02*
X182470000Y-151420000D01*
X182470000Y-150480000D02*
X183070000Y-150480000D01*
X183070000Y-150480000D02*
X183070000Y-148880000D01*
X183070000Y-148880000D02*
X182470000Y-148880000D01*
X182470000Y-147940000D02*
X183070000Y-147940000D01*
X183070000Y-147940000D02*
X183070000Y-146340000D01*
X183070000Y-146340000D02*
X182470000Y-146340000D01*
X182470000Y-145400000D02*
X183070000Y-145400000D01*
X183070000Y-145400000D02*
X183070000Y-143800000D01*
X183070000Y-143800000D02*
X182470000Y-143800000D01*
X182470000Y-142860000D02*
X183070000Y-142860000D01*
X183070000Y-142860000D02*
X183070000Y-141260000D01*
X183070000Y-141260000D02*
X182470000Y-141260000D01*
X182470000Y-140320000D02*
X183070000Y-140320000D01*
X183070000Y-140320000D02*
X183070000Y-138720000D01*
X186960000Y-139770000D02*
X187490000Y-139520000D01*
X188490000Y-139770000D02*
X187490000Y-139770000D01*
X187490000Y-139520000D02*
X188490000Y-139520000D01*
X183070000Y-138720000D02*
X182470000Y-138720000D01*
X182470000Y-138140000D02*
X182470000Y-153600000D01*
X188490000Y-138140000D02*
X182470000Y-138140000D01*
%TO.C,J4*%
X220870000Y-130670000D02*
X220870000Y-132000000D01*
X219540000Y-130670000D02*
X220870000Y-130670000D01*
X218270000Y-130670000D02*
X208050000Y-130670000D01*
X218270000Y-130670000D02*
X218270000Y-133330000D01*
X208050000Y-130670000D02*
X208050000Y-133330000D01*
X218270000Y-133330000D02*
X208050000Y-133330000D01*
%TO.C,J3*%
X232000000Y-138670000D02*
X228000000Y-138670000D01*
X233030000Y-138960000D02*
X227010000Y-138960000D01*
X227010000Y-138960000D02*
X227010000Y-154420000D01*
X233030000Y-139540000D02*
X232430000Y-139540000D01*
X232430000Y-139540000D02*
X232430000Y-141140000D01*
X228010000Y-140340000D02*
X228540000Y-140590000D01*
X228010000Y-140340000D02*
X228010000Y-153040000D01*
X227010000Y-140340000D02*
X228010000Y-140340000D01*
X228540000Y-140590000D02*
X228540000Y-152790000D01*
X227010000Y-140590000D02*
X228010000Y-140590000D01*
X232430000Y-141140000D02*
X233030000Y-141140000D01*
X233030000Y-142080000D02*
X232430000Y-142080000D01*
X232430000Y-142080000D02*
X232430000Y-143680000D01*
X232430000Y-143680000D02*
X233030000Y-143680000D01*
X233030000Y-144620000D02*
X232430000Y-144620000D01*
X232430000Y-144620000D02*
X232430000Y-146220000D01*
X232430000Y-146220000D02*
X233030000Y-146220000D01*
X233030000Y-147160000D02*
X232430000Y-147160000D01*
X232430000Y-147160000D02*
X232430000Y-148760000D01*
X232430000Y-148760000D02*
X233030000Y-148760000D01*
X233030000Y-149700000D02*
X232430000Y-149700000D01*
X232430000Y-149700000D02*
X232430000Y-151300000D01*
X232430000Y-151300000D02*
X233030000Y-151300000D01*
X233030000Y-152240000D02*
X232430000Y-152240000D01*
X232430000Y-152240000D02*
X232430000Y-153840000D01*
X228540000Y-152790000D02*
X228010000Y-153040000D01*
X227010000Y-152790000D02*
X228010000Y-152790000D01*
X228010000Y-153040000D02*
X227010000Y-153040000D01*
X232430000Y-153840000D02*
X233030000Y-153840000D01*
X233030000Y-154420000D02*
X233030000Y-138960000D01*
X227010000Y-154420000D02*
X233030000Y-154420000D01*
%TO.C,C5*%
X211515000Y-137851252D02*
X211515000Y-137328748D01*
X212985000Y-137851252D02*
X212985000Y-137328748D01*
%TO.C,R1*%
X199182936Y-141595000D02*
X199637064Y-141595000D01*
X199182936Y-143065000D02*
X199637064Y-143065000D01*
D12*
%TO.C,SW1*%
X193522997Y-145739755D02*
X193522997Y-148080244D01*
X194041770Y-150037001D02*
X199258228Y-150037001D01*
X199258228Y-143782998D02*
X194041770Y-143782998D01*
X199777001Y-148080244D02*
X199777001Y-145739755D01*
D13*
X193526998Y-142119999D02*
G75*
G03*
X193526998Y-142119999I-127000J0D01*
G01*
D11*
%TO.C,C4*%
X218628748Y-146155000D02*
X219151252Y-146155000D01*
X218628748Y-147625000D02*
X219151252Y-147625000D01*
D12*
%TO.C,SW2*%
X194773300Y-164932300D02*
X194773300Y-156067700D01*
X194773300Y-156067700D02*
X193529751Y-156067700D01*
X193529751Y-164932300D02*
X194773300Y-164932300D01*
X191470249Y-156067700D02*
X190226700Y-156067700D01*
X190226700Y-164932300D02*
X191470249Y-164932300D01*
X190226700Y-156067700D02*
X190226700Y-164932300D01*
D11*
%TO.C,C3*%
X214455000Y-152578748D02*
X214455000Y-153101252D01*
X212985000Y-152578748D02*
X212985000Y-153101252D01*
%TO.C,R4*%
X188227064Y-156735000D02*
X187772936Y-156735000D01*
X188227064Y-155265000D02*
X187772936Y-155265000D01*
%TO.C,R2*%
X202992936Y-141605000D02*
X203447064Y-141605000D01*
X202992936Y-143075000D02*
X203447064Y-143075000D01*
%TO.C,D2*%
X233360000Y-157460000D02*
X233360000Y-155540000D01*
X233360000Y-155540000D02*
X230500000Y-155540000D01*
X230500000Y-157460000D02*
X233360000Y-157460000D01*
%TO.C,D1*%
X182140000Y-155040000D02*
X182140000Y-156960000D01*
X182140000Y-156960000D02*
X185000000Y-156960000D01*
X185000000Y-155040000D02*
X182140000Y-155040000D01*
%TO.C,C1*%
X203471252Y-145655000D02*
X202948748Y-145655000D01*
X203471252Y-144185000D02*
X202948748Y-144185000D01*
%TO.C,R5*%
X227272936Y-155765000D02*
X227727064Y-155765000D01*
X227272936Y-157235000D02*
X227727064Y-157235000D01*
%TO.C,C6*%
X195258748Y-141625000D02*
X195781252Y-141625000D01*
X195258748Y-143095000D02*
X195781252Y-143095000D01*
%TO.C,C2*%
X209715000Y-153101252D02*
X209715000Y-152578748D01*
X211185000Y-153101252D02*
X211185000Y-152578748D01*
%TO.C,U1*%
X222660000Y-140250000D02*
X222660000Y-138850000D01*
X220340000Y-138850000D02*
X220340000Y-140750000D01*
%TO.C,J5*%
X225520000Y-164480000D02*
X225520000Y-160480000D01*
X225230000Y-165510000D02*
X225230000Y-159490000D01*
X225230000Y-159490000D02*
X209770000Y-159490000D01*
X224650000Y-165510000D02*
X224650000Y-164910000D01*
X224650000Y-164910000D02*
X223050000Y-164910000D01*
X223850000Y-160490000D02*
X223600000Y-161020000D01*
X223850000Y-160490000D02*
X211150000Y-160490000D01*
X223850000Y-159490000D02*
X223850000Y-160490000D01*
X223600000Y-161020000D02*
X211400000Y-161020000D01*
X223600000Y-159490000D02*
X223600000Y-160490000D01*
X223050000Y-164910000D02*
X223050000Y-165510000D01*
X222110000Y-165510000D02*
X222110000Y-164910000D01*
X222110000Y-164910000D02*
X220510000Y-164910000D01*
X220510000Y-164910000D02*
X220510000Y-165510000D01*
X219570000Y-165510000D02*
X219570000Y-164910000D01*
X219570000Y-164910000D02*
X217970000Y-164910000D01*
X217970000Y-164910000D02*
X217970000Y-165510000D01*
X217030000Y-165510000D02*
X217030000Y-164910000D01*
X217030000Y-164910000D02*
X215430000Y-164910000D01*
X215430000Y-164910000D02*
X215430000Y-165510000D01*
X214490000Y-165510000D02*
X214490000Y-164910000D01*
X214490000Y-164910000D02*
X212890000Y-164910000D01*
X212890000Y-164910000D02*
X212890000Y-165510000D01*
X211950000Y-165510000D02*
X211950000Y-164910000D01*
X211950000Y-164910000D02*
X210350000Y-164910000D01*
X211400000Y-161020000D02*
X211150000Y-160490000D01*
X211400000Y-159490000D02*
X211400000Y-160490000D01*
X211150000Y-160490000D02*
X211150000Y-159490000D01*
X210350000Y-164910000D02*
X210350000Y-165510000D01*
X209770000Y-165510000D02*
X225230000Y-165510000D01*
X209770000Y-159490000D02*
X209770000Y-165510000D01*
%TD*%
M02*
