%TF.GenerationSoftware,KiCad,Pcbnew,7.0.6*%
%TF.CreationDate,2024-09-27T11:16:29-07:00*%
%TF.ProjectId,MCU_DSP,4d43555f-4453-4502-9e6b-696361645f70,rev?*%
%TF.SameCoordinates,Original*%
%TF.FileFunction,Copper,L1,Top*%
%TF.FilePolarity,Positive*%
%FSLAX46Y46*%
G04 Gerber Fmt 4.6, Leading zero omitted, Abs format (unit mm)*
G04 Created by KiCad (PCBNEW 7.0.6) date 2024-09-27 11:16:29*
%MOMM*%
%LPD*%
G01*
G04 APERTURE LIST*
G04 Aperture macros list*
%AMRoundRect*
0 Rectangle with rounded corners*
0 $1 Rounding radius*
0 $2 $3 $4 $5 $6 $7 $8 $9 X,Y pos of 4 corners*
0 Add a 4 corners polygon primitive as box body*
4,1,4,$2,$3,$4,$5,$6,$7,$8,$9,$2,$3,0*
0 Add four circle primitives for the rounded corners*
1,1,$1+$1,$2,$3*
1,1,$1+$1,$4,$5*
1,1,$1+$1,$6,$7*
1,1,$1+$1,$8,$9*
0 Add four rect primitives between the rounded corners*
20,1,$1+$1,$2,$3,$4,$5,0*
20,1,$1+$1,$4,$5,$6,$7,0*
20,1,$1+$1,$6,$7,$8,$9,0*
20,1,$1+$1,$8,$9,$2,$3,0*%
G04 Aperture macros list end*
%TA.AperFunction,SMDPad,CuDef*%
%ADD10RoundRect,0.250000X-0.350000X-0.450000X0.350000X-0.450000X0.350000X0.450000X-0.350000X0.450000X0*%
%TD*%
%TA.AperFunction,ComponentPad*%
%ADD11R,1.700000X1.700000*%
%TD*%
%TA.AperFunction,ComponentPad*%
%ADD12O,1.700000X1.700000*%
%TD*%
%TA.AperFunction,SMDPad,CuDef*%
%ADD13R,1.549400X0.279400*%
%TD*%
%TA.AperFunction,SMDPad,CuDef*%
%ADD14R,0.279400X1.549400*%
%TD*%
%TA.AperFunction,ComponentPad*%
%ADD15RoundRect,0.250000X0.620000X0.845000X-0.620000X0.845000X-0.620000X-0.845000X0.620000X-0.845000X0*%
%TD*%
%TA.AperFunction,ComponentPad*%
%ADD16O,1.740000X2.190000*%
%TD*%
%TA.AperFunction,ComponentPad*%
%ADD17RoundRect,0.250000X0.845000X-0.620000X0.845000X0.620000X-0.845000X0.620000X-0.845000X-0.620000X0*%
%TD*%
%TA.AperFunction,ComponentPad*%
%ADD18O,2.190000X1.740000*%
%TD*%
%TA.AperFunction,ComponentPad*%
%ADD19RoundRect,0.250000X-0.845000X0.620000X-0.845000X-0.620000X0.845000X-0.620000X0.845000X0.620000X0*%
%TD*%
%TA.AperFunction,SMDPad,CuDef*%
%ADD20RoundRect,0.250000X0.475000X-0.337500X0.475000X0.337500X-0.475000X0.337500X-0.475000X-0.337500X0*%
%TD*%
%TA.AperFunction,ComponentPad*%
%ADD21C,1.507998*%
%TD*%
%TA.AperFunction,SMDPad,CuDef*%
%ADD22RoundRect,0.250000X-0.337500X-0.475000X0.337500X-0.475000X0.337500X0.475000X-0.337500X0.475000X0*%
%TD*%
%TA.AperFunction,ComponentPad*%
%ADD23R,1.295400X1.295400*%
%TD*%
%TA.AperFunction,ComponentPad*%
%ADD24C,1.295400*%
%TD*%
%TA.AperFunction,ComponentPad*%
%ADD25C,2.000000*%
%TD*%
%TA.AperFunction,SMDPad,CuDef*%
%ADD26RoundRect,0.250000X-0.475000X0.337500X-0.475000X-0.337500X0.475000X-0.337500X0.475000X0.337500X0*%
%TD*%
%TA.AperFunction,SMDPad,CuDef*%
%ADD27RoundRect,0.250000X0.350000X0.450000X-0.350000X0.450000X-0.350000X-0.450000X0.350000X-0.450000X0*%
%TD*%
%TA.AperFunction,SMDPad,CuDef*%
%ADD28RoundRect,0.250000X0.325000X0.450000X-0.325000X0.450000X-0.325000X-0.450000X0.325000X-0.450000X0*%
%TD*%
%TA.AperFunction,SMDPad,CuDef*%
%ADD29RoundRect,0.250000X-0.325000X-0.450000X0.325000X-0.450000X0.325000X0.450000X-0.325000X0.450000X0*%
%TD*%
%TA.AperFunction,SMDPad,CuDef*%
%ADD30RoundRect,0.250000X0.337500X0.475000X-0.337500X0.475000X-0.337500X-0.475000X0.337500X-0.475000X0*%
%TD*%
%TA.AperFunction,SMDPad,CuDef*%
%ADD31R,0.400000X0.650000*%
%TD*%
%TA.AperFunction,ViaPad*%
%ADD32C,0.800000*%
%TD*%
%TA.AperFunction,Conductor*%
%ADD33C,0.250000*%
%TD*%
%TA.AperFunction,Conductor*%
%ADD34C,0.304800*%
%TD*%
%TA.AperFunction,Conductor*%
%ADD35C,0.635000*%
%TD*%
G04 APERTURE END LIST*
D10*
%TO.P,R3,1*%
%TO.N,Net-(IC1-OA2OUT_{slash}_AN0_{slash}_C2IN2-_{slash}_RPA0_{slash}_RA0)*%
X204180000Y-150030000D03*
%TO.P,R3,2*%
%TO.N,GND*%
X206180000Y-150030000D03*
%TD*%
D11*
%TO.P,J7,1,Pin_1*%
%TO.N,GND*%
X223000000Y-147620000D03*
D12*
%TO.P,J7,2,Pin_2*%
%TO.N,Net-(IC1-AN13_{slash}_RPA4_{slash}_T1G_{slash}_RA4)*%
X223000000Y-150160000D03*
%TO.P,J7,3,Pin_3*%
%TO.N,Net-(IC1-TDI_{slash}_FLT15_{slash}_RPB4_{slash}_SCL2_{slash}_RB4)*%
X223000000Y-152700000D03*
%TD*%
D11*
%TO.P,J1,1,Pin_1*%
%TO.N,Net-(IC1-PGC1{slash}OA1IN+_{slash}_AN4_{slash}_C1IN1+_{slash}_C1IN3-_{slash}_RPB2_{slash}_RB2)*%
X195000000Y-134500000D03*
D12*
%TO.P,J1,2,Pin_2*%
%TO.N,Net-(IC1-PGD1{slash}OA1IN-_{slash}_AN5_{slash}_CTCMP_{slash}_C1IN1-_{slash}_RTCC_{slash}_RPB3_{slash}_RB3)*%
X197540000Y-134500000D03*
%TO.P,J1,3,Pin_3*%
%TO.N,GND*%
X200080000Y-134500000D03*
%TO.P,J1,4,Pin_4*%
%TO.N,+3V3*%
X202620000Y-134500000D03*
%TO.P,J1,5,Pin_5*%
%TO.N,Net-(IC1-~{MCLR})*%
X205160000Y-134500000D03*
%TD*%
D13*
%TO.P,IC1,1,RPA7_/_PWML4_/_RA7*%
%TO.N,Net-(IC1-RPA7_{slash}_PWML4_{slash}_RA7)*%
X206994700Y-142474799D03*
%TO.P,IC1,2,RPB14_/_PWMH1_/_RB14*%
%TO.N,unconnected-(IC1-RPB14_{slash}_PWMH1_{slash}_RB14-Pad2)*%
X206994700Y-142974798D03*
%TO.P,IC1,3,RPB15_/_PWML1_/_RB15*%
%TO.N,unconnected-(IC1-RPB15_{slash}_PWML1_{slash}_RB15-Pad3)*%
X206994700Y-143474800D03*
%TO.P,IC1,4,~{MCLR}*%
%TO.N,Net-(IC1-~{MCLR})*%
X206994700Y-143974799D03*
%TO.P,IC1,5,VSS_1*%
%TO.N,GND*%
X206994700Y-144474798D03*
%TO.P,IC1,6,VDD_1*%
%TO.N,+3V3*%
X206994700Y-144974799D03*
%TO.P,IC1,7,AN11_/_C1IN4-_/_RPA12_/_FLT13_/_RA12*%
%TO.N,unconnected-(IC1-AN11_{slash}_C1IN4-_{slash}_RPA12_{slash}_FLT13_{slash}_RA12-Pad7)*%
X206994700Y-145474799D03*
%TO.P,IC1,8,AN10_/_C2IN4-_/_RPA11_/_FLT14_/_RA11*%
%TO.N,Net-(IC1-AN10_{slash}_C2IN4-_{slash}_RPA11_{slash}_FLT14_{slash}_RA11)*%
X206994700Y-145974800D03*
%TO.P,IC1,9,OA2OUT_/_AN0_/_C2IN2-_/_RPA0_/_RA0*%
%TO.N,Net-(IC1-OA2OUT_{slash}_AN0_{slash}_C2IN2-_{slash}_RPA0_{slash}_RA0)*%
X206994700Y-146474799D03*
%TO.P,IC1,10,OA2IN+_/_AN1_/_C2IN1+_/_C2IN3-_/_RPA1_/_RA1*%
%TO.N,unconnected-(IC1-OA2IN+_{slash}_AN1_{slash}_C2IN1+_{slash}_C2IN3-_{slash}_RPA1_{slash}_RA1-Pad10)*%
X206994700Y-146974798D03*
%TO.P,IC1,11,PGD3/_VREF-_/_OA2IN-_/_AN2_/_C2IN1-_/_RPB0_/_CTED2_/_RB0*%
%TO.N,unconnected-(IC1-PGD3{slash}_VREF-_{slash}_OA2IN-_{slash}_AN2_{slash}_C2IN1-_{slash}_RPB0_{slash}_CTED2_{slash}_RB0-Pad11)*%
X206994700Y-147474800D03*
%TO.P,IC1,12,PGC3/OA1OUT_/_VREF+_/_AN3_/_C1IN2-_/_RPB1_/_CTED1_/_RB1*%
%TO.N,unconnected-(IC1-PGC3{slash}OA1OUT_{slash}_VREF+_{slash}_AN3_{slash}_C1IN2-_{slash}_RPB1_{slash}_CTED1_{slash}_RB1-Pad12)*%
X206994700Y-147974799D03*
D14*
%TO.P,IC1,13,PGC1/OA1IN+_/_AN4_/_C1IN1+_/_C1IN3-_/_RPB2_/_RB2*%
%TO.N,Net-(IC1-PGC1{slash}OA1IN+_{slash}_AN4_{slash}_C1IN1+_{slash}_C1IN3-_{slash}_RPB2_{slash}_RB2)*%
X208524600Y-149504699D03*
%TO.P,IC1,14,PGD1/OA1IN-_/_AN5_/_CTCMP_/_C1IN1-_/_RTCC_/_RPB3_/_RB3*%
%TO.N,Net-(IC1-PGD1{slash}OA1IN-_{slash}_AN5_{slash}_CTCMP_{slash}_C1IN1-_{slash}_RTCC_{slash}_RPB3_{slash}_RB3)*%
X209024599Y-149504699D03*
%TO.P,IC1,15,AVDD*%
%TO.N,+3V3*%
X209524601Y-149504699D03*
%TO.P,IC1,16,AVSS*%
%TO.N,GND*%
X210024600Y-149504699D03*
%TO.P,IC1,17,OA3OUT_/_AN6_/_C3IN2-_/_RPC0_/_RC0*%
%TO.N,unconnected-(IC1-OA3OUT_{slash}_AN6_{slash}_C3IN2-_{slash}_RPC0_{slash}_RC0-Pad17)*%
X210524599Y-149504699D03*
%TO.P,IC1,18,OA3IN-_/_AN7_/_C3IN1-_/_RPC1_/_RC1*%
%TO.N,unconnected-(IC1-OA3IN-_{slash}_AN7_{slash}_C3IN1-_{slash}_RPC1_{slash}_RC1-Pad18)*%
X211024600Y-149504699D03*
%TO.P,IC1,19,OA3IN+_/_AN8_/_C3IN1+_/_C3IN3-_/_RPC2_/_FLT3_/_RC2*%
%TO.N,unconnected-(IC1-OA3IN+_{slash}_AN8_{slash}_C3IN1+_{slash}_C3IN3-_{slash}_RPC2_{slash}_FLT3_{slash}_RC2-Pad19)*%
X211524600Y-149504699D03*
%TO.P,IC1,20,AN9_/_C3IN4-_/_FLT4_/_RC11*%
%TO.N,unconnected-(IC1-AN9_{slash}_C3IN4-_{slash}_FLT4_{slash}_RC11-Pad20)*%
X212024601Y-149504699D03*
%TO.P,IC1,21,VSS_2*%
%TO.N,GND*%
X212524600Y-149504699D03*
%TO.P,IC1,22,VDD_2*%
%TO.N,+3V3*%
X213024599Y-149504699D03*
%TO.P,IC1,23,DAC1/_AN12_/_RPA8_/_SDA2_/_RA8*%
%TO.N,unconnected-(IC1-DAC1{slash}_AN12_{slash}_RPA8_{slash}_SDA2_{slash}_RA8-Pad23)*%
X213524601Y-149504699D03*
%TO.P,IC1,24,TDI_/_FLT15_/_RPB4_/_SCL2_/_RB4*%
%TO.N,Net-(IC1-TDI_{slash}_FLT15_{slash}_RPB4_{slash}_SCL2_{slash}_RB4)*%
X214024600Y-149504699D03*
D13*
%TO.P,IC1,25,AN13_/_RPA4_/_T1G_/_RA4*%
%TO.N,Net-(IC1-AN13_{slash}_RPA4_{slash}_T1G_{slash}_RA4)*%
X215554500Y-147974799D03*
%TO.P,IC1,26,VDD_3*%
%TO.N,+3V3*%
X215554500Y-147474800D03*
%TO.P,IC1,27,OSCI/CLKI_/_AN17_/_RPC12_/_RC12*%
%TO.N,unconnected-(IC1-OSCI{slash}CLKI_{slash}_AN17_{slash}_RPC12_{slash}_RC12-Pad27)*%
X215554500Y-146974798D03*
%TO.P,IC1,28,OSCO_/_CLKO_/_RPC15_/_RC15*%
%TO.N,unconnected-(IC1-OSCO_{slash}_CLKO_{slash}_RPC15_{slash}_RC15-Pad28)*%
X215554500Y-146474799D03*
%TO.P,IC1,29,VSS_3*%
%TO.N,GND*%
X215554500Y-145974800D03*
%TO.P,IC1,30,RPD8_/_RD8*%
%TO.N,Net-(IC1-RPD8_{slash}_RD8)*%
X215554500Y-145474799D03*
%TO.P,IC1,31,PGD2/_RPB5_/_SDA1_/_RB5*%
%TO.N,Net-(IC1-PGD2{slash}_RPB5_{slash}_SDA1_{slash}_RB5)*%
X215554500Y-144974799D03*
%TO.P,IC1,32,PGC2/RPB6_/_SCL1_/_RB6*%
%TO.N,Net-(IC1-PGC2{slash}RPB6_{slash}_SCL1_{slash}_RB6)*%
X215554500Y-144474798D03*
%TO.P,IC1,33,AN14_/_RPC10_/_RC10*%
%TO.N,unconnected-(IC1-AN14_{slash}_RPC10_{slash}_RC10-Pad33)*%
X215554500Y-143974799D03*
%TO.P,IC1,34,AN15_/_RPB7_/_SCK1_/_INT0_/_RB7*%
%TO.N,Net-(IC1-AN15_{slash}_RPB7_{slash}_SCK1_{slash}_INT0_{slash}_RB7)*%
X215554500Y-143474800D03*
%TO.P,IC1,35,SOSCI_/_RPC13_/_RC13*%
%TO.N,unconnected-(IC1-SOSCI_{slash}_RPC13_{slash}_RC13-Pad35)*%
X215554500Y-142974798D03*
%TO.P,IC1,36,SOSCO_/_RPB8_/_T1CK_/_RB8*%
%TO.N,Net-(IC1-SOSCO_{slash}_RPB8_{slash}_T1CK_{slash}_RB8)*%
X215554500Y-142474799D03*
D14*
%TO.P,IC1,37,TMS_/_AN16_/_LVDIN_/_RPB9_/_RB9*%
%TO.N,Net-(IC1-TMS_{slash}_AN16_{slash}_LVDIN_{slash}_RPB9_{slash}_RB9)*%
X214024600Y-140944899D03*
%TO.P,IC1,38,RPC6_/_RC6*%
%TO.N,Net-(IC1-RPC6_{slash}_RC6)*%
X213524601Y-140944899D03*
%TO.P,IC1,39,RPC7_/_RC7*%
%TO.N,unconnected-(IC1-RPC7_{slash}_RC7-Pad39)*%
X213024599Y-140944899D03*
%TO.P,IC1,40,RPC8_/_RC8*%
%TO.N,unconnected-(IC1-RPC8_{slash}_RC8-Pad40)*%
X212524600Y-140944899D03*
%TO.P,IC1,41,RPC9_/_RC9*%
%TO.N,unconnected-(IC1-RPC9_{slash}_RC9-Pad41)*%
X212024601Y-140944899D03*
%TO.P,IC1,42,VSS_4*%
%TO.N,GND*%
X211524600Y-140944899D03*
%TO.P,IC1,43,VDD_4*%
%TO.N,+3V3*%
X211024600Y-140944899D03*
%TO.P,IC1,44,TDO_/_RPB10_/_PWMH3_/_RB10*%
%TO.N,Net-(IC1-TDO_{slash}_RPB10_{slash}_PWMH3_{slash}_RB10)*%
X210524599Y-140944899D03*
%TO.P,IC1,45,TCK_/_RPB11_/_PWML3_/_RB11*%
%TO.N,Net-(IC1-TCK_{slash}_RPB11_{slash}_PWML3_{slash}_RB11)*%
X210024600Y-140944899D03*
%TO.P,IC1,46,RPB12_/_PWMH2_/_RB12*%
%TO.N,Net-(IC1-RPB12_{slash}_PWMH2_{slash}_RB12)*%
X209524601Y-140944899D03*
%TO.P,IC1,47,RPB13_/_PWML2_/_CTPLS_/_RB13*%
%TO.N,Net-(IC1-RPB13_{slash}_PWML2_{slash}_CTPLS_{slash}_RB13)*%
X209024599Y-140944899D03*
%TO.P,IC1,48,PWMH4_/_RA10*%
%TO.N,Net-(IC1-PWMH4_{slash}_RA10)*%
X208524600Y-140944899D03*
%TD*%
D15*
%TO.P,J6,1,Pin_1*%
%TO.N,+3V3*%
X207080000Y-162500000D03*
D16*
%TO.P,J6,2,Pin_2*%
%TO.N,GND*%
X204540000Y-162500000D03*
%TO.P,J6,3,Pin_3*%
%TO.N,Net-(IC1-AN15_{slash}_RPB7_{slash}_SCK1_{slash}_INT0_{slash}_RB7)*%
X202000000Y-162500000D03*
%TO.P,J6,4,Pin_4*%
%TO.N,Net-(J6-Pin_4)*%
X199460000Y-162500000D03*
%TO.P,J6,5,Pin_5*%
%TO.N,Net-(IC1-RPA7_{slash}_PWML4_{slash}_RA7)*%
X196920000Y-162500000D03*
%TD*%
D17*
%TO.P,J2,1,Pin_1*%
%TO.N,GND*%
X185500000Y-152220000D03*
D18*
%TO.P,J2,2,Pin_2*%
%TO.N,Net-(IC1-AN15_{slash}_RPB7_{slash}_SCK1_{slash}_INT0_{slash}_RB7)*%
X185500000Y-149680000D03*
%TO.P,J2,3,Pin_3*%
%TO.N,+3V3*%
X185500000Y-147140000D03*
%TO.P,J2,4,Pin_4*%
%TO.N,Net-(IC1-OA2OUT_{slash}_AN0_{slash}_C2IN2-_{slash}_RPA0_{slash}_RA0)*%
X185500000Y-144600000D03*
%TO.P,J2,5,Pin_5*%
%TO.N,Net-(IC1-RPA7_{slash}_PWML4_{slash}_RA7)*%
X185500000Y-142060000D03*
%TO.P,J2,6,Pin_6*%
%TO.N,GND*%
X185500000Y-139520000D03*
%TD*%
D11*
%TO.P,J4,1,Pin_1*%
%TO.N,Net-(IC1-TDO_{slash}_RPB10_{slash}_PWMH3_{slash}_RB10)*%
X219540000Y-132000000D03*
D12*
%TO.P,J4,2,Pin_2*%
%TO.N,Net-(IC1-TCK_{slash}_RPB11_{slash}_PWML3_{slash}_RB11)*%
X217000000Y-132000000D03*
%TO.P,J4,3,Pin_3*%
%TO.N,Net-(IC1-RPB12_{slash}_PWMH2_{slash}_RB12)*%
X214460000Y-132000000D03*
%TO.P,J4,4,Pin_4*%
%TO.N,Net-(IC1-RPB13_{slash}_PWML2_{slash}_CTPLS_{slash}_RB13)*%
X211920000Y-132000000D03*
%TO.P,J4,5,Pin_5*%
%TO.N,Net-(IC1-PWMH4_{slash}_RA10)*%
X209380000Y-132000000D03*
%TD*%
D19*
%TO.P,J3,1,Pin_1*%
%TO.N,GND*%
X230000000Y-140340000D03*
D18*
%TO.P,J3,2,Pin_2*%
%TO.N,Net-(IC1-AN15_{slash}_RPB7_{slash}_SCK1_{slash}_INT0_{slash}_RB7)*%
X230000000Y-142880000D03*
%TO.P,J3,3,Pin_3*%
%TO.N,+3V3*%
X230000000Y-145420000D03*
%TO.P,J3,4,Pin_4*%
%TO.N,Net-(IC1-OA2OUT_{slash}_AN0_{slash}_C2IN2-_{slash}_RPA0_{slash}_RA0)*%
X230000000Y-147960000D03*
%TO.P,J3,5,Pin_5*%
%TO.N,Net-(IC1-RPA7_{slash}_PWML4_{slash}_RA7)*%
X230000000Y-150500000D03*
%TO.P,J3,6,Pin_6*%
%TO.N,+3V3*%
X230000000Y-153040000D03*
%TD*%
D20*
%TO.P,C5,1*%
%TO.N,GND*%
X212250000Y-138627500D03*
%TO.P,C5,2*%
%TO.N,+3V3*%
X212250000Y-136552500D03*
%TD*%
D10*
%TO.P,R1,1*%
%TO.N,+3V3*%
X198410000Y-142330000D03*
%TO.P,R1,2*%
%TO.N,Net-(C6-Pad1)*%
X200410000Y-142330000D03*
%TD*%
D21*
%TO.P,SW1,1,1*%
%TO.N,Net-(C6-Pad1)*%
X193399998Y-144659999D03*
%TO.P,SW1,2*%
%TO.N,N/C*%
X199900000Y-144659999D03*
%TO.P,SW1,3*%
X193399998Y-149160000D03*
%TO.P,SW1,4,4*%
%TO.N,GND*%
X199900000Y-149160000D03*
%TD*%
D22*
%TO.P,C4,1*%
%TO.N,GND*%
X217852500Y-146890000D03*
%TO.P,C4,2*%
%TO.N,+3V3*%
X219927500Y-146890000D03*
%TD*%
D23*
%TO.P,SW2,1,1*%
%TO.N,Net-(IC1-OA2OUT_{slash}_AN0_{slash}_C2IN2-_{slash}_RPA0_{slash}_RA0)*%
X192500000Y-162500000D03*
D24*
%TO.P,SW2,2,2*%
%TO.N,Net-(J6-Pin_4)*%
X192500000Y-160500000D03*
%TO.P,SW2,3,3*%
%TO.N,Net-(IC1-AN10_{slash}_C2IN4-_{slash}_RPA11_{slash}_FLT14_{slash}_RA11)*%
X192500000Y-158499999D03*
D25*
%TO.P,SW2,4*%
%TO.N,N/C*%
X192500000Y-164600001D03*
%TO.P,SW2,5*%
X192500000Y-156400000D03*
%TD*%
D26*
%TO.P,C3,1*%
%TO.N,GND*%
X213720000Y-151802500D03*
%TO.P,C3,2*%
%TO.N,+3V3*%
X213720000Y-153877500D03*
%TD*%
D27*
%TO.P,R4,1*%
%TO.N,+3V3*%
X189000000Y-156000000D03*
%TO.P,R4,2*%
%TO.N,Net-(D1-A)*%
X187000000Y-156000000D03*
%TD*%
D10*
%TO.P,R2,1*%
%TO.N,Net-(C6-Pad1)*%
X202220000Y-142340000D03*
%TO.P,R2,2*%
%TO.N,Net-(IC1-~{MCLR})*%
X204220000Y-142340000D03*
%TD*%
D28*
%TO.P,D2,1,K*%
%TO.N,Net-(D2-K)*%
X232525000Y-156500000D03*
%TO.P,D2,2,A*%
%TO.N,Net-(D2-A)*%
X230475000Y-156500000D03*
%TD*%
D29*
%TO.P,D1,1,K*%
%TO.N,Net-(D1-K)*%
X182975000Y-156000000D03*
%TO.P,D1,2,A*%
%TO.N,Net-(D1-A)*%
X185025000Y-156000000D03*
%TD*%
D30*
%TO.P,C1,1*%
%TO.N,GND*%
X204247500Y-144920000D03*
%TO.P,C1,2*%
%TO.N,+3V3*%
X202172500Y-144920000D03*
%TD*%
D10*
%TO.P,R5,1*%
%TO.N,+3V3*%
X226500000Y-156500000D03*
%TO.P,R5,2*%
%TO.N,Net-(D2-A)*%
X228500000Y-156500000D03*
%TD*%
D22*
%TO.P,C6,1*%
%TO.N,Net-(C6-Pad1)*%
X194482500Y-142360000D03*
%TO.P,C6,2*%
%TO.N,GND*%
X196557500Y-142360000D03*
%TD*%
D20*
%TO.P,C2,1*%
%TO.N,+3V3*%
X210450000Y-153877500D03*
%TO.P,C2,2*%
%TO.N,GND*%
X210450000Y-151802500D03*
%TD*%
D31*
%TO.P,U1,1,S1*%
%TO.N,GND*%
X220850000Y-140500000D03*
%TO.P,U1,2,G1*%
%TO.N,Net-(IC1-TMS_{slash}_AN16_{slash}_LVDIN_{slash}_RPB9_{slash}_RB9)*%
X221500000Y-140500000D03*
%TO.P,U1,3,D2*%
%TO.N,Net-(D1-K)*%
X222150000Y-140500000D03*
%TO.P,U1,4,S2*%
%TO.N,GND*%
X222150000Y-138600000D03*
%TO.P,U1,5,G2*%
%TO.N,Net-(IC1-RPC6_{slash}_RC6)*%
X221500000Y-138600000D03*
%TO.P,U1,6,D1*%
%TO.N,Net-(D2-K)*%
X220850000Y-138600000D03*
%TD*%
D15*
%TO.P,J5,1,Pin_1*%
%TO.N,+3V3*%
X223850000Y-162480000D03*
D16*
%TO.P,J5,2,Pin_2*%
%TO.N,GND*%
X221310000Y-162480000D03*
%TO.P,J5,3,Pin_3*%
%TO.N,Net-(IC1-PGC2{slash}RPB6_{slash}_SCL1_{slash}_RB6)*%
X218770000Y-162480000D03*
%TO.P,J5,4,Pin_4*%
%TO.N,Net-(IC1-PGD2{slash}_RPB5_{slash}_SDA1_{slash}_RB5)*%
X216230000Y-162480000D03*
%TO.P,J5,5,Pin_5*%
%TO.N,Net-(IC1-SOSCO_{slash}_RPB8_{slash}_T1CK_{slash}_RB8)*%
X213690000Y-162480000D03*
%TO.P,J5,6,Pin_6*%
%TO.N,Net-(IC1-RPD8_{slash}_RD8)*%
X211150000Y-162480000D03*
%TD*%
D32*
%TO.N,GND*%
X206000000Y-157500000D03*
X218891509Y-147848490D03*
X212010000Y-151770000D03*
X188420000Y-153500000D03*
X195530000Y-141254500D03*
X198487701Y-156512299D03*
X203270000Y-143690000D03*
%TO.N,+3V3*%
X201670000Y-147980000D03*
X217250000Y-157500000D03*
X213780000Y-137030000D03*
X188000000Y-154751900D03*
X201397301Y-152000000D03*
%TO.N,Net-(D1-K)*%
X203815500Y-159000000D03*
X222196146Y-141500000D03*
X214500000Y-159000000D03*
X195987701Y-159012299D03*
%TO.N,Net-(D2-K)*%
X219500000Y-139775500D03*
X226750000Y-154959500D03*
%TO.N,Net-(IC1-RPA7_{slash}_PWML4_{slash}_RA7)*%
X197500000Y-158000000D03*
X207360000Y-140580000D03*
X192000000Y-142000000D03*
%TO.N,Net-(IC1-~{MCLR})*%
X205040000Y-141254500D03*
%TO.N,Net-(IC1-AN10_{slash}_C2IN4-_{slash}_RPA11_{slash}_FLT14_{slash}_RA11)*%
X196500000Y-152500000D03*
%TO.N,Net-(IC1-OA2OUT_{slash}_AN0_{slash}_C2IN2-_{slash}_RPA0_{slash}_RA0)*%
X216760000Y-141390000D03*
X205010000Y-147570000D03*
X196500000Y-153500000D03*
%TO.N,Net-(IC1-PGC1{slash}OA1IN+_{slash}_AN4_{slash}_C1IN1+_{slash}_C1IN3-_{slash}_RPB2_{slash}_RB2)*%
X207379500Y-149910000D03*
%TO.N,Net-(IC1-PGD1{slash}OA1IN-_{slash}_AN5_{slash}_CTCMP_{slash}_C1IN1-_{slash}_RTCC_{slash}_RPB3_{slash}_RB3)*%
X208250000Y-151800000D03*
%TO.N,Net-(IC1-TDI_{slash}_FLT15_{slash}_RPB4_{slash}_SCL2_{slash}_RB4)*%
X219000000Y-152800000D03*
%TO.N,Net-(IC1-AN13_{slash}_RPA4_{slash}_T1G_{slash}_RA4)*%
X219312299Y-151312299D03*
%TO.N,Net-(IC1-RPD8_{slash}_RD8)*%
X218880000Y-145731498D03*
%TO.N,Net-(IC1-AN15_{slash}_RPB7_{slash}_SCK1_{slash}_INT0_{slash}_RB7)*%
X217580000Y-143450000D03*
X204275500Y-156724500D03*
%TO.N,Net-(IC1-SOSCO_{slash}_RPB8_{slash}_T1CK_{slash}_RB8)*%
X218360000Y-142480000D03*
%TD*%
D33*
%TO.N,GND*%
X212524600Y-151255400D02*
X212010000Y-151770000D01*
X212524600Y-150607100D02*
X213720000Y-151802500D01*
X218000000Y-137500000D02*
X227160000Y-137500000D01*
X228000000Y-140000000D02*
X228340000Y-140340000D01*
X226265000Y-151165000D02*
X226265000Y-154235000D01*
X212524600Y-149504699D02*
X212524600Y-150607100D01*
X217007600Y-138492400D02*
X218000000Y-137500000D01*
D34*
X196557500Y-145817500D02*
X199900000Y-149160000D01*
D33*
X230732792Y-140340000D02*
X232250000Y-141857208D01*
X231765000Y-154235000D02*
X226265000Y-154235000D01*
X187950000Y-139520000D02*
X185500000Y-139520000D01*
X228340000Y-140340000D02*
X230000000Y-140340000D01*
X195530000Y-141254500D02*
X195530000Y-141332500D01*
X226600000Y-138600000D02*
X228000000Y-140000000D01*
D35*
X206250000Y-165000000D02*
X204540000Y-163290000D01*
D33*
X210450000Y-151802500D02*
X211977500Y-151802500D01*
X212385100Y-138492400D02*
X217007600Y-138492400D01*
X220850000Y-140500000D02*
X220850000Y-139925000D01*
X232250000Y-141857208D02*
X232250000Y-153750000D01*
D34*
X196557500Y-142360000D02*
X196557500Y-145817500D01*
D33*
X200080000Y-134500000D02*
X198320000Y-136260000D01*
X226265000Y-154235000D02*
X221310000Y-159190000D01*
X206000000Y-153500000D02*
X206000000Y-157500000D01*
X198320000Y-136260000D02*
X191210000Y-136260000D01*
D35*
X218790000Y-165000000D02*
X206250000Y-165000000D01*
D33*
X215554500Y-145974800D02*
X216937300Y-145974800D01*
X227160000Y-137500000D02*
X230000000Y-140340000D01*
X222150000Y-138600000D02*
X226600000Y-138600000D01*
X211977500Y-151802500D02*
X212010000Y-151770000D01*
X212524600Y-150607100D02*
X212524600Y-151255400D01*
D35*
X204540000Y-163290000D02*
X204540000Y-162500000D01*
D33*
X198487701Y-156512299D02*
X195122528Y-156512299D01*
X206180000Y-150030000D02*
X206180000Y-153320000D01*
X220850000Y-139925000D02*
X221025000Y-139750000D01*
X206180000Y-153320000D02*
X206000000Y-153500000D01*
X221025000Y-139750000D02*
X227750000Y-139750000D01*
X223000000Y-147900000D02*
X226265000Y-151165000D01*
X221310000Y-159190000D02*
X221310000Y-162480000D01*
X210024600Y-149504699D02*
X210024600Y-151377100D01*
X227750000Y-139750000D02*
X228000000Y-140000000D01*
X204247500Y-144667500D02*
X203270000Y-143690000D01*
X191210000Y-136260000D02*
X187950000Y-139520000D01*
X195530000Y-141332500D02*
X196557500Y-142360000D01*
D34*
X211524600Y-139352900D02*
X211524600Y-140944899D01*
D33*
X216937300Y-145974800D02*
X217852500Y-146890000D01*
X195122528Y-156512299D02*
X192110229Y-153500000D01*
D35*
X221310000Y-162480000D02*
X218790000Y-165000000D01*
D33*
X192110229Y-153500000D02*
X188420000Y-153500000D01*
X217933019Y-146890000D02*
X218891509Y-147848490D01*
X232250000Y-153750000D02*
X231765000Y-154235000D01*
X206994700Y-144474798D02*
X204692702Y-144474798D01*
D34*
X212250000Y-138627500D02*
X211524600Y-139352900D01*
D33*
%TO.N,+3V3*%
X213024599Y-149504699D02*
X213024599Y-150384599D01*
X201397301Y-152000000D02*
X201500000Y-152102699D01*
X214770000Y-151226827D02*
X214770000Y-152827500D01*
X217788192Y-148573490D02*
X218940000Y-148573490D01*
X209400000Y-152827500D02*
X210450000Y-153877500D01*
X201535000Y-154535000D02*
X196308604Y-154535000D01*
X202000000Y-145092500D02*
X202000000Y-147650000D01*
D34*
X189000000Y-155751900D02*
X188000000Y-154751900D01*
D33*
X220100000Y-154700000D02*
X220100000Y-149733490D01*
X210450000Y-153877500D02*
X212200000Y-153877500D01*
X199453063Y-145738998D02*
X199488998Y-145738998D01*
X203790195Y-158000000D02*
X203090500Y-158699695D01*
X220100000Y-149733490D02*
X218940000Y-148573490D01*
X201670000Y-147920000D02*
X201670000Y-147980000D01*
D34*
X213780000Y-137030000D02*
X213302500Y-136552500D01*
D33*
X206994700Y-144974799D02*
X205818374Y-144974799D01*
X203691827Y-145990000D02*
X202621827Y-144920000D01*
X199488998Y-145738998D02*
X201670000Y-147920000D01*
X209524601Y-149504699D02*
X209524601Y-151102226D01*
X217250000Y-157500000D02*
X217300000Y-157500000D01*
X212200000Y-153877500D02*
X213720000Y-153877500D01*
X198410000Y-142330000D02*
X198410000Y-144695935D01*
X219927500Y-147837804D02*
X219927500Y-146890000D01*
X226500000Y-156500000D02*
X223850000Y-159150000D01*
X205000000Y-158000000D02*
X203790195Y-158000000D01*
X203090500Y-158699695D02*
X203090500Y-159590500D01*
X219191814Y-148573490D02*
X219927500Y-147837804D01*
X213750000Y-157500000D02*
X212200000Y-155950000D01*
X213024599Y-150384599D02*
X213530000Y-150890000D01*
D34*
X213302500Y-136552500D02*
X212250000Y-136552500D01*
D33*
X198410000Y-144695935D02*
X199453063Y-145738998D01*
X209400000Y-151226827D02*
X209400000Y-152827500D01*
X203500000Y-154500000D02*
X205000000Y-156000000D01*
X202000000Y-147650000D02*
X201670000Y-147980000D01*
X203090500Y-159590500D02*
X204580000Y-161080000D01*
X201500000Y-152102699D02*
X201500000Y-154500000D01*
X215554500Y-147474800D02*
X216689502Y-147474800D01*
X214433173Y-150890000D02*
X214770000Y-151226827D01*
X217250000Y-157500000D02*
X213750000Y-157500000D01*
X223850000Y-159150000D02*
X223850000Y-162480000D01*
X209524601Y-151102226D02*
X209400000Y-151226827D01*
X213530000Y-150890000D02*
X214433173Y-150890000D01*
X217300000Y-157500000D02*
X220100000Y-154700000D01*
X214770000Y-152827500D02*
X213720000Y-153877500D01*
X204580000Y-161080000D02*
X205660000Y-161080000D01*
X212200000Y-155950000D02*
X212200000Y-153877500D01*
X196308604Y-154535000D02*
X188913604Y-147140000D01*
D34*
X212250000Y-136963078D02*
X211019800Y-138193278D01*
D33*
X205818374Y-144974799D02*
X204803173Y-145990000D01*
D34*
X211019800Y-138193278D02*
X211019800Y-140944899D01*
D33*
X204803173Y-145990000D02*
X203691827Y-145990000D01*
X188913604Y-147140000D02*
X185500000Y-147140000D01*
X216689502Y-147474800D02*
X217788192Y-148573490D01*
X201500000Y-154500000D02*
X201535000Y-154535000D01*
X201500000Y-154500000D02*
X203500000Y-154500000D01*
X205660000Y-161080000D02*
X207080000Y-162500000D01*
X205000000Y-156000000D02*
X205000000Y-158000000D01*
X218940000Y-148573490D02*
X219191814Y-148573490D01*
%TO.N,Net-(C6-Pad1)*%
X198609500Y-140529500D02*
X195229695Y-140529500D01*
X194482500Y-141276695D02*
X194482500Y-142360000D01*
D34*
X194482500Y-142360000D02*
X194482500Y-143577497D01*
D33*
X200410000Y-142330000D02*
X198609500Y-140529500D01*
X195229695Y-140529500D02*
X194482500Y-141276695D01*
D34*
X194482500Y-143577497D02*
X193399998Y-144659999D01*
X202220000Y-142340000D02*
X200420000Y-142340000D01*
D33*
%TO.N,Net-(D1-K)*%
X189113173Y-157500000D02*
X191613173Y-155000000D01*
X192973833Y-155000000D02*
X195987701Y-158013868D01*
X184475000Y-157500000D02*
X189113173Y-157500000D01*
X222196146Y-141500000D02*
X222150000Y-141453854D01*
X195987701Y-158013868D02*
X195987701Y-159012299D01*
X182975000Y-156000000D02*
X184475000Y-157500000D01*
X203815500Y-159000000D02*
X214500000Y-159000000D01*
X222150000Y-141453854D02*
X222150000Y-140500000D01*
X191613173Y-155000000D02*
X192973833Y-155000000D01*
D34*
%TO.N,Net-(D1-A)*%
X185025000Y-156000000D02*
X187000000Y-156000000D01*
D33*
%TO.N,Net-(D2-K)*%
X226750000Y-154959500D02*
X227015000Y-155224500D01*
X227015000Y-155224500D02*
X231249500Y-155224500D01*
X220675500Y-138600000D02*
X219500000Y-139775500D01*
X220850000Y-138600000D02*
X220675500Y-138600000D01*
X231249500Y-155224500D02*
X232525000Y-156500000D01*
%TO.N,Net-(D2-A)*%
X230475000Y-156500000D02*
X228500000Y-156500000D01*
%TO.N,Net-(IC1-RPA7_{slash}_PWML4_{slash}_RA7)*%
X204840997Y-139980997D02*
X194299003Y-139980997D01*
X192000000Y-142000000D02*
X191940000Y-142060000D01*
X205790000Y-140530000D02*
X205390000Y-140530000D01*
X192220000Y-142060000D02*
X192060000Y-142060000D01*
X205390000Y-140530000D02*
X204840997Y-139980997D01*
X197500000Y-158000000D02*
X197500000Y-161920000D01*
X206994700Y-141734700D02*
X205790000Y-140530000D01*
X207310000Y-140530000D02*
X205390000Y-140530000D01*
X192060000Y-142060000D02*
X192000000Y-142000000D01*
X194299003Y-139980997D02*
X192220000Y-142060000D01*
X207360000Y-140580000D02*
X207310000Y-140530000D01*
X191940000Y-142060000D02*
X185500000Y-142060000D01*
X206994700Y-142474799D02*
X206994700Y-141734700D01*
%TO.N,Net-(IC1-~{MCLR})*%
X205040000Y-141520000D02*
X204220000Y-142340000D01*
D34*
X205849998Y-143969998D02*
X206989899Y-143969998D01*
D33*
X205040000Y-141254500D02*
X205040000Y-141520000D01*
D34*
X204220000Y-142340000D02*
X205849998Y-143969998D01*
D33*
%TO.N,Net-(IC1-AN10_{slash}_C2IN4-_{slash}_RPA11_{slash}_FLT14_{slash}_RA11)*%
X205568804Y-145974800D02*
X206994700Y-145974800D01*
X196500000Y-152500000D02*
X199043604Y-152500000D01*
X199043604Y-152500000D02*
X205568804Y-145974800D01*
%TO.N,Net-(IC1-OA2OUT_{slash}_AN0_{slash}_C2IN2-_{slash}_RPA0_{slash}_RA0)*%
X231750000Y-141993604D02*
X231750000Y-146210000D01*
X205000000Y-147570000D02*
X204190000Y-148380000D01*
X190640000Y-148140000D02*
X190550000Y-148140000D01*
X204190000Y-148380000D02*
X204190000Y-150020000D01*
X216760000Y-141390000D02*
X218295305Y-141390000D01*
X190550000Y-148140000D02*
X187010000Y-144600000D01*
X205010000Y-147560000D02*
X205010000Y-147570000D01*
X187010000Y-144600000D02*
X185500000Y-144600000D01*
X198680000Y-153500000D02*
X202150000Y-150030000D01*
X231291396Y-141535000D02*
X231750000Y-141993604D01*
X206095201Y-146474799D02*
X205010000Y-147560000D01*
X196500000Y-153500000D02*
X198680000Y-153500000D01*
X219335305Y-142430000D02*
X228320000Y-142430000D01*
X202150000Y-150030000D02*
X204180000Y-150030000D01*
X229215000Y-141535000D02*
X231291396Y-141535000D01*
X196000000Y-153500000D02*
X190640000Y-148140000D01*
X205010000Y-147570000D02*
X205000000Y-147570000D01*
X231750000Y-146210000D02*
X230000000Y-147960000D01*
X228320000Y-142430000D02*
X229215000Y-141535000D01*
X206994700Y-146474799D02*
X206095201Y-146474799D01*
X196500000Y-153500000D02*
X196000000Y-153500000D01*
X218295305Y-141390000D02*
X219335305Y-142430000D01*
%TO.N,Net-(IC1-PGC1{slash}OA1IN+_{slash}_AN4_{slash}_C1IN1+_{slash}_C1IN3-_{slash}_RPB2_{slash}_RB2)*%
X208119299Y-149910000D02*
X208524600Y-149504699D01*
X207379500Y-149910000D02*
X208119299Y-149910000D01*
%TO.N,Net-(IC1-PGD1{slash}OA1IN-_{slash}_AN5_{slash}_CTCMP_{slash}_C1IN1-_{slash}_RTCC_{slash}_RPB3_{slash}_RB3)*%
X208250000Y-151740431D02*
X209024599Y-150965832D01*
X209024599Y-150965832D02*
X209024599Y-149504699D01*
X208250000Y-151800000D02*
X208250000Y-151740431D01*
%TO.N,Net-(IC1-TDI_{slash}_FLT15_{slash}_RPB4_{slash}_SCL2_{slash}_RB4)*%
X219000000Y-152800000D02*
X216979569Y-152800000D01*
X216979569Y-152800000D02*
X214024600Y-149845031D01*
%TO.N,Net-(IC1-AN13_{slash}_RPA4_{slash}_T1G_{slash}_RA4)*%
X218892000Y-151312299D02*
X219312299Y-151312299D01*
X215554500Y-147974799D02*
X218892000Y-151312299D01*
%TO.N,Net-(IC1-RPD8_{slash}_RD8)*%
X218673302Y-145524800D02*
X218880000Y-145731498D01*
X216650000Y-145524800D02*
X218673302Y-145524800D01*
X216599999Y-145474799D02*
X216650000Y-145524800D01*
X215554500Y-145474799D02*
X216599999Y-145474799D01*
%TO.N,Net-(IC1-PGD2{slash}_RPB5_{slash}_SDA1_{slash}_RB5)*%
X220840000Y-145506396D02*
X220308403Y-144974799D01*
X220840000Y-156120000D02*
X220840000Y-145506396D01*
X216230000Y-162480000D02*
X216230000Y-160730000D01*
X220308403Y-144974799D02*
X215554500Y-144974799D01*
X216230000Y-160730000D02*
X220840000Y-156120000D01*
%TO.N,Net-(IC1-PGC2{slash}RPB6_{slash}_SCL1_{slash}_RB6)*%
X221290000Y-158210000D02*
X221290000Y-145320000D01*
X218770000Y-160730000D02*
X221290000Y-158210000D01*
X220444798Y-144474798D02*
X215554500Y-144474798D01*
X218770000Y-162480000D02*
X218770000Y-160730000D01*
X221290000Y-145320000D02*
X220444798Y-144474798D01*
%TO.N,Net-(IC1-AN15_{slash}_RPB7_{slash}_SCK1_{slash}_INT0_{slash}_RB7)*%
X217580000Y-143450000D02*
X222550000Y-143450000D01*
X204275500Y-156724500D02*
X202000000Y-159000000D01*
X202000000Y-159000000D02*
X197985000Y-154985000D01*
X202000000Y-162500000D02*
X202000000Y-159000000D01*
X222550000Y-143450000D02*
X223120000Y-142880000D01*
X217555200Y-143474800D02*
X217580000Y-143450000D01*
X190817208Y-149680000D02*
X185500000Y-149680000D01*
X197985000Y-154985000D02*
X196122208Y-154985000D01*
X215554500Y-143474800D02*
X217555200Y-143474800D01*
X223120000Y-142880000D02*
X230000000Y-142880000D01*
X196122208Y-154985000D02*
X190817208Y-149680000D01*
%TO.N,Net-(IC1-SOSCO_{slash}_RPB8_{slash}_T1CK_{slash}_RB8)*%
X215554500Y-142474799D02*
X218354799Y-142474799D01*
X218354799Y-142474799D02*
X218360000Y-142480000D01*
%TO.N,Net-(IC1-TMS_{slash}_AN16_{slash}_LVDIN_{slash}_RPB9_{slash}_RB9)*%
X221425000Y-141150000D02*
X219650000Y-141150000D01*
X219650000Y-141150000D02*
X219165000Y-140665000D01*
X214304499Y-140665000D02*
X214024600Y-140944899D01*
X219165000Y-140665000D02*
X214304499Y-140665000D01*
X221500000Y-140500000D02*
X221500000Y-141075000D01*
X221500000Y-141075000D02*
X221425000Y-141150000D01*
%TO.N,Net-(IC1-RPC6_{slash}_RC6)*%
X214405099Y-139000000D02*
X219275000Y-139000000D01*
X213524601Y-139880498D02*
X214405099Y-139000000D01*
X213524601Y-140944899D02*
X213524601Y-139880498D01*
X219275000Y-139000000D02*
X220325000Y-137950000D01*
X221425000Y-137950000D02*
X221500000Y-138025000D01*
X221500000Y-138025000D02*
X221500000Y-138600000D01*
X220325000Y-137950000D02*
X221425000Y-137950000D01*
%TO.N,Net-(IC1-TDO_{slash}_RPB10_{slash}_PWMH3_{slash}_RB10)*%
X210524599Y-136652228D02*
X210524599Y-140944899D01*
X215900000Y-135640000D02*
X211536827Y-135640000D01*
X219540000Y-132000000D02*
X215900000Y-135640000D01*
X211536827Y-135640000D02*
X210524599Y-136652228D01*
%TO.N,Net-(IC1-TCK_{slash}_RPB11_{slash}_PWML3_{slash}_RB11)*%
X210024600Y-136515831D02*
X210024600Y-140944899D01*
X213810000Y-135190000D02*
X211350431Y-135190000D01*
X211350431Y-135190000D02*
X210024600Y-136515831D01*
X217000000Y-132000000D02*
X213810000Y-135190000D01*
%TO.N,Net-(IC1-RPB12_{slash}_PWMH2_{slash}_RB12)*%
X209524601Y-136229003D02*
X209524601Y-140944899D01*
X213753604Y-132000000D02*
X209524601Y-136229003D01*
%TO.N,Net-(IC1-RPB13_{slash}_PWML2_{slash}_CTPLS_{slash}_RB13)*%
X209024599Y-134895401D02*
X209024599Y-140944899D01*
X211920000Y-132000000D02*
X209024599Y-134895401D01*
%TO.N,Net-(IC1-PWMH4_{slash}_RA10)*%
X209380000Y-132000000D02*
X208524600Y-132855400D01*
X208524600Y-132855400D02*
X208524600Y-140944899D01*
%TO.N,Net-(J6-Pin_4)*%
X198040000Y-163920000D02*
X195920000Y-163920000D01*
X199460000Y-162500000D02*
X198040000Y-163920000D01*
X195920000Y-163920000D02*
X192500000Y-160500000D01*
%TD*%
M02*
