M48
; DRILL file {KiCad 7.0.6} date Fri Sep 27 11:16:27 2024
; FORMAT={-:-/ absolute / inch / decimal}
; #@! TF.CreationDate,2024-09-27T11:16:27-07:00
; #@! TF.GenerationSoftware,Kicad,Pcbnew,7.0.6
; #@! TF.FileFunction,Plated,1,2,PTH
FMAT,2
INCH
; #@! TA.AperFunction,Plated,PTH,ViaDrill
T1C0.0157
; #@! TA.AperFunction,Plated,PTH,ComponentDrill
T2C0.0310
; #@! TA.AperFunction,Plated,PTH,ComponentDrill
T3C0.0394
; #@! TA.AperFunction,Plated,PTH,ComponentDrill
T4C0.0394
; #@! TA.AperFunction,Plated,PTH,ComponentDrill
T5C0.0469
; #@! TA.AperFunction,Plated,PTH,ComponentDrill
T6C0.0590
%
G90
G05
T1
X7.4016Y-6.0926
X7.4181Y-6.0433
X7.5591Y-5.5906
X7.698Y-5.5612
X7.7161Y-6.2603
X7.7362Y-6.0039
X7.7362Y-6.0433
X7.7756Y-6.2205
X7.8145Y-6.1619
X7.929Y-5.9843
X7.9398Y-5.826
X8.0028Y-5.6571
X8.0242Y-6.2598
X8.0423Y-6.1703
X8.0713Y-5.8098
X8.0724Y-5.5612
X8.1102Y-6.2008
X8.1638Y-5.5346
X8.1645Y-5.902
X8.1988Y-5.9764
X8.3469Y-5.9752
X8.4165Y-5.3949
X8.4449Y-6.2598
X8.5339Y-5.5665
X8.5531Y-6.2008
X8.5661Y-5.6476
X8.5969Y-5.6094
X8.6173Y-5.7375
X8.6178Y-5.8208
X8.622Y-6.0157
X8.6343Y-5.9572
X8.6417Y-5.503
X8.7479Y-5.5709
X8.9272Y-6.1008
T2
X7.5787Y-6.2402
X7.5787Y-6.3189
X7.5787Y-6.3976
T3
X7.6142Y-5.6953
X7.6142Y-5.8724
X7.8701Y-5.6953
X7.8701Y-5.8724
T4
X7.6772Y-5.2953
X7.7772Y-5.2953
X7.8772Y-5.2953
X7.9772Y-5.2953
X8.0772Y-5.2953
X8.2433Y-5.1969
X8.3433Y-5.1969
X8.4433Y-5.1969
X8.5433Y-5.1969
X8.6433Y-5.1969
X8.7795Y-5.8118
X8.7795Y-5.9118
X8.7795Y-6.0118
T5
X7.3031Y-5.4929
X7.3031Y-5.5929
X7.3031Y-5.6929
X7.3031Y-5.7929
X7.3031Y-5.8929
X7.3031Y-5.9929
X7.7528Y-6.3976
X7.8528Y-6.3976
X7.9528Y-6.3976
X8.0528Y-6.3976
X8.1528Y-6.3976
X8.313Y-6.3969
X8.413Y-6.3969
X8.513Y-6.3969
X8.613Y-6.3969
X8.713Y-6.3969
X8.813Y-6.3969
X9.0551Y-5.5252
X9.0551Y-5.6252
X9.0551Y-5.7252
X9.0551Y-5.8252
X9.0551Y-5.9252
X9.0551Y-6.0252
T6
X7.5787Y-6.1575
X7.5787Y-6.4803
T0
M30
