%TF.GenerationSoftware,KiCad,Pcbnew,7.0.6*%
%TF.CreationDate,2024-09-27T11:16:29-07:00*%
%TF.ProjectId,MCU_DSP,4d43555f-4453-4502-9e6b-696361645f70,rev?*%
%TF.SameCoordinates,Original*%
%TF.FileFunction,Paste,Top*%
%TF.FilePolarity,Positive*%
%FSLAX46Y46*%
G04 Gerber Fmt 4.6, Leading zero omitted, Abs format (unit mm)*
G04 Created by KiCad (PCBNEW 7.0.6) date 2024-09-27 11:16:29*
%MOMM*%
%LPD*%
G01*
G04 APERTURE LIST*
G04 Aperture macros list*
%AMRoundRect*
0 Rectangle with rounded corners*
0 $1 Rounding radius*
0 $2 $3 $4 $5 $6 $7 $8 $9 X,Y pos of 4 corners*
0 Add a 4 corners polygon primitive as box body*
4,1,4,$2,$3,$4,$5,$6,$7,$8,$9,$2,$3,0*
0 Add four circle primitives for the rounded corners*
1,1,$1+$1,$2,$3*
1,1,$1+$1,$4,$5*
1,1,$1+$1,$6,$7*
1,1,$1+$1,$8,$9*
0 Add four rect primitives between the rounded corners*
20,1,$1+$1,$2,$3,$4,$5,0*
20,1,$1+$1,$4,$5,$6,$7,0*
20,1,$1+$1,$6,$7,$8,$9,0*
20,1,$1+$1,$8,$9,$2,$3,0*%
G04 Aperture macros list end*
%ADD10RoundRect,0.250000X-0.350000X-0.450000X0.350000X-0.450000X0.350000X0.450000X-0.350000X0.450000X0*%
%ADD11R,1.549400X0.279400*%
%ADD12R,0.279400X1.549400*%
%ADD13RoundRect,0.250000X0.475000X-0.337500X0.475000X0.337500X-0.475000X0.337500X-0.475000X-0.337500X0*%
%ADD14RoundRect,0.250000X-0.337500X-0.475000X0.337500X-0.475000X0.337500X0.475000X-0.337500X0.475000X0*%
%ADD15RoundRect,0.250000X-0.475000X0.337500X-0.475000X-0.337500X0.475000X-0.337500X0.475000X0.337500X0*%
%ADD16RoundRect,0.250000X0.350000X0.450000X-0.350000X0.450000X-0.350000X-0.450000X0.350000X-0.450000X0*%
%ADD17RoundRect,0.250000X0.325000X0.450000X-0.325000X0.450000X-0.325000X-0.450000X0.325000X-0.450000X0*%
%ADD18RoundRect,0.250000X-0.325000X-0.450000X0.325000X-0.450000X0.325000X0.450000X-0.325000X0.450000X0*%
%ADD19RoundRect,0.250000X0.337500X0.475000X-0.337500X0.475000X-0.337500X-0.475000X0.337500X-0.475000X0*%
%ADD20R,0.400000X0.650000*%
G04 APERTURE END LIST*
D10*
%TO.C,R3*%
X204180000Y-150030000D03*
X206180000Y-150030000D03*
%TD*%
D11*
%TO.C,IC1*%
X206994700Y-142474799D03*
X206994700Y-142974798D03*
X206994700Y-143474800D03*
X206994700Y-143974799D03*
X206994700Y-144474798D03*
X206994700Y-144974799D03*
X206994700Y-145474799D03*
X206994700Y-145974800D03*
X206994700Y-146474799D03*
X206994700Y-146974798D03*
X206994700Y-147474800D03*
X206994700Y-147974799D03*
D12*
X208524600Y-149504699D03*
X209024599Y-149504699D03*
X209524601Y-149504699D03*
X210024600Y-149504699D03*
X210524599Y-149504699D03*
X211024600Y-149504699D03*
X211524600Y-149504699D03*
X212024601Y-149504699D03*
X212524600Y-149504699D03*
X213024599Y-149504699D03*
X213524601Y-149504699D03*
X214024600Y-149504699D03*
D11*
X215554500Y-147974799D03*
X215554500Y-147474800D03*
X215554500Y-146974798D03*
X215554500Y-146474799D03*
X215554500Y-145974800D03*
X215554500Y-145474799D03*
X215554500Y-144974799D03*
X215554500Y-144474798D03*
X215554500Y-143974799D03*
X215554500Y-143474800D03*
X215554500Y-142974798D03*
X215554500Y-142474799D03*
D12*
X214024600Y-140944899D03*
X213524601Y-140944899D03*
X213024599Y-140944899D03*
X212524600Y-140944899D03*
X212024601Y-140944899D03*
X211524600Y-140944899D03*
X211024600Y-140944899D03*
X210524599Y-140944899D03*
X210024600Y-140944899D03*
X209524601Y-140944899D03*
X209024599Y-140944899D03*
X208524600Y-140944899D03*
%TD*%
D13*
%TO.C,C5*%
X212250000Y-138627500D03*
X212250000Y-136552500D03*
%TD*%
D10*
%TO.C,R1*%
X198410000Y-142330000D03*
X200410000Y-142330000D03*
%TD*%
D14*
%TO.C,C4*%
X217852500Y-146890000D03*
X219927500Y-146890000D03*
%TD*%
D15*
%TO.C,C3*%
X213720000Y-151802500D03*
X213720000Y-153877500D03*
%TD*%
D16*
%TO.C,R4*%
X189000000Y-156000000D03*
X187000000Y-156000000D03*
%TD*%
D10*
%TO.C,R2*%
X202220000Y-142340000D03*
X204220000Y-142340000D03*
%TD*%
D17*
%TO.C,D2*%
X232525000Y-156500000D03*
X230475000Y-156500000D03*
%TD*%
D18*
%TO.C,D1*%
X182975000Y-156000000D03*
X185025000Y-156000000D03*
%TD*%
D19*
%TO.C,C1*%
X204247500Y-144920000D03*
X202172500Y-144920000D03*
%TD*%
D10*
%TO.C,R5*%
X226500000Y-156500000D03*
X228500000Y-156500000D03*
%TD*%
D14*
%TO.C,C6*%
X194482500Y-142360000D03*
X196557500Y-142360000D03*
%TD*%
D13*
%TO.C,C2*%
X210450000Y-153877500D03*
X210450000Y-151802500D03*
%TD*%
D20*
%TO.C,U1*%
X220850000Y-140500000D03*
X221500000Y-140500000D03*
X222150000Y-140500000D03*
X222150000Y-138600000D03*
X221500000Y-138600000D03*
X220850000Y-138600000D03*
%TD*%
M02*
