%TF.GenerationSoftware,KiCad,Pcbnew,7.0.6*%
%TF.CreationDate,2024-09-27T11:16:26-07:00*%
%TF.ProjectId,MCU_DSP,4d43555f-4453-4502-9e6b-696361645f70,rev?*%
%TF.SameCoordinates,Original*%
%TF.FileFunction,Drillmap*%
%TF.FilePolarity,Positive*%
%FSLAX45Y45*%
G04 Gerber Fmt 4.5, Leading zero omitted, Abs format (unit mm)*
G04 Created by KiCad (PCBNEW 7.0.6) date 2024-09-27 11:16:26*
%MOMM*%
%LPD*%
G01*
G04 APERTURE LIST*
%ADD10C,0.100000*%
%ADD11C,0.200000*%
%ADD12C,0.320000*%
G04 APERTURE END LIST*
D10*
X18200000Y-16300000D02*
X18200000Y-13300000D01*
X23350000Y-13300000D02*
G75*
G03*
X23050000Y-13000000I-300000J0D01*
G01*
X18200000Y-16300000D02*
G75*
G03*
X18500000Y-16600000I300000J0D01*
G01*
X23050000Y-16600000D02*
G75*
G03*
X23350000Y-16300000I0J300000D01*
G01*
X18500000Y-13000000D02*
G75*
G03*
X18200000Y-13300000I0J-300000D01*
G01*
X18500000Y-13000000D02*
X23050000Y-13000000D01*
X23350000Y-13300000D02*
X23350000Y-16300000D01*
X23050000Y-16600000D02*
X18500000Y-16600000D01*
D11*
D12*
X18440000Y-13240000D02*
X18760000Y-13560000D01*
X18760000Y-13240000D02*
X18440000Y-13560000D01*
X18440000Y-16040000D02*
X18760000Y-16360000D01*
X18760000Y-16040000D02*
X18440000Y-16360000D01*
X22790000Y-13240000D02*
X23110000Y-13560000D01*
X23110000Y-13240000D02*
X22790000Y-13560000D01*
X22790000Y-16040000D02*
X23110000Y-16360000D01*
X23110000Y-16040000D02*
X22790000Y-16360000D01*
D11*
X18455777Y-16916484D02*
X18455777Y-16716484D01*
X18455777Y-16716484D02*
X18503396Y-16716484D01*
X18503396Y-16716484D02*
X18531967Y-16726008D01*
X18531967Y-16726008D02*
X18551015Y-16745055D01*
X18551015Y-16745055D02*
X18560539Y-16764103D01*
X18560539Y-16764103D02*
X18570063Y-16802198D01*
X18570063Y-16802198D02*
X18570063Y-16830770D01*
X18570063Y-16830770D02*
X18560539Y-16868865D01*
X18560539Y-16868865D02*
X18551015Y-16887912D01*
X18551015Y-16887912D02*
X18531967Y-16906960D01*
X18531967Y-16906960D02*
X18503396Y-16916484D01*
X18503396Y-16916484D02*
X18455777Y-16916484D01*
X18655777Y-16916484D02*
X18655777Y-16783150D01*
X18655777Y-16821246D02*
X18665301Y-16802198D01*
X18665301Y-16802198D02*
X18674824Y-16792674D01*
X18674824Y-16792674D02*
X18693872Y-16783150D01*
X18693872Y-16783150D02*
X18712920Y-16783150D01*
X18779586Y-16916484D02*
X18779586Y-16783150D01*
X18779586Y-16716484D02*
X18770063Y-16726008D01*
X18770063Y-16726008D02*
X18779586Y-16735531D01*
X18779586Y-16735531D02*
X18789110Y-16726008D01*
X18789110Y-16726008D02*
X18779586Y-16716484D01*
X18779586Y-16716484D02*
X18779586Y-16735531D01*
X18903396Y-16916484D02*
X18884348Y-16906960D01*
X18884348Y-16906960D02*
X18874824Y-16887912D01*
X18874824Y-16887912D02*
X18874824Y-16716484D01*
X19008158Y-16916484D02*
X18989110Y-16906960D01*
X18989110Y-16906960D02*
X18979586Y-16887912D01*
X18979586Y-16887912D02*
X18979586Y-16716484D01*
X19236729Y-16916484D02*
X19236729Y-16716484D01*
X19236729Y-16716484D02*
X19303396Y-16859341D01*
X19303396Y-16859341D02*
X19370063Y-16716484D01*
X19370063Y-16716484D02*
X19370063Y-16916484D01*
X19551015Y-16916484D02*
X19551015Y-16811722D01*
X19551015Y-16811722D02*
X19541491Y-16792674D01*
X19541491Y-16792674D02*
X19522444Y-16783150D01*
X19522444Y-16783150D02*
X19484348Y-16783150D01*
X19484348Y-16783150D02*
X19465301Y-16792674D01*
X19551015Y-16906960D02*
X19531967Y-16916484D01*
X19531967Y-16916484D02*
X19484348Y-16916484D01*
X19484348Y-16916484D02*
X19465301Y-16906960D01*
X19465301Y-16906960D02*
X19455777Y-16887912D01*
X19455777Y-16887912D02*
X19455777Y-16868865D01*
X19455777Y-16868865D02*
X19465301Y-16849817D01*
X19465301Y-16849817D02*
X19484348Y-16840293D01*
X19484348Y-16840293D02*
X19531967Y-16840293D01*
X19531967Y-16840293D02*
X19551015Y-16830770D01*
X19646253Y-16783150D02*
X19646253Y-16983150D01*
X19646253Y-16792674D02*
X19665301Y-16783150D01*
X19665301Y-16783150D02*
X19703396Y-16783150D01*
X19703396Y-16783150D02*
X19722444Y-16792674D01*
X19722444Y-16792674D02*
X19731967Y-16802198D01*
X19731967Y-16802198D02*
X19741491Y-16821246D01*
X19741491Y-16821246D02*
X19741491Y-16878389D01*
X19741491Y-16878389D02*
X19731967Y-16897436D01*
X19731967Y-16897436D02*
X19722444Y-16906960D01*
X19722444Y-16906960D02*
X19703396Y-16916484D01*
X19703396Y-16916484D02*
X19665301Y-16916484D01*
X19665301Y-16916484D02*
X19646253Y-16906960D01*
X19827205Y-16897436D02*
X19836729Y-16906960D01*
X19836729Y-16906960D02*
X19827205Y-16916484D01*
X19827205Y-16916484D02*
X19817682Y-16906960D01*
X19817682Y-16906960D02*
X19827205Y-16897436D01*
X19827205Y-16897436D02*
X19827205Y-16916484D01*
X19827205Y-16792674D02*
X19836729Y-16802198D01*
X19836729Y-16802198D02*
X19827205Y-16811722D01*
X19827205Y-16811722D02*
X19817682Y-16802198D01*
X19817682Y-16802198D02*
X19827205Y-16792674D01*
X19827205Y-16792674D02*
X19827205Y-16811722D01*
X17995000Y-17145000D02*
X18195000Y-17345000D01*
X18195000Y-17145000D02*
X17995000Y-17345000D01*
X18436729Y-17136484D02*
X18560539Y-17136484D01*
X18560539Y-17136484D02*
X18493872Y-17212674D01*
X18493872Y-17212674D02*
X18522444Y-17212674D01*
X18522444Y-17212674D02*
X18541491Y-17222198D01*
X18541491Y-17222198D02*
X18551015Y-17231722D01*
X18551015Y-17231722D02*
X18560539Y-17250770D01*
X18560539Y-17250770D02*
X18560539Y-17298389D01*
X18560539Y-17298389D02*
X18551015Y-17317436D01*
X18551015Y-17317436D02*
X18541491Y-17326960D01*
X18541491Y-17326960D02*
X18522444Y-17336484D01*
X18522444Y-17336484D02*
X18465301Y-17336484D01*
X18465301Y-17336484D02*
X18446253Y-17326960D01*
X18446253Y-17326960D02*
X18436729Y-17317436D01*
X18646253Y-17317436D02*
X18655777Y-17326960D01*
X18655777Y-17326960D02*
X18646253Y-17336484D01*
X18646253Y-17336484D02*
X18636729Y-17326960D01*
X18636729Y-17326960D02*
X18646253Y-17317436D01*
X18646253Y-17317436D02*
X18646253Y-17336484D01*
X18731967Y-17155531D02*
X18741491Y-17146008D01*
X18741491Y-17146008D02*
X18760539Y-17136484D01*
X18760539Y-17136484D02*
X18808158Y-17136484D01*
X18808158Y-17136484D02*
X18827205Y-17146008D01*
X18827205Y-17146008D02*
X18836729Y-17155531D01*
X18836729Y-17155531D02*
X18846253Y-17174579D01*
X18846253Y-17174579D02*
X18846253Y-17193627D01*
X18846253Y-17193627D02*
X18836729Y-17222198D01*
X18836729Y-17222198D02*
X18722444Y-17336484D01*
X18722444Y-17336484D02*
X18846253Y-17336484D01*
X18970063Y-17136484D02*
X18989110Y-17136484D01*
X18989110Y-17136484D02*
X19008158Y-17146008D01*
X19008158Y-17146008D02*
X19017682Y-17155531D01*
X19017682Y-17155531D02*
X19027205Y-17174579D01*
X19027205Y-17174579D02*
X19036729Y-17212674D01*
X19036729Y-17212674D02*
X19036729Y-17260293D01*
X19036729Y-17260293D02*
X19027205Y-17298389D01*
X19027205Y-17298389D02*
X19017682Y-17317436D01*
X19017682Y-17317436D02*
X19008158Y-17326960D01*
X19008158Y-17326960D02*
X18989110Y-17336484D01*
X18989110Y-17336484D02*
X18970063Y-17336484D01*
X18970063Y-17336484D02*
X18951015Y-17326960D01*
X18951015Y-17326960D02*
X18941491Y-17317436D01*
X18941491Y-17317436D02*
X18931967Y-17298389D01*
X18931967Y-17298389D02*
X18922444Y-17260293D01*
X18922444Y-17260293D02*
X18922444Y-17212674D01*
X18922444Y-17212674D02*
X18931967Y-17174579D01*
X18931967Y-17174579D02*
X18941491Y-17155531D01*
X18941491Y-17155531D02*
X18951015Y-17146008D01*
X18951015Y-17146008D02*
X18970063Y-17136484D01*
X19160539Y-17136484D02*
X19179586Y-17136484D01*
X19179586Y-17136484D02*
X19198634Y-17146008D01*
X19198634Y-17146008D02*
X19208158Y-17155531D01*
X19208158Y-17155531D02*
X19217682Y-17174579D01*
X19217682Y-17174579D02*
X19227205Y-17212674D01*
X19227205Y-17212674D02*
X19227205Y-17260293D01*
X19227205Y-17260293D02*
X19217682Y-17298389D01*
X19217682Y-17298389D02*
X19208158Y-17317436D01*
X19208158Y-17317436D02*
X19198634Y-17326960D01*
X19198634Y-17326960D02*
X19179586Y-17336484D01*
X19179586Y-17336484D02*
X19160539Y-17336484D01*
X19160539Y-17336484D02*
X19141491Y-17326960D01*
X19141491Y-17326960D02*
X19131967Y-17317436D01*
X19131967Y-17317436D02*
X19122444Y-17298389D01*
X19122444Y-17298389D02*
X19112920Y-17260293D01*
X19112920Y-17260293D02*
X19112920Y-17212674D01*
X19112920Y-17212674D02*
X19122444Y-17174579D01*
X19122444Y-17174579D02*
X19131967Y-17155531D01*
X19131967Y-17155531D02*
X19141491Y-17146008D01*
X19141491Y-17146008D02*
X19160539Y-17136484D01*
X19312920Y-17336484D02*
X19312920Y-17203150D01*
X19312920Y-17222198D02*
X19322444Y-17212674D01*
X19322444Y-17212674D02*
X19341491Y-17203150D01*
X19341491Y-17203150D02*
X19370063Y-17203150D01*
X19370063Y-17203150D02*
X19389110Y-17212674D01*
X19389110Y-17212674D02*
X19398634Y-17231722D01*
X19398634Y-17231722D02*
X19398634Y-17336484D01*
X19398634Y-17231722D02*
X19408158Y-17212674D01*
X19408158Y-17212674D02*
X19427205Y-17203150D01*
X19427205Y-17203150D02*
X19455777Y-17203150D01*
X19455777Y-17203150D02*
X19474825Y-17212674D01*
X19474825Y-17212674D02*
X19484348Y-17231722D01*
X19484348Y-17231722D02*
X19484348Y-17336484D01*
X19579586Y-17336484D02*
X19579586Y-17203150D01*
X19579586Y-17222198D02*
X19589110Y-17212674D01*
X19589110Y-17212674D02*
X19608158Y-17203150D01*
X19608158Y-17203150D02*
X19636729Y-17203150D01*
X19636729Y-17203150D02*
X19655777Y-17212674D01*
X19655777Y-17212674D02*
X19665301Y-17231722D01*
X19665301Y-17231722D02*
X19665301Y-17336484D01*
X19665301Y-17231722D02*
X19674825Y-17212674D01*
X19674825Y-17212674D02*
X19693872Y-17203150D01*
X19693872Y-17203150D02*
X19722444Y-17203150D01*
X19722444Y-17203150D02*
X19741491Y-17212674D01*
X19741491Y-17212674D02*
X19751015Y-17231722D01*
X19751015Y-17231722D02*
X19751015Y-17336484D01*
X20141491Y-17126960D02*
X19970063Y-17384103D01*
X20398634Y-17136484D02*
X20417682Y-17136484D01*
X20417682Y-17136484D02*
X20436729Y-17146008D01*
X20436729Y-17146008D02*
X20446253Y-17155531D01*
X20446253Y-17155531D02*
X20455777Y-17174579D01*
X20455777Y-17174579D02*
X20465301Y-17212674D01*
X20465301Y-17212674D02*
X20465301Y-17260293D01*
X20465301Y-17260293D02*
X20455777Y-17298389D01*
X20455777Y-17298389D02*
X20446253Y-17317436D01*
X20446253Y-17317436D02*
X20436729Y-17326960D01*
X20436729Y-17326960D02*
X20417682Y-17336484D01*
X20417682Y-17336484D02*
X20398634Y-17336484D01*
X20398634Y-17336484D02*
X20379587Y-17326960D01*
X20379587Y-17326960D02*
X20370063Y-17317436D01*
X20370063Y-17317436D02*
X20360539Y-17298389D01*
X20360539Y-17298389D02*
X20351015Y-17260293D01*
X20351015Y-17260293D02*
X20351015Y-17212674D01*
X20351015Y-17212674D02*
X20360539Y-17174579D01*
X20360539Y-17174579D02*
X20370063Y-17155531D01*
X20370063Y-17155531D02*
X20379587Y-17146008D01*
X20379587Y-17146008D02*
X20398634Y-17136484D01*
X20551015Y-17317436D02*
X20560539Y-17326960D01*
X20560539Y-17326960D02*
X20551015Y-17336484D01*
X20551015Y-17336484D02*
X20541491Y-17326960D01*
X20541491Y-17326960D02*
X20551015Y-17317436D01*
X20551015Y-17317436D02*
X20551015Y-17336484D01*
X20751015Y-17336484D02*
X20636729Y-17336484D01*
X20693872Y-17336484D02*
X20693872Y-17136484D01*
X20693872Y-17136484D02*
X20674825Y-17165055D01*
X20674825Y-17165055D02*
X20655777Y-17184103D01*
X20655777Y-17184103D02*
X20636729Y-17193627D01*
X20827206Y-17155531D02*
X20836729Y-17146008D01*
X20836729Y-17146008D02*
X20855777Y-17136484D01*
X20855777Y-17136484D02*
X20903396Y-17136484D01*
X20903396Y-17136484D02*
X20922444Y-17146008D01*
X20922444Y-17146008D02*
X20931968Y-17155531D01*
X20931968Y-17155531D02*
X20941491Y-17174579D01*
X20941491Y-17174579D02*
X20941491Y-17193627D01*
X20941491Y-17193627D02*
X20931968Y-17222198D01*
X20931968Y-17222198D02*
X20817682Y-17336484D01*
X20817682Y-17336484D02*
X20941491Y-17336484D01*
X21112920Y-17136484D02*
X21074825Y-17136484D01*
X21074825Y-17136484D02*
X21055777Y-17146008D01*
X21055777Y-17146008D02*
X21046253Y-17155531D01*
X21046253Y-17155531D02*
X21027206Y-17184103D01*
X21027206Y-17184103D02*
X21017682Y-17222198D01*
X21017682Y-17222198D02*
X21017682Y-17298389D01*
X21017682Y-17298389D02*
X21027206Y-17317436D01*
X21027206Y-17317436D02*
X21036729Y-17326960D01*
X21036729Y-17326960D02*
X21055777Y-17336484D01*
X21055777Y-17336484D02*
X21093872Y-17336484D01*
X21093872Y-17336484D02*
X21112920Y-17326960D01*
X21112920Y-17326960D02*
X21122444Y-17317436D01*
X21122444Y-17317436D02*
X21131968Y-17298389D01*
X21131968Y-17298389D02*
X21131968Y-17250770D01*
X21131968Y-17250770D02*
X21122444Y-17231722D01*
X21122444Y-17231722D02*
X21112920Y-17222198D01*
X21112920Y-17222198D02*
X21093872Y-17212674D01*
X21093872Y-17212674D02*
X21055777Y-17212674D01*
X21055777Y-17212674D02*
X21036729Y-17222198D01*
X21036729Y-17222198D02*
X21027206Y-17231722D01*
X21027206Y-17231722D02*
X21017682Y-17250770D01*
X21255777Y-17136484D02*
X21274825Y-17136484D01*
X21274825Y-17136484D02*
X21293872Y-17146008D01*
X21293872Y-17146008D02*
X21303396Y-17155531D01*
X21303396Y-17155531D02*
X21312920Y-17174579D01*
X21312920Y-17174579D02*
X21322444Y-17212674D01*
X21322444Y-17212674D02*
X21322444Y-17260293D01*
X21322444Y-17260293D02*
X21312920Y-17298389D01*
X21312920Y-17298389D02*
X21303396Y-17317436D01*
X21303396Y-17317436D02*
X21293872Y-17326960D01*
X21293872Y-17326960D02*
X21274825Y-17336484D01*
X21274825Y-17336484D02*
X21255777Y-17336484D01*
X21255777Y-17336484D02*
X21236729Y-17326960D01*
X21236729Y-17326960D02*
X21227206Y-17317436D01*
X21227206Y-17317436D02*
X21217682Y-17298389D01*
X21217682Y-17298389D02*
X21208158Y-17260293D01*
X21208158Y-17260293D02*
X21208158Y-17212674D01*
X21208158Y-17212674D02*
X21217682Y-17174579D01*
X21217682Y-17174579D02*
X21227206Y-17155531D01*
X21227206Y-17155531D02*
X21236729Y-17146008D01*
X21236729Y-17146008D02*
X21255777Y-17136484D01*
X21398634Y-17136484D02*
X21398634Y-17174579D01*
X21474825Y-17136484D02*
X21474825Y-17174579D01*
X21770063Y-17412674D02*
X21760539Y-17403150D01*
X21760539Y-17403150D02*
X21741491Y-17374579D01*
X21741491Y-17374579D02*
X21731968Y-17355531D01*
X21731968Y-17355531D02*
X21722444Y-17326960D01*
X21722444Y-17326960D02*
X21712920Y-17279341D01*
X21712920Y-17279341D02*
X21712920Y-17241246D01*
X21712920Y-17241246D02*
X21722444Y-17193627D01*
X21722444Y-17193627D02*
X21731968Y-17165055D01*
X21731968Y-17165055D02*
X21741491Y-17146008D01*
X21741491Y-17146008D02*
X21760539Y-17117436D01*
X21760539Y-17117436D02*
X21770063Y-17107912D01*
X21931968Y-17203150D02*
X21931968Y-17336484D01*
X21884349Y-17126960D02*
X21836730Y-17269817D01*
X21836730Y-17269817D02*
X21960539Y-17269817D01*
X22189111Y-17336484D02*
X22189111Y-17136484D01*
X22274825Y-17336484D02*
X22274825Y-17231722D01*
X22274825Y-17231722D02*
X22265301Y-17212674D01*
X22265301Y-17212674D02*
X22246253Y-17203150D01*
X22246253Y-17203150D02*
X22217682Y-17203150D01*
X22217682Y-17203150D02*
X22198634Y-17212674D01*
X22198634Y-17212674D02*
X22189111Y-17222198D01*
X22398634Y-17336484D02*
X22379587Y-17326960D01*
X22379587Y-17326960D02*
X22370063Y-17317436D01*
X22370063Y-17317436D02*
X22360539Y-17298389D01*
X22360539Y-17298389D02*
X22360539Y-17241246D01*
X22360539Y-17241246D02*
X22370063Y-17222198D01*
X22370063Y-17222198D02*
X22379587Y-17212674D01*
X22379587Y-17212674D02*
X22398634Y-17203150D01*
X22398634Y-17203150D02*
X22427206Y-17203150D01*
X22427206Y-17203150D02*
X22446253Y-17212674D01*
X22446253Y-17212674D02*
X22455777Y-17222198D01*
X22455777Y-17222198D02*
X22465301Y-17241246D01*
X22465301Y-17241246D02*
X22465301Y-17298389D01*
X22465301Y-17298389D02*
X22455777Y-17317436D01*
X22455777Y-17317436D02*
X22446253Y-17326960D01*
X22446253Y-17326960D02*
X22427206Y-17336484D01*
X22427206Y-17336484D02*
X22398634Y-17336484D01*
X22579587Y-17336484D02*
X22560539Y-17326960D01*
X22560539Y-17326960D02*
X22551015Y-17307912D01*
X22551015Y-17307912D02*
X22551015Y-17136484D01*
X22731968Y-17326960D02*
X22712920Y-17336484D01*
X22712920Y-17336484D02*
X22674825Y-17336484D01*
X22674825Y-17336484D02*
X22655777Y-17326960D01*
X22655777Y-17326960D02*
X22646253Y-17307912D01*
X22646253Y-17307912D02*
X22646253Y-17231722D01*
X22646253Y-17231722D02*
X22655777Y-17212674D01*
X22655777Y-17212674D02*
X22674825Y-17203150D01*
X22674825Y-17203150D02*
X22712920Y-17203150D01*
X22712920Y-17203150D02*
X22731968Y-17212674D01*
X22731968Y-17212674D02*
X22741491Y-17231722D01*
X22741491Y-17231722D02*
X22741491Y-17250770D01*
X22741491Y-17250770D02*
X22646253Y-17269817D01*
X22817682Y-17326960D02*
X22836730Y-17336484D01*
X22836730Y-17336484D02*
X22874825Y-17336484D01*
X22874825Y-17336484D02*
X22893872Y-17326960D01*
X22893872Y-17326960D02*
X22903396Y-17307912D01*
X22903396Y-17307912D02*
X22903396Y-17298389D01*
X22903396Y-17298389D02*
X22893872Y-17279341D01*
X22893872Y-17279341D02*
X22874825Y-17269817D01*
X22874825Y-17269817D02*
X22846253Y-17269817D01*
X22846253Y-17269817D02*
X22827206Y-17260293D01*
X22827206Y-17260293D02*
X22817682Y-17241246D01*
X22817682Y-17241246D02*
X22817682Y-17231722D01*
X22817682Y-17231722D02*
X22827206Y-17212674D01*
X22827206Y-17212674D02*
X22846253Y-17203150D01*
X22846253Y-17203150D02*
X22874825Y-17203150D01*
X22874825Y-17203150D02*
X22893872Y-17212674D01*
X22970063Y-17412674D02*
X22979587Y-17403150D01*
X22979587Y-17403150D02*
X22998634Y-17374579D01*
X22998634Y-17374579D02*
X23008158Y-17355531D01*
X23008158Y-17355531D02*
X23017682Y-17326960D01*
X23017682Y-17326960D02*
X23027206Y-17279341D01*
X23027206Y-17279341D02*
X23027206Y-17241246D01*
X23027206Y-17241246D02*
X23017682Y-17193627D01*
X23017682Y-17193627D02*
X23008158Y-17165055D01*
X23008158Y-17165055D02*
X22998634Y-17146008D01*
X22998634Y-17146008D02*
X22979587Y-17117436D01*
X22979587Y-17117436D02*
X22970063Y-17107912D01*
X23331968Y-17412674D02*
X23322444Y-17403150D01*
X23322444Y-17403150D02*
X23303396Y-17374579D01*
X23303396Y-17374579D02*
X23293872Y-17355531D01*
X23293872Y-17355531D02*
X23284349Y-17326960D01*
X23284349Y-17326960D02*
X23274825Y-17279341D01*
X23274825Y-17279341D02*
X23274825Y-17241246D01*
X23274825Y-17241246D02*
X23284349Y-17193627D01*
X23284349Y-17193627D02*
X23293872Y-17165055D01*
X23293872Y-17165055D02*
X23303396Y-17146008D01*
X23303396Y-17146008D02*
X23322444Y-17117436D01*
X23322444Y-17117436D02*
X23331968Y-17107912D01*
X23408158Y-17203150D02*
X23408158Y-17336484D01*
X23408158Y-17222198D02*
X23417682Y-17212674D01*
X23417682Y-17212674D02*
X23436730Y-17203150D01*
X23436730Y-17203150D02*
X23465301Y-17203150D01*
X23465301Y-17203150D02*
X23484349Y-17212674D01*
X23484349Y-17212674D02*
X23493872Y-17231722D01*
X23493872Y-17231722D02*
X23493872Y-17336484D01*
X23617682Y-17336484D02*
X23598634Y-17326960D01*
X23598634Y-17326960D02*
X23589111Y-17317436D01*
X23589111Y-17317436D02*
X23579587Y-17298389D01*
X23579587Y-17298389D02*
X23579587Y-17241246D01*
X23579587Y-17241246D02*
X23589111Y-17222198D01*
X23589111Y-17222198D02*
X23598634Y-17212674D01*
X23598634Y-17212674D02*
X23617682Y-17203150D01*
X23617682Y-17203150D02*
X23646253Y-17203150D01*
X23646253Y-17203150D02*
X23665301Y-17212674D01*
X23665301Y-17212674D02*
X23674825Y-17222198D01*
X23674825Y-17222198D02*
X23684349Y-17241246D01*
X23684349Y-17241246D02*
X23684349Y-17298389D01*
X23684349Y-17298389D02*
X23674825Y-17317436D01*
X23674825Y-17317436D02*
X23665301Y-17326960D01*
X23665301Y-17326960D02*
X23646253Y-17336484D01*
X23646253Y-17336484D02*
X23617682Y-17336484D01*
X23741492Y-17203150D02*
X23817682Y-17203150D01*
X23770063Y-17136484D02*
X23770063Y-17307912D01*
X23770063Y-17307912D02*
X23779587Y-17326960D01*
X23779587Y-17326960D02*
X23798634Y-17336484D01*
X23798634Y-17336484D02*
X23817682Y-17336484D01*
X24036730Y-17203150D02*
X24036730Y-17403150D01*
X24036730Y-17212674D02*
X24055777Y-17203150D01*
X24055777Y-17203150D02*
X24093873Y-17203150D01*
X24093873Y-17203150D02*
X24112920Y-17212674D01*
X24112920Y-17212674D02*
X24122444Y-17222198D01*
X24122444Y-17222198D02*
X24131968Y-17241246D01*
X24131968Y-17241246D02*
X24131968Y-17298389D01*
X24131968Y-17298389D02*
X24122444Y-17317436D01*
X24122444Y-17317436D02*
X24112920Y-17326960D01*
X24112920Y-17326960D02*
X24093873Y-17336484D01*
X24093873Y-17336484D02*
X24055777Y-17336484D01*
X24055777Y-17336484D02*
X24036730Y-17326960D01*
X24246253Y-17336484D02*
X24227206Y-17326960D01*
X24227206Y-17326960D02*
X24217682Y-17307912D01*
X24217682Y-17307912D02*
X24217682Y-17136484D01*
X24408158Y-17336484D02*
X24408158Y-17231722D01*
X24408158Y-17231722D02*
X24398634Y-17212674D01*
X24398634Y-17212674D02*
X24379587Y-17203150D01*
X24379587Y-17203150D02*
X24341492Y-17203150D01*
X24341492Y-17203150D02*
X24322444Y-17212674D01*
X24408158Y-17326960D02*
X24389111Y-17336484D01*
X24389111Y-17336484D02*
X24341492Y-17336484D01*
X24341492Y-17336484D02*
X24322444Y-17326960D01*
X24322444Y-17326960D02*
X24312920Y-17307912D01*
X24312920Y-17307912D02*
X24312920Y-17288865D01*
X24312920Y-17288865D02*
X24322444Y-17269817D01*
X24322444Y-17269817D02*
X24341492Y-17260293D01*
X24341492Y-17260293D02*
X24389111Y-17260293D01*
X24389111Y-17260293D02*
X24408158Y-17250770D01*
X24474825Y-17203150D02*
X24551015Y-17203150D01*
X24503396Y-17136484D02*
X24503396Y-17307912D01*
X24503396Y-17307912D02*
X24512920Y-17326960D01*
X24512920Y-17326960D02*
X24531968Y-17336484D01*
X24531968Y-17336484D02*
X24551015Y-17336484D01*
X24693873Y-17326960D02*
X24674825Y-17336484D01*
X24674825Y-17336484D02*
X24636730Y-17336484D01*
X24636730Y-17336484D02*
X24617682Y-17326960D01*
X24617682Y-17326960D02*
X24608158Y-17307912D01*
X24608158Y-17307912D02*
X24608158Y-17231722D01*
X24608158Y-17231722D02*
X24617682Y-17212674D01*
X24617682Y-17212674D02*
X24636730Y-17203150D01*
X24636730Y-17203150D02*
X24674825Y-17203150D01*
X24674825Y-17203150D02*
X24693873Y-17212674D01*
X24693873Y-17212674D02*
X24703396Y-17231722D01*
X24703396Y-17231722D02*
X24703396Y-17250770D01*
X24703396Y-17250770D02*
X24608158Y-17269817D01*
X24874825Y-17336484D02*
X24874825Y-17136484D01*
X24874825Y-17326960D02*
X24855777Y-17336484D01*
X24855777Y-17336484D02*
X24817682Y-17336484D01*
X24817682Y-17336484D02*
X24798634Y-17326960D01*
X24798634Y-17326960D02*
X24789111Y-17317436D01*
X24789111Y-17317436D02*
X24779587Y-17298389D01*
X24779587Y-17298389D02*
X24779587Y-17241246D01*
X24779587Y-17241246D02*
X24789111Y-17222198D01*
X24789111Y-17222198D02*
X24798634Y-17212674D01*
X24798634Y-17212674D02*
X24817682Y-17203150D01*
X24817682Y-17203150D02*
X24855777Y-17203150D01*
X24855777Y-17203150D02*
X24874825Y-17212674D01*
X24951015Y-17412674D02*
X24960539Y-17403150D01*
X24960539Y-17403150D02*
X24979587Y-17374579D01*
X24979587Y-17374579D02*
X24989111Y-17355531D01*
X24989111Y-17355531D02*
X24998634Y-17326960D01*
X24998634Y-17326960D02*
X25008158Y-17279341D01*
X25008158Y-17279341D02*
X25008158Y-17241246D01*
X25008158Y-17241246D02*
X24998634Y-17193627D01*
X24998634Y-17193627D02*
X24989111Y-17165055D01*
X24989111Y-17165055D02*
X24979587Y-17146008D01*
X24979587Y-17146008D02*
X24960539Y-17117436D01*
X24960539Y-17117436D02*
X24951015Y-17107912D01*
M02*
