%TF.GenerationSoftware,KiCad,Pcbnew,7.0.6*%
%TF.CreationDate,2024-09-27T11:16:29-07:00*%
%TF.ProjectId,MCU_DSP,4d43555f-4453-4502-9e6b-696361645f70,rev?*%
%TF.SameCoordinates,Original*%
%TF.FileFunction,Legend,Bot*%
%TF.FilePolarity,Positive*%
%FSLAX46Y46*%
G04 Gerber Fmt 4.6, Leading zero omitted, Abs format (unit mm)*
G04 Created by KiCad (PCBNEW 7.0.6) date 2024-09-27 11:16:29*
%MOMM*%
%LPD*%
G01*
G04 APERTURE LIST*
%ADD10C,0.150000*%
%ADD11C,0.254000*%
G04 APERTURE END LIST*
D10*
X219334649Y-138993152D02*
X219334649Y-139659819D01*
X219572744Y-138612200D02*
X219810839Y-139326485D01*
X219810839Y-139326485D02*
X219191792Y-139326485D01*
X218906077Y-138659819D02*
X218287030Y-138659819D01*
X218287030Y-138659819D02*
X218620363Y-139040771D01*
X218620363Y-139040771D02*
X218477506Y-139040771D01*
X218477506Y-139040771D02*
X218382268Y-139088390D01*
X218382268Y-139088390D02*
X218334649Y-139136009D01*
X218334649Y-139136009D02*
X218287030Y-139231247D01*
X218287030Y-139231247D02*
X218287030Y-139469342D01*
X218287030Y-139469342D02*
X218334649Y-139564580D01*
X218334649Y-139564580D02*
X218382268Y-139612200D01*
X218382268Y-139612200D02*
X218477506Y-139659819D01*
X218477506Y-139659819D02*
X218763220Y-139659819D01*
X218763220Y-139659819D02*
X218858458Y-139612200D01*
X218858458Y-139612200D02*
X218906077Y-139564580D01*
X217858458Y-139564580D02*
X217810839Y-139612200D01*
X217810839Y-139612200D02*
X217858458Y-139659819D01*
X217858458Y-139659819D02*
X217906077Y-139612200D01*
X217906077Y-139612200D02*
X217858458Y-139564580D01*
X217858458Y-139564580D02*
X217858458Y-139659819D01*
X216906078Y-138659819D02*
X217382268Y-138659819D01*
X217382268Y-138659819D02*
X217429887Y-139136009D01*
X217429887Y-139136009D02*
X217382268Y-139088390D01*
X217382268Y-139088390D02*
X217287030Y-139040771D01*
X217287030Y-139040771D02*
X217048935Y-139040771D01*
X217048935Y-139040771D02*
X216953697Y-139088390D01*
X216953697Y-139088390D02*
X216906078Y-139136009D01*
X216906078Y-139136009D02*
X216858459Y-139231247D01*
X216858459Y-139231247D02*
X216858459Y-139469342D01*
X216858459Y-139469342D02*
X216906078Y-139564580D01*
X216906078Y-139564580D02*
X216953697Y-139612200D01*
X216953697Y-139612200D02*
X217048935Y-139659819D01*
X217048935Y-139659819D02*
X217287030Y-139659819D01*
X217287030Y-139659819D02*
X217382268Y-139612200D01*
X217382268Y-139612200D02*
X217429887Y-139564580D01*
X215667982Y-139659819D02*
X215667982Y-138993152D01*
X215667982Y-139088390D02*
X215620363Y-139040771D01*
X215620363Y-139040771D02*
X215525125Y-138993152D01*
X215525125Y-138993152D02*
X215382268Y-138993152D01*
X215382268Y-138993152D02*
X215287030Y-139040771D01*
X215287030Y-139040771D02*
X215239411Y-139136009D01*
X215239411Y-139136009D02*
X215239411Y-139659819D01*
X215239411Y-139136009D02*
X215191792Y-139040771D01*
X215191792Y-139040771D02*
X215096554Y-138993152D01*
X215096554Y-138993152D02*
X214953697Y-138993152D01*
X214953697Y-138993152D02*
X214858458Y-139040771D01*
X214858458Y-139040771D02*
X214810839Y-139136009D01*
X214810839Y-139136009D02*
X214810839Y-139659819D01*
X214334649Y-139659819D02*
X214334649Y-138993152D01*
X214334649Y-139088390D02*
X214287030Y-139040771D01*
X214287030Y-139040771D02*
X214191792Y-138993152D01*
X214191792Y-138993152D02*
X214048935Y-138993152D01*
X214048935Y-138993152D02*
X213953697Y-139040771D01*
X213953697Y-139040771D02*
X213906078Y-139136009D01*
X213906078Y-139136009D02*
X213906078Y-139659819D01*
X213906078Y-139136009D02*
X213858459Y-139040771D01*
X213858459Y-139040771D02*
X213763221Y-138993152D01*
X213763221Y-138993152D02*
X213620364Y-138993152D01*
X213620364Y-138993152D02*
X213525125Y-139040771D01*
X213525125Y-139040771D02*
X213477506Y-139136009D01*
X213477506Y-139136009D02*
X213477506Y-139659819D01*
X212334649Y-139659819D02*
X211810840Y-138993152D01*
X212334649Y-138993152D02*
X211810840Y-139659819D01*
X210715601Y-138755057D02*
X210667982Y-138707438D01*
X210667982Y-138707438D02*
X210572744Y-138659819D01*
X210572744Y-138659819D02*
X210334649Y-138659819D01*
X210334649Y-138659819D02*
X210239411Y-138707438D01*
X210239411Y-138707438D02*
X210191792Y-138755057D01*
X210191792Y-138755057D02*
X210144173Y-138850295D01*
X210144173Y-138850295D02*
X210144173Y-138945533D01*
X210144173Y-138945533D02*
X210191792Y-139088390D01*
X210191792Y-139088390D02*
X210763220Y-139659819D01*
X210763220Y-139659819D02*
X210144173Y-139659819D01*
X209572744Y-139088390D02*
X209667982Y-139040771D01*
X209667982Y-139040771D02*
X209715601Y-138993152D01*
X209715601Y-138993152D02*
X209763220Y-138897914D01*
X209763220Y-138897914D02*
X209763220Y-138850295D01*
X209763220Y-138850295D02*
X209715601Y-138755057D01*
X209715601Y-138755057D02*
X209667982Y-138707438D01*
X209667982Y-138707438D02*
X209572744Y-138659819D01*
X209572744Y-138659819D02*
X209382268Y-138659819D01*
X209382268Y-138659819D02*
X209287030Y-138707438D01*
X209287030Y-138707438D02*
X209239411Y-138755057D01*
X209239411Y-138755057D02*
X209191792Y-138850295D01*
X209191792Y-138850295D02*
X209191792Y-138897914D01*
X209191792Y-138897914D02*
X209239411Y-138993152D01*
X209239411Y-138993152D02*
X209287030Y-139040771D01*
X209287030Y-139040771D02*
X209382268Y-139088390D01*
X209382268Y-139088390D02*
X209572744Y-139088390D01*
X209572744Y-139088390D02*
X209667982Y-139136009D01*
X209667982Y-139136009D02*
X209715601Y-139183628D01*
X209715601Y-139183628D02*
X209763220Y-139278866D01*
X209763220Y-139278866D02*
X209763220Y-139469342D01*
X209763220Y-139469342D02*
X209715601Y-139564580D01*
X209715601Y-139564580D02*
X209667982Y-139612200D01*
X209667982Y-139612200D02*
X209572744Y-139659819D01*
X209572744Y-139659819D02*
X209382268Y-139659819D01*
X209382268Y-139659819D02*
X209287030Y-139612200D01*
X209287030Y-139612200D02*
X209239411Y-139564580D01*
X209239411Y-139564580D02*
X209191792Y-139469342D01*
X209191792Y-139469342D02*
X209191792Y-139278866D01*
X209191792Y-139278866D02*
X209239411Y-139183628D01*
X209239411Y-139183628D02*
X209287030Y-139136009D01*
X209287030Y-139136009D02*
X209382268Y-139088390D01*
X208763220Y-139564580D02*
X208715601Y-139612200D01*
X208715601Y-139612200D02*
X208763220Y-139659819D01*
X208763220Y-139659819D02*
X208810839Y-139612200D01*
X208810839Y-139612200D02*
X208763220Y-139564580D01*
X208763220Y-139564580D02*
X208763220Y-139659819D01*
X208096554Y-138659819D02*
X208001316Y-138659819D01*
X208001316Y-138659819D02*
X207906078Y-138707438D01*
X207906078Y-138707438D02*
X207858459Y-138755057D01*
X207858459Y-138755057D02*
X207810840Y-138850295D01*
X207810840Y-138850295D02*
X207763221Y-139040771D01*
X207763221Y-139040771D02*
X207763221Y-139278866D01*
X207763221Y-139278866D02*
X207810840Y-139469342D01*
X207810840Y-139469342D02*
X207858459Y-139564580D01*
X207858459Y-139564580D02*
X207906078Y-139612200D01*
X207906078Y-139612200D02*
X208001316Y-139659819D01*
X208001316Y-139659819D02*
X208096554Y-139659819D01*
X208096554Y-139659819D02*
X208191792Y-139612200D01*
X208191792Y-139612200D02*
X208239411Y-139564580D01*
X208239411Y-139564580D02*
X208287030Y-139469342D01*
X208287030Y-139469342D02*
X208334649Y-139278866D01*
X208334649Y-139278866D02*
X208334649Y-139040771D01*
X208334649Y-139040771D02*
X208287030Y-138850295D01*
X208287030Y-138850295D02*
X208239411Y-138755057D01*
X208239411Y-138755057D02*
X208191792Y-138707438D01*
X208191792Y-138707438D02*
X208096554Y-138659819D01*
X206572744Y-139659819D02*
X206572744Y-138993152D01*
X206572744Y-139088390D02*
X206525125Y-139040771D01*
X206525125Y-139040771D02*
X206429887Y-138993152D01*
X206429887Y-138993152D02*
X206287030Y-138993152D01*
X206287030Y-138993152D02*
X206191792Y-139040771D01*
X206191792Y-139040771D02*
X206144173Y-139136009D01*
X206144173Y-139136009D02*
X206144173Y-139659819D01*
X206144173Y-139136009D02*
X206096554Y-139040771D01*
X206096554Y-139040771D02*
X206001316Y-138993152D01*
X206001316Y-138993152D02*
X205858459Y-138993152D01*
X205858459Y-138993152D02*
X205763220Y-139040771D01*
X205763220Y-139040771D02*
X205715601Y-139136009D01*
X205715601Y-139136009D02*
X205715601Y-139659819D01*
X205239411Y-139659819D02*
X205239411Y-138993152D01*
X205239411Y-139088390D02*
X205191792Y-139040771D01*
X205191792Y-139040771D02*
X205096554Y-138993152D01*
X205096554Y-138993152D02*
X204953697Y-138993152D01*
X204953697Y-138993152D02*
X204858459Y-139040771D01*
X204858459Y-139040771D02*
X204810840Y-139136009D01*
X204810840Y-139136009D02*
X204810840Y-139659819D01*
X204810840Y-139136009D02*
X204763221Y-139040771D01*
X204763221Y-139040771D02*
X204667983Y-138993152D01*
X204667983Y-138993152D02*
X204525126Y-138993152D01*
X204525126Y-138993152D02*
X204429887Y-139040771D01*
X204429887Y-139040771D02*
X204382268Y-139136009D01*
X204382268Y-139136009D02*
X204382268Y-139659819D01*
X203144173Y-139659819D02*
X203144173Y-138659819D01*
X202715602Y-139659819D02*
X202715602Y-139136009D01*
X202715602Y-139136009D02*
X202763221Y-139040771D01*
X202763221Y-139040771D02*
X202858459Y-138993152D01*
X202858459Y-138993152D02*
X203001316Y-138993152D01*
X203001316Y-138993152D02*
X203096554Y-139040771D01*
X203096554Y-139040771D02*
X203144173Y-139088390D01*
X202096554Y-139659819D02*
X202191792Y-139612200D01*
X202191792Y-139612200D02*
X202239411Y-139564580D01*
X202239411Y-139564580D02*
X202287030Y-139469342D01*
X202287030Y-139469342D02*
X202287030Y-139183628D01*
X202287030Y-139183628D02*
X202239411Y-139088390D01*
X202239411Y-139088390D02*
X202191792Y-139040771D01*
X202191792Y-139040771D02*
X202096554Y-138993152D01*
X202096554Y-138993152D02*
X201953697Y-138993152D01*
X201953697Y-138993152D02*
X201858459Y-139040771D01*
X201858459Y-139040771D02*
X201810840Y-139088390D01*
X201810840Y-139088390D02*
X201763221Y-139183628D01*
X201763221Y-139183628D02*
X201763221Y-139469342D01*
X201763221Y-139469342D02*
X201810840Y-139564580D01*
X201810840Y-139564580D02*
X201858459Y-139612200D01*
X201858459Y-139612200D02*
X201953697Y-139659819D01*
X201953697Y-139659819D02*
X202096554Y-139659819D01*
X201191792Y-139659819D02*
X201287030Y-139612200D01*
X201287030Y-139612200D02*
X201334649Y-139516961D01*
X201334649Y-139516961D02*
X201334649Y-138659819D01*
X200429887Y-139612200D02*
X200525125Y-139659819D01*
X200525125Y-139659819D02*
X200715601Y-139659819D01*
X200715601Y-139659819D02*
X200810839Y-139612200D01*
X200810839Y-139612200D02*
X200858458Y-139516961D01*
X200858458Y-139516961D02*
X200858458Y-139136009D01*
X200858458Y-139136009D02*
X200810839Y-139040771D01*
X200810839Y-139040771D02*
X200715601Y-138993152D01*
X200715601Y-138993152D02*
X200525125Y-138993152D01*
X200525125Y-138993152D02*
X200429887Y-139040771D01*
X200429887Y-139040771D02*
X200382268Y-139136009D01*
X200382268Y-139136009D02*
X200382268Y-139231247D01*
X200382268Y-139231247D02*
X200858458Y-139326485D01*
X199239410Y-139612200D02*
X199144172Y-139659819D01*
X199144172Y-139659819D02*
X198953696Y-139659819D01*
X198953696Y-139659819D02*
X198858458Y-139612200D01*
X198858458Y-139612200D02*
X198810839Y-139516961D01*
X198810839Y-139516961D02*
X198810839Y-139469342D01*
X198810839Y-139469342D02*
X198858458Y-139374104D01*
X198858458Y-139374104D02*
X198953696Y-139326485D01*
X198953696Y-139326485D02*
X199096553Y-139326485D01*
X199096553Y-139326485D02*
X199191791Y-139278866D01*
X199191791Y-139278866D02*
X199239410Y-139183628D01*
X199239410Y-139183628D02*
X199239410Y-139136009D01*
X199239410Y-139136009D02*
X199191791Y-139040771D01*
X199191791Y-139040771D02*
X199096553Y-138993152D01*
X199096553Y-138993152D02*
X198953696Y-138993152D01*
X198953696Y-138993152D02*
X198858458Y-139040771D01*
X198382267Y-138993152D02*
X198382267Y-139993152D01*
X198382267Y-139040771D02*
X198287029Y-138993152D01*
X198287029Y-138993152D02*
X198096553Y-138993152D01*
X198096553Y-138993152D02*
X198001315Y-139040771D01*
X198001315Y-139040771D02*
X197953696Y-139088390D01*
X197953696Y-139088390D02*
X197906077Y-139183628D01*
X197906077Y-139183628D02*
X197906077Y-139469342D01*
X197906077Y-139469342D02*
X197953696Y-139564580D01*
X197953696Y-139564580D02*
X198001315Y-139612200D01*
X198001315Y-139612200D02*
X198096553Y-139659819D01*
X198096553Y-139659819D02*
X198287029Y-139659819D01*
X198287029Y-139659819D02*
X198382267Y-139612200D01*
X197048934Y-139659819D02*
X197048934Y-139136009D01*
X197048934Y-139136009D02*
X197096553Y-139040771D01*
X197096553Y-139040771D02*
X197191791Y-138993152D01*
X197191791Y-138993152D02*
X197382267Y-138993152D01*
X197382267Y-138993152D02*
X197477505Y-139040771D01*
X197048934Y-139612200D02*
X197144172Y-139659819D01*
X197144172Y-139659819D02*
X197382267Y-139659819D01*
X197382267Y-139659819D02*
X197477505Y-139612200D01*
X197477505Y-139612200D02*
X197525124Y-139516961D01*
X197525124Y-139516961D02*
X197525124Y-139421723D01*
X197525124Y-139421723D02*
X197477505Y-139326485D01*
X197477505Y-139326485D02*
X197382267Y-139278866D01*
X197382267Y-139278866D02*
X197144172Y-139278866D01*
X197144172Y-139278866D02*
X197048934Y-139231247D01*
X196144172Y-139612200D02*
X196239410Y-139659819D01*
X196239410Y-139659819D02*
X196429886Y-139659819D01*
X196429886Y-139659819D02*
X196525124Y-139612200D01*
X196525124Y-139612200D02*
X196572743Y-139564580D01*
X196572743Y-139564580D02*
X196620362Y-139469342D01*
X196620362Y-139469342D02*
X196620362Y-139183628D01*
X196620362Y-139183628D02*
X196572743Y-139088390D01*
X196572743Y-139088390D02*
X196525124Y-139040771D01*
X196525124Y-139040771D02*
X196429886Y-138993152D01*
X196429886Y-138993152D02*
X196239410Y-138993152D01*
X196239410Y-138993152D02*
X196144172Y-139040771D01*
X195715600Y-139659819D02*
X195715600Y-138993152D01*
X195715600Y-138659819D02*
X195763219Y-138707438D01*
X195763219Y-138707438D02*
X195715600Y-138755057D01*
X195715600Y-138755057D02*
X195667981Y-138707438D01*
X195667981Y-138707438D02*
X195715600Y-138659819D01*
X195715600Y-138659819D02*
X195715600Y-138755057D01*
X195239410Y-138993152D02*
X195239410Y-139659819D01*
X195239410Y-139088390D02*
X195191791Y-139040771D01*
X195191791Y-139040771D02*
X195096553Y-138993152D01*
X195096553Y-138993152D02*
X194953696Y-138993152D01*
X194953696Y-138993152D02*
X194858458Y-139040771D01*
X194858458Y-139040771D02*
X194810839Y-139136009D01*
X194810839Y-139136009D02*
X194810839Y-139659819D01*
X193906077Y-138993152D02*
X193906077Y-139802676D01*
X193906077Y-139802676D02*
X193953696Y-139897914D01*
X193953696Y-139897914D02*
X194001315Y-139945533D01*
X194001315Y-139945533D02*
X194096553Y-139993152D01*
X194096553Y-139993152D02*
X194239410Y-139993152D01*
X194239410Y-139993152D02*
X194334648Y-139945533D01*
X193906077Y-139612200D02*
X194001315Y-139659819D01*
X194001315Y-139659819D02*
X194191791Y-139659819D01*
X194191791Y-139659819D02*
X194287029Y-139612200D01*
X194287029Y-139612200D02*
X194334648Y-139564580D01*
X194334648Y-139564580D02*
X194382267Y-139469342D01*
X194382267Y-139469342D02*
X194382267Y-139183628D01*
X194382267Y-139183628D02*
X194334648Y-139088390D01*
X194334648Y-139088390D02*
X194287029Y-139040771D01*
X194287029Y-139040771D02*
X194191791Y-138993152D01*
X194191791Y-138993152D02*
X194001315Y-138993152D01*
X194001315Y-138993152D02*
X193906077Y-139040771D01*
X219287030Y-140269819D02*
X219763220Y-140269819D01*
X219763220Y-140269819D02*
X219810839Y-140746009D01*
X219810839Y-140746009D02*
X219763220Y-140698390D01*
X219763220Y-140698390D02*
X219667982Y-140650771D01*
X219667982Y-140650771D02*
X219429887Y-140650771D01*
X219429887Y-140650771D02*
X219334649Y-140698390D01*
X219334649Y-140698390D02*
X219287030Y-140746009D01*
X219287030Y-140746009D02*
X219239411Y-140841247D01*
X219239411Y-140841247D02*
X219239411Y-141079342D01*
X219239411Y-141079342D02*
X219287030Y-141174580D01*
X219287030Y-141174580D02*
X219334649Y-141222200D01*
X219334649Y-141222200D02*
X219429887Y-141269819D01*
X219429887Y-141269819D02*
X219667982Y-141269819D01*
X219667982Y-141269819D02*
X219763220Y-141222200D01*
X219763220Y-141222200D02*
X219810839Y-141174580D01*
X218287030Y-141269819D02*
X218858458Y-141269819D01*
X218572744Y-141269819D02*
X218572744Y-140269819D01*
X218572744Y-140269819D02*
X218667982Y-140412676D01*
X218667982Y-140412676D02*
X218763220Y-140507914D01*
X218763220Y-140507914D02*
X218858458Y-140555533D01*
X217858458Y-141174580D02*
X217810839Y-141222200D01*
X217810839Y-141222200D02*
X217858458Y-141269819D01*
X217858458Y-141269819D02*
X217906077Y-141222200D01*
X217906077Y-141222200D02*
X217858458Y-141174580D01*
X217858458Y-141174580D02*
X217858458Y-141269819D01*
X216906078Y-140269819D02*
X217382268Y-140269819D01*
X217382268Y-140269819D02*
X217429887Y-140746009D01*
X217429887Y-140746009D02*
X217382268Y-140698390D01*
X217382268Y-140698390D02*
X217287030Y-140650771D01*
X217287030Y-140650771D02*
X217048935Y-140650771D01*
X217048935Y-140650771D02*
X216953697Y-140698390D01*
X216953697Y-140698390D02*
X216906078Y-140746009D01*
X216906078Y-140746009D02*
X216858459Y-140841247D01*
X216858459Y-140841247D02*
X216858459Y-141079342D01*
X216858459Y-141079342D02*
X216906078Y-141174580D01*
X216906078Y-141174580D02*
X216953697Y-141222200D01*
X216953697Y-141222200D02*
X217048935Y-141269819D01*
X217048935Y-141269819D02*
X217287030Y-141269819D01*
X217287030Y-141269819D02*
X217382268Y-141222200D01*
X217382268Y-141222200D02*
X217429887Y-141174580D01*
X215667982Y-141269819D02*
X215667982Y-140603152D01*
X215667982Y-140698390D02*
X215620363Y-140650771D01*
X215620363Y-140650771D02*
X215525125Y-140603152D01*
X215525125Y-140603152D02*
X215382268Y-140603152D01*
X215382268Y-140603152D02*
X215287030Y-140650771D01*
X215287030Y-140650771D02*
X215239411Y-140746009D01*
X215239411Y-140746009D02*
X215239411Y-141269819D01*
X215239411Y-140746009D02*
X215191792Y-140650771D01*
X215191792Y-140650771D02*
X215096554Y-140603152D01*
X215096554Y-140603152D02*
X214953697Y-140603152D01*
X214953697Y-140603152D02*
X214858458Y-140650771D01*
X214858458Y-140650771D02*
X214810839Y-140746009D01*
X214810839Y-140746009D02*
X214810839Y-141269819D01*
X214334649Y-141269819D02*
X214334649Y-140603152D01*
X214334649Y-140698390D02*
X214287030Y-140650771D01*
X214287030Y-140650771D02*
X214191792Y-140603152D01*
X214191792Y-140603152D02*
X214048935Y-140603152D01*
X214048935Y-140603152D02*
X213953697Y-140650771D01*
X213953697Y-140650771D02*
X213906078Y-140746009D01*
X213906078Y-140746009D02*
X213906078Y-141269819D01*
X213906078Y-140746009D02*
X213858459Y-140650771D01*
X213858459Y-140650771D02*
X213763221Y-140603152D01*
X213763221Y-140603152D02*
X213620364Y-140603152D01*
X213620364Y-140603152D02*
X213525125Y-140650771D01*
X213525125Y-140650771D02*
X213477506Y-140746009D01*
X213477506Y-140746009D02*
X213477506Y-141269819D01*
X212334649Y-141269819D02*
X211810840Y-140603152D01*
X212334649Y-140603152D02*
X211810840Y-141269819D01*
X210763220Y-140269819D02*
X210144173Y-140269819D01*
X210144173Y-140269819D02*
X210477506Y-140650771D01*
X210477506Y-140650771D02*
X210334649Y-140650771D01*
X210334649Y-140650771D02*
X210239411Y-140698390D01*
X210239411Y-140698390D02*
X210191792Y-140746009D01*
X210191792Y-140746009D02*
X210144173Y-140841247D01*
X210144173Y-140841247D02*
X210144173Y-141079342D01*
X210144173Y-141079342D02*
X210191792Y-141174580D01*
X210191792Y-141174580D02*
X210239411Y-141222200D01*
X210239411Y-141222200D02*
X210334649Y-141269819D01*
X210334649Y-141269819D02*
X210620363Y-141269819D01*
X210620363Y-141269819D02*
X210715601Y-141222200D01*
X210715601Y-141222200D02*
X210763220Y-141174580D01*
X209287030Y-140269819D02*
X209477506Y-140269819D01*
X209477506Y-140269819D02*
X209572744Y-140317438D01*
X209572744Y-140317438D02*
X209620363Y-140365057D01*
X209620363Y-140365057D02*
X209715601Y-140507914D01*
X209715601Y-140507914D02*
X209763220Y-140698390D01*
X209763220Y-140698390D02*
X209763220Y-141079342D01*
X209763220Y-141079342D02*
X209715601Y-141174580D01*
X209715601Y-141174580D02*
X209667982Y-141222200D01*
X209667982Y-141222200D02*
X209572744Y-141269819D01*
X209572744Y-141269819D02*
X209382268Y-141269819D01*
X209382268Y-141269819D02*
X209287030Y-141222200D01*
X209287030Y-141222200D02*
X209239411Y-141174580D01*
X209239411Y-141174580D02*
X209191792Y-141079342D01*
X209191792Y-141079342D02*
X209191792Y-140841247D01*
X209191792Y-140841247D02*
X209239411Y-140746009D01*
X209239411Y-140746009D02*
X209287030Y-140698390D01*
X209287030Y-140698390D02*
X209382268Y-140650771D01*
X209382268Y-140650771D02*
X209572744Y-140650771D01*
X209572744Y-140650771D02*
X209667982Y-140698390D01*
X209667982Y-140698390D02*
X209715601Y-140746009D01*
X209715601Y-140746009D02*
X209763220Y-140841247D01*
X208001315Y-141269819D02*
X208001315Y-140603152D01*
X208001315Y-140698390D02*
X207953696Y-140650771D01*
X207953696Y-140650771D02*
X207858458Y-140603152D01*
X207858458Y-140603152D02*
X207715601Y-140603152D01*
X207715601Y-140603152D02*
X207620363Y-140650771D01*
X207620363Y-140650771D02*
X207572744Y-140746009D01*
X207572744Y-140746009D02*
X207572744Y-141269819D01*
X207572744Y-140746009D02*
X207525125Y-140650771D01*
X207525125Y-140650771D02*
X207429887Y-140603152D01*
X207429887Y-140603152D02*
X207287030Y-140603152D01*
X207287030Y-140603152D02*
X207191791Y-140650771D01*
X207191791Y-140650771D02*
X207144172Y-140746009D01*
X207144172Y-140746009D02*
X207144172Y-141269819D01*
X206667982Y-141269819D02*
X206667982Y-140603152D01*
X206667982Y-140698390D02*
X206620363Y-140650771D01*
X206620363Y-140650771D02*
X206525125Y-140603152D01*
X206525125Y-140603152D02*
X206382268Y-140603152D01*
X206382268Y-140603152D02*
X206287030Y-140650771D01*
X206287030Y-140650771D02*
X206239411Y-140746009D01*
X206239411Y-140746009D02*
X206239411Y-141269819D01*
X206239411Y-140746009D02*
X206191792Y-140650771D01*
X206191792Y-140650771D02*
X206096554Y-140603152D01*
X206096554Y-140603152D02*
X205953697Y-140603152D01*
X205953697Y-140603152D02*
X205858458Y-140650771D01*
X205858458Y-140650771D02*
X205810839Y-140746009D01*
X205810839Y-140746009D02*
X205810839Y-141269819D01*
X204572744Y-141269819D02*
X204572744Y-140269819D01*
X204572744Y-140650771D02*
X204477506Y-140603152D01*
X204477506Y-140603152D02*
X204287030Y-140603152D01*
X204287030Y-140603152D02*
X204191792Y-140650771D01*
X204191792Y-140650771D02*
X204144173Y-140698390D01*
X204144173Y-140698390D02*
X204096554Y-140793628D01*
X204096554Y-140793628D02*
X204096554Y-141079342D01*
X204096554Y-141079342D02*
X204144173Y-141174580D01*
X204144173Y-141174580D02*
X204191792Y-141222200D01*
X204191792Y-141222200D02*
X204287030Y-141269819D01*
X204287030Y-141269819D02*
X204477506Y-141269819D01*
X204477506Y-141269819D02*
X204572744Y-141222200D01*
X203525125Y-141269819D02*
X203620363Y-141222200D01*
X203620363Y-141222200D02*
X203667982Y-141174580D01*
X203667982Y-141174580D02*
X203715601Y-141079342D01*
X203715601Y-141079342D02*
X203715601Y-140793628D01*
X203715601Y-140793628D02*
X203667982Y-140698390D01*
X203667982Y-140698390D02*
X203620363Y-140650771D01*
X203620363Y-140650771D02*
X203525125Y-140603152D01*
X203525125Y-140603152D02*
X203382268Y-140603152D01*
X203382268Y-140603152D02*
X203287030Y-140650771D01*
X203287030Y-140650771D02*
X203239411Y-140698390D01*
X203239411Y-140698390D02*
X203191792Y-140793628D01*
X203191792Y-140793628D02*
X203191792Y-141079342D01*
X203191792Y-141079342D02*
X203239411Y-141174580D01*
X203239411Y-141174580D02*
X203287030Y-141222200D01*
X203287030Y-141222200D02*
X203382268Y-141269819D01*
X203382268Y-141269819D02*
X203525125Y-141269819D01*
X202334649Y-141269819D02*
X202334649Y-140746009D01*
X202334649Y-140746009D02*
X202382268Y-140650771D01*
X202382268Y-140650771D02*
X202477506Y-140603152D01*
X202477506Y-140603152D02*
X202667982Y-140603152D01*
X202667982Y-140603152D02*
X202763220Y-140650771D01*
X202334649Y-141222200D02*
X202429887Y-141269819D01*
X202429887Y-141269819D02*
X202667982Y-141269819D01*
X202667982Y-141269819D02*
X202763220Y-141222200D01*
X202763220Y-141222200D02*
X202810839Y-141126961D01*
X202810839Y-141126961D02*
X202810839Y-141031723D01*
X202810839Y-141031723D02*
X202763220Y-140936485D01*
X202763220Y-140936485D02*
X202667982Y-140888866D01*
X202667982Y-140888866D02*
X202429887Y-140888866D01*
X202429887Y-140888866D02*
X202334649Y-140841247D01*
X201858458Y-141269819D02*
X201858458Y-140603152D01*
X201858458Y-140793628D02*
X201810839Y-140698390D01*
X201810839Y-140698390D02*
X201763220Y-140650771D01*
X201763220Y-140650771D02*
X201667982Y-140603152D01*
X201667982Y-140603152D02*
X201572744Y-140603152D01*
X200810839Y-141269819D02*
X200810839Y-140269819D01*
X200810839Y-141222200D02*
X200906077Y-141269819D01*
X200906077Y-141269819D02*
X201096553Y-141269819D01*
X201096553Y-141269819D02*
X201191791Y-141222200D01*
X201191791Y-141222200D02*
X201239410Y-141174580D01*
X201239410Y-141174580D02*
X201287029Y-141079342D01*
X201287029Y-141079342D02*
X201287029Y-140793628D01*
X201287029Y-140793628D02*
X201239410Y-140698390D01*
X201239410Y-140698390D02*
X201191791Y-140650771D01*
X201191791Y-140650771D02*
X201096553Y-140603152D01*
X201096553Y-140603152D02*
X200906077Y-140603152D01*
X200906077Y-140603152D02*
X200810839Y-140650771D01*
X199620362Y-141222200D02*
X199525124Y-141269819D01*
X199525124Y-141269819D02*
X199334648Y-141269819D01*
X199334648Y-141269819D02*
X199239410Y-141222200D01*
X199239410Y-141222200D02*
X199191791Y-141126961D01*
X199191791Y-141126961D02*
X199191791Y-141079342D01*
X199191791Y-141079342D02*
X199239410Y-140984104D01*
X199239410Y-140984104D02*
X199334648Y-140936485D01*
X199334648Y-140936485D02*
X199477505Y-140936485D01*
X199477505Y-140936485D02*
X199572743Y-140888866D01*
X199572743Y-140888866D02*
X199620362Y-140793628D01*
X199620362Y-140793628D02*
X199620362Y-140746009D01*
X199620362Y-140746009D02*
X199572743Y-140650771D01*
X199572743Y-140650771D02*
X199477505Y-140603152D01*
X199477505Y-140603152D02*
X199334648Y-140603152D01*
X199334648Y-140603152D02*
X199239410Y-140650771D01*
X198763219Y-141269819D02*
X198763219Y-140603152D01*
X198763219Y-140269819D02*
X198810838Y-140317438D01*
X198810838Y-140317438D02*
X198763219Y-140365057D01*
X198763219Y-140365057D02*
X198715600Y-140317438D01*
X198715600Y-140317438D02*
X198763219Y-140269819D01*
X198763219Y-140269819D02*
X198763219Y-140365057D01*
X198382267Y-140603152D02*
X197858458Y-140603152D01*
X197858458Y-140603152D02*
X198382267Y-141269819D01*
X198382267Y-141269819D02*
X197858458Y-141269819D01*
X197096553Y-141222200D02*
X197191791Y-141269819D01*
X197191791Y-141269819D02*
X197382267Y-141269819D01*
X197382267Y-141269819D02*
X197477505Y-141222200D01*
X197477505Y-141222200D02*
X197525124Y-141126961D01*
X197525124Y-141126961D02*
X197525124Y-140746009D01*
X197525124Y-140746009D02*
X197477505Y-140650771D01*
X197477505Y-140650771D02*
X197382267Y-140603152D01*
X197382267Y-140603152D02*
X197191791Y-140603152D01*
X197191791Y-140603152D02*
X197096553Y-140650771D01*
X197096553Y-140650771D02*
X197048934Y-140746009D01*
X197048934Y-140746009D02*
X197048934Y-140841247D01*
X197048934Y-140841247D02*
X197525124Y-140936485D01*
X220310839Y-150944104D02*
X219834649Y-150944104D01*
X220406077Y-151229819D02*
X220072744Y-150229819D01*
X220072744Y-150229819D02*
X219739411Y-151229819D01*
X218977506Y-150563152D02*
X218977506Y-151229819D01*
X219406077Y-150563152D02*
X219406077Y-151086961D01*
X219406077Y-151086961D02*
X219358458Y-151182200D01*
X219358458Y-151182200D02*
X219263220Y-151229819D01*
X219263220Y-151229819D02*
X219120363Y-151229819D01*
X219120363Y-151229819D02*
X219025125Y-151182200D01*
X219025125Y-151182200D02*
X218977506Y-151134580D01*
X218072744Y-151229819D02*
X218072744Y-150229819D01*
X218072744Y-151182200D02*
X218167982Y-151229819D01*
X218167982Y-151229819D02*
X218358458Y-151229819D01*
X218358458Y-151229819D02*
X218453696Y-151182200D01*
X218453696Y-151182200D02*
X218501315Y-151134580D01*
X218501315Y-151134580D02*
X218548934Y-151039342D01*
X218548934Y-151039342D02*
X218548934Y-150753628D01*
X218548934Y-150753628D02*
X218501315Y-150658390D01*
X218501315Y-150658390D02*
X218453696Y-150610771D01*
X218453696Y-150610771D02*
X218358458Y-150563152D01*
X218358458Y-150563152D02*
X218167982Y-150563152D01*
X218167982Y-150563152D02*
X218072744Y-150610771D01*
X217596553Y-151229819D02*
X217596553Y-150563152D01*
X217596553Y-150229819D02*
X217644172Y-150277438D01*
X217644172Y-150277438D02*
X217596553Y-150325057D01*
X217596553Y-150325057D02*
X217548934Y-150277438D01*
X217548934Y-150277438D02*
X217596553Y-150229819D01*
X217596553Y-150229819D02*
X217596553Y-150325057D01*
X216977506Y-151229819D02*
X217072744Y-151182200D01*
X217072744Y-151182200D02*
X217120363Y-151134580D01*
X217120363Y-151134580D02*
X217167982Y-151039342D01*
X217167982Y-151039342D02*
X217167982Y-150753628D01*
X217167982Y-150753628D02*
X217120363Y-150658390D01*
X217120363Y-150658390D02*
X217072744Y-150610771D01*
X217072744Y-150610771D02*
X216977506Y-150563152D01*
X216977506Y-150563152D02*
X216834649Y-150563152D01*
X216834649Y-150563152D02*
X216739411Y-150610771D01*
X216739411Y-150610771D02*
X216691792Y-150658390D01*
X216691792Y-150658390D02*
X216644173Y-150753628D01*
X216644173Y-150753628D02*
X216644173Y-151039342D01*
X216644173Y-151039342D02*
X216691792Y-151134580D01*
X216691792Y-151134580D02*
X216739411Y-151182200D01*
X216739411Y-151182200D02*
X216834649Y-151229819D01*
X216834649Y-151229819D02*
X216977506Y-151229819D01*
X215453696Y-151229819D02*
X215453696Y-150229819D01*
X215453696Y-150229819D02*
X215072744Y-150229819D01*
X215072744Y-150229819D02*
X214977506Y-150277438D01*
X214977506Y-150277438D02*
X214929887Y-150325057D01*
X214929887Y-150325057D02*
X214882268Y-150420295D01*
X214882268Y-150420295D02*
X214882268Y-150563152D01*
X214882268Y-150563152D02*
X214929887Y-150658390D01*
X214929887Y-150658390D02*
X214977506Y-150706009D01*
X214977506Y-150706009D02*
X215072744Y-150753628D01*
X215072744Y-150753628D02*
X215453696Y-150753628D01*
X214453696Y-151229819D02*
X214453696Y-150563152D01*
X214453696Y-150753628D02*
X214406077Y-150658390D01*
X214406077Y-150658390D02*
X214358458Y-150610771D01*
X214358458Y-150610771D02*
X214263220Y-150563152D01*
X214263220Y-150563152D02*
X214167982Y-150563152D01*
X213691791Y-151229819D02*
X213787029Y-151182200D01*
X213787029Y-151182200D02*
X213834648Y-151134580D01*
X213834648Y-151134580D02*
X213882267Y-151039342D01*
X213882267Y-151039342D02*
X213882267Y-150753628D01*
X213882267Y-150753628D02*
X213834648Y-150658390D01*
X213834648Y-150658390D02*
X213787029Y-150610771D01*
X213787029Y-150610771D02*
X213691791Y-150563152D01*
X213691791Y-150563152D02*
X213548934Y-150563152D01*
X213548934Y-150563152D02*
X213453696Y-150610771D01*
X213453696Y-150610771D02*
X213406077Y-150658390D01*
X213406077Y-150658390D02*
X213358458Y-150753628D01*
X213358458Y-150753628D02*
X213358458Y-151039342D01*
X213358458Y-151039342D02*
X213406077Y-151134580D01*
X213406077Y-151134580D02*
X213453696Y-151182200D01*
X213453696Y-151182200D02*
X213548934Y-151229819D01*
X213548934Y-151229819D02*
X213691791Y-151229819D01*
X212501315Y-151182200D02*
X212596553Y-151229819D01*
X212596553Y-151229819D02*
X212787029Y-151229819D01*
X212787029Y-151229819D02*
X212882267Y-151182200D01*
X212882267Y-151182200D02*
X212929886Y-151134580D01*
X212929886Y-151134580D02*
X212977505Y-151039342D01*
X212977505Y-151039342D02*
X212977505Y-150753628D01*
X212977505Y-150753628D02*
X212929886Y-150658390D01*
X212929886Y-150658390D02*
X212882267Y-150610771D01*
X212882267Y-150610771D02*
X212787029Y-150563152D01*
X212787029Y-150563152D02*
X212596553Y-150563152D01*
X212596553Y-150563152D02*
X212501315Y-150610771D01*
X211691791Y-151182200D02*
X211787029Y-151229819D01*
X211787029Y-151229819D02*
X211977505Y-151229819D01*
X211977505Y-151229819D02*
X212072743Y-151182200D01*
X212072743Y-151182200D02*
X212120362Y-151086961D01*
X212120362Y-151086961D02*
X212120362Y-150706009D01*
X212120362Y-150706009D02*
X212072743Y-150610771D01*
X212072743Y-150610771D02*
X211977505Y-150563152D01*
X211977505Y-150563152D02*
X211787029Y-150563152D01*
X211787029Y-150563152D02*
X211691791Y-150610771D01*
X211691791Y-150610771D02*
X211644172Y-150706009D01*
X211644172Y-150706009D02*
X211644172Y-150801247D01*
X211644172Y-150801247D02*
X212120362Y-150896485D01*
X211263219Y-151182200D02*
X211167981Y-151229819D01*
X211167981Y-151229819D02*
X210977505Y-151229819D01*
X210977505Y-151229819D02*
X210882267Y-151182200D01*
X210882267Y-151182200D02*
X210834648Y-151086961D01*
X210834648Y-151086961D02*
X210834648Y-151039342D01*
X210834648Y-151039342D02*
X210882267Y-150944104D01*
X210882267Y-150944104D02*
X210977505Y-150896485D01*
X210977505Y-150896485D02*
X211120362Y-150896485D01*
X211120362Y-150896485D02*
X211215600Y-150848866D01*
X211215600Y-150848866D02*
X211263219Y-150753628D01*
X211263219Y-150753628D02*
X211263219Y-150706009D01*
X211263219Y-150706009D02*
X211215600Y-150610771D01*
X211215600Y-150610771D02*
X211120362Y-150563152D01*
X211120362Y-150563152D02*
X210977505Y-150563152D01*
X210977505Y-150563152D02*
X210882267Y-150610771D01*
X210453695Y-151182200D02*
X210358457Y-151229819D01*
X210358457Y-151229819D02*
X210167981Y-151229819D01*
X210167981Y-151229819D02*
X210072743Y-151182200D01*
X210072743Y-151182200D02*
X210025124Y-151086961D01*
X210025124Y-151086961D02*
X210025124Y-151039342D01*
X210025124Y-151039342D02*
X210072743Y-150944104D01*
X210072743Y-150944104D02*
X210167981Y-150896485D01*
X210167981Y-150896485D02*
X210310838Y-150896485D01*
X210310838Y-150896485D02*
X210406076Y-150848866D01*
X210406076Y-150848866D02*
X210453695Y-150753628D01*
X210453695Y-150753628D02*
X210453695Y-150706009D01*
X210453695Y-150706009D02*
X210406076Y-150610771D01*
X210406076Y-150610771D02*
X210310838Y-150563152D01*
X210310838Y-150563152D02*
X210167981Y-150563152D01*
X210167981Y-150563152D02*
X210072743Y-150610771D01*
X209596552Y-151229819D02*
X209596552Y-150563152D01*
X209596552Y-150229819D02*
X209644171Y-150277438D01*
X209644171Y-150277438D02*
X209596552Y-150325057D01*
X209596552Y-150325057D02*
X209548933Y-150277438D01*
X209548933Y-150277438D02*
X209596552Y-150229819D01*
X209596552Y-150229819D02*
X209596552Y-150325057D01*
X209120362Y-150563152D02*
X209120362Y-151229819D01*
X209120362Y-150658390D02*
X209072743Y-150610771D01*
X209072743Y-150610771D02*
X208977505Y-150563152D01*
X208977505Y-150563152D02*
X208834648Y-150563152D01*
X208834648Y-150563152D02*
X208739410Y-150610771D01*
X208739410Y-150610771D02*
X208691791Y-150706009D01*
X208691791Y-150706009D02*
X208691791Y-151229819D01*
X207787029Y-150563152D02*
X207787029Y-151372676D01*
X207787029Y-151372676D02*
X207834648Y-151467914D01*
X207834648Y-151467914D02*
X207882267Y-151515533D01*
X207882267Y-151515533D02*
X207977505Y-151563152D01*
X207977505Y-151563152D02*
X208120362Y-151563152D01*
X208120362Y-151563152D02*
X208215600Y-151515533D01*
X207787029Y-151182200D02*
X207882267Y-151229819D01*
X207882267Y-151229819D02*
X208072743Y-151229819D01*
X208072743Y-151229819D02*
X208167981Y-151182200D01*
X208167981Y-151182200D02*
X208215600Y-151134580D01*
X208215600Y-151134580D02*
X208263219Y-151039342D01*
X208263219Y-151039342D02*
X208263219Y-150753628D01*
X208263219Y-150753628D02*
X208215600Y-150658390D01*
X208215600Y-150658390D02*
X208167981Y-150610771D01*
X208167981Y-150610771D02*
X208072743Y-150563152D01*
X208072743Y-150563152D02*
X207882267Y-150563152D01*
X207882267Y-150563152D02*
X207787029Y-150610771D01*
X206215600Y-150706009D02*
X206072743Y-150753628D01*
X206072743Y-150753628D02*
X206025124Y-150801247D01*
X206025124Y-150801247D02*
X205977505Y-150896485D01*
X205977505Y-150896485D02*
X205977505Y-151039342D01*
X205977505Y-151039342D02*
X206025124Y-151134580D01*
X206025124Y-151134580D02*
X206072743Y-151182200D01*
X206072743Y-151182200D02*
X206167981Y-151229819D01*
X206167981Y-151229819D02*
X206548933Y-151229819D01*
X206548933Y-151229819D02*
X206548933Y-150229819D01*
X206548933Y-150229819D02*
X206215600Y-150229819D01*
X206215600Y-150229819D02*
X206120362Y-150277438D01*
X206120362Y-150277438D02*
X206072743Y-150325057D01*
X206072743Y-150325057D02*
X206025124Y-150420295D01*
X206025124Y-150420295D02*
X206025124Y-150515533D01*
X206025124Y-150515533D02*
X206072743Y-150610771D01*
X206072743Y-150610771D02*
X206120362Y-150658390D01*
X206120362Y-150658390D02*
X206215600Y-150706009D01*
X206215600Y-150706009D02*
X206548933Y-150706009D01*
X205406076Y-151229819D02*
X205501314Y-151182200D01*
X205501314Y-151182200D02*
X205548933Y-151134580D01*
X205548933Y-151134580D02*
X205596552Y-151039342D01*
X205596552Y-151039342D02*
X205596552Y-150753628D01*
X205596552Y-150753628D02*
X205548933Y-150658390D01*
X205548933Y-150658390D02*
X205501314Y-150610771D01*
X205501314Y-150610771D02*
X205406076Y-150563152D01*
X205406076Y-150563152D02*
X205263219Y-150563152D01*
X205263219Y-150563152D02*
X205167981Y-150610771D01*
X205167981Y-150610771D02*
X205120362Y-150658390D01*
X205120362Y-150658390D02*
X205072743Y-150753628D01*
X205072743Y-150753628D02*
X205072743Y-151039342D01*
X205072743Y-151039342D02*
X205120362Y-151134580D01*
X205120362Y-151134580D02*
X205167981Y-151182200D01*
X205167981Y-151182200D02*
X205263219Y-151229819D01*
X205263219Y-151229819D02*
X205406076Y-151229819D01*
X204215600Y-151229819D02*
X204215600Y-150706009D01*
X204215600Y-150706009D02*
X204263219Y-150610771D01*
X204263219Y-150610771D02*
X204358457Y-150563152D01*
X204358457Y-150563152D02*
X204548933Y-150563152D01*
X204548933Y-150563152D02*
X204644171Y-150610771D01*
X204215600Y-151182200D02*
X204310838Y-151229819D01*
X204310838Y-151229819D02*
X204548933Y-151229819D01*
X204548933Y-151229819D02*
X204644171Y-151182200D01*
X204644171Y-151182200D02*
X204691790Y-151086961D01*
X204691790Y-151086961D02*
X204691790Y-150991723D01*
X204691790Y-150991723D02*
X204644171Y-150896485D01*
X204644171Y-150896485D02*
X204548933Y-150848866D01*
X204548933Y-150848866D02*
X204310838Y-150848866D01*
X204310838Y-150848866D02*
X204215600Y-150801247D01*
X203739409Y-151229819D02*
X203739409Y-150563152D01*
X203739409Y-150753628D02*
X203691790Y-150658390D01*
X203691790Y-150658390D02*
X203644171Y-150610771D01*
X203644171Y-150610771D02*
X203548933Y-150563152D01*
X203548933Y-150563152D02*
X203453695Y-150563152D01*
X202691790Y-151229819D02*
X202691790Y-150229819D01*
X202691790Y-151182200D02*
X202787028Y-151229819D01*
X202787028Y-151229819D02*
X202977504Y-151229819D01*
X202977504Y-151229819D02*
X203072742Y-151182200D01*
X203072742Y-151182200D02*
X203120361Y-151134580D01*
X203120361Y-151134580D02*
X203167980Y-151039342D01*
X203167980Y-151039342D02*
X203167980Y-150753628D01*
X203167980Y-150753628D02*
X203120361Y-150658390D01*
X203120361Y-150658390D02*
X203072742Y-150610771D01*
X203072742Y-150610771D02*
X202977504Y-150563152D01*
X202977504Y-150563152D02*
X202787028Y-150563152D01*
X202787028Y-150563152D02*
X202691790Y-150610771D01*
X220263220Y-152839819D02*
X220263220Y-151839819D01*
X220263220Y-151839819D02*
X219882268Y-151839819D01*
X219882268Y-151839819D02*
X219787030Y-151887438D01*
X219787030Y-151887438D02*
X219739411Y-151935057D01*
X219739411Y-151935057D02*
X219691792Y-152030295D01*
X219691792Y-152030295D02*
X219691792Y-152173152D01*
X219691792Y-152173152D02*
X219739411Y-152268390D01*
X219739411Y-152268390D02*
X219787030Y-152316009D01*
X219787030Y-152316009D02*
X219882268Y-152363628D01*
X219882268Y-152363628D02*
X220263220Y-152363628D01*
X219263220Y-152839819D02*
X219263220Y-151839819D01*
X218215602Y-152744580D02*
X218263221Y-152792200D01*
X218263221Y-152792200D02*
X218406078Y-152839819D01*
X218406078Y-152839819D02*
X218501316Y-152839819D01*
X218501316Y-152839819D02*
X218644173Y-152792200D01*
X218644173Y-152792200D02*
X218739411Y-152696961D01*
X218739411Y-152696961D02*
X218787030Y-152601723D01*
X218787030Y-152601723D02*
X218834649Y-152411247D01*
X218834649Y-152411247D02*
X218834649Y-152268390D01*
X218834649Y-152268390D02*
X218787030Y-152077914D01*
X218787030Y-152077914D02*
X218739411Y-151982676D01*
X218739411Y-151982676D02*
X218644173Y-151887438D01*
X218644173Y-151887438D02*
X218501316Y-151839819D01*
X218501316Y-151839819D02*
X218406078Y-151839819D01*
X218406078Y-151839819D02*
X218263221Y-151887438D01*
X218263221Y-151887438D02*
X218215602Y-151935057D01*
X217882268Y-151839819D02*
X217263221Y-151839819D01*
X217263221Y-151839819D02*
X217596554Y-152220771D01*
X217596554Y-152220771D02*
X217453697Y-152220771D01*
X217453697Y-152220771D02*
X217358459Y-152268390D01*
X217358459Y-152268390D02*
X217310840Y-152316009D01*
X217310840Y-152316009D02*
X217263221Y-152411247D01*
X217263221Y-152411247D02*
X217263221Y-152649342D01*
X217263221Y-152649342D02*
X217310840Y-152744580D01*
X217310840Y-152744580D02*
X217358459Y-152792200D01*
X217358459Y-152792200D02*
X217453697Y-152839819D01*
X217453697Y-152839819D02*
X217739411Y-152839819D01*
X217739411Y-152839819D02*
X217834649Y-152792200D01*
X217834649Y-152792200D02*
X217882268Y-152744580D01*
X216882268Y-151935057D02*
X216834649Y-151887438D01*
X216834649Y-151887438D02*
X216739411Y-151839819D01*
X216739411Y-151839819D02*
X216501316Y-151839819D01*
X216501316Y-151839819D02*
X216406078Y-151887438D01*
X216406078Y-151887438D02*
X216358459Y-151935057D01*
X216358459Y-151935057D02*
X216310840Y-152030295D01*
X216310840Y-152030295D02*
X216310840Y-152125533D01*
X216310840Y-152125533D02*
X216358459Y-152268390D01*
X216358459Y-152268390D02*
X216929887Y-152839819D01*
X216929887Y-152839819D02*
X216310840Y-152839819D01*
X215882268Y-152839819D02*
X215882268Y-151839819D01*
X215882268Y-151839819D02*
X215548935Y-152554104D01*
X215548935Y-152554104D02*
X215215602Y-151839819D01*
X215215602Y-151839819D02*
X215215602Y-152839819D01*
X214739411Y-152839819D02*
X214739411Y-151839819D01*
X214167983Y-152839819D02*
X214596554Y-152268390D01*
X214167983Y-151839819D02*
X214739411Y-152411247D01*
X213548935Y-151839819D02*
X213453697Y-151839819D01*
X213453697Y-151839819D02*
X213358459Y-151887438D01*
X213358459Y-151887438D02*
X213310840Y-151935057D01*
X213310840Y-151935057D02*
X213263221Y-152030295D01*
X213263221Y-152030295D02*
X213215602Y-152220771D01*
X213215602Y-152220771D02*
X213215602Y-152458866D01*
X213215602Y-152458866D02*
X213263221Y-152649342D01*
X213263221Y-152649342D02*
X213310840Y-152744580D01*
X213310840Y-152744580D02*
X213358459Y-152792200D01*
X213358459Y-152792200D02*
X213453697Y-152839819D01*
X213453697Y-152839819D02*
X213548935Y-152839819D01*
X213548935Y-152839819D02*
X213644173Y-152792200D01*
X213644173Y-152792200D02*
X213691792Y-152744580D01*
X213691792Y-152744580D02*
X213739411Y-152649342D01*
X213739411Y-152649342D02*
X213787030Y-152458866D01*
X213787030Y-152458866D02*
X213787030Y-152220771D01*
X213787030Y-152220771D02*
X213739411Y-152030295D01*
X213739411Y-152030295D02*
X213691792Y-151935057D01*
X213691792Y-151935057D02*
X213644173Y-151887438D01*
X213644173Y-151887438D02*
X213548935Y-151839819D01*
X212263221Y-152839819D02*
X212834649Y-152839819D01*
X212548935Y-152839819D02*
X212548935Y-151839819D01*
X212548935Y-151839819D02*
X212644173Y-151982676D01*
X212644173Y-151982676D02*
X212739411Y-152077914D01*
X212739411Y-152077914D02*
X212834649Y-152125533D01*
X211882268Y-151935057D02*
X211834649Y-151887438D01*
X211834649Y-151887438D02*
X211739411Y-151839819D01*
X211739411Y-151839819D02*
X211501316Y-151839819D01*
X211501316Y-151839819D02*
X211406078Y-151887438D01*
X211406078Y-151887438D02*
X211358459Y-151935057D01*
X211358459Y-151935057D02*
X211310840Y-152030295D01*
X211310840Y-152030295D02*
X211310840Y-152125533D01*
X211310840Y-152125533D02*
X211358459Y-152268390D01*
X211358459Y-152268390D02*
X211929887Y-152839819D01*
X211929887Y-152839819D02*
X211310840Y-152839819D01*
X210739411Y-152268390D02*
X210834649Y-152220771D01*
X210834649Y-152220771D02*
X210882268Y-152173152D01*
X210882268Y-152173152D02*
X210929887Y-152077914D01*
X210929887Y-152077914D02*
X210929887Y-152030295D01*
X210929887Y-152030295D02*
X210882268Y-151935057D01*
X210882268Y-151935057D02*
X210834649Y-151887438D01*
X210834649Y-151887438D02*
X210739411Y-151839819D01*
X210739411Y-151839819D02*
X210548935Y-151839819D01*
X210548935Y-151839819D02*
X210453697Y-151887438D01*
X210453697Y-151887438D02*
X210406078Y-151935057D01*
X210406078Y-151935057D02*
X210358459Y-152030295D01*
X210358459Y-152030295D02*
X210358459Y-152077914D01*
X210358459Y-152077914D02*
X210406078Y-152173152D01*
X210406078Y-152173152D02*
X210453697Y-152220771D01*
X210453697Y-152220771D02*
X210548935Y-152268390D01*
X210548935Y-152268390D02*
X210739411Y-152268390D01*
X210739411Y-152268390D02*
X210834649Y-152316009D01*
X210834649Y-152316009D02*
X210882268Y-152363628D01*
X210882268Y-152363628D02*
X210929887Y-152458866D01*
X210929887Y-152458866D02*
X210929887Y-152649342D01*
X210929887Y-152649342D02*
X210882268Y-152744580D01*
X210882268Y-152744580D02*
X210834649Y-152792200D01*
X210834649Y-152792200D02*
X210739411Y-152839819D01*
X210739411Y-152839819D02*
X210548935Y-152839819D01*
X210548935Y-152839819D02*
X210453697Y-152792200D01*
X210453697Y-152792200D02*
X210406078Y-152744580D01*
X210406078Y-152744580D02*
X210358459Y-152649342D01*
X210358459Y-152649342D02*
X210358459Y-152458866D01*
X210358459Y-152458866D02*
X210406078Y-152363628D01*
X210406078Y-152363628D02*
X210453697Y-152316009D01*
X210453697Y-152316009D02*
X210548935Y-152268390D01*
X209929887Y-152839819D02*
X209929887Y-151839819D01*
X209929887Y-151839819D02*
X209596554Y-152554104D01*
X209596554Y-152554104D02*
X209263221Y-151839819D01*
X209263221Y-151839819D02*
X209263221Y-152839819D01*
X208215602Y-152744580D02*
X208263221Y-152792200D01*
X208263221Y-152792200D02*
X208406078Y-152839819D01*
X208406078Y-152839819D02*
X208501316Y-152839819D01*
X208501316Y-152839819D02*
X208644173Y-152792200D01*
X208644173Y-152792200D02*
X208739411Y-152696961D01*
X208739411Y-152696961D02*
X208787030Y-152601723D01*
X208787030Y-152601723D02*
X208834649Y-152411247D01*
X208834649Y-152411247D02*
X208834649Y-152268390D01*
X208834649Y-152268390D02*
X208787030Y-152077914D01*
X208787030Y-152077914D02*
X208739411Y-151982676D01*
X208739411Y-151982676D02*
X208644173Y-151887438D01*
X208644173Y-151887438D02*
X208501316Y-151839819D01*
X208501316Y-151839819D02*
X208406078Y-151839819D01*
X208406078Y-151839819D02*
X208263221Y-151887438D01*
X208263221Y-151887438D02*
X208215602Y-151935057D01*
X207834649Y-152554104D02*
X207358459Y-152554104D01*
X207929887Y-152839819D02*
X207596554Y-151839819D01*
X207596554Y-151839819D02*
X207263221Y-152839819D01*
X206739411Y-151839819D02*
X206644173Y-151839819D01*
X206644173Y-151839819D02*
X206548935Y-151887438D01*
X206548935Y-151887438D02*
X206501316Y-151935057D01*
X206501316Y-151935057D02*
X206453697Y-152030295D01*
X206453697Y-152030295D02*
X206406078Y-152220771D01*
X206406078Y-152220771D02*
X206406078Y-152458866D01*
X206406078Y-152458866D02*
X206453697Y-152649342D01*
X206453697Y-152649342D02*
X206501316Y-152744580D01*
X206501316Y-152744580D02*
X206548935Y-152792200D01*
X206548935Y-152792200D02*
X206644173Y-152839819D01*
X206644173Y-152839819D02*
X206739411Y-152839819D01*
X206739411Y-152839819D02*
X206834649Y-152792200D01*
X206834649Y-152792200D02*
X206882268Y-152744580D01*
X206882268Y-152744580D02*
X206929887Y-152649342D01*
X206929887Y-152649342D02*
X206977506Y-152458866D01*
X206977506Y-152458866D02*
X206977506Y-152220771D01*
X206977506Y-152220771D02*
X206929887Y-152030295D01*
X206929887Y-152030295D02*
X206882268Y-151935057D01*
X206882268Y-151935057D02*
X206834649Y-151887438D01*
X206834649Y-151887438D02*
X206739411Y-151839819D01*
X205548935Y-152173152D02*
X205548935Y-152839819D01*
X205787030Y-151792200D02*
X206025125Y-152506485D01*
X206025125Y-152506485D02*
X205406078Y-152506485D01*
X204882268Y-152268390D02*
X204977506Y-152220771D01*
X204977506Y-152220771D02*
X205025125Y-152173152D01*
X205025125Y-152173152D02*
X205072744Y-152077914D01*
X205072744Y-152077914D02*
X205072744Y-152030295D01*
X205072744Y-152030295D02*
X205025125Y-151935057D01*
X205025125Y-151935057D02*
X204977506Y-151887438D01*
X204977506Y-151887438D02*
X204882268Y-151839819D01*
X204882268Y-151839819D02*
X204691792Y-151839819D01*
X204691792Y-151839819D02*
X204596554Y-151887438D01*
X204596554Y-151887438D02*
X204548935Y-151935057D01*
X204548935Y-151935057D02*
X204501316Y-152030295D01*
X204501316Y-152030295D02*
X204501316Y-152077914D01*
X204501316Y-152077914D02*
X204548935Y-152173152D01*
X204548935Y-152173152D02*
X204596554Y-152220771D01*
X204596554Y-152220771D02*
X204691792Y-152268390D01*
X204691792Y-152268390D02*
X204882268Y-152268390D01*
X204882268Y-152268390D02*
X204977506Y-152316009D01*
X204977506Y-152316009D02*
X205025125Y-152363628D01*
X205025125Y-152363628D02*
X205072744Y-152458866D01*
X205072744Y-152458866D02*
X205072744Y-152649342D01*
X205072744Y-152649342D02*
X205025125Y-152744580D01*
X205025125Y-152744580D02*
X204977506Y-152792200D01*
X204977506Y-152792200D02*
X204882268Y-152839819D01*
X204882268Y-152839819D02*
X204691792Y-152839819D01*
X204691792Y-152839819D02*
X204596554Y-152792200D01*
X204596554Y-152792200D02*
X204548935Y-152744580D01*
X204548935Y-152744580D02*
X204501316Y-152649342D01*
X204501316Y-152649342D02*
X204501316Y-152458866D01*
X204501316Y-152458866D02*
X204548935Y-152363628D01*
X204548935Y-152363628D02*
X204596554Y-152316009D01*
X204596554Y-152316009D02*
X204691792Y-152268390D01*
X204072744Y-152458866D02*
X203310840Y-152458866D01*
X202834649Y-152839819D02*
X202834649Y-151839819D01*
X202596555Y-152935057D02*
X201834650Y-152935057D01*
X201406078Y-152363628D02*
X201406078Y-152839819D01*
X201739411Y-151839819D02*
X201406078Y-152363628D01*
X201406078Y-152363628D02*
X201072745Y-151839819D01*
X200596554Y-152268390D02*
X200691792Y-152220771D01*
X200691792Y-152220771D02*
X200739411Y-152173152D01*
X200739411Y-152173152D02*
X200787030Y-152077914D01*
X200787030Y-152077914D02*
X200787030Y-152030295D01*
X200787030Y-152030295D02*
X200739411Y-151935057D01*
X200739411Y-151935057D02*
X200691792Y-151887438D01*
X200691792Y-151887438D02*
X200596554Y-151839819D01*
X200596554Y-151839819D02*
X200406078Y-151839819D01*
X200406078Y-151839819D02*
X200310840Y-151887438D01*
X200310840Y-151887438D02*
X200263221Y-151935057D01*
X200263221Y-151935057D02*
X200215602Y-152030295D01*
X200215602Y-152030295D02*
X200215602Y-152077914D01*
X200215602Y-152077914D02*
X200263221Y-152173152D01*
X200263221Y-152173152D02*
X200310840Y-152220771D01*
X200310840Y-152220771D02*
X200406078Y-152268390D01*
X200406078Y-152268390D02*
X200596554Y-152268390D01*
X200596554Y-152268390D02*
X200691792Y-152316009D01*
X200691792Y-152316009D02*
X200739411Y-152363628D01*
X200739411Y-152363628D02*
X200787030Y-152458866D01*
X200787030Y-152458866D02*
X200787030Y-152649342D01*
X200787030Y-152649342D02*
X200739411Y-152744580D01*
X200739411Y-152744580D02*
X200691792Y-152792200D01*
X200691792Y-152792200D02*
X200596554Y-152839819D01*
X200596554Y-152839819D02*
X200406078Y-152839819D01*
X200406078Y-152839819D02*
X200310840Y-152792200D01*
X200310840Y-152792200D02*
X200263221Y-152744580D01*
X200263221Y-152744580D02*
X200215602Y-152649342D01*
X200215602Y-152649342D02*
X200215602Y-152458866D01*
X200215602Y-152458866D02*
X200263221Y-152363628D01*
X200263221Y-152363628D02*
X200310840Y-152316009D01*
X200310840Y-152316009D02*
X200406078Y-152268390D01*
X199882268Y-151839819D02*
X199215602Y-152839819D01*
X199215602Y-151839819D02*
X199882268Y-152839819D01*
X220406077Y-153449819D02*
X220072744Y-154449819D01*
X220072744Y-154449819D02*
X219739411Y-153449819D01*
X219025125Y-154402200D02*
X219120363Y-154449819D01*
X219120363Y-154449819D02*
X219310839Y-154449819D01*
X219310839Y-154449819D02*
X219406077Y-154402200D01*
X219406077Y-154402200D02*
X219453696Y-154306961D01*
X219453696Y-154306961D02*
X219453696Y-153926009D01*
X219453696Y-153926009D02*
X219406077Y-153830771D01*
X219406077Y-153830771D02*
X219310839Y-153783152D01*
X219310839Y-153783152D02*
X219120363Y-153783152D01*
X219120363Y-153783152D02*
X219025125Y-153830771D01*
X219025125Y-153830771D02*
X218977506Y-153926009D01*
X218977506Y-153926009D02*
X218977506Y-154021247D01*
X218977506Y-154021247D02*
X219453696Y-154116485D01*
X218548934Y-154449819D02*
X218548934Y-153783152D01*
X218548934Y-153973628D02*
X218501315Y-153878390D01*
X218501315Y-153878390D02*
X218453696Y-153830771D01*
X218453696Y-153830771D02*
X218358458Y-153783152D01*
X218358458Y-153783152D02*
X218263220Y-153783152D01*
X217929886Y-154354580D02*
X217882267Y-154402200D01*
X217882267Y-154402200D02*
X217929886Y-154449819D01*
X217929886Y-154449819D02*
X217977505Y-154402200D01*
X217977505Y-154402200D02*
X217929886Y-154354580D01*
X217929886Y-154354580D02*
X217929886Y-154449819D01*
X216167982Y-154449819D02*
X216739410Y-154449819D01*
X216453696Y-154449819D02*
X216453696Y-153449819D01*
X216453696Y-153449819D02*
X216548934Y-153592676D01*
X216548934Y-153592676D02*
X216644172Y-153687914D01*
X216644172Y-153687914D02*
X216739410Y-153735533D01*
X215739410Y-154354580D02*
X215691791Y-154402200D01*
X215691791Y-154402200D02*
X215739410Y-154449819D01*
X215739410Y-154449819D02*
X215787029Y-154402200D01*
X215787029Y-154402200D02*
X215739410Y-154354580D01*
X215739410Y-154354580D02*
X215739410Y-154449819D01*
X215072744Y-153449819D02*
X214977506Y-153449819D01*
X214977506Y-153449819D02*
X214882268Y-153497438D01*
X214882268Y-153497438D02*
X214834649Y-153545057D01*
X214834649Y-153545057D02*
X214787030Y-153640295D01*
X214787030Y-153640295D02*
X214739411Y-153830771D01*
X214739411Y-153830771D02*
X214739411Y-154068866D01*
X214739411Y-154068866D02*
X214787030Y-154259342D01*
X214787030Y-154259342D02*
X214834649Y-154354580D01*
X214834649Y-154354580D02*
X214882268Y-154402200D01*
X214882268Y-154402200D02*
X214977506Y-154449819D01*
X214977506Y-154449819D02*
X215072744Y-154449819D01*
X215072744Y-154449819D02*
X215167982Y-154402200D01*
X215167982Y-154402200D02*
X215215601Y-154354580D01*
X215215601Y-154354580D02*
X215263220Y-154259342D01*
X215263220Y-154259342D02*
X215310839Y-154068866D01*
X215310839Y-154068866D02*
X215310839Y-153830771D01*
X215310839Y-153830771D02*
X215263220Y-153640295D01*
X215263220Y-153640295D02*
X215215601Y-153545057D01*
X215215601Y-153545057D02*
X215167982Y-153497438D01*
X215167982Y-153497438D02*
X215072744Y-153449819D01*
X213548934Y-154068866D02*
X212787030Y-154068866D01*
X212310839Y-154068866D02*
X211548935Y-154068866D01*
X211072744Y-154068866D02*
X210310840Y-154068866D01*
X209025125Y-154449819D02*
X208834649Y-154449819D01*
X208834649Y-154449819D02*
X208739411Y-154402200D01*
X208739411Y-154402200D02*
X208691792Y-154354580D01*
X208691792Y-154354580D02*
X208596554Y-154211723D01*
X208596554Y-154211723D02*
X208548935Y-154021247D01*
X208548935Y-154021247D02*
X208548935Y-153640295D01*
X208548935Y-153640295D02*
X208596554Y-153545057D01*
X208596554Y-153545057D02*
X208644173Y-153497438D01*
X208644173Y-153497438D02*
X208739411Y-153449819D01*
X208739411Y-153449819D02*
X208929887Y-153449819D01*
X208929887Y-153449819D02*
X209025125Y-153497438D01*
X209025125Y-153497438D02*
X209072744Y-153545057D01*
X209072744Y-153545057D02*
X209120363Y-153640295D01*
X209120363Y-153640295D02*
X209120363Y-153878390D01*
X209120363Y-153878390D02*
X209072744Y-153973628D01*
X209072744Y-153973628D02*
X209025125Y-154021247D01*
X209025125Y-154021247D02*
X208929887Y-154068866D01*
X208929887Y-154068866D02*
X208739411Y-154068866D01*
X208739411Y-154068866D02*
X208644173Y-154021247D01*
X208644173Y-154021247D02*
X208596554Y-153973628D01*
X208596554Y-153973628D02*
X208548935Y-153878390D01*
X207406078Y-153402200D02*
X208263220Y-154687914D01*
X207120363Y-153545057D02*
X207072744Y-153497438D01*
X207072744Y-153497438D02*
X206977506Y-153449819D01*
X206977506Y-153449819D02*
X206739411Y-153449819D01*
X206739411Y-153449819D02*
X206644173Y-153497438D01*
X206644173Y-153497438D02*
X206596554Y-153545057D01*
X206596554Y-153545057D02*
X206548935Y-153640295D01*
X206548935Y-153640295D02*
X206548935Y-153735533D01*
X206548935Y-153735533D02*
X206596554Y-153878390D01*
X206596554Y-153878390D02*
X207167982Y-154449819D01*
X207167982Y-154449819D02*
X206548935Y-154449819D01*
X205691792Y-153449819D02*
X205882268Y-153449819D01*
X205882268Y-153449819D02*
X205977506Y-153497438D01*
X205977506Y-153497438D02*
X206025125Y-153545057D01*
X206025125Y-153545057D02*
X206120363Y-153687914D01*
X206120363Y-153687914D02*
X206167982Y-153878390D01*
X206167982Y-153878390D02*
X206167982Y-154259342D01*
X206167982Y-154259342D02*
X206120363Y-154354580D01*
X206120363Y-154354580D02*
X206072744Y-154402200D01*
X206072744Y-154402200D02*
X205977506Y-154449819D01*
X205977506Y-154449819D02*
X205787030Y-154449819D01*
X205787030Y-154449819D02*
X205691792Y-154402200D01*
X205691792Y-154402200D02*
X205644173Y-154354580D01*
X205644173Y-154354580D02*
X205596554Y-154259342D01*
X205596554Y-154259342D02*
X205596554Y-154021247D01*
X205596554Y-154021247D02*
X205644173Y-153926009D01*
X205644173Y-153926009D02*
X205691792Y-153878390D01*
X205691792Y-153878390D02*
X205787030Y-153830771D01*
X205787030Y-153830771D02*
X205977506Y-153830771D01*
X205977506Y-153830771D02*
X206072744Y-153878390D01*
X206072744Y-153878390D02*
X206120363Y-153926009D01*
X206120363Y-153926009D02*
X206167982Y-154021247D01*
X204453697Y-153402200D02*
X205310839Y-154687914D01*
X204167982Y-153545057D02*
X204120363Y-153497438D01*
X204120363Y-153497438D02*
X204025125Y-153449819D01*
X204025125Y-153449819D02*
X203787030Y-153449819D01*
X203787030Y-153449819D02*
X203691792Y-153497438D01*
X203691792Y-153497438D02*
X203644173Y-153545057D01*
X203644173Y-153545057D02*
X203596554Y-153640295D01*
X203596554Y-153640295D02*
X203596554Y-153735533D01*
X203596554Y-153735533D02*
X203644173Y-153878390D01*
X203644173Y-153878390D02*
X204215601Y-154449819D01*
X204215601Y-154449819D02*
X203596554Y-154449819D01*
X202977506Y-153449819D02*
X202882268Y-153449819D01*
X202882268Y-153449819D02*
X202787030Y-153497438D01*
X202787030Y-153497438D02*
X202739411Y-153545057D01*
X202739411Y-153545057D02*
X202691792Y-153640295D01*
X202691792Y-153640295D02*
X202644173Y-153830771D01*
X202644173Y-153830771D02*
X202644173Y-154068866D01*
X202644173Y-154068866D02*
X202691792Y-154259342D01*
X202691792Y-154259342D02*
X202739411Y-154354580D01*
X202739411Y-154354580D02*
X202787030Y-154402200D01*
X202787030Y-154402200D02*
X202882268Y-154449819D01*
X202882268Y-154449819D02*
X202977506Y-154449819D01*
X202977506Y-154449819D02*
X203072744Y-154402200D01*
X203072744Y-154402200D02*
X203120363Y-154354580D01*
X203120363Y-154354580D02*
X203167982Y-154259342D01*
X203167982Y-154259342D02*
X203215601Y-154068866D01*
X203215601Y-154068866D02*
X203215601Y-153830771D01*
X203215601Y-153830771D02*
X203167982Y-153640295D01*
X203167982Y-153640295D02*
X203120363Y-153545057D01*
X203120363Y-153545057D02*
X203072744Y-153497438D01*
X203072744Y-153497438D02*
X202977506Y-153449819D01*
X202263220Y-153545057D02*
X202215601Y-153497438D01*
X202215601Y-153497438D02*
X202120363Y-153449819D01*
X202120363Y-153449819D02*
X201882268Y-153449819D01*
X201882268Y-153449819D02*
X201787030Y-153497438D01*
X201787030Y-153497438D02*
X201739411Y-153545057D01*
X201739411Y-153545057D02*
X201691792Y-153640295D01*
X201691792Y-153640295D02*
X201691792Y-153735533D01*
X201691792Y-153735533D02*
X201739411Y-153878390D01*
X201739411Y-153878390D02*
X202310839Y-154449819D01*
X202310839Y-154449819D02*
X201691792Y-154449819D01*
X200834649Y-153783152D02*
X200834649Y-154449819D01*
X201072744Y-153402200D02*
X201310839Y-154116485D01*
X201310839Y-154116485D02*
X200691792Y-154116485D01*
X220263220Y-156059819D02*
X220263220Y-155059819D01*
X220263220Y-155059819D02*
X219929887Y-155774104D01*
X219929887Y-155774104D02*
X219596554Y-155059819D01*
X219596554Y-155059819D02*
X219596554Y-156059819D01*
X218691792Y-156059819D02*
X218691792Y-155536009D01*
X218691792Y-155536009D02*
X218739411Y-155440771D01*
X218739411Y-155440771D02*
X218834649Y-155393152D01*
X218834649Y-155393152D02*
X219025125Y-155393152D01*
X219025125Y-155393152D02*
X219120363Y-155440771D01*
X218691792Y-156012200D02*
X218787030Y-156059819D01*
X218787030Y-156059819D02*
X219025125Y-156059819D01*
X219025125Y-156059819D02*
X219120363Y-156012200D01*
X219120363Y-156012200D02*
X219167982Y-155916961D01*
X219167982Y-155916961D02*
X219167982Y-155821723D01*
X219167982Y-155821723D02*
X219120363Y-155726485D01*
X219120363Y-155726485D02*
X219025125Y-155678866D01*
X219025125Y-155678866D02*
X218787030Y-155678866D01*
X218787030Y-155678866D02*
X218691792Y-155631247D01*
X218358458Y-155393152D02*
X217977506Y-155393152D01*
X218215601Y-155059819D02*
X218215601Y-155916961D01*
X218215601Y-155916961D02*
X218167982Y-156012200D01*
X218167982Y-156012200D02*
X218072744Y-156059819D01*
X218072744Y-156059819D02*
X217977506Y-156059819D01*
X217787029Y-155393152D02*
X217406077Y-155393152D01*
X217644172Y-155059819D02*
X217644172Y-155916961D01*
X217644172Y-155916961D02*
X217596553Y-156012200D01*
X217596553Y-156012200D02*
X217501315Y-156059819D01*
X217501315Y-156059819D02*
X217406077Y-156059819D01*
X217072743Y-156059819D02*
X217072743Y-155059819D01*
X216644172Y-156059819D02*
X216644172Y-155536009D01*
X216644172Y-155536009D02*
X216691791Y-155440771D01*
X216691791Y-155440771D02*
X216787029Y-155393152D01*
X216787029Y-155393152D02*
X216929886Y-155393152D01*
X216929886Y-155393152D02*
X217025124Y-155440771D01*
X217025124Y-155440771D02*
X217072743Y-155488390D01*
X215787029Y-156012200D02*
X215882267Y-156059819D01*
X215882267Y-156059819D02*
X216072743Y-156059819D01*
X216072743Y-156059819D02*
X216167981Y-156012200D01*
X216167981Y-156012200D02*
X216215600Y-155916961D01*
X216215600Y-155916961D02*
X216215600Y-155536009D01*
X216215600Y-155536009D02*
X216167981Y-155440771D01*
X216167981Y-155440771D02*
X216072743Y-155393152D01*
X216072743Y-155393152D02*
X215882267Y-155393152D01*
X215882267Y-155393152D02*
X215787029Y-155440771D01*
X215787029Y-155440771D02*
X215739410Y-155536009D01*
X215739410Y-155536009D02*
X215739410Y-155631247D01*
X215739410Y-155631247D02*
X216215600Y-155726485D01*
X215406076Y-155393152D02*
X215215600Y-156059819D01*
X215215600Y-156059819D02*
X215025124Y-155583628D01*
X215025124Y-155583628D02*
X214834648Y-156059819D01*
X214834648Y-156059819D02*
X214644172Y-155393152D01*
X213548933Y-156012200D02*
X213406076Y-156059819D01*
X213406076Y-156059819D02*
X213167981Y-156059819D01*
X213167981Y-156059819D02*
X213072743Y-156012200D01*
X213072743Y-156012200D02*
X213025124Y-155964580D01*
X213025124Y-155964580D02*
X212977505Y-155869342D01*
X212977505Y-155869342D02*
X212977505Y-155774104D01*
X212977505Y-155774104D02*
X213025124Y-155678866D01*
X213025124Y-155678866D02*
X213072743Y-155631247D01*
X213072743Y-155631247D02*
X213167981Y-155583628D01*
X213167981Y-155583628D02*
X213358457Y-155536009D01*
X213358457Y-155536009D02*
X213453695Y-155488390D01*
X213453695Y-155488390D02*
X213501314Y-155440771D01*
X213501314Y-155440771D02*
X213548933Y-155345533D01*
X213548933Y-155345533D02*
X213548933Y-155250295D01*
X213548933Y-155250295D02*
X213501314Y-155155057D01*
X213501314Y-155155057D02*
X213453695Y-155107438D01*
X213453695Y-155107438D02*
X213358457Y-155059819D01*
X213358457Y-155059819D02*
X213120362Y-155059819D01*
X213120362Y-155059819D02*
X212977505Y-155107438D01*
X212120362Y-156059819D02*
X212120362Y-155536009D01*
X212120362Y-155536009D02*
X212167981Y-155440771D01*
X212167981Y-155440771D02*
X212263219Y-155393152D01*
X212263219Y-155393152D02*
X212453695Y-155393152D01*
X212453695Y-155393152D02*
X212548933Y-155440771D01*
X212120362Y-156012200D02*
X212215600Y-156059819D01*
X212215600Y-156059819D02*
X212453695Y-156059819D01*
X212453695Y-156059819D02*
X212548933Y-156012200D01*
X212548933Y-156012200D02*
X212596552Y-155916961D01*
X212596552Y-155916961D02*
X212596552Y-155821723D01*
X212596552Y-155821723D02*
X212548933Y-155726485D01*
X212548933Y-155726485D02*
X212453695Y-155678866D01*
X212453695Y-155678866D02*
X212215600Y-155678866D01*
X212215600Y-155678866D02*
X212120362Y-155631247D01*
X211787028Y-155393152D02*
X211406076Y-155393152D01*
X211644171Y-155059819D02*
X211644171Y-155916961D01*
X211644171Y-155916961D02*
X211596552Y-156012200D01*
X211596552Y-156012200D02*
X211501314Y-156059819D01*
X211501314Y-156059819D02*
X211406076Y-156059819D01*
X210929885Y-156059819D02*
X211025123Y-156012200D01*
X211025123Y-156012200D02*
X211072742Y-155964580D01*
X211072742Y-155964580D02*
X211120361Y-155869342D01*
X211120361Y-155869342D02*
X211120361Y-155583628D01*
X211120361Y-155583628D02*
X211072742Y-155488390D01*
X211072742Y-155488390D02*
X211025123Y-155440771D01*
X211025123Y-155440771D02*
X210929885Y-155393152D01*
X210929885Y-155393152D02*
X210787028Y-155393152D01*
X210787028Y-155393152D02*
X210691790Y-155440771D01*
X210691790Y-155440771D02*
X210644171Y-155488390D01*
X210644171Y-155488390D02*
X210596552Y-155583628D01*
X210596552Y-155583628D02*
X210596552Y-155869342D01*
X210596552Y-155869342D02*
X210644171Y-155964580D01*
X210644171Y-155964580D02*
X210691790Y-156012200D01*
X210691790Y-156012200D02*
X210787028Y-156059819D01*
X210787028Y-156059819D02*
X210929885Y-156059819D01*
X220263220Y-157146009D02*
X219929887Y-157146009D01*
X219787030Y-157669819D02*
X220263220Y-157669819D01*
X220263220Y-157669819D02*
X220263220Y-156669819D01*
X220263220Y-156669819D02*
X219787030Y-156669819D01*
X219358458Y-157003152D02*
X219358458Y-157669819D01*
X219358458Y-157098390D02*
X219310839Y-157050771D01*
X219310839Y-157050771D02*
X219215601Y-157003152D01*
X219215601Y-157003152D02*
X219072744Y-157003152D01*
X219072744Y-157003152D02*
X218977506Y-157050771D01*
X218977506Y-157050771D02*
X218929887Y-157146009D01*
X218929887Y-157146009D02*
X218929887Y-157669819D01*
X218025125Y-157003152D02*
X218025125Y-157812676D01*
X218025125Y-157812676D02*
X218072744Y-157907914D01*
X218072744Y-157907914D02*
X218120363Y-157955533D01*
X218120363Y-157955533D02*
X218215601Y-158003152D01*
X218215601Y-158003152D02*
X218358458Y-158003152D01*
X218358458Y-158003152D02*
X218453696Y-157955533D01*
X218025125Y-157622200D02*
X218120363Y-157669819D01*
X218120363Y-157669819D02*
X218310839Y-157669819D01*
X218310839Y-157669819D02*
X218406077Y-157622200D01*
X218406077Y-157622200D02*
X218453696Y-157574580D01*
X218453696Y-157574580D02*
X218501315Y-157479342D01*
X218501315Y-157479342D02*
X218501315Y-157193628D01*
X218501315Y-157193628D02*
X218453696Y-157098390D01*
X218453696Y-157098390D02*
X218406077Y-157050771D01*
X218406077Y-157050771D02*
X218310839Y-157003152D01*
X218310839Y-157003152D02*
X218120363Y-157003152D01*
X218120363Y-157003152D02*
X218025125Y-157050771D01*
X217548934Y-157669819D02*
X217548934Y-157003152D01*
X217548934Y-156669819D02*
X217596553Y-156717438D01*
X217596553Y-156717438D02*
X217548934Y-156765057D01*
X217548934Y-156765057D02*
X217501315Y-156717438D01*
X217501315Y-156717438D02*
X217548934Y-156669819D01*
X217548934Y-156669819D02*
X217548934Y-156765057D01*
X217072744Y-157003152D02*
X217072744Y-157669819D01*
X217072744Y-157098390D02*
X217025125Y-157050771D01*
X217025125Y-157050771D02*
X216929887Y-157003152D01*
X216929887Y-157003152D02*
X216787030Y-157003152D01*
X216787030Y-157003152D02*
X216691792Y-157050771D01*
X216691792Y-157050771D02*
X216644173Y-157146009D01*
X216644173Y-157146009D02*
X216644173Y-157669819D01*
X215787030Y-157622200D02*
X215882268Y-157669819D01*
X215882268Y-157669819D02*
X216072744Y-157669819D01*
X216072744Y-157669819D02*
X216167982Y-157622200D01*
X216167982Y-157622200D02*
X216215601Y-157526961D01*
X216215601Y-157526961D02*
X216215601Y-157146009D01*
X216215601Y-157146009D02*
X216167982Y-157050771D01*
X216167982Y-157050771D02*
X216072744Y-157003152D01*
X216072744Y-157003152D02*
X215882268Y-157003152D01*
X215882268Y-157003152D02*
X215787030Y-157050771D01*
X215787030Y-157050771D02*
X215739411Y-157146009D01*
X215739411Y-157146009D02*
X215739411Y-157241247D01*
X215739411Y-157241247D02*
X216215601Y-157336485D01*
X214929887Y-157622200D02*
X215025125Y-157669819D01*
X215025125Y-157669819D02*
X215215601Y-157669819D01*
X215215601Y-157669819D02*
X215310839Y-157622200D01*
X215310839Y-157622200D02*
X215358458Y-157526961D01*
X215358458Y-157526961D02*
X215358458Y-157146009D01*
X215358458Y-157146009D02*
X215310839Y-157050771D01*
X215310839Y-157050771D02*
X215215601Y-157003152D01*
X215215601Y-157003152D02*
X215025125Y-157003152D01*
X215025125Y-157003152D02*
X214929887Y-157050771D01*
X214929887Y-157050771D02*
X214882268Y-157146009D01*
X214882268Y-157146009D02*
X214882268Y-157241247D01*
X214882268Y-157241247D02*
X215358458Y-157336485D01*
X214453696Y-157669819D02*
X214453696Y-157003152D01*
X214453696Y-157193628D02*
X214406077Y-157098390D01*
X214406077Y-157098390D02*
X214358458Y-157050771D01*
X214358458Y-157050771D02*
X214263220Y-157003152D01*
X214263220Y-157003152D02*
X214167982Y-157003152D01*
X213834648Y-157669819D02*
X213834648Y-157003152D01*
X213834648Y-156669819D02*
X213882267Y-156717438D01*
X213882267Y-156717438D02*
X213834648Y-156765057D01*
X213834648Y-156765057D02*
X213787029Y-156717438D01*
X213787029Y-156717438D02*
X213834648Y-156669819D01*
X213834648Y-156669819D02*
X213834648Y-156765057D01*
X213358458Y-157003152D02*
X213358458Y-157669819D01*
X213358458Y-157098390D02*
X213310839Y-157050771D01*
X213310839Y-157050771D02*
X213215601Y-157003152D01*
X213215601Y-157003152D02*
X213072744Y-157003152D01*
X213072744Y-157003152D02*
X212977506Y-157050771D01*
X212977506Y-157050771D02*
X212929887Y-157146009D01*
X212929887Y-157146009D02*
X212929887Y-157669819D01*
X212025125Y-157003152D02*
X212025125Y-157812676D01*
X212025125Y-157812676D02*
X212072744Y-157907914D01*
X212072744Y-157907914D02*
X212120363Y-157955533D01*
X212120363Y-157955533D02*
X212215601Y-158003152D01*
X212215601Y-158003152D02*
X212358458Y-158003152D01*
X212358458Y-158003152D02*
X212453696Y-157955533D01*
X212025125Y-157622200D02*
X212120363Y-157669819D01*
X212120363Y-157669819D02*
X212310839Y-157669819D01*
X212310839Y-157669819D02*
X212406077Y-157622200D01*
X212406077Y-157622200D02*
X212453696Y-157574580D01*
X212453696Y-157574580D02*
X212501315Y-157479342D01*
X212501315Y-157479342D02*
X212501315Y-157193628D01*
X212501315Y-157193628D02*
X212453696Y-157098390D01*
X212453696Y-157098390D02*
X212406077Y-157050771D01*
X212406077Y-157050771D02*
X212310839Y-157003152D01*
X212310839Y-157003152D02*
X212120363Y-157003152D01*
X212120363Y-157003152D02*
X212025125Y-157050771D01*
X210787029Y-157669819D02*
X210787029Y-156669819D01*
X210310839Y-157003152D02*
X210310839Y-157669819D01*
X210310839Y-157098390D02*
X210263220Y-157050771D01*
X210263220Y-157050771D02*
X210167982Y-157003152D01*
X210167982Y-157003152D02*
X210025125Y-157003152D01*
X210025125Y-157003152D02*
X209929887Y-157050771D01*
X209929887Y-157050771D02*
X209882268Y-157146009D01*
X209882268Y-157146009D02*
X209882268Y-157669819D01*
X209548934Y-157003152D02*
X209167982Y-157003152D01*
X209406077Y-157669819D02*
X209406077Y-156812676D01*
X209406077Y-156812676D02*
X209358458Y-156717438D01*
X209358458Y-156717438D02*
X209263220Y-156669819D01*
X209263220Y-156669819D02*
X209167982Y-156669819D01*
X208691791Y-157669819D02*
X208787029Y-157622200D01*
X208787029Y-157622200D02*
X208834648Y-157574580D01*
X208834648Y-157574580D02*
X208882267Y-157479342D01*
X208882267Y-157479342D02*
X208882267Y-157193628D01*
X208882267Y-157193628D02*
X208834648Y-157098390D01*
X208834648Y-157098390D02*
X208787029Y-157050771D01*
X208787029Y-157050771D02*
X208691791Y-157003152D01*
X208691791Y-157003152D02*
X208548934Y-157003152D01*
X208548934Y-157003152D02*
X208453696Y-157050771D01*
X208453696Y-157050771D02*
X208406077Y-157098390D01*
X208406077Y-157098390D02*
X208358458Y-157193628D01*
X208358458Y-157193628D02*
X208358458Y-157479342D01*
X208358458Y-157479342D02*
X208406077Y-157574580D01*
X208406077Y-157574580D02*
X208453696Y-157622200D01*
X208453696Y-157622200D02*
X208548934Y-157669819D01*
X208548934Y-157669819D02*
X208691791Y-157669819D01*
X207929886Y-157669819D02*
X207929886Y-157003152D01*
X207929886Y-157193628D02*
X207882267Y-157098390D01*
X207882267Y-157098390D02*
X207834648Y-157050771D01*
X207834648Y-157050771D02*
X207739410Y-157003152D01*
X207739410Y-157003152D02*
X207644172Y-157003152D01*
X207310838Y-157669819D02*
X207310838Y-157003152D01*
X207310838Y-157098390D02*
X207263219Y-157050771D01*
X207263219Y-157050771D02*
X207167981Y-157003152D01*
X207167981Y-157003152D02*
X207025124Y-157003152D01*
X207025124Y-157003152D02*
X206929886Y-157050771D01*
X206929886Y-157050771D02*
X206882267Y-157146009D01*
X206882267Y-157146009D02*
X206882267Y-157669819D01*
X206882267Y-157146009D02*
X206834648Y-157050771D01*
X206834648Y-157050771D02*
X206739410Y-157003152D01*
X206739410Y-157003152D02*
X206596553Y-157003152D01*
X206596553Y-157003152D02*
X206501314Y-157050771D01*
X206501314Y-157050771D02*
X206453695Y-157146009D01*
X206453695Y-157146009D02*
X206453695Y-157669819D01*
X205548934Y-157669819D02*
X205548934Y-157146009D01*
X205548934Y-157146009D02*
X205596553Y-157050771D01*
X205596553Y-157050771D02*
X205691791Y-157003152D01*
X205691791Y-157003152D02*
X205882267Y-157003152D01*
X205882267Y-157003152D02*
X205977505Y-157050771D01*
X205548934Y-157622200D02*
X205644172Y-157669819D01*
X205644172Y-157669819D02*
X205882267Y-157669819D01*
X205882267Y-157669819D02*
X205977505Y-157622200D01*
X205977505Y-157622200D02*
X206025124Y-157526961D01*
X206025124Y-157526961D02*
X206025124Y-157431723D01*
X206025124Y-157431723D02*
X205977505Y-157336485D01*
X205977505Y-157336485D02*
X205882267Y-157288866D01*
X205882267Y-157288866D02*
X205644172Y-157288866D01*
X205644172Y-157288866D02*
X205548934Y-157241247D01*
X205215600Y-157003152D02*
X204834648Y-157003152D01*
X205072743Y-156669819D02*
X205072743Y-157526961D01*
X205072743Y-157526961D02*
X205025124Y-157622200D01*
X205025124Y-157622200D02*
X204929886Y-157669819D01*
X204929886Y-157669819D02*
X204834648Y-157669819D01*
X204501314Y-157669819D02*
X204501314Y-157003152D01*
X204501314Y-156669819D02*
X204548933Y-156717438D01*
X204548933Y-156717438D02*
X204501314Y-156765057D01*
X204501314Y-156765057D02*
X204453695Y-156717438D01*
X204453695Y-156717438D02*
X204501314Y-156669819D01*
X204501314Y-156669819D02*
X204501314Y-156765057D01*
X203596553Y-157622200D02*
X203691791Y-157669819D01*
X203691791Y-157669819D02*
X203882267Y-157669819D01*
X203882267Y-157669819D02*
X203977505Y-157622200D01*
X203977505Y-157622200D02*
X204025124Y-157574580D01*
X204025124Y-157574580D02*
X204072743Y-157479342D01*
X204072743Y-157479342D02*
X204072743Y-157193628D01*
X204072743Y-157193628D02*
X204025124Y-157098390D01*
X204025124Y-157098390D02*
X203977505Y-157050771D01*
X203977505Y-157050771D02*
X203882267Y-157003152D01*
X203882267Y-157003152D02*
X203691791Y-157003152D01*
X203691791Y-157003152D02*
X203596553Y-157050771D01*
X203215600Y-157622200D02*
X203120362Y-157669819D01*
X203120362Y-157669819D02*
X202929886Y-157669819D01*
X202929886Y-157669819D02*
X202834648Y-157622200D01*
X202834648Y-157622200D02*
X202787029Y-157526961D01*
X202787029Y-157526961D02*
X202787029Y-157479342D01*
X202787029Y-157479342D02*
X202834648Y-157384104D01*
X202834648Y-157384104D02*
X202929886Y-157336485D01*
X202929886Y-157336485D02*
X203072743Y-157336485D01*
X203072743Y-157336485D02*
X203167981Y-157288866D01*
X203167981Y-157288866D02*
X203215600Y-157193628D01*
X203215600Y-157193628D02*
X203215600Y-157146009D01*
X203215600Y-157146009D02*
X203167981Y-157050771D01*
X203167981Y-157050771D02*
X203072743Y-157003152D01*
X203072743Y-157003152D02*
X202929886Y-157003152D01*
X202929886Y-157003152D02*
X202834648Y-157050771D01*
X201072743Y-156717438D02*
X201167981Y-156669819D01*
X201167981Y-156669819D02*
X201310838Y-156669819D01*
X201310838Y-156669819D02*
X201453695Y-156717438D01*
X201453695Y-156717438D02*
X201548933Y-156812676D01*
X201548933Y-156812676D02*
X201596552Y-156907914D01*
X201596552Y-156907914D02*
X201644171Y-157098390D01*
X201644171Y-157098390D02*
X201644171Y-157241247D01*
X201644171Y-157241247D02*
X201596552Y-157431723D01*
X201596552Y-157431723D02*
X201548933Y-157526961D01*
X201548933Y-157526961D02*
X201453695Y-157622200D01*
X201453695Y-157622200D02*
X201310838Y-157669819D01*
X201310838Y-157669819D02*
X201215600Y-157669819D01*
X201215600Y-157669819D02*
X201072743Y-157622200D01*
X201072743Y-157622200D02*
X201025124Y-157574580D01*
X201025124Y-157574580D02*
X201025124Y-157241247D01*
X201025124Y-157241247D02*
X201215600Y-157241247D01*
X200596552Y-157669819D02*
X200596552Y-157003152D01*
X200596552Y-157193628D02*
X200548933Y-157098390D01*
X200548933Y-157098390D02*
X200501314Y-157050771D01*
X200501314Y-157050771D02*
X200406076Y-157003152D01*
X200406076Y-157003152D02*
X200310838Y-157003152D01*
X199834647Y-157669819D02*
X199929885Y-157622200D01*
X199929885Y-157622200D02*
X199977504Y-157574580D01*
X199977504Y-157574580D02*
X200025123Y-157479342D01*
X200025123Y-157479342D02*
X200025123Y-157193628D01*
X200025123Y-157193628D02*
X199977504Y-157098390D01*
X199977504Y-157098390D02*
X199929885Y-157050771D01*
X199929885Y-157050771D02*
X199834647Y-157003152D01*
X199834647Y-157003152D02*
X199691790Y-157003152D01*
X199691790Y-157003152D02*
X199596552Y-157050771D01*
X199596552Y-157050771D02*
X199548933Y-157098390D01*
X199548933Y-157098390D02*
X199501314Y-157193628D01*
X199501314Y-157193628D02*
X199501314Y-157479342D01*
X199501314Y-157479342D02*
X199548933Y-157574580D01*
X199548933Y-157574580D02*
X199596552Y-157622200D01*
X199596552Y-157622200D02*
X199691790Y-157669819D01*
X199691790Y-157669819D02*
X199834647Y-157669819D01*
X198644171Y-157003152D02*
X198644171Y-157669819D01*
X199072742Y-157003152D02*
X199072742Y-157526961D01*
X199072742Y-157526961D02*
X199025123Y-157622200D01*
X199025123Y-157622200D02*
X198929885Y-157669819D01*
X198929885Y-157669819D02*
X198787028Y-157669819D01*
X198787028Y-157669819D02*
X198691790Y-157622200D01*
X198691790Y-157622200D02*
X198644171Y-157574580D01*
X198167980Y-157003152D02*
X198167980Y-158003152D01*
X198167980Y-157050771D02*
X198072742Y-157003152D01*
X198072742Y-157003152D02*
X197882266Y-157003152D01*
X197882266Y-157003152D02*
X197787028Y-157050771D01*
X197787028Y-157050771D02*
X197739409Y-157098390D01*
X197739409Y-157098390D02*
X197691790Y-157193628D01*
X197691790Y-157193628D02*
X197691790Y-157479342D01*
X197691790Y-157479342D02*
X197739409Y-157574580D01*
X197739409Y-157574580D02*
X197787028Y-157622200D01*
X197787028Y-157622200D02*
X197882266Y-157669819D01*
X197882266Y-157669819D02*
X198072742Y-157669819D01*
X198072742Y-157669819D02*
X198167980Y-157622200D01*
D11*
%TO.C,SW1*%
X193526998Y-142119999D02*
G75*
G03*
X193526998Y-142119999I-127000J0D01*
G01*
%TD*%
M02*
